<svg xmlns="http://www.w3.org/2000/svg" data-name="Layer 1" width="417.08826" height="612.5927" viewBox="0 0 417.08826 612.5927" xmlns:xlink="http://www.w3.org/1999/xlink"><path d="M679.77585,263.149l.417-2.9707c-14.99463-2.105-25.22363-11.91162-30.40235-29.14648a94.712,94.712,0,0,1-3.54931-21.33936l-2.99414.18262a97.67489,97.67489,0,0,0,3.67041,22.02C652.46335,250.3516,663.51852,260.86674,679.77585,263.149Z" transform="translate(-391.45587 -143.70365)" fill="#3f3d56"/><polygon points="279.347 544.911 294.754 537.806 274.683 474.995 251.943 485.481 279.347 544.911" fill="#ffb6b6"/><path d="M677.67117,704.93833l47.38073-21.84721-.27624-.59915a20.30909,20.30909,0,0,0-26.94493-9.9391l-.00114.00052-11.68208-2.57563-13.12028,14.0121-4.13607,1.90706Z" transform="translate(-391.45587 -143.70365)" fill="#2f2e41"/><polygon points="86.299 579.044 102.453 584.23 130.15 524.389 106.307 516.734 86.299 579.044" fill="#ffb6b6"/><path d="M471.77356,739.41648,521.45,755.36908l.20174-.62816a20.30908,20.30908,0,0,0-13.12538-25.54486l-.00119-.00038-6.863-9.79818L482.521,720.84507l-4.33642-1.39263Z" transform="translate(-391.45587 -143.70365)" fill="#2f2e41"/><path d="M445.71475,738.96339a2.26934,2.26934,0,0,1-1.64469-3.93332l.1555-.6182q-.03071-.07427-.06179-.14839a6.09416,6.09416,0,0,0-11.24138.04177c-1.83859,4.42817-4.17942,8.86389-4.7558,13.54594a18.02893,18.02893,0,0,0,.31649,6.20047,72.28153,72.28153,0,0,1-6.57515-30.02077,69.76633,69.76633,0,0,1,.43274-7.783q.3585-3.17779.99471-6.31033A73.11887,73.11887,0,0,1,437.8355,678.948a19.459,19.459,0,0,0,8.09295-8.39652,14.84349,14.84349,0,0,0,1.34991-4.05618c-.394.05168-1.48556-5.94866-1.1884-6.3168-.54906-.83317-1.53178-1.24732-2.13144-2.06034-2.98232-4.0434-7.0912-3.33741-9.2362,2.15727-4.58224,2.31266-4.6266,6.14806-1.815,9.83683,1.78878,2.34681,2.03456,5.52232,3.60409,8.03478-.16151.20671-.32945.407-.4909.61366a73.59114,73.59114,0,0,0-7.681,12.16859,30.59255,30.59255,0,0,0-1.82641-14.20958c-1.74819-4.21732-5.02491-7.76915-7.91045-11.415a6.27922,6.27922,0,0,0-11.184,3.08333q-.00886.08063-.01731.16119.6429.36268,1.25864.76992a3.0782,3.0782,0,0,1-1.24107,5.60174l-.06277.00968a30.62792,30.62792,0,0,0,.80734,4.57937c-3.70179,14.31579,4.29012,19.5299,15.70148,19.76413.2519.12916.49738.25832.74928.38108a75.11479,75.11479,0,0,0-4.04326,19.02779,71.24344,71.24344,0,0,0,.05168,11.50323l-.01939-.13562a18.82566,18.82566,0,0,0-6.4266-10.87028c-4.94561-4.06263-11.93283-5.55869-17.26826-8.82425a3.533,3.533,0,0,0-5.41121,3.43708l.02182.14261a20.67541,20.67541,0,0,1,2.31871,1.11733q.64288.36276,1.25864.76992a3.07824,3.07824,0,0,1-1.24108,5.6018l-.06282.00964c-.04519.00646-.084.013-.12911.01944a30.65462,30.65462,0,0,0,5.63854,8.82922c2.31464,12.49713,12.256,13.68283,22.89023,10.04354h.00648a75.09193,75.09193,0,0,0,5.0444,14.72621h18.02018c.06464-.20022.12274-.40693.1809-.60717a20.47486,20.47486,0,0,1-4.9863-.297c1.337-1.64059,2.674-3.29409,4.011-4.93462a1.119,1.119,0,0,0,.084-.09689c.67817-.8396,1.36282-1.67283,2.041-2.51246l.00037-.001a29.99039,29.99039,0,0,0-.87876-7.63984Z" transform="translate(-391.45587 -143.70365)" fill="#f2f2f2"/><path d="M647.2661,755.10635a1.18647,1.18647,0,0,1-1.19007,1.19h-253.29a1.19,1.19,0,1,1,0-2.38h253.29A1.18651,1.18651,0,0,1,647.2661,755.10635Z" transform="translate(-391.45587 -143.70365)" fill="#ccc"/><path d="M780.31,393.28178l1.44824-2.627c-71.93653-39.66211-104.67139-66.39355-103.019-84.12451,1.34375-14.41455,26.354-22.64746,52.8335-31.36426,31.87842-10.49414,68.01074-22.38818,75.53858-48.46777,5.02246-17.39892-3.1294-38.67236-24.9209-65.03662l-2.3125,1.91113c21.11279,25.54248,29.07812,45.91895,24.35107,62.29346-7.08887,24.55762-42.42139,36.18848-73.59424,46.4502-28.63037,9.4248-53.35644,17.56445-54.88232,33.93554C673.95114,325.57914,706.19772,352.42,780.31,393.28178Z" transform="translate(-391.45587 -143.70365)" fill="#3f3d56"/><path d="M653.03415,655.70365l24-8-26.37891-116.1203-73.75575-73.92279L535.90614,437.6h-65.2398s-22.11059,23.51188-16.81215,37.04971c1.60987,4.1133,4.227,30.72844,10.20349,33.3912s-1.64966,7.90114,2.6634,9.28195,1.96338,6.89155,2.9607,10.41329c9.59209,33.87166,30.35237,72.96751,30.35237,72.96751l-8,74,29,18,18.85869-93.94093-10.87845-94.79791s53.53612,26.13087,52.27794,31.93486,9.8353,1.54416,9.28856,5.67407,8.96723,5.47779,8.96723,5.47779l8.58227,5.24262Z" transform="translate(-391.45587 -143.70365)" fill="#2f2e41"/><path d="M649.08981,216.40515a10.29984,10.29984,0,0,1-13.34384,8.24654L602.08,263.40875l-13.00963-6.6763,40.32218-45.74a10.28539,10.28539,0,0,1,19.69727,5.4127Z" transform="translate(-391.45587 -143.70365)" fill="#ffb6b6"/><path d="M472.20346,312.40077l6.79066,25.82869a8.93653,8.93653,0,0,0,11.73468,6.11235l74.22062-27.36908,63.08473-80.26908L612.9298,226.04477l-62.42294,56.81944C532.98813,278.98435,501.14761,298.00858,472.20346,312.40077Z" transform="translate(-391.45587 -143.70365)" fill="#e6e6e6"/><path d="M489.84483,270.4757l20.18932-1.77205,30,30,5,11c10.5,5.59235.75321,1.1275,0,13l-2,77s23.43812,24.868,15.19324,31.58888,6.37453,23.36594-11.24134,14.98845-100.9519,30.42267-100.9519,30.42267-3.05808-22.09435,4.971-23.04717,11.029.13809,2.029-9.40737,4-18.54546,4-18.54546l.38172-69.79994-1.335-38.07733a32.25768,32.25768,0,0,1,22.90664-32.00887l1.69608-.51254Z" transform="translate(-391.45587 -143.70365)" fill="#e6e6e6"/><circle cx="109.45184" cy="89.39166" r="30.10716" fill="#ffb6b6"/><path d="M465.03671,229.79538c-.16552,9.17331,7.67489,34.29744,29.27085,33.23466,5.00915-.26134-9.43465-18.50337.81889-21.03846q.32669-.0784.70563-.13065a3.91061,3.91061,0,0,0,.79273-.19168c4.61718-1.65516-1.89911-11.03754,1.82074-13.74683a115.242,115.242,0,0,1,18.70372-3.73729,12.59908,12.59908,0,0,1,1.28935-4.48643,8.161,8.161,0,0,0,1.2022,4.34706c2.90091-.061,5.33147.26134,6.68176,1.26319,6.20263,4.591,3.4062-7.492,8.71157-13.06735-.86244-.69692-5.96741.73174-7.55292,1.45482a8.39943,8.39943,0,0,0,1.07151-2.718,5.31259,5.31259,0,0,0-2.22144-5.63641c-1.95139-1.08023-4.43421-.41814-6.51624-1.20215a1.74551,1.74551,0,0,1-.97574-1.3329,4.69363,4.69363,0,0,0-6.464-3.232,1.703,1.703,0,0,1-.79273.21779A17.90756,17.90756,0,0,1,507.31393,199a32.89055,32.89055,0,0,0,4.48648-2.52637c.28744-.20035.58366-.4007.87115-.60977-2.43923-2.22149-6.06327-2.86614-9.34755-2.4044-3.45846.48784-6.66432,2.02975-9.8179,3.54561q-2.73111,1.33283-5.45345,2.657c-3.8505,1.85557-7.31774,8.35436-11.09853,6.35943C470.56853,202.65887,465.20223,220.63084,465.03671,229.79538Z" transform="translate(-391.45587 -143.70365)" fill="#2f2e41"/><circle cx="254.57827" cy="77" r="11" fill="#0000e4"/><path d="M685.13692,316.58522a10.29982,10.29982,0,0,1-15.59247,1.71413l-47.05125,20.535-8.8797-11.61784,56.06182-23.98118a10.28539,10.28539,0,0,1,15.4616,13.34985Z" transform="translate(-391.45587 -143.70365)" fill="#ffb6b6"/><path d="M484.16531,327.27894l-4.96414,26.241a8.93653,8.93653,0,0,0,7.97068,10.56085l78.78035,7.1711,90.082-44.54825-7.69154-16.94834-80.779,24.49143C554.21329,323.02125,516.68362,326.694,484.16531,327.27894Z" transform="translate(-391.45587 -143.70365)" fill="#e6e6e6"/><path d="M689.90163,264.93415l-.02588,16.41639a1.10028,1.10028,0,0,1-2.19925,0l.02588-16.41639a1.10028,1.10028,0,0,1,2.19925,0Z" transform="translate(-391.45587 -143.70365)" fill="#0000e4"/><path d="M697.57134,273.76483l-16.00074.03916a1.10028,1.10028,0,0,1,0-2.19925l16.00074-.03916a1.10028,1.10028,0,0,1,0,2.19925Z" transform="translate(-391.45587 -143.70365)" fill="#0000e4"/><path d="M674.03415,272.70365a15,15,0,1,1,15,15A15.01685,15.01685,0,0,1,674.03415,272.70365Zm2.14285,0a12.85715,12.85715,0,1,0,12.85715-12.85714A12.87189,12.87189,0,0,0,676.177,272.70365Z" transform="translate(-391.45587 -143.70365)" fill="#0000e4"/><circle cx="390.57827" cy="257" r="11" fill="#3f3d56"/><circle cx="389.57827" cy="11" r="11" fill="#3f3d56"/></svg>