<svg xmlns="http://www.w3.org/2000/svg" width="682.88098" height="531.89009" viewBox="0 0 682.88098 531.89009" xmlns:xlink="http://www.w3.org/1999/xlink"><g><ellipse cx="25.37462" cy="8.64507" rx="8.45661" ry="8.64507" fill="#3f3d56"/><ellipse cx="54.58837" cy="8.64507" rx="8.45661" ry="8.64507" fill="#3f3d56"/><ellipse cx="83.80212" cy="8.64507" rx="8.45661" ry="8.64507" fill="#3f3d56"/><path d="M117.11354,15.47786c-.25977,0-.51904-.10059-.71484-.30078l-5.70605-5.83301c-.38037-.38867-.38037-1.00977,0-1.39844l5.70605-5.83252c.38721-.39453,1.021-.40088,1.41406-.01562,.39502,.38623,.40186,1.01953,.01562,1.41406l-5.02197,5.1333,5.02197,5.13379c.38623,.39453,.37939,1.02783-.01562,1.41406-.19434,.19043-.44678,.28516-.69922,.28516Z" fill="#3f3d56"/><path d="M126.70192,15.47786c-.25244,0-.50488-.09473-.69922-.28516-.39502-.38623-.40186-1.01904-.01562-1.41406l5.02148-5.13379-5.02148-5.1333c-.38623-.39453-.37939-1.02783,.01562-1.41406,.39404-.38672,1.02783-.37939,1.41406,.01562l5.70557,5.83252c.38037,.38867,.38037,1.00977,0,1.39844l-5.70557,5.83301c-.1958,.2002-.45508,.30078-.71484,.30078Z" fill="#3f3d56"/><path d="M425.21175,1.0009h-10.60999c-1.21002,0-2.19,.97998-2.19,2.19V13.8109c0,1.21002,.97998,2.19,2.19,2.19h10.60999c1.21002,0,2.20001-.97998,2.20001-2.19V3.1909c0-1.21002-.98999-2.19-2.20001-2.19Z" fill="#3f3d56"/><path d="M399.21175,1.0009h-10.60999c-1.21002,0-2.19,.97998-2.19,2.19V13.8109c0,1.21002,.97998,2.19,2.19,2.19h10.60999c1.21002,0,2.20001-.97998,2.20001-2.19V3.1909c0-1.21002-.98999-2.19-2.20001-2.19Z" fill="#3f3d56"/><path d="M449.71175,1.5009h-10.60999c-1.21002,0-2.19,.97998-2.19,2.19V14.3109c0,1.21002,.97998,2.19,2.19,2.19h10.60999c1.21002,0,2.20001-.97998,2.20001-2.19V3.6909c0-1.21002-.98999-2.19-2.20001-2.19Z" fill="#3f3d56"/><path d="M289.79005,5.54088h-84.81c-1.48004,0-2.67004,1.20001-2.67004,2.67004s1.19,2.66998,2.67004,2.66998h84.81c1.46997,0,2.66998-1.20001,2.66998-2.66998s-1.20001-2.67004-2.66998-2.67004Z" fill="#3f3d56"/></g><polygon points="500.13519 519.79953 491.0722 519.79855 486.75918 484.83655 500.13717 484.83755 500.13519 519.79953" fill="#ffb6b6"/><path d="M500.45489,529.25502l-27.87341-.00104v-.35248c.00043-5.99158,4.85754-10.84863,10.84912-10.84894h.00067l5.09143-3.86261,9.49951,3.86322,2.43317,.00006-.00049,11.20178Z" fill="#2f2e41"/><polygon points="569.19918 472.09155 564.90719 480.07455 532.07119 467.31653 538.40719 455.53354 569.19918 472.09155" fill="#ffb6b6"/><path d="M577.67919,476.28761l-13.19989,24.54974-.31049-.16693c-5.2771-2.83759-7.255-9.41559-4.41809-14.69299l.00031-.00061-.99115-6.31348,7.90094-6.5376,1.15222-2.14301,9.86615,5.30487Z" fill="#2f2e41"/><path d="M482.99871,359.69142l-8,64,4,21.45673,72,31.54327,4-13c-18.40411-11.26166-38.07794-28.30536-50.4743-29.55829,0,0,26.9743-61.94171,25.9743-66.94171s-47.5-7.5-47.5-7.5Z" fill="#2f2e41"/><path d="M481.62078,423.50636l-4.18524,27.02759,10.56317,55.15747h14c5.02966-18.5332,5.28906-42.8916,.5-63.5l-20.87793-18.68506Z" fill="#2f2e41"/><path d="M490.61541,281.49632l6.45386-11.246,6.92944-5.55887,13-2,3.61176,2.77716h0c12.99792,19.86572,17.84503,43.97449,13.53479,67.32004l-3.54913,19.22302,3.05389,14.50238c.96033,4.56042-1.95813,9.03595-6.51855,9.99628-.56042,.11804-1.13141,.17865-1.7041,.18103l-32.255,.13287c-8.04834,.03314-14.59967-6.46442-14.63281-14.5127-.00311-.75128,.05188-1.50165,.16449-2.24438l11.91138-78.57083Z" fill="#e6e6e6"/><path d="M515.9345,320.2213l-12.89105-1.84641c-4.35986,7.29028-5.90918,26.69464-5.90918,26.69464l-12.61591,29.98572c-2.62671,1.78406-3.30981,5.35974-1.52576,7.98645,1.78412,2.62671,5.35974,3.30981,7.98645,1.52576,1.70465-1.15778,2.6593-3.13934,2.50238-5.19397l20.71405-34.90216,1.73901-24.25003Z" fill="#ffb8b8"/><path d="M513.88262,284.43291h0c7.49884,1.16135,12.63641,8.18182,11.4751,15.68066-.13013,.8403-.33801,1.66669-.62091,2.46857l-2.7356,7.75381s-1.48907,23.34674-7.16815,29.93695l-17.42639-1.57745s3.1861-11.77878,.73999-17.47775c-1.49799-3.49017-1.41479-15.54477,.06122-25.35095,1.16187-7.47913,8.16681-12.60025,15.64594-11.43835l.02881,.00452Z" fill="#e6e6e6"/><path d="M488.92053,297.7762l-3.06134-12.65771c-8.38678-1.34836-26.98413,4.40222-26.98413,4.40222l-32.52588-.60779c-2.63037-1.77872-6.20459-1.08835-7.98334,1.54199s-1.08838,6.20462,1.54199,7.98334c1.70697,1.1543,3.90112,1.30682,5.7514,.39981l40.09283,6.30792,23.16846-7.36978Z" fill="#ffb8b8"/><path d="M521.40148,282.61015h0c1.69977,7.39542-2.91748,14.76852-10.31287,16.46832-.82874,.19046-1.67334,.30359-2.52295,.33792l-8.21552,.332s-22.23676,7.26724-30.46216,4.43417l-4.99158-16.77057s12.12091-1.40488,16.508-5.78842c2.68671-2.68457,13.91418-7.0737,23.56927-9.33609,7.37726-1.69196,14.72937,2.91693,16.42133,10.29422l.00647,.02844Z" fill="#e6e6e6"/><circle cx="507.0925" cy="242.46484" r="17.09366" transform="translate(186.53131 704.17095) rotate(-80.78253)" fill="#ffb8b8"/><path d="M507.38207,259.07295c2.5011,.039,5.00104-.13568,7.47241-.52219,2.44965-.49814,7.92975-4.51401,9.45746-6.93057h0c1.11328-2.07312,1.88007-4.31439,2.2699-6.63501,1.11414-5.44803-.13385-11.11301-3.43427-15.5885-.62726-.92566-1.49304-1.66458-2.50574-2.13861-.08972-.0351-.18213-.06619-.27545-.0928-1.47565-.38828-2.80157-1.20874-3.80756-2.35605-.19507-.23206-.40662-.44977-.633-.65143-1.13702-.9595-2.48492-1.63635-3.93359-1.97516-2.33838-.62582-5.72241-.00461-10.05811,1.84818-2.05969,.72351-4.29279,.79214-6.39301,.19647-.20917-.04041-.42413,.03323-.56458,.19342-.77972,.73199-1.80756,1.14169-2.87701,1.14682-.65503,.02875-1.34229,.93573-2.17291,2.11844-.18848,.26846-.40845,.58182-.56708,.77237l-.0213-.36615-.37048,.40845c-1.90619,2.10107-1.74817,5.34958,.35291,7.25577,.5647,.5123,1.23633,.89246,1.96619,1.11292,.65894,.17532,1.33398,.2829,2.01477,.32108,.41235,.03708,.83887,.07547,1.24762,.14639,2.66864,.54651,4.85388,2.45483,5.75482,5.02554,.37756,1.05292,1.53717,1.6004,2.59009,1.22287,.16528-.0593,.32227-.13983,.4668-.23959,.86426-.67297,2.00311-.88037,3.04913-.55524,.44531,.24765,.79199,.64087,.98187,1.11374,.23071,.52682,.6131,.97299,1.09845,1.28159,1.65997,.85587,1.77441,4.64743,1.17822,7.80814-.57471,3.04666-1.71075,5.25064-2.76257,5.35959-.80975,.08377-.90234,.1413-.961,.28448l-.05237,.1282,.091,.11993c.44727,.16214,.92426,.22592,1.39838,.18692Z" fill="#2f2e41"/><rect x="21.99872" y="89.69141" width="429.99999" height="127" fill="#f9f9f9"/><path d="M467.0614,37.16873H1.7684c-.99774-.02133-1.78931-.84746-1.76797-1.84521,.02069-.96771,.80026-1.74727,1.76797-1.76796H467.0614c.99774,.02133,1.78931,.84746,1.76794,1.84521-.02069,.96771-.80023,1.74727-1.76794,1.76796Z" fill="#cacaca"/><rect x="235.99875" y="-70.98996" width="1.99985" height="448.36257" transform="translate(22.95072 337.09191) rotate(-73.54556)" fill="#fff"/><rect x="12.81745" y="152.19147" width="448.36255" height="1.99985" transform="translate(-33.68325 73.39625) rotate(-16.4527)" fill="#fff"/><rect x="42.99872" y="166.69141" width="94" height="91" rx="45.49995" ry="45.49995" fill="#e6e6e6"/><path d="M75.27493,280.69141h34.42387c2.58562,0,4.68169,2.09607,4.68169,4.6817h0c0,2.58563-2.09606,4.6817-4.68169,4.6817h-34.42387c-2.58562,0-4.68169-2.09607-4.68169-4.6817h0c0-2.58563,2.09607-4.6817,4.68169-4.6817Z" fill="#0000e4"/><path d="M53.03687,299.41818h78.89996c2.58563,0,4.68169,2.09607,4.68169,4.6817h0c0,2.58563-2.09605,4.6817-4.68169,4.6817H53.03687c-2.58562,0-4.68169-2.09607-4.68169-4.6817h0c0-2.58563,2.09607-4.6817,4.68169-4.6817Z" fill="#e6e6e6"/><path d="M53.03687,318.14496h78.89996c2.58563,0,4.68169,2.09607,4.68169,4.6817h0c0,2.58563-2.09605,4.6817-4.68169,4.6817H53.03687c-2.58562,0-4.68169-2.09607-4.68169-4.6817h0c0-2.58563,2.09607-4.6817,4.68169-4.6817Z" fill="#e6e6e6"/><path d="M421.42852,316.42464H198.45843c-2.92459-.00333-5.29462-2.37335-5.29794-5.29794v-62.9653c.00336-2.92453,2.37341-5.29449,5.29794-5.29773h222.97009c2.92456,.00327,5.29456,2.3732,5.29791,5.29773v62.9653c-.00336,2.92459-2.37335,5.29459-5.29791,5.29794Z" fill="#fff"/><path d="M421.4287,317.4247H198.45849c-3.47656-.00394-6.29391-2.82129-6.29785-6.29785v-62.96536c.00394-3.47656,2.82129-6.29391,6.29785-6.29785h222.97021c3.47656,.00394,6.29388,2.82129,6.29785,6.29785v62.96533c-.00391,3.47659-2.82129,6.29395-6.29785,6.29788Zm-222.97021-73.561c-2.37247,.00284-4.29501,1.92538-4.29785,4.29785v62.96533c.00284,2.37247,1.92538,4.29501,4.29785,4.29785h222.97021c2.37244-.00284,4.29504-1.92538,4.29785-4.29785v-62.96539c-.00281-2.37247-1.92542-4.29501-4.29785-4.29785l-222.97021,.00006Z" fill="#ccc"/><circle cx="218.77879" cy="264.11181" r="8.59702" fill="#0000e4"/><path d="M407.14404,285.7758H212.74191c-1.41385,.00195-2.56158-1.14264-2.56351-2.55649-.00195-1.41385,1.14264-2.56155,2.55649-2.56351h194.40915c1.41382-.00195,2.56158,1.14264,2.56354,2.55649,.00189,1.41385-1.14264,2.56155-2.55652,2.56351h-.00702Z" fill="#0000e4"/><path d="M386.23797,295.89171H212.74191c-1.41394,0-2.56015-1.14621-2.56015-2.56015s1.14621-2.56015,2.56015-2.56015h173.49606c1.41394,0,2.56018,1.14621,2.56018,2.56015s-1.14624,2.56015-2.56018,2.56015Z" fill="#0000e4"/><path d="M421.42852,433.42464H198.45843c-2.92459-.00336-5.29459-2.37335-5.29794-5.29791v-62.96527c.00336-2.92456,2.37341-5.29449,5.29794-5.29773h222.97009c2.92456,.00323,5.29456,2.37317,5.29791,5.29773v62.96533c-.00342,2.92456-2.37335,5.29449-5.29791,5.29785Z" fill="#fff"/><path d="M421.4287,434.4247H198.45849c-3.47656-.00397-6.29391-2.82129-6.29785-6.29785v-62.96533c.00394-3.47656,2.82129-6.29388,6.29785-6.29785h222.97021c3.47656,.00397,6.29388,2.82129,6.29785,6.29785v62.96533c-.00397,3.47656-2.82129,6.29388-6.29785,6.29785Zm-222.97021-73.56097c-2.37247,.00281-4.29501,1.92542-4.29785,4.29785v62.96533c.00284,2.37244,1.92538,4.29504,4.29785,4.29785h222.97021c2.37244-.00281,4.29504-1.92542,4.29785-4.29785v-62.96539c-.00281-2.37244-1.92542-4.29504-4.29785-4.29785l-222.97021,.00006Z" fill="#ccc"/><circle cx="218.77879" cy="381.11182" r="8.59702" fill="#0000e4"/><path d="M407.14404,402.77583H212.74191c-1.41385,.00195-2.56158-1.14264-2.56351-2.55646-.00195-1.41388,1.14264-2.56158,2.55649-2.56354h194.40915c1.41382-.00195,2.56158,1.14264,2.56354,2.55646,.00189,1.41388-1.14264,2.56158-2.55652,2.56354h-.00702Z" fill="#0000e4"/><path d="M386.23797,412.89174H212.74191c-1.41394,0-2.56015-1.14624-2.56015-2.56012s1.14621-2.56018,2.56015-2.56018h173.49606c1.41394,0,2.56018,1.14624,2.56018,2.56018s-1.14624,2.56012-2.56018,2.56012h0Z" fill="#0000e4"/><path d="M600.20635,530.87611l-.07959-.42639c-2.62756-14.4881,1.25079-29.39856,10.60468-40.7702,2.61737-3.1308,5.61847-5.91962,8.93262-8.3006l.31586-.22809,.13824,.36401c1.64844,4.34625,3.72913,8.69897,4.67731,10.62567l.63989-14.3822,.36517-.19366c3.42249-1.83405,7.61658-1.40118,10.59241,1.09314,3.07825,2.47375,4.34192,6.57141,3.19159,10.34918-.49725,1.68988-.96686,3.44275-1.42126,5.13782-1.56067,5.82501-3.17438,11.84827-6.30188,16.92023-4.87073,7.72815-12.9696,12.84485-22.04053,13.92487l-9.6145,5.88623Z" fill="#f2f2f2"/><path d="M682.88098,530.70009c.00195,.65527-.52765,1.18805-1.18292,1.19H233.4009c-.65723,0-1.19-.53278-1.19-1.19s.53278-1.19,1.19-1.19h448.29001c.65527-.00195,1.18811,.52765,1.19006,1.18292v.00708Z" fill="#ccc"/></svg>