<svg width="813" height="711" viewBox="0 0 813 711" fill="none" xmlns="http://www.w3.org/2000/svg">
<path d="M358.435 53.8168L357.534 54.6472L358.759 54.6844C442.166 57.2135 521.137 89.8614 578.616 145.564C595.793 162.211 610.638 180.517 622.972 200.053C651.909 245.89 667.019 298.503 665.971 352.363C664.992 402.67 649.967 451.424 622.972 494.186C608.746 516.721 591.196 537.591 570.624 556.148C511.013 609.918 430.822 639.938 347.37 639.713H347.369H28.9474C21.39 639.713 14.1496 636.947 8.81723 632.036C3.48625 627.126 0.5 620.476 0.5 613.551C0.5 606.626 3.48625 599.976 8.81723 595.066C14.1496 590.155 21.39 587.389 28.9474 587.389H347.368C415.504 587.474 480.977 562.997 529.781 519.183C547.305 503.45 562.181 485.672 574.127 466.439C595.449 432.111 607.438 393.151 608.497 352.919C609.66 308.738 597.579 265.5 574.127 227.745C564.259 211.857 552.377 196.941 538.622 183.334C492.181 137.391 428.072 110.02 360.011 107.062L358.645 107.003L359.651 107.929L367.489 115.149C367.49 115.15 367.492 115.151 367.493 115.152C372.668 120.089 375.524 126.692 375.459 133.536C375.395 140.382 372.414 146.94 367.143 151.794C361.871 156.65 354.732 159.41 347.26 159.47C339.79 159.53 332.601 156.885 327.238 152.116C327.237 152.115 327.236 152.114 327.235 152.113L269.347 98.7955C264.018 93.8856 261.033 87.2366 261.033 80.3133C261.033 73.39 264.018 66.7409 269.347 61.8311L327.242 8.50739L327.248 8.50141C329.87 6.00065 333.009 4.00388 336.483 2.62953C339.957 1.25516 343.694 0.531266 347.477 0.500991C351.26 0.470715 355.01 1.13467 358.509 2.45329C362.009 3.77191 365.185 5.71825 367.854 8.17685C370.524 10.6354 372.632 13.5566 374.059 16.7689C375.486 19.9811 376.203 23.4211 376.171 26.8888C376.138 30.3565 375.356 33.7847 373.868 36.9738C372.381 40.163 370.218 43.0502 367.502 45.4658L367.496 45.4717L358.435 53.8168Z" fill="#4C46C8" stroke="white"/>
<path d="M711.701 587.386H712.982L712.04 586.518L703.565 578.712C703.564 578.712 703.563 578.711 703.562 578.71C698.386 573.773 695.53 567.17 695.595 560.325C695.659 553.479 698.64 546.921 703.911 542.067C709.183 537.211 716.322 534.451 723.794 534.391C731.264 534.331 738.454 536.976 743.817 541.746C743.817 541.746 743.818 541.747 743.819 541.748L801.707 595.066C807.036 599.976 810.021 606.625 810.021 613.548C810.021 620.471 807.036 627.12 801.707 632.03L743.812 685.354L743.806 685.36C741.184 687.861 738.045 689.857 734.571 691.232C731.097 692.606 727.36 693.33 723.577 693.36C719.794 693.391 716.044 692.727 712.545 691.408C709.045 690.089 705.869 688.143 703.199 685.684C700.53 683.226 698.422 680.305 696.995 677.092C695.568 673.88 694.851 670.44 694.883 666.972C694.916 663.505 695.698 660.077 697.185 656.887C698.673 653.698 700.836 650.811 703.552 648.395L703.558 648.39L712.04 640.578L712.982 639.71H711.701H607.896C600.338 639.71 593.098 636.944 587.766 632.033C582.435 627.123 579.448 620.473 579.448 613.548C579.448 606.623 582.435 599.973 587.766 595.063C593.098 590.152 600.338 587.386 607.896 587.386H711.701ZM216.872 138.978L216.871 138.978C177.24 160.053 144.316 190.356 121.404 226.855C118.261 231.863 115.321 236.963 112.587 242.146C104.781 256.947 98.6616 272.414 94.3028 288.299C89.0654 307.385 86.3698 327.073 86.3428 346.928C86.2228 399.033 104.683 449.727 138.88 491.22C142.045 495.107 143.969 499.725 144.441 504.555C144.914 509.385 143.918 514.243 141.561 518.586C139.203 522.928 135.576 526.587 131.08 529.146C126.584 531.705 121.4 533.062 116.109 533.062C111.686 533.062 107.325 532.114 103.372 530.293C99.4193 528.473 95.9849 525.832 93.3385 522.582L93.3367 522.58C51.7346 472.045 29.2928 410.338 29.4481 346.93L29.4481 346.93C29.4787 323.625 32.5277 300.51 38.4574 278.056C43.8127 257.776 51.5179 238.035 61.4715 219.182C64.7764 212.923 68.3292 206.761 72.1261 200.709C100.021 156.253 140.114 119.324 188.394 93.6295C194.939 90.1527 202.721 89.2117 210.024 91.0176C217.327 92.8234 223.54 97.2244 227.306 103.238C231.07 109.25 232.085 116.387 230.133 123.083C228.181 129.78 223.416 135.502 216.872 138.978Z" fill="#13104C" stroke="white"/>
<path d="M410.335 77.997L410.706 75.209L430.226 77.3387L429.855 80.1267L421.671 79.2337L418.59 102.399L415.438 102.055L418.519 78.8899L410.335 77.997Z" fill="white"/>
<path d="M437.008 106.006L447.048 81.8262L462.19 86.3437L461.111 88.9411L449.008 85.3301L445.615 93.5003L456.935 96.8774L455.856 99.4749L444.537 96.0978L441.124 104.315L453.424 107.985L452.345 110.582L437.008 106.006Z" fill="white"/>
<path d="M486.823 105.322C487.463 104.213 487.512 103.121 486.972 102.046C486.432 100.97 485.459 100.068 484.051 99.3383C483.022 98.8049 482.01 98.4883 481.013 98.3887C480.025 98.2929 479.118 98.3961 478.294 98.6982C477.477 99.0043 476.819 99.4918 476.319 100.161C475.901 100.721 475.689 101.279 475.683 101.834C475.69 102.387 475.828 102.918 476.098 103.428C476.374 103.93 476.705 104.4 477.092 104.838C477.484 105.268 477.857 105.647 478.212 105.973L480.144 107.77C480.642 108.227 481.168 108.774 481.721 109.411C482.281 110.052 482.738 110.767 483.093 111.557C483.46 112.344 483.614 113.191 483.556 114.099C483.497 115.006 483.101 115.951 482.366 116.934C481.519 118.068 480.425 118.921 479.083 119.495C477.748 120.072 476.252 120.305 474.593 120.194C472.941 120.086 471.223 119.569 469.437 118.643C467.772 117.78 466.512 116.791 465.656 115.675C464.807 114.562 464.359 113.392 464.311 112.164C464.27 110.94 464.633 109.731 465.399 108.537L468.305 110.044C467.789 110.875 467.594 111.683 467.721 112.469C467.86 113.251 468.233 113.975 468.839 114.639C469.457 115.301 470.228 115.871 471.151 116.349C472.225 116.906 473.307 117.249 474.397 117.379C475.492 117.501 476.501 117.408 477.424 117.1C478.352 116.786 479.101 116.246 479.673 115.481C480.193 114.785 480.401 114.107 480.296 113.446C480.191 112.786 479.889 112.136 479.389 111.499C478.89 110.861 478.308 110.228 477.644 109.599L475.334 107.379C473.87 105.967 472.935 104.549 472.529 103.126C472.123 101.703 472.447 100.285 473.503 98.8718C474.381 97.6975 475.498 96.8558 476.855 96.3467C478.224 95.8347 479.688 95.6462 481.245 95.7811C482.816 95.9132 484.342 96.3636 485.826 97.1324C487.324 97.909 488.474 98.8417 489.277 99.9304C490.086 101.012 490.519 102.146 490.577 103.332C490.644 104.522 490.3 105.656 489.547 106.734L486.823 105.322Z" fill="white"/>
<path d="M501.807 111.898L503.959 110.088L519.242 122.417L517.09 124.227L510.682 119.058L492.799 134.102L490.331 132.111L508.214 117.067L501.807 111.898Z" fill="white"/>
<path d="M576.303 203.814L571.51 197.169L593.591 183.743L598.596 190.683C600.103 192.772 600.95 194.829 601.138 196.853C601.333 198.872 600.893 200.778 599.818 202.571C598.751 204.36 597.074 205.949 594.789 207.339C592.488 208.737 590.22 209.542 587.983 209.752C585.754 209.958 583.642 209.568 581.648 208.581C579.662 207.591 577.88 206.002 576.303 203.814ZM575.762 198.334L578.553 202.204C579.838 203.985 581.254 205.246 582.803 205.989C584.352 206.731 585.984 206.994 587.7 206.778C589.415 206.562 591.171 205.908 592.968 204.815C594.751 203.731 596.081 202.514 596.958 201.164C597.842 199.809 598.222 198.358 598.098 196.81C597.981 195.257 597.316 193.64 596.103 191.957L593.1 187.793L575.762 198.334Z" fill="white"/>
<path d="M592.349 227.495L616.067 216.974L623.535 231.079L620.987 232.21L615.017 220.934L607.003 224.489L612.586 235.034L610.038 236.164L604.455 225.619L596.395 229.195L602.461 240.653L599.913 241.783L592.349 227.495Z" fill="white"/>
<path d="M631.987 249.368L613.654 263.051L613.759 263.34L637.432 264.344L638.574 267.484L610.321 265.933L609.197 262.841L630.845 246.228L631.987 249.368Z" fill="white"/>
<path d="M617.714 289.058L643.519 284.616L646.789 300.074L644.017 300.551L641.403 288.195L632.684 289.696L635.128 301.251L632.356 301.728L629.912 290.173L621.142 291.682L623.798 304.239L621.026 304.716L617.714 289.058Z" fill="white"/>
<path d="M623.315 319.83L649.568 318.32L649.81 321.465L626.377 322.813L627.304 334.886L624.484 335.048L623.315 319.83Z" fill="white"/>
<path d="M636.509 372.565C633.729 372.376 631.362 371.72 629.408 370.598C627.453 369.476 625.987 368.019 625.011 366.228C624.035 364.437 623.625 362.439 623.781 360.234C623.938 358.03 624.626 356.107 625.846 354.465C627.066 352.823 628.723 351.578 630.818 350.731C632.912 349.884 635.349 349.555 638.129 349.744C640.908 349.933 643.275 350.589 645.23 351.711C647.185 352.833 648.65 354.289 649.626 356.081C650.603 357.872 651.013 359.87 650.856 362.074C650.7 364.279 650.011 366.202 648.792 367.844C647.572 369.486 645.914 370.731 643.82 371.578C641.725 372.425 639.288 372.754 636.509 372.565ZM636.724 369.535C639.006 369.691 640.958 369.447 642.581 368.805C644.204 368.171 645.463 367.246 646.36 366.03C647.256 364.823 647.76 363.437 647.871 361.872C647.982 360.306 647.679 358.861 646.963 357.536C646.246 356.219 645.129 355.132 643.613 354.277C642.095 353.43 640.195 352.929 637.914 352.773C635.632 352.618 633.679 352.858 632.057 353.492C630.434 354.134 629.174 355.059 628.278 356.266C627.382 357.482 626.878 358.872 626.767 360.437C626.656 362.002 626.959 363.444 627.675 364.761C628.392 366.086 629.508 367.172 631.026 368.019C632.543 368.875 634.442 369.38 636.724 369.535Z" fill="white"/>
<path d="M620.83 387.646L646.836 392.85L644.906 401.351C644.458 403.325 643.724 404.865 642.703 405.971C641.688 407.086 640.49 407.823 639.108 408.18C637.726 408.537 636.269 408.562 634.737 408.255C633.205 407.949 631.881 407.367 630.765 406.51C629.648 405.662 628.859 404.536 628.399 403.134C627.947 401.734 627.943 400.055 628.387 398.097L629.77 392.004L632.564 392.563L631.203 398.558C630.896 399.909 630.891 401.043 631.188 401.958C631.485 402.874 632.002 403.598 632.739 404.131C633.483 404.674 634.376 405.049 635.417 405.258C636.458 405.466 637.432 405.464 638.339 405.252C639.244 405.047 640.023 404.578 640.676 403.844C641.338 403.112 641.824 402.062 642.135 400.694L643.351 395.338L620.138 390.693L620.83 387.646Z" fill="white"/>
<path d="M456.413 608.514L449.105 612.2L435.909 590.002L443.54 586.153C445.838 584.995 448.068 584.448 450.23 584.512C452.388 584.57 454.395 585.206 456.25 586.421C458.1 587.63 459.709 589.383 461.075 591.68C462.449 593.993 463.193 596.205 463.307 598.317C463.416 600.423 462.897 602.347 461.749 604.09C460.597 605.827 458.818 607.301 456.413 608.514ZM450.555 608.369L454.81 606.223C456.768 605.236 458.181 604.063 459.047 602.706C459.913 601.348 460.274 599.856 460.128 598.23C459.983 596.603 459.373 594.886 458.299 593.08C457.234 591.288 456.005 589.903 454.611 588.924C453.214 587.938 451.688 587.412 450.035 587.344C448.377 587.269 446.623 587.698 444.773 588.631L440.194 590.94L450.555 608.369Z" fill="white"/>
<path d="M478.769 597.465L463.844 576.205L477.523 568.059L479.126 570.343L468.192 576.854L473.235 584.038L483.461 577.948L485.064 580.232L474.838 586.321L479.911 593.546L491.021 586.93L492.625 589.213L478.769 597.465Z" fill="white"/>
<path d="M503.719 558.741C502.777 557.826 501.631 557.402 500.28 557.469C498.929 557.536 497.601 558.021 496.293 558.923C495.337 559.583 494.619 560.306 494.138 561.091C493.664 561.871 493.434 562.654 493.446 563.438C493.466 564.218 493.739 564.931 494.265 565.577C494.705 566.118 495.221 566.488 495.811 566.688C496.404 566.877 497.023 566.949 497.668 566.905C498.308 566.855 498.933 566.747 499.546 566.582C500.152 566.411 500.696 566.236 501.178 566.058L503.821 565.098C504.496 564.849 505.278 564.608 506.165 564.377C507.06 564.14 507.995 564.015 508.971 564C509.949 563.974 510.911 564.144 511.857 564.511C512.803 564.878 513.662 565.536 514.435 566.485C515.326 567.58 515.826 568.781 515.933 570.087C516.048 571.388 515.734 572.702 514.991 574.028C514.256 575.35 513.058 576.583 511.4 577.729C509.853 578.796 508.324 579.486 506.811 579.799C505.305 580.108 503.888 580.066 502.56 579.675C501.239 579.279 500.085 578.556 499.099 577.506L501.798 575.643C502.491 576.359 503.28 576.803 504.166 576.974C505.054 577.134 505.966 577.081 506.902 576.816C507.841 576.539 508.739 576.105 509.596 575.512C510.594 574.823 511.367 574.053 511.914 573.201C512.456 572.343 512.736 571.48 512.755 570.612C512.768 569.738 512.474 568.931 511.873 568.193C511.325 567.52 510.679 567.111 509.935 566.965C509.191 566.82 508.385 566.841 507.516 567.028C506.648 567.216 505.754 567.473 504.834 567.799L501.597 568.921C499.54 569.63 497.676 569.903 496.004 569.738C494.333 569.573 492.942 568.808 491.831 567.443C490.908 566.308 490.43 565.093 490.396 563.798C490.365 562.491 490.714 561.22 491.443 559.985C492.174 558.739 493.229 557.64 494.606 556.689C495.998 555.728 497.426 555.108 498.889 554.829C500.347 554.543 501.72 554.584 503.007 554.952C504.302 555.315 505.383 555.996 506.25 556.994L503.719 558.741Z" fill="white"/>
<path d="M517.842 541.933L535.497 561.342L532.992 563.275L515.337 543.866L517.842 541.933Z" fill="white"/>
<path d="M547.323 529.623C546.492 529.2 545.658 528.9 544.822 528.72C543.986 528.529 543.156 528.468 542.334 528.538C541.517 528.601 540.72 528.802 539.941 529.138C539.163 529.475 538.419 529.952 537.71 530.568C536.547 531.579 535.778 532.78 535.404 534.171C535.029 535.562 535.123 537.05 535.685 538.636C536.246 540.221 537.344 541.811 538.978 543.405C540.612 545 542.275 546.098 543.967 546.701C545.66 547.303 547.28 547.464 548.829 547.183C550.377 546.902 551.758 546.234 552.972 545.179C554.097 544.201 554.857 543.116 555.252 541.922C555.648 540.717 555.662 539.492 555.293 538.248C554.925 536.993 554.163 535.802 553.009 534.675L553.885 534.186L547.981 539.318L545.954 537.34L553.429 530.842L555.456 532.82C557.01 534.336 558.016 535.955 558.475 537.675C558.94 539.39 558.885 541.081 558.31 542.748C557.735 544.404 556.669 545.909 555.11 547.264C553.372 548.775 551.452 549.719 549.35 550.096C547.254 550.467 545.114 550.265 542.93 549.49C540.752 548.708 538.668 547.347 536.678 545.405C535.185 543.949 534.051 542.458 533.275 540.935C532.499 539.399 532.073 537.888 531.998 536.4C531.924 534.913 532.186 533.495 532.785 532.146C533.385 530.798 534.314 529.577 535.572 528.483C536.607 527.583 537.723 526.891 538.918 526.407C540.114 525.912 541.336 525.625 542.586 525.548C543.835 525.458 545.074 525.577 546.302 525.903C547.524 526.223 548.683 526.752 549.777 527.49L547.323 529.623Z" fill="white"/>
<path d="M567.449 498.835L587.88 515.758L585.764 517.925L559.885 514.713L559.709 514.894L575.75 528.181L573.564 530.42L553.133 513.497L555.249 511.33L581.203 514.539L581.379 514.358L565.298 501.038L567.449 498.835Z" fill="white"/>
<path d="M135.779 624.003V597.822H144.625C146.679 597.822 148.358 598.192 149.662 598.934C150.975 599.667 151.946 600.66 152.577 601.913C153.208 603.165 153.523 604.563 153.523 606.106C153.523 607.648 153.208 609.05 152.577 610.312C151.955 611.573 150.992 612.579 149.688 613.329C148.384 614.07 146.713 614.441 144.676 614.441H138.336V611.628H144.574C145.98 611.628 147.11 611.386 147.962 610.9C148.814 610.414 149.432 609.758 149.816 608.931C150.208 608.096 150.404 607.154 150.404 606.106C150.404 605.057 150.208 604.12 149.816 603.293C149.432 602.466 148.81 601.819 147.949 601.35C147.088 600.873 145.946 600.634 144.523 600.634H138.949V624.003H135.779ZM158.63 624.003V597.822H161.801V621.191H173.971V624.003H158.63ZM181.607 624.003H178.283L187.896 597.822H191.169L200.783 624.003H197.459L189.635 601.964H189.43L181.607 624.003ZM182.834 613.776H196.232V616.589H182.834V613.776ZM225.622 597.822V624.003H222.554L208.287 603.447H208.031V624.003H204.861V597.822H207.929L222.247 618.43H222.503V597.822H225.622Z" fill="white"/>
<path d="M607.611 620.003V596.731H610.429V617.503H621.247V620.003H607.611ZM628.034 620.003H625.08L633.625 596.731H636.534L645.08 620.003H642.125L635.171 600.413H634.989L628.034 620.003ZM629.125 610.913H641.034V613.413H629.125V610.913ZM663.977 596.731H666.796V612.14C666.796 613.731 666.421 615.151 665.671 616.401C664.928 617.644 663.879 618.625 662.523 619.344C661.167 620.056 659.576 620.413 657.75 620.413C655.924 620.413 654.333 620.056 652.977 619.344C651.621 618.625 650.568 617.644 649.818 616.401C649.076 615.151 648.705 613.731 648.705 612.14V596.731H651.523V611.913C651.523 613.049 651.773 614.06 652.273 614.947C652.773 615.825 653.485 616.519 654.409 617.026C655.341 617.526 656.455 617.776 657.75 617.776C659.046 617.776 660.159 617.526 661.091 617.026C662.023 616.519 662.735 615.825 663.227 614.947C663.727 614.06 663.977 613.049 663.977 611.913V596.731ZM690.878 596.731V620.003H688.151L675.469 601.731H675.242V620.003H672.423V596.731H675.151L687.878 615.049H688.105V596.731H690.878ZM715.244 604.003H712.426C712.26 603.193 711.968 602.481 711.551 601.867C711.142 601.253 710.642 600.738 710.051 600.322C709.468 599.897 708.82 599.579 708.108 599.367C707.396 599.155 706.654 599.049 705.881 599.049C704.472 599.049 703.195 599.405 702.051 600.117C700.915 600.829 700.01 601.878 699.335 603.265C698.669 604.651 698.335 606.352 698.335 608.367C698.335 610.382 698.669 612.083 699.335 613.469C700.01 614.856 700.915 615.905 702.051 616.617C703.195 617.329 704.472 617.685 705.881 617.685C706.654 617.685 707.396 617.579 708.108 617.367C708.82 617.155 709.468 616.841 710.051 616.424C710.642 616 711.142 615.481 711.551 614.867C711.968 614.246 712.26 613.534 712.426 612.731H715.244C715.032 613.92 714.646 614.984 714.085 615.924C713.525 616.863 712.828 617.663 711.994 618.322C711.161 618.973 710.225 619.469 709.188 619.81C708.157 620.151 707.055 620.322 705.881 620.322C703.896 620.322 702.131 619.837 700.585 618.867C699.04 617.897 697.824 616.519 696.938 614.731C696.051 612.943 695.608 610.822 695.608 608.367C695.608 605.913 696.051 603.791 696.938 602.003C697.824 600.216 699.04 598.837 700.585 597.867C702.131 596.897 703.896 596.413 705.881 596.413C707.055 596.413 708.157 596.583 709.188 596.924C710.225 597.265 711.161 597.765 711.994 598.424C712.828 599.075 713.525 599.871 714.085 600.81C714.646 601.742 715.032 602.806 715.244 604.003ZM719.798 620.003V596.731H722.617V607.094H735.026V596.731H737.844V620.003H735.026V609.594H722.617V620.003H719.798Z" fill="white"/>
<path d="M94.5684 262.795L91.2637 269.952L65.5837 261.915L69.0349 254.44C70.0738 252.19 71.4768 250.426 73.244 249.147C75.0029 247.866 77.0365 247.098 79.3447 246.844C81.6445 246.587 84.1236 246.875 86.7819 247.707C89.4569 248.544 91.5612 249.695 93.0948 251.161C94.62 252.623 95.5209 254.339 95.7975 256.31C96.0658 258.277 95.6561 260.439 94.5684 262.795ZM89.8019 266.28L91.7262 262.113C92.6116 260.195 92.9358 258.477 92.6988 256.96C92.4617 255.443 91.7296 254.138 90.5024 253.045C89.2752 251.953 87.6167 251.079 85.5269 250.425C83.4538 249.776 81.5279 249.523 79.7492 249.667C77.9621 249.807 76.3867 250.36 75.023 251.324C73.6509 252.286 72.5465 253.673 71.7098 255.485L69.6391 259.969L89.8019 266.28Z" fill="white"/>
<path d="M101.235 241.397L76.5875 231.015L84.359 217.584L87.0066 218.7L80.7945 229.435L89.1226 232.943L94.9323 222.903L97.58 224.018L91.7702 234.059L100.146 237.587L106.459 226.677L109.107 227.793L101.235 241.397Z" fill="white"/>
<path d="M116.824 218.27L93.0898 206.239L97.8243 198.917C98.9236 197.217 100.158 195.998 101.528 195.259C102.895 194.509 104.315 194.162 105.788 194.215C107.262 194.269 108.697 194.65 110.096 195.359C111.494 196.068 112.596 196.973 113.402 198.075C114.213 199.169 114.609 200.429 114.591 201.853C114.565 203.273 114.008 204.826 112.917 206.512L109.524 211.76L106.974 210.468L110.313 205.304C111.066 204.14 111.45 203.094 111.466 202.165C111.481 201.236 111.217 200.423 110.673 199.726C110.126 199.018 109.377 198.423 108.427 197.941C107.476 197.459 106.521 197.191 105.562 197.135C104.608 197.073 103.687 197.29 102.802 197.787C101.908 198.28 101.081 199.116 100.319 200.294L97.3361 204.908L118.521 215.646L116.824 218.27Z" fill="white"/>
<path d="M130.098 197.615L109.638 181.278L111.811 178.969L130.073 193.551L138.414 184.689L140.612 186.444L130.098 197.615Z" fill="white"/>
<path d="M155.067 158.1C156.695 160.263 157.684 162.42 158.034 164.569C158.384 166.718 158.152 168.721 157.337 170.576C156.522 172.431 155.178 174.001 153.306 175.286C151.433 176.57 149.446 177.286 147.345 177.432C145.243 177.578 143.181 177.15 141.159 176.148C139.137 175.146 137.311 173.563 135.683 171.4C134.054 169.237 133.065 167.081 132.715 164.931C132.366 162.782 132.598 160.78 133.413 158.925C134.228 157.07 135.571 155.5 137.444 154.215C139.317 152.93 141.304 152.215 143.405 152.069C145.506 151.923 147.568 152.351 149.591 153.353C151.613 154.355 153.438 155.937 155.067 158.1ZM152.494 159.866C151.157 158.09 149.71 156.809 148.155 156.024C146.606 155.234 145.056 154.895 143.504 155.008C141.959 155.116 140.522 155.626 139.193 156.538C137.863 157.451 136.895 158.591 136.289 159.959C135.689 161.322 135.531 162.833 135.814 164.491C136.105 166.144 136.919 167.859 138.256 169.635C139.593 171.411 141.036 172.694 142.584 173.484C144.14 174.269 145.69 174.608 147.235 174.5C148.787 174.387 150.227 173.874 151.557 172.962C152.886 172.05 153.851 170.912 154.45 169.549C155.057 168.181 155.215 166.67 154.924 165.017C154.641 163.359 153.831 161.642 152.494 159.866Z" fill="white"/>
<path d="M148.235 139.488L151.329 137.461L164.209 143.298L164.471 143.127L163.966 129.185L167.06 127.159L167.427 144.894L173.336 153.625L170.634 155.394L164.725 146.663L148.235 139.488Z" fill="white"/>
<path d="M117.933 479.641L99.9615 498.681L93.5953 492.538C92.1234 491.118 91.155 489.698 90.6902 488.278C90.2196 486.865 90.1727 485.499 90.5496 484.181C90.9265 482.863 91.6444 481.643 92.7032 480.521C93.7621 479.4 94.928 478.624 96.2009 478.194C97.4737 477.764 98.8134 477.754 100.22 478.164C101.62 478.58 103.05 479.492 104.51 480.9L109.662 485.871L107.696 487.954L102.618 483.054C101.612 482.083 100.662 481.451 99.7681 481.156C98.8678 480.856 98.0223 480.846 97.2315 481.125C96.4287 481.404 95.6675 481.925 94.9479 482.687C94.2284 483.45 93.7405 484.252 93.4845 485.094C93.2284 485.937 93.2638 486.812 93.5907 487.719C93.9118 488.633 94.5814 489.581 95.5995 490.564L99.6105 494.434L115.652 477.44L117.933 479.641ZM100.992 479.637L104.428 466.61L107.078 469.166L103.567 482.122L100.992 479.637Z" fill="white"/>
<path d="M104.39 456.975L82.9419 471.991L74.0266 458.945L76.3306 457.332L83.4571 467.76L90.7041 462.687L84.0393 452.934L86.3433 451.321L93.0081 461.074L100.297 455.971L93.0552 445.374L95.3592 443.761L104.39 456.975Z" fill="white"/>
<path d="M67.3792 445.273L84.621 429.391L84.5025 429.108L61.2552 430.651L59.9711 427.585L87.7342 426.103L88.9985 429.121L68.6633 448.339L67.3792 445.273Z" fill="white"/>
<path d="M55.6691 409.798L81.3227 404.565L81.9357 407.676L56.2822 412.908L55.6691 409.798Z" fill="white"/>
<path d="M78.1056 389.508L51.9241 389.39L52.0336 373.589L54.8461 373.602L54.7585 386.232L63.605 386.272L63.6869 374.46L66.4994 374.473L66.4175 386.285L75.3151 386.325L75.4041 373.49L78.2166 373.503L78.1056 389.508Z" fill="white"/>
<path d="M75.2921 359.236L48.2078 360.771L48.8739 357.619L70.8585 356.721L70.9114 356.47L51.2105 346.562L51.9506 343.06L73.9564 342.061L74.0093 341.811L54.2872 332.003L54.9533 328.851L79.0772 341.325L78.4006 344.527L56.8025 345.822L56.7602 346.022L75.9688 356.034L75.2921 359.236Z" fill="white"/>
<path d="M169.153 378H145.426L181.58 273.273H210.114L246.216 378H222.489L196.256 297.205H195.438L169.153 378ZM167.67 336.835H223.716V354.119H167.67V336.835ZM323.342 307.125C322.626 304.636 321.621 302.437 320.325 300.528C319.03 298.585 317.445 296.949 315.57 295.619C313.729 294.256 311.615 293.216 309.229 292.5C306.876 291.784 304.268 291.426 301.405 291.426C296.053 291.426 291.348 292.756 287.291 295.415C283.268 298.074 280.132 301.943 277.882 307.023C275.632 312.068 274.507 318.239 274.507 325.534C274.507 332.83 275.615 339.034 277.831 344.148C280.047 349.261 283.183 353.165 287.24 355.858C291.297 358.517 296.087 359.847 301.609 359.847C306.621 359.847 310.899 358.96 314.445 357.188C318.024 355.381 320.751 352.841 322.626 349.568C324.536 346.295 325.49 342.426 325.49 337.96L329.99 338.625H302.99V321.955H346.814V335.148C346.814 344.352 344.871 352.261 340.984 358.875C337.098 365.455 331.746 370.534 324.928 374.114C318.109 377.659 310.303 379.432 301.507 379.432C291.689 379.432 283.064 377.267 275.632 372.938C268.2 368.574 262.405 362.386 258.246 354.375C254.121 346.33 252.058 336.784 252.058 325.739C252.058 317.25 253.286 309.682 255.74 303.034C258.229 296.352 261.706 290.693 266.172 286.057C270.638 281.42 275.837 277.892 281.768 275.472C287.7 273.051 294.126 271.841 301.047 271.841C306.979 271.841 312.501 272.71 317.615 274.449C322.729 276.153 327.263 278.574 331.217 281.71C335.206 284.847 338.462 288.58 340.984 292.909C343.507 297.205 345.126 301.943 345.842 307.125H323.342ZM385.588 273.273V378H363.446V273.273H385.588ZM403.805 378V273.273H425.947V359.744H470.845V378H403.805ZM485.509 378V273.273H556.077V291.528H507.651V316.483H552.446V334.739H507.651V359.744H556.281V378H485.509Z" fill="black"/>
<path d="M162.656 445H148.477V405H162.773C166.797 405 170.26 405.801 173.164 407.402C176.068 408.991 178.301 411.276 179.863 414.258C181.439 417.24 182.227 420.807 182.227 424.961C182.227 429.128 181.439 432.708 179.863 435.703C178.301 438.698 176.055 440.996 173.125 442.598C170.208 444.199 166.719 445 162.656 445ZM156.934 437.754H162.305C164.805 437.754 166.908 437.311 168.613 436.426C170.332 435.527 171.621 434.141 172.48 432.266C173.353 430.378 173.789 427.943 173.789 424.961C173.789 422.005 173.353 419.59 172.48 417.715C171.621 415.84 170.339 414.46 168.633 413.574C166.927 412.689 164.824 412.246 162.324 412.246H156.934V437.754ZM188.491 445V405H215.444V411.973H196.948V421.504H214.058V428.477H196.948V438.027H215.522V445H188.491ZM229.395 405L239.063 435.391H239.434L249.121 405H258.496L244.707 445H233.809L220 405H229.395ZM263.311 445V405H290.264V411.973H271.768V421.504H288.877V428.477H271.768V438.027H290.342V445H263.311ZM296.987 445V405H305.444V438.027H322.593V445H296.987ZM363.394 425C363.394 429.362 362.567 433.073 360.913 436.133C359.272 439.193 357.033 441.53 354.194 443.145C351.369 444.746 348.192 445.547 344.663 445.547C341.108 445.547 337.918 444.74 335.093 443.125C332.267 441.51 330.034 439.173 328.394 436.113C326.753 433.053 325.933 429.349 325.933 425C325.933 420.638 326.753 416.927 328.394 413.867C330.034 410.807 332.267 408.477 335.093 406.875C337.918 405.26 341.108 404.453 344.663 404.453C348.192 404.453 351.369 405.26 354.194 406.875C357.033 408.477 359.272 410.807 360.913 413.867C362.567 416.927 363.394 420.638 363.394 425ZM354.819 425C354.819 422.174 354.396 419.792 353.55 417.852C352.716 415.911 351.538 414.44 350.015 413.438C348.491 412.435 346.707 411.934 344.663 411.934C342.619 411.934 340.835 412.435 339.312 413.438C337.788 414.44 336.603 415.911 335.757 417.852C334.924 419.792 334.507 422.174 334.507 425C334.507 427.826 334.924 430.208 335.757 432.148C336.603 434.089 337.788 435.56 339.312 436.562C340.835 437.565 342.619 438.066 344.663 438.066C346.707 438.066 348.491 437.565 350.015 436.562C351.538 435.56 352.716 434.089 353.55 432.148C354.396 430.208 354.819 427.826 354.819 425ZM369.658 445V405H385.439C388.473 405 391.058 405.579 393.193 406.738C395.329 407.884 396.956 409.479 398.076 411.523C399.209 413.555 399.775 415.898 399.775 418.555C399.775 421.211 399.202 423.555 398.057 425.586C396.911 427.617 395.251 429.199 393.076 430.332C390.915 431.465 388.298 432.031 385.225 432.031H375.166V425.254H383.857C385.485 425.254 386.826 424.974 387.881 424.414C388.949 423.841 389.743 423.053 390.264 422.051C390.798 421.035 391.064 419.87 391.064 418.555C391.064 417.227 390.798 416.068 390.264 415.078C389.743 414.076 388.949 413.301 387.881 412.754C386.813 412.194 385.459 411.914 383.818 411.914H378.115V445H369.658ZM405.269 405H415.698L426.714 431.875H427.183L438.198 405H448.628V445H440.425V418.965H440.093L429.741 444.805H424.155L413.804 418.867H413.472V445H405.269V405ZM455.596 445V405H482.549V411.973H464.053V421.504H481.162V428.477H464.053V438.027H482.627V445H455.596ZM522.729 405V445H515.425L498.022 419.824H497.729V445H489.272V405H496.694L513.96 430.156H514.312V405H522.729ZM528.193 411.973V405H561.045V411.973H548.799V445H540.439V411.973H528.193Z" fill="black"/>
<path d="M355 585L384 614.059L355 642" stroke="white" stroke-width="7"/>
<path d="M572.052 463.485L614.098 448.531L628.04 490.026" stroke="white" stroke-width="7"/>
<path d="M540.136 191.904L542.7 147.352L586.352 150.635" stroke="white" stroke-width="7"/>
<path d="M97.2455 289.172L59.6784 313.26L36.7017 276" stroke="white" stroke-width="7"/>
</svg>
