<svg width="1280" height="832" viewBox="0 0 1280 832" fill="none" xmlns="http://www.w3.org/2000/svg">
<rect width="1280" height="832" fill="#C5CAE9"/>
<path d="M654.435 122.817L653.534 123.647L654.759 123.684C738.166 126.214 817.137 158.861 874.616 214.564C891.793 231.211 906.638 249.517 918.972 269.053C947.909 314.89 963.019 367.503 961.971 421.363C960.992 471.67 945.967 520.424 918.972 563.186C904.746 585.721 887.196 606.591 866.624 625.148C807.013 678.918 726.822 708.938 643.37 708.713H643.369H324.947C317.39 708.713 310.15 705.947 304.817 701.036C299.486 696.126 296.5 689.476 296.5 682.551C296.5 675.626 299.486 668.976 304.817 664.066C310.15 659.155 317.39 656.389 324.947 656.389H643.368C711.504 656.474 776.977 631.997 825.781 588.183C843.305 572.45 858.181 554.672 870.127 535.439C891.449 501.111 903.438 462.151 904.497 421.919C905.66 377.738 893.579 334.5 870.127 296.745C860.259 280.857 848.377 265.941 834.622 252.334C788.181 206.391 724.072 179.02 656.011 176.062L654.645 176.003L655.651 176.929L663.489 184.149C663.49 184.15 663.492 184.151 663.493 184.152C668.668 189.089 671.524 195.692 671.459 202.536C671.395 209.382 668.414 215.94 663.143 220.794C657.871 225.65 650.732 228.41 643.26 228.47C635.79 228.53 628.601 225.885 623.238 221.116C623.237 221.115 623.236 221.114 623.235 221.113L565.347 167.795C560.018 162.886 557.033 156.237 557.033 149.313C557.033 142.39 560.018 135.741 565.347 130.831L623.242 77.5074L623.248 77.5014C625.87 75.0006 629.009 73.0039 632.483 71.6295C635.957 70.2552 639.694 69.5313 643.477 69.501C647.26 69.4707 651.01 70.1347 654.509 71.4533C658.009 72.7719 661.185 74.7182 663.854 77.1769C666.524 79.6354 668.632 82.5566 670.059 85.7689C671.486 88.9811 672.203 92.4211 672.171 95.8888C672.138 99.3565 671.356 102.785 669.868 105.974C668.381 109.163 666.218 112.05 663.502 114.466L663.496 114.472L654.435 122.817Z" fill="#4C46C8" stroke="white"/>
<path d="M1007.7 656.386H1008.98L1008.04 655.518L999.565 647.712C999.564 647.712 999.563 647.711 999.562 647.71C994.386 642.773 991.53 636.17 991.595 629.325C991.659 622.479 994.64 615.921 999.911 611.067C1005.18 606.211 1012.32 603.451 1019.79 603.391C1027.26 603.331 1034.45 605.976 1039.82 610.746C1039.82 610.746 1039.82 610.747 1039.82 610.748L1097.71 664.066C1103.04 668.976 1106.02 675.625 1106.02 682.548C1106.02 689.471 1103.04 696.12 1097.71 701.03L1039.81 754.354L1039.81 754.36C1037.18 756.861 1034.04 758.857 1030.57 760.232C1027.1 761.606 1023.36 762.33 1019.58 762.36C1015.79 762.391 1012.04 761.727 1008.54 760.408C1005.05 759.089 1001.87 757.143 999.199 754.684C996.53 752.226 994.422 749.305 992.995 746.092C991.568 742.88 990.851 739.44 990.883 735.972C990.916 732.505 991.698 729.077 993.185 725.887C994.673 722.698 996.836 719.811 999.552 717.395L999.558 717.39L1008.04 709.578L1008.98 708.71H1007.7H903.896C896.338 708.71 889.098 705.944 883.766 701.033C878.435 696.123 875.448 689.473 875.448 682.548C875.448 675.623 878.435 668.973 883.766 664.063C889.098 659.152 896.338 656.386 903.896 656.386H1007.7ZM512.872 207.978L512.871 207.978C473.24 229.053 440.316 259.356 417.404 295.855C414.261 300.863 411.321 305.963 408.587 311.146C400.781 325.947 394.662 341.414 390.303 357.299C385.065 376.385 382.37 396.073 382.343 415.928C382.223 468.033 400.683 518.727 434.88 560.22C438.045 564.107 439.969 568.725 440.441 573.555C440.914 578.385 439.918 583.243 437.561 587.586C435.203 591.928 431.576 595.587 427.08 598.146C422.584 600.705 417.4 602.062 412.109 602.062C407.686 602.062 403.325 601.114 399.372 599.293C395.419 597.473 391.985 594.832 389.338 591.582L389.337 591.58C347.735 541.045 325.293 479.338 325.448 415.93L325.448 415.93C325.479 392.625 328.528 369.51 334.457 347.056C339.813 326.776 347.518 307.035 357.471 288.182C360.776 281.923 364.329 275.761 368.126 269.709C396.021 225.253 436.114 188.324 484.394 162.629C490.939 159.153 498.721 158.212 506.024 160.018C513.327 161.823 519.54 166.224 523.306 172.238C527.07 178.25 528.085 185.387 526.133 192.083C524.181 198.78 519.416 204.502 512.872 207.978Z" fill="#13104C" stroke="white"/>
<path d="M706.335 146.997L706.706 144.209L726.226 146.339L725.855 149.127L717.671 148.234L714.59 171.399L711.438 171.055L714.519 147.89L706.335 146.997Z" fill="white"/>
<path d="M733.008 175.006L743.048 150.826L758.19 155.344L757.111 157.941L745.008 154.33L741.615 162.5L752.935 165.877L751.856 168.475L740.537 165.098L737.124 173.315L749.424 176.985L748.345 179.582L733.008 175.006Z" fill="white"/>
<path d="M782.824 174.322C783.463 173.213 783.512 172.121 782.972 171.046C782.432 169.97 781.459 169.068 780.051 168.338C779.022 167.805 778.01 167.488 777.013 167.389C776.025 167.293 775.118 167.396 774.294 167.698C773.478 168.004 772.819 168.492 772.319 169.161C771.901 169.721 771.689 170.279 771.683 170.834C771.69 171.387 771.828 171.918 772.098 172.428C772.374 172.93 772.705 173.4 773.092 173.838C773.484 174.268 773.857 174.647 774.212 174.973L776.144 176.77C776.643 177.227 777.168 177.774 777.721 178.411C778.281 179.052 778.739 179.767 779.093 180.557C779.46 181.344 779.615 182.191 779.556 183.099C779.497 184.006 779.101 184.951 778.366 185.934C777.519 187.068 776.425 187.921 775.083 188.495C773.749 189.072 772.252 189.305 770.593 189.194C768.941 189.086 767.223 188.569 765.437 187.643C763.772 186.78 762.512 185.791 761.656 184.675C760.808 183.562 760.359 182.392 760.311 181.164C760.27 179.94 760.633 178.731 761.399 177.537L764.305 179.044C763.789 179.875 763.594 180.683 763.721 181.469C763.86 182.251 764.233 182.975 764.839 183.639C765.457 184.301 766.228 184.871 767.151 185.349C768.226 185.906 769.308 186.249 770.397 186.379C771.492 186.501 772.501 186.408 773.424 186.1C774.352 185.786 775.101 185.246 775.673 184.481C776.193 183.785 776.401 183.107 776.296 182.446C776.191 181.786 775.889 181.136 775.389 180.499C774.89 179.861 774.308 179.228 773.644 178.599L771.335 176.379C769.871 174.967 768.935 173.549 768.529 172.126C768.123 170.703 768.448 169.285 769.504 167.872C770.381 166.698 771.498 165.856 772.855 165.347C774.224 164.835 775.688 164.646 777.245 164.781C778.816 164.913 780.343 165.364 781.826 166.132C783.324 166.909 784.474 167.842 785.277 168.93C786.086 170.012 786.519 171.146 786.578 172.332C786.644 173.522 786.3 174.656 785.548 175.734L782.824 174.322Z" fill="white"/>
<path d="M797.807 180.898L799.959 179.088L815.242 191.417L813.09 193.227L806.682 188.058L788.799 203.102L786.331 201.111L804.214 186.067L797.807 180.898Z" fill="white"/>
<path d="M872.303 272.814L867.51 266.169L889.591 252.743L894.596 259.683C896.103 261.772 896.95 263.829 897.138 265.853C897.333 267.872 896.893 269.778 895.819 271.571C894.751 273.36 893.074 274.949 890.789 276.339C888.489 277.737 886.22 278.542 883.983 278.752C881.754 278.958 879.642 278.568 877.649 277.581C875.662 276.591 873.88 275.002 872.303 272.814ZM871.763 267.334L874.554 271.204C875.838 272.985 877.254 274.246 878.803 274.989C880.352 275.731 881.984 275.994 883.7 275.778C885.415 275.562 887.172 274.908 888.968 273.815C890.751 272.731 892.081 271.514 892.958 270.164C893.842 268.809 894.222 267.358 894.098 265.81C893.982 264.257 893.316 262.64 892.103 260.957L889.1 256.793L871.763 267.334Z" fill="white"/>
<path d="M888.349 296.495L912.067 285.974L919.535 300.079L916.987 301.21L911.017 289.934L903.003 293.489L908.586 304.034L906.038 305.164L900.455 294.619L892.395 298.195L898.461 309.653L895.913 310.783L888.349 296.495Z" fill="white"/>
<path d="M927.987 318.368L909.654 332.051L909.759 332.34L933.432 333.344L934.574 336.484L906.321 334.933L905.197 331.841L926.845 315.228L927.987 318.368Z" fill="white"/>
<path d="M913.714 358.058L939.519 353.616L942.788 369.074L940.016 369.551L937.403 357.195L928.684 358.696L931.128 370.251L928.356 370.728L925.912 359.173L917.142 360.682L919.798 373.239L917.026 373.716L913.714 358.058Z" fill="white"/>
<path d="M919.315 388.83L945.568 387.32L945.81 390.465L922.377 391.813L923.304 403.886L920.484 404.048L919.315 388.83Z" fill="white"/>
<path d="M932.509 441.565C929.729 441.376 927.362 440.72 925.408 439.598C923.453 438.476 921.987 437.019 921.011 435.228C920.035 433.437 919.625 431.439 919.781 429.234C919.938 427.03 920.626 425.107 921.846 423.465C923.066 421.823 924.723 420.578 926.818 419.731C928.912 418.884 931.349 418.555 934.129 418.744C936.908 418.933 939.275 419.589 941.23 420.711C943.185 421.833 944.65 423.289 945.626 425.081C946.603 426.872 947.013 428.87 946.856 431.074C946.7 433.279 946.011 435.202 944.792 436.844C943.572 438.486 941.914 439.731 939.82 440.578C937.725 441.425 935.288 441.754 932.509 441.565ZM932.724 438.535C935.006 438.691 936.958 438.447 938.581 437.805C940.204 437.171 941.463 436.246 942.36 435.03C943.256 433.823 943.76 432.437 943.871 430.872C943.982 429.306 943.679 427.861 942.963 426.536C942.246 425.219 941.129 424.132 939.613 423.277C938.095 422.43 936.195 421.929 933.914 421.773C931.632 421.618 929.679 421.858 928.057 422.492C926.434 423.134 925.174 424.059 924.278 425.266C923.382 426.482 922.878 427.872 922.767 429.437C922.656 431.002 922.959 432.444 923.675 433.761C924.392 435.086 925.508 436.172 927.026 437.019C928.543 437.875 930.442 438.38 932.724 438.535Z" fill="white"/>
<path d="M916.83 456.646L942.836 461.85L940.906 470.351C940.458 472.325 939.724 473.865 938.703 474.971C937.688 476.086 936.49 476.823 935.108 477.18C933.726 477.537 932.269 477.562 930.737 477.255C929.205 476.949 927.881 476.367 926.765 475.51C925.648 474.662 924.859 473.536 924.399 472.134C923.947 470.734 923.943 469.055 924.387 467.097L925.77 461.004L928.564 461.563L927.203 467.558C926.896 468.909 926.891 470.043 927.188 470.958C927.485 471.874 928.002 472.598 928.739 473.131C929.483 473.674 930.376 474.049 931.417 474.258C932.458 474.466 933.432 474.464 934.339 474.252C935.244 474.047 936.023 473.578 936.676 472.844C937.338 472.112 937.824 471.062 938.135 469.694L939.351 464.338L916.138 459.693L916.83 456.646Z" fill="white"/>
<path d="M752.413 677.514L745.105 681.2L731.909 659.002L739.54 655.153C741.838 653.995 744.068 653.448 746.23 653.512C748.388 653.57 750.395 654.206 752.25 655.421C754.1 656.63 755.709 658.383 757.075 660.68C758.449 662.993 759.193 665.205 759.307 667.317C759.416 669.423 758.897 671.347 757.749 673.09C756.597 674.827 754.818 676.301 752.413 677.514ZM746.555 677.369L750.81 675.223C752.768 674.236 754.181 673.063 755.047 671.706C755.913 670.348 756.274 668.856 756.128 667.23C755.983 665.603 755.373 663.886 754.299 662.08C753.234 660.288 752.005 658.903 750.611 657.924C749.214 656.938 747.688 656.412 746.035 656.344C744.377 656.269 742.623 656.698 740.773 657.631L736.194 659.94L746.555 677.369Z" fill="white"/>
<path d="M774.769 666.465L759.845 645.205L773.523 637.059L775.126 639.343L764.192 645.854L769.235 653.038L779.461 646.948L781.064 649.232L770.839 655.321L775.911 662.546L787.021 655.93L788.625 658.213L774.769 666.465Z" fill="white"/>
<path d="M799.719 627.741C798.777 626.826 797.63 626.402 796.28 626.469C794.929 626.536 793.6 627.021 792.293 627.923C791.337 628.583 790.619 629.306 790.138 630.091C789.664 630.871 789.434 631.654 789.446 632.438C789.466 633.218 789.739 633.931 790.265 634.577C790.705 635.118 791.22 635.488 791.811 635.688C792.404 635.877 793.023 635.949 793.668 635.905C794.307 635.855 794.933 635.747 795.546 635.582C796.152 635.411 796.696 635.236 797.177 635.058L799.821 634.098C800.496 633.849 801.278 633.608 802.165 633.377C803.059 633.14 803.995 633.015 804.971 633C805.949 632.974 806.911 633.144 807.857 633.511C808.803 633.878 809.662 634.536 810.435 635.485C811.326 636.58 811.825 637.781 811.933 639.087C812.048 640.388 811.734 641.702 810.991 643.028C810.255 644.35 809.058 645.583 807.399 646.729C805.853 647.796 804.324 648.486 802.811 648.799C801.305 649.108 799.888 649.066 798.56 648.675C797.238 648.279 796.085 647.556 795.099 646.506L797.798 644.643C798.491 645.359 799.28 645.803 800.166 645.974C801.053 646.134 801.966 646.081 802.902 645.816C803.841 645.539 804.738 645.105 805.596 644.512C806.594 643.823 807.367 643.053 807.914 642.201C808.456 641.343 808.736 640.48 808.755 639.612C808.768 638.738 808.474 637.931 807.873 637.193C807.325 636.52 806.679 636.111 805.935 635.965C805.191 635.82 804.385 635.841 803.516 636.028C802.648 636.216 801.754 636.473 800.833 636.799L797.597 637.921C795.54 638.63 793.675 638.903 792.004 638.738C790.333 638.573 788.942 637.808 787.831 636.443C786.908 635.308 786.43 634.093 786.396 632.798C786.365 631.491 786.713 630.22 787.443 628.985C788.174 627.739 789.228 626.64 790.606 625.689C791.998 624.728 793.425 624.108 794.889 623.829C796.347 623.543 797.72 623.584 799.007 623.952C800.302 624.315 801.383 624.996 802.25 625.994L799.719 627.741Z" fill="white"/>
<path d="M813.842 610.933L831.497 630.342L828.992 632.275L811.337 612.866L813.842 610.933Z" fill="white"/>
<path d="M843.323 598.623C842.492 598.2 841.658 597.9 840.822 597.72C839.986 597.529 839.157 597.468 838.334 597.538C837.517 597.601 836.72 597.802 835.941 598.138C835.163 598.475 834.419 598.952 833.71 599.568C832.547 600.579 831.778 601.78 831.404 603.171C831.029 604.562 831.123 606.05 831.685 607.636C832.246 609.221 833.344 610.811 834.978 612.405C836.612 614 838.275 615.098 839.967 615.701C841.66 616.303 843.281 616.464 844.829 616.183C846.377 615.902 847.759 615.234 848.972 614.179C850.097 613.201 850.857 612.116 851.252 610.922C851.648 609.717 851.662 608.492 851.293 607.248C850.925 605.993 850.164 604.802 849.009 603.675L849.885 603.186L843.981 608.318L841.955 606.34L849.429 599.842L851.456 601.82C853.01 603.336 854.016 604.955 854.475 606.675C854.94 608.39 854.885 610.081 854.31 611.748C853.735 613.404 852.669 614.909 851.11 616.264C849.372 617.775 847.452 618.719 845.35 619.096C843.254 619.467 841.114 619.265 838.93 618.49C836.752 617.708 834.668 616.347 832.678 614.405C831.185 612.949 830.051 611.458 829.275 609.935C828.499 608.399 828.073 606.888 827.999 605.4C827.924 603.913 828.186 602.495 828.786 601.146C829.385 599.798 830.314 598.577 831.573 597.483C832.608 596.583 833.723 595.891 834.918 595.407C836.114 594.912 837.336 594.625 838.586 594.548C839.835 594.458 841.074 594.577 842.303 594.903C843.525 595.223 844.683 595.752 845.777 596.49L843.323 598.623Z" fill="white"/>
<path d="M863.449 567.835L883.88 584.758L881.764 586.925L855.885 583.713L855.708 583.894L871.75 597.181L869.564 599.42L849.133 582.497L851.248 580.33L877.203 583.539L877.379 583.358L861.298 570.038L863.449 567.835Z" fill="white"/>
<path d="M431.779 693.003V666.822H440.625C442.679 666.822 444.358 667.192 445.662 667.934C446.975 668.667 447.946 669.66 448.577 670.913C449.208 672.165 449.523 673.563 449.523 675.106C449.523 676.648 449.208 678.05 448.577 679.312C447.955 680.573 446.992 681.579 445.688 682.329C444.384 683.07 442.713 683.441 440.676 683.441H434.336V680.628H440.574C441.98 680.628 443.11 680.386 443.962 679.9C444.814 679.414 445.432 678.758 445.816 677.931C446.208 677.096 446.404 676.154 446.404 675.106C446.404 674.057 446.208 673.12 445.816 672.293C445.432 671.466 444.81 670.819 443.949 670.35C443.088 669.873 441.946 669.634 440.523 669.634H434.949V693.003H431.779ZM454.63 693.003V666.822H457.801V690.191H469.971V693.003H454.63ZM477.607 693.003H474.283L483.896 666.822H487.169L496.783 693.003H493.459L485.635 670.964H485.43L477.607 693.003ZM478.834 682.776H492.232V685.589H478.834V682.776ZM521.622 666.822V693.003H518.554L504.287 672.447H504.031V693.003H500.861V666.822H503.929L518.247 687.43H518.503V666.822H521.622Z" fill="white"/>
<path d="M903.611 689.003V665.731H906.429V686.503H917.247V689.003H903.611ZM924.034 689.003H921.08L929.625 665.731H932.534L941.08 689.003H938.125L931.171 669.413H930.989L924.034 689.003ZM925.125 679.913H937.034V682.413H925.125V679.913ZM959.977 665.731H962.796V681.14C962.796 682.731 962.421 684.151 961.671 685.401C960.928 686.644 959.879 687.625 958.523 688.344C957.167 689.056 955.576 689.413 953.75 689.413C951.924 689.413 950.333 689.056 948.977 688.344C947.621 687.625 946.568 686.644 945.818 685.401C945.076 684.151 944.705 682.731 944.705 681.14V665.731H947.523V680.913C947.523 682.049 947.773 683.06 948.273 683.947C948.773 684.825 949.485 685.519 950.409 686.026C951.341 686.526 952.455 686.776 953.75 686.776C955.046 686.776 956.159 686.526 957.091 686.026C958.023 685.519 958.735 684.825 959.227 683.947C959.727 683.06 959.977 682.049 959.977 680.913V665.731ZM986.878 665.731V689.003H984.151L971.469 670.731H971.242V689.003H968.423V665.731H971.151L983.878 684.049H984.105V665.731H986.878ZM1011.24 673.003H1008.43C1008.26 672.193 1007.97 671.481 1007.55 670.867C1007.14 670.253 1006.64 669.738 1006.05 669.322C1005.47 668.897 1004.82 668.579 1004.11 668.367C1003.4 668.155 1002.65 668.049 1001.88 668.049C1000.47 668.049 999.195 668.405 998.051 669.117C996.915 669.829 996.01 670.878 995.335 672.265C994.669 673.651 994.335 675.352 994.335 677.367C994.335 679.382 994.669 681.083 995.335 682.469C996.01 683.856 996.915 684.905 998.051 685.617C999.195 686.329 1000.47 686.685 1001.88 686.685C1002.65 686.685 1003.4 686.579 1004.11 686.367C1004.82 686.155 1005.47 685.841 1006.05 685.424C1006.64 685 1007.14 684.481 1007.55 683.867C1007.97 683.246 1008.26 682.534 1008.43 681.731H1011.24C1011.03 682.92 1010.65 683.984 1010.09 684.924C1009.52 685.863 1008.83 686.663 1007.99 687.322C1007.16 687.973 1006.23 688.469 1005.19 688.81C1004.16 689.151 1003.06 689.322 1001.88 689.322C999.896 689.322 998.131 688.837 996.585 687.867C995.04 686.897 993.824 685.519 992.938 683.731C992.051 681.943 991.608 679.822 991.608 677.367C991.608 674.913 992.051 672.791 992.938 671.003C993.824 669.216 995.04 667.837 996.585 666.867C998.131 665.897 999.896 665.413 1001.88 665.413C1003.06 665.413 1004.16 665.583 1005.19 665.924C1006.23 666.265 1007.16 666.765 1007.99 667.424C1008.83 668.075 1009.52 668.871 1010.09 669.81C1010.65 670.742 1011.03 671.806 1011.24 673.003ZM1015.8 689.003V665.731H1018.62V676.094H1031.03V665.731H1033.84V689.003H1031.03V678.594H1018.62V689.003H1015.8Z" fill="white"/>
<path d="M390.568 331.795L387.264 338.952L361.584 330.915L365.035 323.44C366.074 321.19 367.477 319.426 369.244 318.147C371.003 316.866 373.036 316.098 375.345 315.844C377.645 315.587 380.124 315.875 382.782 316.707C385.457 317.544 387.561 318.695 389.095 320.161C390.62 321.623 391.521 323.339 391.798 325.31C392.066 327.277 391.656 329.439 390.568 331.795ZM385.802 335.28L387.726 331.113C388.612 329.195 388.936 327.477 388.699 325.96C388.462 324.443 387.73 323.138 386.502 322.045C385.275 320.953 383.617 320.079 381.527 319.425C379.454 318.776 377.528 318.523 375.749 318.667C373.962 318.807 372.387 319.36 371.023 320.324C369.651 321.286 368.546 322.673 367.71 324.485L365.639 328.969L385.802 335.28Z" fill="white"/>
<path d="M397.235 310.397L372.587 300.015L380.359 286.584L383.007 287.7L376.794 298.435L385.123 301.943L390.932 291.903L393.58 293.018L387.77 303.059L396.146 306.587L402.459 295.677L405.107 296.793L397.235 310.397Z" fill="white"/>
<path d="M412.824 287.27L389.09 275.239L393.824 267.917C394.924 266.217 396.158 264.998 397.528 264.259C398.895 263.509 400.315 263.162 401.788 263.215C403.262 263.269 404.697 263.65 406.096 264.359C407.494 265.068 408.596 265.973 409.402 267.075C410.213 268.169 410.609 269.429 410.591 270.853C410.565 272.273 410.008 273.826 408.917 275.512L405.524 280.76L402.974 279.468L406.313 274.304C407.066 273.14 407.45 272.094 407.466 271.165C407.481 270.236 407.217 269.423 406.673 268.726C406.126 268.018 405.377 267.423 404.427 266.941C403.476 266.459 402.521 266.191 401.562 266.135C400.608 266.073 399.687 266.29 398.802 266.787C397.908 267.28 397.081 268.116 396.319 269.294L393.336 273.908L414.521 284.646L412.824 287.27Z" fill="white"/>
<path d="M426.098 266.615L405.638 250.278L407.811 247.969L426.073 262.551L434.414 253.689L436.612 255.444L426.098 266.615Z" fill="white"/>
<path d="M451.067 227.1C452.695 229.263 453.684 231.42 454.034 233.569C454.384 235.718 454.152 237.721 453.337 239.576C452.522 241.431 451.178 243.001 449.306 244.286C447.433 245.57 445.446 246.286 443.345 246.432C441.243 246.578 439.181 246.15 437.159 245.148C435.137 244.146 433.311 242.563 431.683 240.4C430.054 238.237 429.065 236.081 428.715 233.931C428.366 231.782 428.598 229.78 429.413 227.925C430.228 226.07 431.571 224.5 433.444 223.215C435.317 221.93 437.304 221.215 439.405 221.069C441.506 220.923 443.568 221.351 445.591 222.353C447.613 223.355 449.438 224.937 451.067 227.1ZM448.494 228.866C447.157 227.09 445.71 225.809 444.155 225.024C442.606 224.234 441.056 223.895 439.504 224.008C437.959 224.116 436.522 224.626 435.193 225.538C433.863 226.451 432.895 227.591 432.289 228.959C431.689 230.322 431.531 231.833 431.814 233.491C432.105 235.144 432.919 236.859 434.256 238.635C435.593 240.411 437.036 241.694 438.584 242.484C440.14 243.269 441.69 243.608 443.235 243.5C444.787 243.387 446.227 242.874 447.557 241.962C448.886 241.05 449.851 239.912 450.45 238.549C451.057 237.181 451.215 235.67 450.924 234.017C450.641 232.359 449.831 230.642 448.494 228.866Z" fill="white"/>
<path d="M444.235 208.488L447.329 206.461L460.209 212.298L460.471 212.127L459.966 198.185L463.06 196.159L463.427 213.894L469.336 222.625L466.634 224.394L460.725 215.663L444.235 208.488Z" fill="white"/>
<path d="M413.933 548.641L395.961 567.681L389.595 561.538C388.123 560.118 387.155 558.698 386.69 557.278C386.22 555.865 386.173 554.499 386.55 553.181C386.926 551.863 387.644 550.643 388.703 549.521C389.762 548.4 390.928 547.624 392.201 547.194C393.474 546.764 394.813 546.754 396.22 547.164C397.62 547.58 399.05 548.492 400.51 549.9L405.662 554.871L403.696 556.954L398.618 552.054C397.612 551.083 396.662 550.451 395.768 550.156C394.868 549.856 394.022 549.846 393.231 550.125C392.429 550.404 391.668 550.925 390.948 551.687C390.228 552.45 389.741 553.252 389.484 554.094C389.228 554.937 389.264 555.812 389.591 556.719C389.912 557.633 390.581 558.581 391.599 559.564L395.611 563.434L411.652 546.44L413.933 548.641ZM396.992 548.637L400.428 535.61L403.078 538.166L399.567 551.122L396.992 548.637Z" fill="white"/>
<path d="M400.39 525.975L378.942 540.991L370.027 527.945L372.331 526.332L379.457 536.76L386.704 531.687L380.039 521.934L382.343 520.321L389.008 530.074L396.297 524.971L389.055 514.374L391.359 512.761L400.39 525.975Z" fill="white"/>
<path d="M363.379 514.273L380.621 498.391L380.502 498.108L357.255 499.651L355.971 496.585L383.734 495.103L384.999 498.121L364.663 517.339L363.379 514.273Z" fill="white"/>
<path d="M351.669 478.798L377.323 473.565L377.936 476.676L352.282 481.908L351.669 478.798Z" fill="white"/>
<path d="M374.106 458.508L347.924 458.39L348.034 442.589L350.846 442.602L350.759 455.232L359.605 455.272L359.687 443.46L362.499 443.473L362.417 455.285L371.315 455.325L371.404 442.49L374.217 442.503L374.106 458.508Z" fill="white"/>
<path d="M371.292 428.236L344.208 429.771L344.874 426.619L366.859 425.721L366.911 425.47L347.21 415.562L347.951 412.06L369.956 411.061L370.009 410.811L350.287 401.003L350.953 397.851L375.077 410.325L374.401 413.527L352.803 414.822L352.76 415.022L371.969 425.034L371.292 428.236Z" fill="white"/>
<path d="M465.153 447H441.426L477.58 342.273H506.114L542.216 447H518.489L492.256 366.205H491.438L465.153 447ZM463.67 405.835H519.716V423.119H463.67V405.835ZM619.342 376.125C618.626 373.636 617.621 371.437 616.325 369.528C615.03 367.585 613.445 365.949 611.57 364.619C609.729 363.256 607.615 362.216 605.229 361.5C602.876 360.784 600.268 360.426 597.405 360.426C592.053 360.426 587.348 361.756 583.291 364.415C579.268 367.074 576.132 370.943 573.882 376.023C571.632 381.068 570.507 387.239 570.507 394.534C570.507 401.83 571.615 408.034 573.831 413.148C576.047 418.261 579.183 422.165 583.24 424.858C587.297 427.517 592.087 428.847 597.609 428.847C602.621 428.847 606.899 427.96 610.445 426.188C614.024 424.381 616.751 421.841 618.626 418.568C620.536 415.295 621.49 411.426 621.49 406.96L625.99 407.625H598.99V390.955H642.814V404.148C642.814 413.352 640.871 421.261 636.984 427.875C633.098 434.455 627.746 439.534 620.928 443.114C614.109 446.659 606.303 448.432 597.507 448.432C587.689 448.432 579.064 446.267 571.632 441.938C564.2 437.574 558.405 431.386 554.246 423.375C550.121 415.33 548.058 405.784 548.058 394.739C548.058 386.25 549.286 378.682 551.74 372.034C554.229 365.352 557.706 359.693 562.172 355.057C566.638 350.42 571.837 346.892 577.768 344.472C583.7 342.051 590.126 340.841 597.047 340.841C602.979 340.841 608.501 341.71 613.615 343.449C618.729 345.153 623.263 347.574 627.217 350.71C631.206 353.847 634.462 357.58 636.984 361.909C639.507 366.205 641.126 370.943 641.842 376.125H619.342ZM681.588 342.273V447H659.446V342.273H681.588ZM699.805 447V342.273H721.947V428.744H766.845V447H699.805ZM781.509 447V342.273H852.077V360.528H803.651V385.483H848.446V403.739H803.651V428.744H852.281V447H781.509Z" fill="black"/>
<path d="M458.656 514H444.477V474H458.773C462.797 474 466.26 474.801 469.164 476.402C472.068 477.991 474.301 480.276 475.863 483.258C477.439 486.24 478.227 489.807 478.227 493.961C478.227 498.128 477.439 501.708 475.863 504.703C474.301 507.698 472.055 509.996 469.125 511.598C466.208 513.199 462.719 514 458.656 514ZM452.934 506.754H458.305C460.805 506.754 462.908 506.311 464.613 505.426C466.332 504.527 467.621 503.141 468.48 501.266C469.353 499.378 469.789 496.943 469.789 493.961C469.789 491.005 469.353 488.59 468.48 486.715C467.621 484.84 466.339 483.46 464.633 482.574C462.927 481.689 460.824 481.246 458.324 481.246H452.934V506.754ZM484.491 514V474H511.444V480.973H492.948V490.504H510.058V497.477H492.948V507.027H511.522V514H484.491ZM525.395 474L535.063 504.391H535.434L545.121 474H554.496L540.707 514H529.809L516 474H525.395ZM559.311 514V474H586.264V480.973H567.768V490.504H584.877V497.477H567.768V507.027H586.342V514H559.311ZM592.987 514V474H601.444V507.027H618.593V514H592.987ZM659.394 494C659.394 498.362 658.567 502.073 656.913 505.133C655.272 508.193 653.033 510.53 650.194 512.145C647.369 513.746 644.192 514.547 640.663 514.547C637.108 514.547 633.918 513.74 631.093 512.125C628.267 510.51 626.034 508.173 624.394 505.113C622.753 502.053 621.933 498.349 621.933 494C621.933 489.638 622.753 485.927 624.394 482.867C626.034 479.807 628.267 477.477 631.093 475.875C633.918 474.26 637.108 473.453 640.663 473.453C644.192 473.453 647.369 474.26 650.194 475.875C653.033 477.477 655.272 479.807 656.913 482.867C658.567 485.927 659.394 489.638 659.394 494ZM650.819 494C650.819 491.174 650.396 488.792 649.55 486.852C648.716 484.911 647.538 483.44 646.015 482.438C644.491 481.435 642.707 480.934 640.663 480.934C638.619 480.934 636.835 481.435 635.312 482.438C633.788 483.44 632.603 484.911 631.757 486.852C630.924 488.792 630.507 491.174 630.507 494C630.507 496.826 630.924 499.208 631.757 501.148C632.603 503.089 633.788 504.56 635.312 505.562C636.835 506.565 638.619 507.066 640.663 507.066C642.707 507.066 644.491 506.565 646.015 505.562C647.538 504.56 648.716 503.089 649.55 501.148C650.396 499.208 650.819 496.826 650.819 494ZM665.658 514V474H681.439C684.473 474 687.058 474.579 689.193 475.738C691.329 476.884 692.956 478.479 694.076 480.523C695.209 482.555 695.775 484.898 695.775 487.555C695.775 490.211 695.202 492.555 694.057 494.586C692.911 496.617 691.251 498.199 689.076 499.332C686.915 500.465 684.298 501.031 681.225 501.031H671.166V494.254H679.857C681.485 494.254 682.826 493.974 683.881 493.414C684.949 492.841 685.743 492.053 686.264 491.051C686.798 490.035 687.064 488.87 687.064 487.555C687.064 486.227 686.798 485.068 686.264 484.078C685.743 483.076 684.949 482.301 683.881 481.754C682.813 481.194 681.459 480.914 679.818 480.914H674.115V514H665.658ZM701.269 474H711.698L722.714 500.875H723.183L734.198 474H744.628V514H736.425V487.965H736.093L725.741 513.805H720.155L709.804 487.867H709.472V514H701.269V474ZM751.596 514V474H778.549V480.973H760.053V490.504H777.162V497.477H760.053V507.027H778.627V514H751.596ZM818.729 474V514H811.425L794.022 488.824H793.729V514H785.272V474H792.694L809.96 499.156H810.312V474H818.729ZM824.193 480.973V474H857.045V480.973H844.799V514H836.439V480.973H824.193Z" fill="black"/>
<path d="M651 654L680 683.059L651 711" stroke="white" stroke-width="7"/>
<path d="M868.052 532.485L910.098 517.531L924.04 559.026" stroke="white" stroke-width="7"/>
<path d="M838.091 259.158L839.823 215.349L882.674 219.347" stroke="white" stroke-width="7"/>
<path d="M393.245 358.172L355.678 382.26L332.702 345" stroke="white" stroke-width="7"/>
<g clip-path="url(#clip0_3105_1067)">
<path d="M56 97C75.33 97 91 81.33 91 62C91 42.67 75.33 27 56 27C36.67 27 21 42.67 21 62C21 81.33 36.67 97 56 97Z" fill="#5559D9"/>
<path d="M74.3114 51.1044C74.3707 51.1102 74.43 51.1209 74.4893 51.1209H77.7475C77.8078 51.1209 77.8681 51.1209 77.9274 51.1267C78.0987 51.1399 78.2595 51.2143 78.3805 51.3363C78.5015 51.4583 78.5746 51.6197 78.5864 51.7911C78.5982 51.9625 78.5479 52.1324 78.4448 52.2698C78.3416 52.4072 78.1925 52.503 78.0246 52.5395C77.9362 52.5568 77.8463 52.565 77.7562 52.5638C75.0221 52.5638 72.2877 52.5638 69.5529 52.5638C69.4238 52.5579 69.2952 52.584 69.1786 52.6396C69.0572 52.6965 68.9546 52.7868 68.8827 52.8999C68.8109 53.0131 68.7729 53.1444 68.7731 53.2784C68.767 53.4126 68.8006 53.5455 68.8698 53.6606C68.939 53.7756 69.0407 53.8676 69.1621 53.925C69.2761 53.9864 69.404 54.0172 69.5335 54.0145C70.1557 54.0145 70.778 54.0145 71.4003 54.0145C71.591 54.002 71.7796 54.0601 71.9302 54.1778C72.0402 54.2622 72.1226 54.3775 72.1668 54.509C72.2109 54.6404 72.2149 54.7821 72.1781 54.9158C72.1507 55.0517 72.082 55.1759 71.9814 55.2714C71.8809 55.3669 71.7533 55.4292 71.6161 55.4496C71.5401 55.4631 71.4629 55.4692 71.3857 55.4681C70.2092 55.4681 69.0331 55.4681 67.8572 55.4681C67.7631 55.4652 67.6689 55.4747 67.5772 55.4963C67.407 55.5415 67.2591 55.6474 67.1615 55.794C67.0639 55.9407 67.0232 56.1179 67.0471 56.2924C67.071 56.4669 67.1578 56.6267 67.2912 56.7417C67.4247 56.8567 67.5955 56.919 67.7717 56.9168C68.8496 56.9168 69.9272 56.9168 71.0046 56.9168C71.11 56.9127 71.2151 56.9321 71.3122 56.9736C71.4092 57.0151 71.4958 57.0778 71.5656 57.157C71.6622 57.2624 71.7256 57.394 71.7479 57.5353C71.7702 57.6765 71.7504 57.8212 71.691 57.9513C71.5743 58.2498 71.3293 58.3859 71.0104 58.3996C70.9132 58.3996 70.8159 58.3996 70.7187 58.3996H68.6652C68.5174 58.3996 68.5223 58.3782 68.4581 58.5337C67.2913 61.3923 66.123 64.2502 64.9529 67.1075C63.6766 70.2364 62.3994 73.364 61.1211 76.4902L60.8294 77.2088C60.7555 77.2088 60.6797 77.2088 60.6048 77.2088C59.3683 77.1549 58.1966 76.6409 57.3194 75.7678C56.5598 75.0279 56.0621 74.0605 55.9018 73.0123C55.7319 71.9752 55.5628 70.9381 55.3942 69.9009C55.2445 68.9779 55.0948 68.0555 54.945 67.1338C54.8219 66.3715 54.6974 65.6098 54.5717 64.8488C54.4459 64.0879 54.3218 63.322 54.1993 62.5513C54.0748 61.79 53.9484 61.0287 53.8269 60.2674C53.7024 59.4837 53.5828 58.7 53.4623 57.9163C53.4467 57.8191 53.4419 57.7219 53.4292 57.5945C53.4126 57.6163 53.3982 57.6397 53.3864 57.6645C53.086 58.5707 52.6971 59.4467 52.3373 60.3315C51.0344 63.5285 49.7299 66.7244 48.4238 69.9194C47.4567 72.2905 46.4886 74.6604 45.5195 77.0289C45.4437 77.2156 45.4427 77.2234 45.2424 77.2078C44.0803 77.1575 42.9723 76.703 42.1095 75.9228C41.2468 75.1426 40.6836 74.0857 40.517 72.9345C40.4081 72.2315 40.2895 71.5295 40.1748 70.8275C40.049 70.062 39.9239 69.2965 39.7995 68.531L39.4232 66.2334C39.2812 65.3622 39.1393 64.4907 38.9973 63.6189C38.8677 62.8106 38.7358 62.0026 38.6016 61.1949C38.4421 60.2226 38.283 59.2503 38.1242 58.278C37.9816 57.4068 37.839 56.5357 37.6964 55.6645C37.5538 54.7933 37.4125 53.9244 37.2724 53.0577C37.1752 52.4743 37.078 51.891 36.9808 51.3076C36.9697 51.2734 36.9543 51.2407 36.9351 51.2104V51.1073H40.7465C40.8554 51.1248 40.9662 51.1374 41.0742 51.1598C41.3274 51.2057 41.5598 51.3303 41.7382 51.5159C41.9165 51.7014 42.0319 51.9385 42.0678 52.1933C42.1126 52.5327 42.1651 52.874 42.2147 53.2113L42.4879 55.1054L42.7796 57.154C42.8775 57.8418 42.9747 58.5292 43.0713 59.2163C43.1678 59.9034 43.2651 60.5908 43.363 61.2785C43.4699 62.0253 43.5765 62.7723 43.6828 63.5197C43.7995 64.3384 43.9168 65.1571 44.0348 65.9757C44.1262 66.6087 44.2196 67.2397 44.3071 67.8727C44.3576 68.2461 44.414 68.6204 44.4412 68.9957C44.4811 69.548 44.4967 70.1003 44.5239 70.6535C44.5257 70.6796 44.529 70.7055 44.5336 70.7313C44.5624 70.6964 44.5839 70.656 44.5968 70.6127C44.6795 70.3647 44.7602 70.1158 44.8438 69.8679C45.1899 68.8839 45.5993 67.934 45.9882 66.9685C46.9799 64.5202 47.9739 62.0729 48.9702 59.6266C49.9665 57.1803 50.9602 54.733 51.9513 52.2847C52.0468 52.0357 52.1981 51.8118 52.3937 51.6304C52.6866 51.3412 53.0708 51.1628 53.4807 51.1258C53.5051 51.121 53.5288 51.1138 53.5517 51.1044H54.8361C54.945 51.1209 55.0559 51.1326 55.1638 51.1569C55.6957 51.2765 56.0496 51.5895 56.1886 52.1243C56.2168 52.2313 56.2294 52.3431 56.2469 52.453C56.4414 53.6424 56.6339 54.8312 56.8245 56.0194C56.9917 57.0519 57.1599 58.0842 57.3291 59.1161C57.4983 60.1481 57.6652 61.1803 57.8299 62.2129C57.9984 63.2455 58.1666 64.2778 58.3345 65.3097C58.5046 66.3549 58.6767 67.3992 58.8391 68.4454C58.9363 69.0803 59.0248 69.7181 59.0627 70.3608C59.0686 70.4581 59.0812 70.5553 59.0919 70.67C59.1026 70.6585 59.1123 70.6462 59.1211 70.6331C59.1434 70.5592 59.1658 70.4853 59.1872 70.4114C59.406 69.6579 59.6199 68.9034 59.9038 68.1702C60.4697 66.7118 61.0346 65.2533 61.5985 63.7949C63.0894 59.9394 64.5802 56.0848 66.0711 52.2313C66.0976 52.1541 66.1325 52.0801 66.1751 52.0106C66.3279 51.7635 66.5364 51.5557 66.7839 51.4038C67.0315 51.2518 67.3111 51.1599 67.6005 51.1355C67.6377 51.1294 67.6743 51.1209 67.7104 51.1102L74.3114 51.1044ZM80.5963 54.6047C80.5839 54.5823 80.5744 54.5585 80.5681 54.5337C80.5353 54.3841 80.4541 54.2496 80.337 54.151C80.2199 54.0524 80.0735 53.9952 79.9206 53.9882C79.5861 53.9882 79.2516 53.9834 78.9172 53.9882C78.7335 53.9951 78.5595 54.0723 78.4312 54.2039C78.3028 54.3354 78.2299 54.5113 78.2276 54.6951C78.2252 54.8788 78.2935 55.0565 78.4184 55.1913C78.5433 55.3261 78.7153 55.4078 78.8987 55.4195C79.2419 55.4311 79.5851 55.4301 79.9284 55.4195C80.0794 55.4124 80.2239 55.3557 80.3394 55.2581C80.4549 55.1606 80.535 55.0276 80.5672 54.8798C80.5742 54.8555 80.584 54.832 80.5963 54.8098V54.6047ZM73.5676 53.9882C73.4289 53.983 73.292 54.021 73.1758 54.0969C73.0596 54.1729 72.9699 54.283 72.919 54.4121C72.8578 54.5365 72.8359 54.6766 72.8564 54.8137C72.8769 54.9508 72.9388 55.0783 73.0338 55.1793C73.1036 55.2611 73.1913 55.3258 73.2901 55.3685C73.3888 55.4111 73.4961 55.4305 73.6035 55.4253C74.4319 55.4253 75.2597 55.4253 76.0868 55.4253C76.3571 55.4253 76.6274 55.4311 76.8967 55.4253C77.0064 55.4221 77.1139 55.3937 77.2108 55.3424C77.3078 55.2911 77.3917 55.2181 77.4561 55.1293C77.5204 55.0404 77.5635 54.9379 77.582 54.8298C77.6005 54.7216 77.5939 54.6107 77.5627 54.5055C77.5216 54.3568 77.4326 54.2258 77.3096 54.1327C77.1866 54.0396 77.0364 53.9895 76.8821 53.9902C76.3299 53.9902 75.7766 53.9902 75.2234 53.9902C74.6701 53.9902 74.1208 53.9863 73.5676 53.9882Z" fill="white"/>
</g>
<path d="M877.441 215.648H877.512" stroke="#C5CAE9" stroke-linecap="round"/>
<path d="M878.66 215.742C878.682 215.742 878.703 215.742 878.724 215.742C878.759 215.742 878.796 215.756 878.828 215.742" stroke="#C5CAE9" stroke-linecap="round"/>
<path d="M878.578 215.652C878.565 215.64 878.526 215.648 878.511 215.648C878.399 215.648 878.287 215.65 878.175 215.648C878.122 215.648 878.072 215.642 878.02 215.633C878.017 215.632 877.992 215.624 878.008 215.625C878.017 215.626 878.028 215.631 878.036 215.635C878.072 215.648 878.108 215.662 878.143 215.676C878.251 215.716 878.361 215.753 878.468 215.795C878.586 215.841 878.69 215.916 878.805 215.969" stroke="#C5CAE9" stroke-linecap="round"/>
<path d="M880.82 216.277C880.733 216.268 880.644 216.266 880.555 216.266C880.525 216.266 880.612 216.283 880.64 216.294C881.041 216.454 881.422 216.671 881.808 216.862C882.372 217.142 882.937 217.42 883.51 217.678C883.721 217.773 883.934 217.865 884.153 217.941C884.158 217.942 884.247 217.982 884.255 217.976C884.264 217.971 884.241 217.962 884.233 217.956C884.166 217.906 884.096 217.862 884.027 217.814C883.471 217.429 882.963 216.979 882.462 216.527C882.409 216.48 882.349 216.431 882.304 216.376C882.27 216.334 882.408 216.41 882.455 216.436C882.958 216.71 883.434 217.036 883.949 217.287C883.992 217.308 884.037 217.335 884.083 217.352C884.107 217.36 884.061 217.306 884.047 217.284C883.737 216.801 883.539 216.259 883.256 215.761C883.218 215.695 883.18 215.621 883.131 215.561C883.105 215.53 883.188 215.712 883.188 215.712C883.323 216.003 883.456 216.296 883.595 216.586C883.608 216.613 883.613 216.624 883.577 216.61C883.215 216.469 882.871 216.249 882.533 216.064C882.046 215.796 881.561 215.523 881.087 215.233C880.951 215.151 880.817 215.055 880.672 214.989C880.643 214.976 880.67 214.996 880.682 215.008C880.777 215.098 880.873 215.188 880.967 215.279C881.294 215.597 881.626 215.907 881.978 216.197C882.215 216.392 882.456 216.581 882.718 216.74C882.783 216.779 882.85 216.828 882.921 216.855C883.329 217.008 882.116 216.525 881.722 216.343C881 216.01 880.307 215.621 879.59 215.279C879.56 215.265 879.471 215.221 879.501 215.235C879.655 215.306 879.799 215.408 879.943 215.497C880.435 215.802 880.931 216.105 881.438 216.384C881.48 216.407 881.529 216.428 881.567 216.458C881.621 216.503 881.44 216.398 881.377 216.365C880.805 216.068 880.253 215.734 879.669 215.457C879.662 215.454 879.454 215.343 879.444 215.359C879.44 215.364 879.825 215.665 879.826 215.666C880.72 216.402 881.591 217.165 882.542 217.828C882.661 217.91 882.781 217.991 882.902 218.069C882.903 218.07 883.019 218.135 882.95 218.112C882.89 218.092 882.841 218.069 882.78 218.042C882.435 217.885 882.094 217.717 881.757 217.542C881.221 217.264 880.7 216.959 880.18 216.653C879.96 216.524 879.74 216.393 879.525 216.255C879.454 216.21 879.354 216.161 879.301 216.093C879.287 216.076 879.347 216.09 879.367 216.1C879.552 216.186 879.731 216.288 879.91 216.385C881.093 217.03 882.182 217.829 883.223 218.681C883.285 218.732 883.096 218.583 883.033 218.534C882.577 218.175 882.142 217.79 881.708 217.405C881.137 216.9 880.566 216.391 880.038 215.84C880.037 215.838 879.968 215.771 880.02 215.826C880.22 216.04 880.444 216.238 880.657 216.44C881.142 216.9 881.637 217.349 882.159 217.766C882.589 218.11 883.036 218.433 883.477 218.762C883.666 218.903 883.857 219.043 884.044 219.187C884.105 219.234 884.176 219.28 884.23 219.334C884.258 219.362 884.153 219.314 884.117 219.297C883.776 219.142 883.449 218.954 883.121 218.773C882.24 218.286 881.326 217.828 880.504 217.245C880.27 217.079 880.018 216.908 879.814 216.703C879.811 216.7 879.753 216.641 879.776 216.647C879.84 216.664 879.906 216.733 879.957 216.77C880.133 216.901 880.308 217.034 880.48 217.169C880.937 217.524 881.374 217.911 881.814 218.286C881.909 218.368 882.001 218.451 882.089 218.541C882.279 218.735 882.473 218.93 882.658 219.129C882.821 219.304 882.98 219.482 883.139 219.659C883.169 219.692 883.199 219.725 883.232 219.754C883.233 219.755 883.262 219.773 883.255 219.777C883.212 219.803 882.946 219.563 882.914 219.538C882.703 219.368 882.507 219.179 882.299 219.004C882.095 218.833 881.895 218.658 881.693 218.484C881.457 218.278 881.231 218.063 880.997 217.854C880.851 217.722 880.702 217.594 880.569 217.448C880.389 217.25 880.224 217.038 880.049 216.835C879.954 216.724 879.853 216.624 879.75 216.521C879.646 216.417 879.759 216.543 879.795 216.584C880.014 216.84 880.204 217.117 880.393 217.394C880.566 217.648 880.738 217.9 880.896 218.163C881.096 218.496 881.345 218.797 881.542 219.132C881.665 219.342 881.799 219.545 881.924 219.754C881.979 219.846 882.022 219.954 882.093 220.036C882.178 220.133 882.263 220.226 882.334 220.334C882.408 220.445 882.473 220.562 882.559 220.665C882.584 220.694 882.669 220.762 882.713 220.762" stroke="#C5CAE9" stroke-linecap="round"/>
<path d="M876.82 214.869C876.843 214.986 877.068 215.076 877.158 215.135C877.23 215.183 877.452 215.315 877.375 215.276C877.309 215.243 877.246 215.2 877.175 215.177C877.105 215.154 877.03 215.141 876.959 215.12C876.915 215.107 876.854 215.11 876.814 215.088C876.796 215.078 876.746 215.061 876.725 215.058C876.716 215.057 876.659 215.047 876.654 215.041C876.63 215.01 876.573 215.023 876.545 214.976C876.531 214.952 876.511 214.932 876.491 214.914C876.438 214.867 876.565 215.034 876.602 215.095C876.698 215.253 876.778 215.399 876.849 215.571C876.869 215.62 876.891 215.66 876.926 215.697C877.009 215.785 877.101 215.862 877.187 215.946C877.464 216.218 877.712 216.533 878.014 216.779C878.156 216.895 878.264 217.046 878.393 217.175C878.531 217.313 878.666 217.451 878.784 217.608C878.974 217.86 879.112 218.22 879.47 218.265C879.486 218.267 879.502 218.264 879.518 218.265C879.548 218.269 879.586 218.364 879.601 218.386C879.64 218.446 879.687 218.503 879.718 218.567C879.75 218.632 879.777 218.703 879.82 218.762C879.911 218.885 880.043 218.996 880.157 219.099C880.215 219.151 880.269 219.208 880.327 219.261C880.384 219.313 880.452 219.35 880.512 219.399C880.614 219.482 880.703 219.577 880.788 219.678C880.833 219.731 880.9 219.766 880.959 219.816C881.034 219.878 881.087 219.965 881.163 220.026C881.241 220.089 881.322 220.148 881.399 220.213C881.496 220.293 881.608 220.364 881.698 220.452C881.81 220.562 881.918 220.678 882.03 220.789C882.279 221.039 882.555 221.262 882.808 221.508C882.815 221.515 882.881 221.577 882.85 221.533C882.747 221.383 882.621 221.25 882.516 221.101C882.251 220.729 882.016 220.336 881.773 219.95C881.568 219.625 881.359 219.303 881.16 218.975C880.919 218.575 880.696 218.164 880.441 217.773C880.149 217.325 879.776 216.971 879.344 216.659C878.836 216.291 878.338 215.94 877.914 215.471C877.611 215.135 877.354 214.769 877.112 214.388C877.063 214.312 876.905 214.094 876.966 214.16C877.012 214.211 877.067 214.256 877.118 214.302C877.321 214.488 877.521 214.676 877.728 214.857C878.231 215.297 878.767 215.704 879.256 216.16C879.268 216.17 879.42 216.292 879.394 216.322C879.368 216.353 879.282 216.323 879.258 216.313C879.046 216.225 878.864 216.042 878.7 215.889C878.184 215.409 877.721 214.878 877.244 214.36C877.15 214.259 877.056 214.158 876.957 214.062C876.923 214.029 876.823 213.94 876.838 213.984C876.868 214.072 876.943 214.162 876.994 214.234C877.213 214.54 877.464 214.821 877.721 215.095C877.997 215.391 878.294 215.658 878.586 215.937C878.824 216.166 879.137 216.304 879.319 216.588C879.404 216.719 879.506 216.841 879.586 216.973C879.646 217.07 879.604 217.113 879.498 217.104C879.399 217.096 879.303 217.046 879.216 217.002C879.142 216.965 879.236 217.018 879.258 217.037C879.37 217.134 879.475 217.235 879.578 217.342C879.714 217.486 879.826 217.648 879.965 217.789C879.969 217.793 880.024 217.843 879.987 217.837C879.945 217.829 879.895 217.798 879.858 217.78C879.738 217.722 879.618 217.662 879.497 217.605C879.427 217.572 879.341 217.549 879.283 217.497C879.277 217.492 879.228 217.452 879.249 217.469C879.381 217.576 879.529 217.671 879.653 217.785C879.716 217.844 879.792 217.88 879.861 217.931C879.942 217.992 879.988 218.057 880.05 218.135C880.096 218.193 880.123 218.263 880.192 218.301C880.209 218.31 880.235 218.332 880.208 218.305C880.12 218.217 880.034 218.127 879.95 218.035C879.78 217.849 879.607 217.666 879.437 217.48C879.314 217.345 879.177 217.203 879.089 217.042C879.045 216.963 879.031 216.873 878.987 216.794C878.925 216.685 878.85 216.584 878.775 216.484C878.772 216.48 878.74 216.442 878.738 216.451C878.721 216.508 878.794 216.591 878.823 216.629C879.044 216.914 879.307 217.164 879.536 217.443C879.651 217.584 879.77 217.724 879.879 217.87C879.943 217.954 879.997 218.045 880.071 218.121C880.139 218.19 880.227 218.281 880.263 218.372" stroke="#C5CAE9" stroke-linecap="round"/>
<path d="M834.749 254.959C834.754 255.004 834.814 255.051 834.84 255.082C834.916 255.173 834.983 255.269 835.057 255.361C835.116 255.435 835.201 255.516 835.274 255.578C835.46 255.735 835.636 255.905 835.816 256.071C836.222 256.444 836.641 256.803 837.038 257.185C837.218 257.357 837.385 257.545 837.558 257.723C837.835 258.01 838.106 258.302 838.378 258.593C838.556 258.784 838.741 258.974 838.906 259.178C839.127 259.452 839.277 259.78 839.552 260.009C839.565 260.02 839.718 260.135 839.716 260.136C839.635 260.152 839.508 260.061 839.451 260.025C839.088 259.796 838.787 259.477 838.469 259.192C837.699 258.5 836.842 257.94 836.011 257.328C835.349 256.84 834.74 256.273 834.164 255.688C833.82 255.339 833.505 254.961 833.162 254.612C832.871 254.316 833.688 255.254 833.965 255.563C834.698 256.38 835.44 257.189 836.164 258.015C836.466 258.36 836.796 258.698 837.068 259.068C837.09 259.098 837 259.041 836.97 259.02C836.643 258.793 836.338 258.534 836.027 258.286C835.625 257.965 835.218 257.648 834.78 257.376C834.592 257.259 834.395 257.14 834.182 257.073C834.173 257.071 834.015 257.017 834.006 257.034C833.995 257.055 834.388 257.386 834.391 257.389C834.785 257.754 835.186 258.107 835.592 258.459C835.751 258.596 835.917 258.733 836.061 258.886C836.061 258.887 836.127 258.957 836.116 258.959C836.013 258.974 835.836 258.854 835.755 258.813C835.196 258.536 834.655 258.216 834.159 257.838C834.141 257.825 833.854 257.609 834.017 257.674C834.279 257.779 834.527 257.938 834.773 258.073C835.22 258.317 835.668 258.557 836.113 258.803C836.459 258.993 836.798 259.195 837.146 259.381C837.383 259.507 837.63 259.635 837.897 259.682C838.026 259.705 838.263 259.746 838.356 259.617C838.401 259.554 837.982 259.498 837.956 259.493C837.589 259.429 837.22 259.379 836.853 259.316C836.31 259.221 835.772 259.101 835.231 258.993C834.727 258.893 834.223 258.822 833.712 258.773C833.678 258.77 833.631 258.77 833.688 258.77" stroke="#C5CAE9" stroke-linecap="round"/>
<path d="M839.865 259.409C839.857 259.337 839.709 259.254 839.657 259.208C839.625 259.178 839.668 259.202 839.687 259.212C839.76 259.252 839.826 259.312 839.896 259.358C839.998 259.426 840.318 259.604 840.21 259.547C840.128 259.504 840.036 259.467 839.96 259.412C839.893 259.364 839.854 259.287 839.795 259.23C839.745 259.183 839.695 259.133 839.635 259.1C839.532 259.043 839.703 259.108 839.731 259.122C839.823 259.17 839.895 259.232 839.974 259.294C840.001 259.316 840.043 259.353 839.98 259.32C839.834 259.243 839.706 259.129 839.599 259.01C839.555 258.961 839.504 258.929 839.456 258.885C839.435 258.867 839.41 258.847 839.386 258.834C839.37 258.825 839.426 258.843 839.444 258.86C839.498 258.914 839.554 258.966 839.609 259.02C839.623 259.034 839.697 259.093 839.696 259.09C839.645 258.988 839.525 258.915 839.45 258.835C839.309 258.684 839.097 258.601 838.944 258.463C838.773 258.309 838.603 258.127 838.413 257.996C838.316 257.929 838.225 257.842 838.118 257.791C838.07 257.768 838.032 257.735 837.995 257.698C837.937 257.642 837.902 257.627 837.999 257.689C838.324 257.893 838.65 258.095 838.975 258.299C839.095 258.374 839.213 258.451 839.329 258.531C839.332 258.533 839.401 258.578 839.39 258.564C839.355 258.52 839.284 258.5 839.24 258.467C839.017 258.305 838.791 258.147 838.563 257.993C838.436 257.906 838.307 257.825 838.192 257.722C838.146 257.681 838.082 257.62 838.064 257.558C838.059 257.54 838.096 257.578 838.109 257.592C838.188 257.677 838.273 257.754 838.358 257.833C838.6 258.056 838.842 258.29 839.055 258.542C839.093 258.587 839.18 258.669 839.089 258.577C838.844 258.329 838.616 258.061 838.384 257.801C838.128 257.513 837.876 257.195 837.556 256.974C837.402 256.868 837.233 256.783 837.085 256.666C837.006 256.603 836.943 256.531 836.872 256.461C836.831 256.42 836.938 256.556 836.974 256.601C837.062 256.71 837.168 256.801 837.266 256.9C837.276 256.91 837.37 257.015 837.371 257.005C837.375 256.941 837.384 256.966 837.358 256.941C837.332 256.915 837.25 256.793 837.23 256.852" stroke="#C5CAE9" stroke-linecap="round"/>
<path d="M837.039 256.698C836.914 256.561 836.785 256.461 836.635 256.353C836.538 256.283 836.428 256.236 836.347 256.146C836.238 256.026 836.116 255.914 835.99 255.813C835.785 255.648 835.62 255.446 835.473 255.229C835.346 255.04 835.178 254.899 835.102 254.677C835.072 254.591 835.01 254.527 834.977 254.444C834.958 254.398 834.918 254.356 834.896 254.307C834.88 254.271 834.845 254.23 834.82 254.199C834.754 254.118 834.701 253.996 834.666 253.897C834.651 253.854 834.632 253.811 834.612 253.769C834.592 253.731 834.545 253.691 834.558 253.764C834.575 253.856 834.662 253.945 834.708 254.022C834.739 254.073 834.764 254.127 834.801 254.172C834.854 254.239 834.923 254.286 834.967 254.363C834.988 254.4 835.026 254.427 835.043 254.466C835.06 254.504 835.106 254.57 835.133 254.601C835.166 254.638 835.181 254.687 835.217 254.723C835.267 254.773 835.315 254.829 835.373 254.869C835.471 254.937 835.53 255.055 835.629 255.125C835.718 255.188 835.796 255.273 835.881 255.342C836.003 255.442 836.115 255.553 836.227 255.662C836.317 255.749 836.426 255.817 836.514 255.905C836.625 256.016 836.76 256.117 836.885 256.212C836.97 256.277 837.061 256.338 837.134 256.417C837.192 256.48 837.252 256.546 837.319 256.601C837.453 256.709 837.578 256.829 837.705 256.945C837.807 257.039 837.919 257.134 838.011 257.237C838.133 257.373 838.236 257.542 838.34 257.692C838.416 257.802 838.533 257.9 838.596 258.015C838.627 258.072 838.684 258.111 838.733 258.149C838.812 258.21 838.862 258.287 838.919 258.373" stroke="#C5CAE9" stroke-linecap="round"/>
<path d="M922.257 560.239C922.257 560.209 922.265 560.182 922.277 560.155C922.334 560.021 922.413 559.894 922.483 559.767C922.603 559.55 922.713 559.322 922.865 559.125C922.911 559.065 922.962 559.006 923.015 558.951C923.129 558.833 923.227 558.696 923.332 558.57C923.468 558.407 923.615 558.253 923.751 558.089C923.992 557.8 924.197 557.485 924.447 557.204C924.572 557.063 924.708 556.935 924.855 556.817C924.999 556.7 925.151 556.591 925.276 556.451C925.456 556.25 925.516 555.994 925.54 555.732" stroke="#C5CAE9" stroke-linecap="round"/>
<path d="M930.942 554.747C930.446 554.747 929.996 554.791 929.519 554.939C928.872 555.138 928.166 555.462 927.684 555.952C927.377 556.264 927.134 556.627 926.895 556.989C926.384 557.764 925.879 558.542 925.357 559.31C925.344 559.329 925.307 559.385 925.314 559.363C925.348 559.251 925.45 559.12 925.514 559.032C926.694 557.399 928.107 555.917 929.41 554.383C930.267 553.373 931.145 552.379 931.924 551.307C931.983 551.226 932.057 551.139 932.106 551.05C932.204 550.875 931.861 551.368 931.75 551.536C930.64 553.21 929.651 554.973 928.66 556.719C927.639 558.519 926.65 560.337 925.664 562.155C925.362 562.713 925.074 563.28 924.758 563.83C924.498 564.284 925.313 562.943 925.58 562.494C926.542 560.878 927.429 559.213 928.288 557.541C928.44 557.246 928.585 556.949 928.727 556.649C928.76 556.578 928.872 556.403 928.797 556.426C928.67 556.464 928.516 556.596 928.419 556.668C927.87 557.082 927.357 557.547 926.832 557.991C926.005 558.693 925.201 559.467 924.316 560.097C924.229 560.159 924 560.365 924.026 560.132C924.081 559.645 924.364 559.142 924.57 558.707C924.813 558.197 925.086 557.703 925.404 557.236C925.531 557.05 925.665 556.866 925.764 556.663C925.952 556.278 926.132 555.887 926.355 555.522C926.449 555.368 926.524 555.164 926.645 555.029C926.934 554.704 926.997 554.086 927.146 553.69C927.159 553.654 927.332 553.21 927.294 553.199C927.219 553.178 926.999 553.357 926.924 553.391C926.86 553.42 926.466 553.595 926.406 553.541C926.349 553.49 926.405 553.238 926.425 553.17C926.446 553.102 926.446 552.97 926.431 552.902C926.4 552.759 926.243 553.029 926.238 553.037C926.161 553.157 926.076 553.261 925.993 553.377C925.905 553.499 925.744 553.677 925.694 553.815C925.583 554.12 925.362 554.417 925.228 554.719C924.914 555.426 924.479 556.089 924.146 556.788C923.69 557.744 923.012 558.564 922.602 559.545C922.412 559.998 922.286 560.51 922.058 560.946C921.991 561.074 921.96 560.902 921.96 560.854C921.96 560.719 922.03 560.585 922.03 560.471C922.03 560.418 922.118 560.335 922.144 560.277C922.18 560.196 922.195 560.071 922.25 560.003C922.328 559.904 922.426 559.768 922.488 559.658C922.725 559.245 923.125 558.938 923.441 558.584C923.993 557.968 924.587 557.403 925.193 556.841C925.855 556.226 926.506 555.599 927.169 554.986C927.186 554.97 927.542 554.66 927.553 554.692C927.609 554.86 927.291 555.319 927.226 555.44C925.974 557.753 924.448 559.923 923.042 562.146C923.039 562.15 922.886 562.366 922.878 562.33C922.808 562.016 923.031 561.607 923.15 561.345C924 559.476 925.024 557.671 925.983 555.856C926.262 555.328 926.527 554.772 926.883 554.289C927.045 554.07 927.349 553.728 927.349 553.451C927.349 553.213 927.135 553.885 927.095 554.121C927.03 554.497 926.648 554.92 926.386 555.181C926.187 555.38 926.187 555.248 926.152 555.011C926.124 554.824 926.059 554.53 926.159 554.359C926.264 554.182 926.127 554.745 926.118 554.815C926.102 554.947 926.056 555.087 926.007 555.211C925.872 555.548 925.689 555.872 925.553 556.212C925.461 556.441 925.383 556.689 925.281 556.909C925.101 557.296 924.959 557.701 924.797 558.097C924.626 558.518 924.39 558.904 924.187 559.31C924.116 559.453 924.109 559.484 924.109 559.306C924.109 559.208 924.184 558.874 924.091 558.833C923.952 558.771 924.001 558.932 924.003 559.044C924.011 559.433 924.89 558.858 924.997 558.794C925.304 558.609 925.524 558.381 925.764 558.128C925.856 558.032 926.004 557.937 926.046 557.811" stroke="#C5CAE9" stroke-linecap="round" stroke-dasharray="2 2"/>
<path d="M928.829 554.042C928.468 554.519 927.994 554.926 927.596 555.373C927.168 555.854 926.744 556.33 926.406 556.88C926.23 557.166 926.07 557.463 925.913 557.76C925.823 557.931 925.835 557.736 925.835 557.651C925.835 556.945 926.132 556.269 926.355 555.608C926.485 555.224 926.627 554.823 926.715 554.426C926.772 554.173 926.776 553.908 926.839 553.657C926.879 553.497 926.868 553.328 926.909 553.166C926.929 553.087 927.025 552.861 926.995 552.937C926.854 553.291 926.689 553.627 926.481 553.948C925.933 554.793 925.337 555.551 924.645 556.269C924.574 556.343 924.461 556.62 924.461 556.437C924.461 556.173 924.568 555.95 924.672 555.715C924.717 555.616 924.747 555.472 924.821 555.389C924.987 555.204 924.847 555.668 924.831 555.715C924.63 556.317 924.303 557.004 923.808 557.41C923.458 557.696 923.135 557.927 922.929 558.34C922.846 558.506 922.759 558.665 922.682 558.835C922.6 559.017 922.473 559.151 922.383 559.326C922.297 559.492 922.139 559.636 922.066 559.801C922 559.949 922.028 560.065 921.98 560.222C921.937 560.362 921.825 560.636 921.819 560.312C921.811 559.876 921.901 559.598 922.191 559.269C922.413 559.018 922.646 558.758 922.837 558.482C922.993 558.257 923.126 558.007 923.318 557.807C923.464 557.656 923.665 557.531 923.776 557.349C924.028 556.937 924.203 556.509 924.426 556.085C924.604 555.747 924.829 555.442 924.982 555.099C925.068 554.904 925.122 554.482 925.306 554.367C925.471 554.264 925.554 553.992 925.712 553.866C925.799 553.796 925.812 553.631 925.905 553.584" stroke="#C5CAE9" stroke-linecap="round" stroke-dasharray="2 2"/>
<path d="M867.662 531.351C867.695 530.97 867.877 530.608 868.047 530.271C868.591 529.198 869.247 528.17 869.878 527.146C869.902 527.108 870.197 526.619 870.168 526.639C870.043 526.726 869.93 526.898 869.838 527.009C869.467 527.457 869.094 527.904 868.721 528.351C866.987 530.427 865.235 532.524 863.641 534.711C863.573 534.805 863.301 535.201 863.472 534.843C863.862 534.03 864.36 533.269 864.798 532.482C865.338 531.513 865.855 530.544 866.47 529.621C866.481 529.605 866.327 530.264 866.286 530.395C866.236 530.551 866.162 530.742 866.19 530.91C866.196 530.946 866.253 530.871 866.278 530.844C866.418 530.694 866.576 530.565 866.729 530.43C867.327 529.903 867.908 529.349 868.43 528.747C868.731 528.401 869.082 528.043 869.294 527.632C869.317 527.589 869.388 527.446 869.268 527.532C868.644 527.977 868.126 528.658 867.577 529.191C867.067 529.686 866.553 530.177 866.05 530.68C866.017 530.713 865.725 531.036 865.85 530.786C866.353 529.78 867.081 528.87 867.736 527.96C867.746 527.946 867.948 527.614 867.984 527.69C868.034 527.796 867.893 528.112 867.868 528.203C867.394 529.938 866.965 531.699 866.579 533.457C866.529 533.681 866.491 533.904 866.428 534.125C866.378 534.301 866.605 533.804 866.711 533.655C867.571 532.442 868.604 531.362 869.503 530.179C869.577 530.08 869.848 529.883 869.725 529.883C869.641 529.883 869.52 530.081 869.482 530.131C868.913 530.865 868.372 531.623 867.815 532.366C867.647 532.59 867.696 532.321 867.752 532.202C868.045 531.573 868.468 530.988 868.85 530.411C869.421 529.55 869.999 528.694 870.599 527.854C870.965 527.342 869.838 528.856 869.469 529.365C869.172 529.773 868.858 530.174 868.581 530.596C868.574 530.607 868.337 530.965 868.33 530.939C868.285 530.781 868.523 530.52 868.599 530.414C868.936 529.943 869.323 529.515 869.712 529.088C870.143 528.613 870.598 528.157 871.024 527.677C871.092 527.601 871.509 527.21 871.479 527.088C871.469 527.051 871.424 527.141 871.397 527.167C871.33 527.231 871.252 527.282 871.178 527.336C870.945 527.507 870.71 527.646 870.443 527.759C870.216 527.855 869.99 527.952 869.764 528.05C869.656 528.096 869.478 528.106 869.384 528.176C869.344 528.206 869.326 528.249 869.305 528.293C869.13 528.649 868.834 528.967 868.613 529.296C868.339 529.703 867.802 530.258 867.862 530.802C867.912 531.25 867.984 531.719 868.079 532.16C868.14 532.442 868.018 532.756 867.944 533.021C867.849 533.362 867.73 533.686 867.572 534.003C867.529 534.09 867.472 534.176 867.472 534.275C867.472 534.312 867.511 534.536 867.522 534.508C867.724 534.004 867.99 533.559 868.288 533.1C868.771 532.354 869.342 531.583 869.659 530.744C869.778 530.427 869.891 530.134 870.039 529.83C870.503 528.876 871.132 528.111 871.822 527.313C872.014 527.091 872.215 526.878 872.411 526.66C872.456 526.61 872.559 526.456 872.559 526.523C872.559 526.595 872.488 526.692 872.453 526.75C872.306 526.998 872.168 527.25 872.025 527.5C871.519 528.389 870.909 529.214 870.409 530.105C870.072 530.705 869.777 531.325 869.432 531.922C869.092 532.509 868.746 533.08 868.37 533.644C868.096 534.055 867.698 534.493 867.522 534.962C867.495 535.034 867.461 535.065 867.474 534.962C867.493 534.816 867.612 534.691 867.691 534.574C868.258 533.733 868.771 532.846 869.297 531.977C869.79 531.162 870.337 530.377 870.895 529.603C871.33 528.999 871.836 528.452 872.263 527.844C872.403 527.644 872.515 527.435 872.665 527.241C873.02 526.781 873.435 526.337 873.814 525.891C873.946 525.736 874.297 525.475 874.054 525.857C873.869 526.148 873.659 526.498 873.425 526.75C873.028 527.178 872.827 527.816 872.511 528.298C872.376 528.505 872.296 528.753 872.181 528.971C871.978 529.359 871.737 529.709 871.518 530.086C870.841 531.253 870.164 532.424 869.5 533.599C869.173 534.178 868.813 534.728 868.47 535.298C868.279 535.614 868.039 535.944 867.899 536.286C867.867 536.365 867.729 536.884 867.899 536.629" stroke="#C5CAE9" stroke-linecap="round" stroke-dasharray="2 2"/>
<path d="M871.275 529.545C871.239 529.943 870.828 530.547 870.673 530.863C870.239 531.747 869.78 532.62 869.373 533.517C869.291 533.699 869.193 533.88 869.138 534.072C869.066 534.323 869.262 533.564 869.339 533.314C869.746 531.999 870.28 530.721 870.871 529.479C871.085 529.028 871.301 528.586 871.476 528.118C871.662 527.622 871.771 527.108 871.941 526.607C872.047 526.294 872.153 525.681 872.453 525.477C872.506 525.441 872.437 525.604 872.411 525.662C872.053 526.457 871.672 527.239 871.288 528.023C869.697 531.277 868.165 534.557 866.589 537.818C866.46 538.086 866.322 538.361 866.167 538.615C866.069 538.775 866.094 538.436 866.095 538.407C866.11 538.073 866.273 537.793 866.41 537.495C866.76 536.733 867.103 535.97 867.477 535.218C868.249 533.666 869.106 532.171 869.923 530.643C870.175 530.171 870.999 528.792 870.702 529.238C869.877 530.475 868.85 531.602 867.968 532.804C867.764 533.082 867.71 533.361 867.59 533.684C867.559 533.769 867.288 534.551 867.234 534.442" stroke="#C5CAE9" stroke-linecap="round" stroke-dasharray="2 2"/>
<path d="M870.966 531.39C870.951 531.5 870.862 531.613 870.812 531.711C870.767 531.799 870.711 531.878 870.654 531.958C870.597 532.037 870.541 532.108 870.473 532.178C870.406 532.246 870.36 532.333 870.299 532.407C870.254 532.462 870.203 532.491 870.154 532.54C870.059 532.634 869.991 532.757 869.927 532.873C869.762 533.177 869.569 533.462 869.409 533.769C869.176 534.219 868.965 534.689 868.786 535.162C868.753 535.249 868.727 535.343 868.685 535.427C868.658 535.48 868.675 535.385 868.681 535.37C868.747 535.212 868.839 535.074 868.926 534.928C869.031 534.752 869.124 534.573 869.209 534.387C869.274 534.247 869.343 534.094 869.429 533.965C869.486 533.879 869.555 533.798 869.579 533.696C869.595 533.632 869.628 533.572 869.647 533.508C869.688 533.375 869.732 533.244 869.779 533.112C869.845 532.928 869.919 532.747 869.966 532.557C870.045 532.244 870.078 531.923 870.129 531.605C870.159 531.415 870.203 531.273 870.289 531.102C870.371 530.937 870.198 531.461 870.138 531.636C870.025 531.962 869.902 532.284 869.793 532.611C869.784 532.636 869.702 532.944 869.719 532.935C869.962 532.797 870.23 532.65 870.408 532.429C870.475 532.346 870.515 532.23 870.568 532.137C870.638 532.015 870.727 531.902 870.791 531.777C870.843 531.678 870.887 531.573 870.948 531.479C870.991 531.412 870.923 531.61 870.916 531.625C870.806 531.881 870.634 532.114 870.539 532.376C870.498 532.487 870.458 532.613 870.402 532.717C870.333 532.849 870.246 532.972 870.176 533.103C870.102 533.241 870.016 533.376 869.941 533.516C869.828 533.73 869.711 533.943 869.601 534.158C869.457 534.439 869.268 534.696 869.115 534.972C869.037 535.114 868.991 535.268 868.888 535.396C868.847 535.447 868.803 535.49 868.766 535.546C868.716 535.623 868.688 535.708 868.647 535.789C868.607 535.87 868.601 535.768 868.619 535.743C868.657 535.69 868.708 535.645 868.748 535.59C868.819 535.494 868.882 535.374 868.966 535.29" stroke="#C5CAE9" stroke-linecap="round" stroke-dasharray="2 2"/>
<path d="M868.479 535.866C868.625 535.734 868.723 535.545 868.841 535.397C868.88 535.348 868.902 535.284 868.931 535.228C868.971 535.153 869.038 535.095 869.088 535.028C869.151 534.944 869.178 534.839 869.241 534.756C869.291 534.689 869.342 534.613 869.379 534.54" stroke="#C5CAE9" stroke-linecap="round" stroke-dasharray="2 2"/>
<path d="M874.53 525.639C874.53 525.773 874.549 525.92 874.528 526.053C874.516 526.129 874.466 526.205 874.43 526.271C874.364 526.392 874.287 526.511 874.229 526.637C874.208 526.683 874.189 526.774 874.152 526.812C874.145 526.818 874.131 526.813 874.123 526.815C874.086 526.823 874.04 526.877 874.013 526.899C873.651 527.192 873.313 527.56 873.042 527.94C872.917 528.115 872.837 528.313 872.739 528.502C872.679 528.618 872.635 528.751 872.56 528.858C872.518 528.919 872.47 528.975 872.429 529.037C872.375 529.119 872.358 529.221 872.304 529.302" stroke="#C5CAE9" stroke-linecap="round" stroke-dasharray="2 2"/>
<path d="M874.029 526.839C874.029 526.874 874.029 526.908 874.029 526.942C874.029 527.076 874.003 527.163 873.936 527.277C873.872 527.385 873.803 527.478 873.717 527.564C873.67 527.612 873.632 527.661 873.592 527.714C873.434 527.924 873.262 528.12 873.097 528.322C872.922 528.536 872.741 528.744 872.567 528.958C872.392 529.173 872.257 529.418 872.069 529.622C871.979 529.719 871.876 529.805 871.801 529.915C871.713 530.043 871.643 530.182 871.557 530.309C871.534 530.343 871.508 530.395 871.474 530.42C871.466 530.425 871.467 530.323 871.468 530.311C871.481 530.179 871.512 530.045 871.539 529.915C871.575 529.735 871.604 529.553 871.648 529.374C871.711 529.121 871.819 528.89 871.944 528.662C872.04 528.488 872.126 528.315 872.204 528.133C872.218 528.1 872.145 528.203 872.139 528.212C872.003 528.404 871.862 528.595 871.743 528.798C871.532 529.159 871.39 529.57 871.247 529.962C871.239 529.983 871.194 530.079 871.239 530.075C871.483 530.05 871.711 529.917 871.866 529.732C871.982 529.594 872.094 529.451 872.201 529.305C872.269 529.213 872.331 529.115 872.412 529.033C872.549 528.896 872.711 528.783 872.829 528.627C872.898 528.537 872.982 528.466 873.054 528.38C873.12 528.302 873.177 528.21 873.255 528.145C873.369 528.05 873.655 527.72 873.589 527.852C873.569 527.892 873.513 527.903 873.495 527.94C873.493 527.942 873.548 527.891 873.561 527.876C873.582 527.854 873.635 527.831 873.597 527.852C873.541 527.884 873.497 527.967 873.464 528.02C873.25 528.364 873.054 528.728 872.881 529.094C872.761 529.347 872.628 529.583 872.476 529.82C872.402 529.935 872.317 530.045 872.232 530.152C872.1 530.319 872.003 530.507 871.892 530.687C871.802 530.832 871.663 530.94 871.492 530.94" stroke="#C5CAE9" stroke-linecap="round" stroke-dasharray="2 2"/>
<path d="M871.463 530.865C871.463 531.134 871.307 531.362 871.212 531.606C871.2 531.636 871.194 531.672 871.165 531.688C871.135 531.705 871.108 531.743 871.09 531.77C871.073 531.794 871.035 531.868 871.035 531.839C871.035 531.816 871.055 531.788 871.067 531.77C871.105 531.71 871.156 531.651 871.212 531.607C871.263 531.566 871.322 531.534 871.37 531.49C871.402 531.46 871.431 531.432 871.468 531.408C871.526 531.371 871.582 531.328 871.633 531.282C871.64 531.276 871.667 531.253 871.667 531.243C871.667 531.202 871.63 531.322 871.594 531.341" stroke="#C5CAE9" stroke-linecap="round" stroke-dasharray="2 2"/>
<path d="M869.783 531.63C869.804 531.64 869.793 531.715 869.793 531.733C869.791 531.855 869.773 531.976 869.767 532.098C869.756 532.289 869.722 532.473 869.638 532.647C869.577 532.774 869.48 532.881 869.412 533.004C869.317 533.176 869.261 533.381 869.2 533.567C869.113 533.832 869.05 534.1 868.997 534.374C868.966 534.533 868.946 534.697 868.902 534.854C868.894 534.883 868.889 534.912 868.88 534.941C868.877 534.95 868.873 534.962 868.882 534.95C868.906 534.919 868.947 534.911 868.981 534.896C869.08 534.852 869.167 534.813 869.242 534.738C869.26 534.72 869.271 534.703 869.293 534.691C869.303 534.685 869.25 534.769 869.24 534.782C869.18 534.867 869.123 534.995 869.027 535.048C868.996 535.065 868.968 535.137 868.953 535.167" stroke="#C5CAE9" stroke-linecap="round" stroke-dasharray="2 2"/>
<path d="M871.566 531.583C871.546 531.7 871.398 531.825 871.318 531.905C871.279 531.944 871.237 531.977 871.202 532.02C871.171 532.058 871.132 532.106 871.092 532.134C870.953 532.232 870.846 532.374 870.739 532.507C870.552 532.741 870.351 532.97 870.207 533.233C870.079 533.466 869.961 533.705 869.849 533.946C869.696 534.275 869.525 534.595 869.352 534.913C869.251 535.098 869.148 535.287 869.032 535.463C868.977 535.549 868.916 535.652 868.846 535.726C868.823 535.75 868.795 535.779 868.785 535.811" stroke="#C5CAE9" stroke-linecap="round" stroke-dasharray="2 2"/>
<path d="M652.103 711.324C652.121 711.31 652.161 711.314 652.178 711.314C652.34 711.311 652.502 711.313 652.664 711.313C653.739 711.313 654.816 711.321 655.891 711.312C656.315 711.308 656.739 711.292 657.16 711.249C657.182 711.247 657.247 711.239 657.225 711.239C657.052 711.239 656.839 711.308 656.68 711.346C654.624 711.834 652.599 712.45 650.56 713.001C649.432 713.306 648.3 713.613 647.15 713.829C647.054 713.847 646.957 713.866 646.86 713.878C646.848 713.879 646.813 713.885 646.823 713.878C646.852 713.859 646.888 713.853 646.922 713.844C647.425 713.71 647.938 713.604 648.445 713.489C649.471 713.257 650.498 713.029 651.517 712.77C652.197 712.597 652.873 712.408 653.55 712.224C653.597 712.211 653.647 712.199 653.693 712.182C653.794 712.146 653.495 712.264 653.397 712.309C652.678 712.643 651.982 713.025 651.285 713.402C651.144 713.479 651.002 713.556 650.862 713.635C650.767 713.687 650.796 713.672 650.717 713.715C650.702 713.724 650.655 713.743 650.672 713.742C650.736 713.737 650.876 713.664 650.921 713.647C651.378 713.474 651.84 713.316 652.303 713.16C652.944 712.944 653.588 712.732 654.21 712.462C654.236 712.451 654.262 712.44 654.288 712.428C654.31 712.417 654.374 712.403 654.352 712.392C654.32 712.375 654.282 712.41 654.249 712.423C654.161 712.456 654.034 712.511 653.953 712.55C653.536 712.748 653.139 712.996 652.786 713.294C652.716 713.353 652.574 713.455 652.742 713.478C653.016 713.515 653.333 713.468 653.562 713.306C653.832 713.114 654.042 712.754 654.014 712.417C654.001 712.258 653.935 712.083 653.808 711.978C653.662 711.857 653.437 711.782 653.263 711.737C653.002 711.671 652.587 711.611 652.32 711.595C651.822 711.567 651.292 711.657 650.877 711.949C650.856 711.964 650.785 712.007 650.787 712.044C650.793 712.134 651.086 712.209 651.13 712.225C651.874 712.491 652.66 712.648 653.449 712.691C653.706 712.705 653.963 712.705 654.217 712.661C654.336 712.64 654.54 712.606 654.626 712.504C654.804 712.293 653.719 712.042 653.64 712.025C653.019 711.891 652.35 711.846 651.716 711.89C651.61 711.898 651.5 711.909 651.395 711.935C651.387 711.936 651.367 711.946 651.375 711.948C651.411 711.959 651.45 711.961 651.488 711.966C652.061 712.042 652.655 712.076 653.231 712.012C653.587 711.973 654.041 711.909 654.332 711.671C654.351 711.655 654.396 711.617 654.351 711.595C654.218 711.529 654.004 711.546 653.863 711.539C653.219 711.507 652.572 711.515 651.928 711.518C651.714 711.519 651.498 711.518 651.286 711.55" stroke="#C5CAE9" stroke-linecap="round" stroke-dasharray="2 2"/>
<path d="M656.005 712.227C655.862 712.227 655.718 712.213 655.574 712.203C655.248 712.181 654.923 712.16 654.598 712.126C654.57 712.123 654.371 712.126 654.469 712.083C654.816 711.929 655.172 711.794 655.522 711.648C655.967 711.464 656.43 711.297 656.844 711.047C657.079 710.905 657.353 710.837 657.594 710.705C657.619 710.692 657.726 710.652 657.646 710.636C657.333 710.574 657.011 710.534 656.695 710.486C656.1 710.397 655.495 710.292 654.892 710.292C654.434 710.292 653.984 710.306 653.528 710.357C652.993 710.417 652.459 710.486 651.921 710.517C651.358 710.549 650.783 710.513 650.229 710.636C650.135 710.657 650.039 710.675 649.943 710.679C649.927 710.679 649.787 710.671 649.861 710.682C649.927 710.691 649.993 710.712 650.057 710.727C650.406 710.81 650.753 710.9 651.102 710.981C651.983 711.186 652.875 711.372 653.781 711.395C654.376 711.41 654.976 711.4 655.568 711.343C655.931 711.309 656.28 711.232 656.636 711.161C656.945 711.099 657.249 711.098 657.562 711.098C657.572 711.098 657.591 711.099 657.562 711.098C657.462 711.092 657.362 711.086 657.262 711.082C656.217 711.045 655.179 711.111 654.137 711.19C653.719 711.223 653.296 711.244 652.876 711.238C652.736 711.235 652.596 711.223 652.46 711.187C652.45 711.184 652.325 711.157 652.337 711.147C652.357 711.131 652.431 711.141 652.45 711.14C652.713 711.131 652.976 711.095 653.237 711.061C653.955 710.969 654.667 710.846 655.381 710.725C655.536 710.699 655.696 710.668 655.855 710.668" stroke="#C5CAE9" stroke-linecap="round" stroke-dasharray="2 2"/>
<path d="M657.919 709.647C657.521 709.647 657.12 709.664 656.722 709.647C656.692 709.645 656.612 709.65 656.588 709.623C656.559 709.591 656.645 709.584 656.656 709.583C656.791 709.574 656.921 709.551 657.054 709.53C657.212 709.505 657.378 709.467 657.538 709.464C657.651 709.463 657.763 709.454 657.876 709.454C658.02 709.454 658.165 709.454 658.309 709.454C658.464 709.454 658.001 709.454 657.846 709.454C657.612 709.454 657.38 709.424 657.147 709.421C657.021 709.42 656.895 709.421 656.769 709.421C656.737 709.421 656.712 709.429 656.683 709.432C656.668 709.434 656.652 709.454 656.677 709.454C656.747 709.454 656.711 709.464 656.661 709.464C656.576 709.464 656.494 709.492 656.409 709.496C656.356 709.499 656.305 709.493 656.253 709.505C656.139 709.53 656.009 709.51 655.893 709.524C655.698 709.546 655.505 709.557 655.312 709.593C655.059 709.641 654.798 709.66 654.544 709.693C654.395 709.712 654.242 709.722 654.092 709.722" stroke="#C5CAE9" stroke-linecap="round" stroke-dasharray="2 2"/>
<path d="M656.091 710.228C655.939 710.228 655.798 710.179 655.652 710.139C655.438 710.081 655.219 710.025 655.01 709.951C654.973 709.937 654.932 709.936 654.893 709.929C654.731 709.899 654.572 709.848 654.41 709.814C653.767 709.677 653.106 709.716 652.452 709.7C652.239 709.695 652.028 709.669 651.814 709.669C651.645 709.669 651.477 709.669 651.308 709.669C650.921 709.669 650.534 709.669 650.147 709.669C649.986 709.669 649.75 709.709 649.605 709.626C649.593 709.619 649.588 709.577 649.588 709.62C649.588 709.644 649.588 709.667 649.588 709.69" stroke="#C5CAE9" stroke-linecap="round" stroke-dasharray="2 2"/>
<path d="M650.072 710.013C650.125 710.048 650.251 710.023 650.311 710.023C650.448 710.023 650.585 710.023 650.722 710.023C650.871 710.023 651.021 710.023 651.171 710.023C651.404 710.023 651.64 710.082 651.872 710.107C652.356 710.16 652.842 710.209 653.329 710.228" stroke="#C5CAE9" stroke-linecap="round" stroke-dasharray="2 2"/>
<path d="M651.749 709.819C651.941 709.819 652.119 709.755 652.31 709.755C652.478 709.755 652.647 709.752 652.813 709.744C652.947 709.737 653.084 709.733 653.221 709.733C653.393 709.733 653.563 709.722 653.737 709.722C653.838 709.722 653.94 709.722 654.041 709.722C654.268 709.722 654.472 709.745 654.694 709.808" stroke="#C5CAE9" stroke-linecap="round" stroke-dasharray="2 2"/>
<path d="M656.264 709.54C656.258 709.499 655.788 709.54 655.715 709.54C655.649 709.54 655.576 709.533 655.516 709.55C655.484 709.559 655.437 709.556 655.404 709.561C655.365 709.566 655.299 709.559 655.264 709.574C655.232 709.588 655.199 709.577 655.167 709.591C655.142 709.602 655.073 709.604 655.043 709.604C654.978 709.604 654.899 709.616 654.836 709.634C654.807 709.643 654.769 709.626 654.745 709.645C654.731 709.656 654.665 709.658 654.646 709.658C654.594 709.658 654.543 709.679 654.49 709.679C654.444 709.679 654.397 709.679 654.35 709.679" stroke="#C5CAE9" stroke-linecap="round" stroke-dasharray="2 2"/>
<path d="M651.309 710.379C651.248 710.379 651.179 710.384 651.121 710.363C651.071 710.344 651.02 710.301 650.979 710.268C650.942 710.239 650.905 710.227 650.861 710.213C650.839 710.206 650.805 710.199 650.791 710.178C650.776 710.154 650.762 710.135 650.74 710.117C650.729 710.108 650.731 710.071 650.731 710.057C650.731 710.034 650.727 710.01 650.727 709.988C650.727 709.969 650.733 709.935 650.726 709.918C650.714 709.892 650.723 709.848 650.723 709.82C650.723 709.807 650.72 709.751 650.731 709.746" stroke="#C5CAE9" stroke-linecap="round" stroke-dasharray="2 2"/>
<path d="M650.73 709.754C650.73 709.732 650.727 709.71 650.727 709.688C650.727 709.662 650.727 709.674 650.727 709.691" stroke="#C5CAE9" stroke-linecap="round" stroke-dasharray="2 2"/>
<path d="M653.992 652.272C653.029 652.272 652.066 652.263 651.103 652.282C650.673 652.29 650.244 652.309 649.815 652.327C649.574 652.338 650.297 652.309 650.536 652.278C651.927 652.099 653.274 651.685 654.643 651.399C654.998 651.326 655.362 651.233 655.725 651.2C656.062 651.169 655.045 651.228 654.712 651.291C653.866 651.452 653.072 651.788 652.377 652.296C652.261 652.382 652.144 652.471 652.041 652.573C651.992 652.621 651.99 652.633 652.061 652.653C652.972 652.907 653.922 653.021 654.862 653.088C655.067 653.103 655.28 653.12 655.485 653.108C655.742 653.092 654.972 653.097 654.715 653.11C653.694 653.16 652.677 653.29 651.678 653.509C650.866 653.688 650.06 653.917 649.266 654.166C649.146 654.203 648.782 654.29 648.908 654.286C648.949 654.285 649.112 654.262 649.123 654.26C649.457 654.21 649.79 654.151 650.122 654.092C650.943 653.946 651.761 653.785 652.576 653.607C653.256 653.458 653.932 653.288 654.613 653.146C654.805 653.105 655.385 653.029 655.189 653.025C654.914 653.019 654.637 653.038 654.364 653.064C653.072 653.19 651.782 653.384 650.506 653.619C650.208 653.674 649.912 653.739 649.615 653.799C649.584 653.805 649.491 653.82 649.522 653.817C649.928 653.782 650.333 653.706 650.734 653.641C651.789 653.469 652.841 653.284 653.901 653.146C654.346 653.088 654.804 653.03 655.254 653.025C655.28 653.025 655.345 653.048 655.333 653.024C655.321 653.001 655.283 653.01 655.257 653.005C655.134 652.979 655.01 652.959 654.886 652.941C654.404 652.874 653.919 652.834 653.435 652.782C653.423 652.78 653.338 652.784 653.327 652.771C653.318 652.761 653.5 652.702 653.503 652.701C653.797 652.608 654.09 652.512 654.387 652.432C654.422 652.423 654.474 652.399 654.511 652.399C654.539 652.399 654.463 652.428 654.44 652.443C654.271 652.55 654.105 652.661 653.934 652.765C653.298 653.152 652.64 653.509 651.969 653.833C651.486 654.066 650.985 654.296 650.465 654.436C650.102 654.533 649.75 654.543 649.378 654.543C649.251 654.543 649.118 654.532 648.991 654.546C648.953 654.551 648.827 654.613 648.829 654.613C649.451 654.613 650.073 654.604 650.695 654.599C651.177 654.595 651.658 654.618 652.14 654.612C652.749 654.604 653.355 654.544 653.965 654.599" stroke="#C5CAE9" stroke-linecap="round" stroke-dasharray="2 2"/>
<path d="M649.869 654.794C649.774 654.794 649.604 654.76 649.514 654.801C649.42 654.844 649.303 654.931 649.264 655.031C649.223 655.135 649.262 655.273 649.298 655.371C649.311 655.409 649.382 655.329 649.422 655.324C649.476 655.317 649.521 655.309 649.578 655.309C649.726 655.309 649.875 655.309 650.023 655.309C650.108 655.309 650.189 655.287 650.273 655.279C650.396 655.266 650.519 655.257 650.642 655.247C651.374 655.189 652.117 655.212 652.851 655.212C653.154 655.212 653.463 655.188 653.765 655.162C654.3 655.117 654.842 655.108 655.379 655.08C655.689 655.064 655.996 655.053 656.305 655.017C656.612 654.981 656.923 654.973 657.229 654.926C657.329 654.911 657.436 654.878 657.538 654.878C657.564 654.878 657.589 654.878 657.615 654.878C657.631 654.878 657.589 654.88 657.579 654.885C657.46 654.939 657.312 655.073 657.177 655.073C657.109 655.073 657.041 655.073 656.974 655.073C656.868 655.073 657.187 655.065 657.291 655.083C657.303 655.086 657.456 655.128 657.455 655.128C657.43 655.154 657.251 655.128 657.218 655.128C657.054 655.128 656.889 655.128 656.725 655.128C656.338 655.128 655.953 655.143 655.567 655.153C655.156 655.164 654.737 655.173 654.327 655.141C653.854 655.104 653.387 655.032 652.912 655.006C651.909 654.952 650.909 654.853 649.906 654.811C649.802 654.807 649.694 654.819 649.59 654.807C649.523 654.8 649.456 654.777 649.389 654.766C649.352 654.76 649.256 654.778 649.279 654.749C649.298 654.726 649.335 654.73 649.364 654.723C649.574 654.671 649.787 654.629 649.999 654.587C650.821 654.421 651.651 654.293 652.482 654.179C653.711 654.01 654.934 653.895 656.175 653.881C656.927 653.872 657.679 653.887 658.429 653.947C658.923 653.987 659.415 654.056 659.907 654.115C660.087 654.137 660.628 654.167 660.447 654.167C659.879 654.167 659.311 654.167 658.743 654.142C656.963 654.061 655.194 653.829 653.429 653.596C653.038 653.544 652.645 653.487 652.251 653.46C652.229 653.458 652.12 653.447 652.212 653.443C652.342 653.438 652.474 653.449 652.603 653.46C653.012 653.494 653.42 653.544 653.828 653.582C654.642 653.658 655.456 653.694 656.27 653.75C656.632 653.775 657.011 653.79 657.365 653.875C657.369 653.875 657.424 653.884 657.398 653.895C657.226 653.963 657.034 654.002 656.855 654.044C655.923 654.261 654.96 654.339 654.005 654.348C653.814 654.35 653.24 654.348 653.431 654.348C653.68 654.348 653.927 654.281 654.174 654.251C654.594 654.2 655.032 654.153 655.455 654.153" stroke="#C5CAE9" stroke-linecap="round" stroke-dasharray="2 2"/>
<path d="M656.249 654.599C655.703 654.599 655.151 654.58 654.605 654.607C654.125 654.63 653.655 654.71 653.174 654.71C652.887 654.71 652.6 654.71 652.313 654.71C652.12 654.71 651.927 654.712 651.742 654.774C651.544 654.84 651.347 654.91 651.151 654.978C650.923 655.058 650.683 655.156 650.44 655.156C650.306 655.156 650.17 655.135 650.036 655.125C649.938 655.118 649.842 655.114 649.744 655.114C649.684 655.114 649.6 655.099 649.543 655.121C649.473 655.148 649.587 655.169 649.607 655.173C649.772 655.205 649.939 655.228 650.104 655.26C650.349 655.308 650.599 655.254 650.844 655.285C651.048 655.311 651.25 655.31 651.457 655.31C651.549 655.31 651.636 655.282 651.729 655.282C652.073 655.282 652.417 655.282 652.76 655.247C653.004 655.222 653.257 655.234 653.503 655.225C653.667 655.22 653.829 655.212 653.992 655.212C654.17 655.212 654.347 655.212 654.525 655.212C654.856 655.212 655.196 655.165 655.524 655.121C655.643 655.105 655.767 655.089 655.887 655.087C655.962 655.085 656.058 655.104 656.129 655.08C656.142 655.076 656.135 655.1 656.152 655.101C656.173 655.102 656.194 655.101 656.215 655.101C656.249 655.101 656.284 655.101 656.319 655.101C656.41 655.101 656.493 655.087 656.584 655.087" stroke="#C5CAE9" stroke-linecap="round" stroke-dasharray="2 2"/>
<path d="M656.612 655.087C656.484 655.087 656.368 655.059 656.242 655.059C656.138 655.059 656.048 655.108 655.957 655.153C655.867 655.198 655.752 655.186 655.65 655.197C655.551 655.208 655.425 655.199 655.33 655.233C655.267 655.255 655.196 655.225 655.135 655.251C655.074 655.276 654.965 655.254 654.901 655.254C654.777 655.254 654.651 655.262 654.527 655.275C654.26 655.302 653.99 655.301 653.722 655.323C653.449 655.347 653.176 655.362 652.903 655.365C652.714 655.368 652.536 655.383 652.346 655.362C652.152 655.341 651.958 655.295 651.764 655.282C651.14 655.243 650.515 655.172 649.897 655.296" stroke="#C5CAE9" stroke-linecap="round" stroke-dasharray="2 2"/>
<path d="M394.627 357.763C394.627 358.935 394.627 360.107 394.627 361.279C394.627 361.506 394.704 360.832 394.736 360.608C394.935 359.24 395.13 357.872 395.35 356.507C395.448 355.892 395.566 355.277 395.642 354.658C395.646 354.623 395.66 354.52 395.649 354.553C395.576 354.764 395.537 355.009 395.486 355.222C395.135 356.669 394.762 358.11 394.405 359.555C394.155 360.566 393.914 361.584 393.596 362.577C393.554 362.708 393.506 362.833 393.455 362.961C393.445 362.988 393.442 363.068 393.426 363.043C393.41 363.02 393.424 362.988 393.424 362.96C393.424 362.736 393.424 362.512 393.424 362.288C393.427 361.401 393.449 360.512 393.51 359.626C393.53 359.338 393.531 359.027 393.591 358.744C393.654 358.452 393.618 359.34 393.618 359.638C393.618 360.461 393.61 361.284 393.574 362.106C393.554 362.533 393.528 362.957 393.438 363.375C393.424 363.436 393.401 363.545 393.403 363.403C393.414 362.724 393.521 362.047 393.673 361.387C393.822 360.734 394.076 360.1 394.205 359.444C394.207 359.431 394.233 359.241 394.201 359.292C393.921 359.737 393.781 360.315 393.622 360.808C393.447 361.357 393.285 361.909 393.133 362.465C393.096 362.603 393.058 362.742 393.02 362.88C393.009 362.919 392.986 363.034 392.978 362.995C392.969 362.948 392.985 362.899 392.993 362.851C393.047 362.512 393.119 362.175 393.183 361.838C393.371 360.853 393.543 359.866 393.688 358.875C393.737 358.541 393.781 358.206 393.832 357.873C393.875 357.594 393.759 358.08 393.754 358.099C393.601 358.655 393.453 359.211 393.322 359.772C393.227 360.179 393.154 360.594 393.043 360.998C393.035 361.025 392.99 361.235 392.944 361.24C392.939 361.24 392.935 361.234 392.935 361.229C392.935 361.147 392.976 360.856 392.978 360.843C393.054 360.33 393.15 359.821 393.285 359.32C393.562 358.288 393.999 357.305 394.171 356.246C394.202 356.059 394.231 355.87 394.239 355.68C394.243 355.593 394.233 355.58 394.179 355.661C393.758 356.301 393.357 356.983 393.074 357.695C392.853 358.25 392.771 358.863 392.742 359.457C392.735 359.599 392.725 359.741 392.717 359.883C392.716 359.908 392.729 359.977 392.705 359.996C392.689 360.009 392.694 360.009 392.699 359.982C392.769 359.641 392.846 359.302 392.914 358.961C393.208 357.492 393.459 356.008 393.694 354.528C393.709 354.432 393.744 354.314 393.744 354.216C393.744 354.139 393.684 354.357 393.658 354.429C393.535 354.781 393.399 355.129 393.279 355.482C393.176 355.787 393.063 356.098 392.996 356.413C392.865 357.036 392.818 357.687 392.748 358.319C392.696 358.786 392.632 359.245 392.613 359.714C392.587 360.383 392.609 361.056 392.609 361.725C392.609 362.317 392.607 362.918 392.448 363.493C392.445 363.504 392.437 363.541 392.437 363.541C392.437 363.305 392.457 363.072 392.494 362.84C392.564 362.4 392.676 361.968 392.801 361.542C392.897 361.212 393.03 360.889 393.1 360.552C393.251 359.822 393.284 359.078 393.334 358.338C393.412 357.177 393.414 355.999 393.403 354.836C393.402 354.778 393.415 354.628 393.327 354.628C393.151 354.628 393.038 354.716 392.92 354.844C392.776 355.001 392.663 355.208 392.485 355.327C392.419 355.371 392.355 355.394 392.295 355.448C392.178 355.554 392.017 355.685 391.964 355.84C391.887 356.069 391.868 356.323 391.814 356.558C391.378 358.456 391.304 360.42 391.261 362.36C391.25 362.824 391.256 363.288 391.256 363.752C391.256 363.816 391.294 364.288 391.245 364.308C391.227 364.315 391.239 364.19 391.239 364.19C391.262 363.934 391.302 363.681 391.347 363.429C391.503 362.544 391.673 361.661 391.855 360.781C391.947 360.332 392.062 359.89 392.162 359.442C392.276 358.936 392.319 358.416 392.425 357.909C392.512 357.488 392.633 357.068 392.737 356.651C392.748 356.61 392.891 356.217 392.766 356.365C392.511 356.667 392.315 356.96 392.182 357.341C391.716 358.664 391.664 360.081 391.664 361.469C391.664 362.648 391.642 363.827 391.642 365.007C391.642 365.236 391.714 364.554 391.74 364.326C391.822 363.615 391.836 362.9 391.871 362.186C391.907 361.479 391.905 360.733 392.05 360.036C392.054 360.021 392.092 359.927 392.05 359.992C391.885 360.251 391.732 360.516 391.577 360.781C391.267 361.308 390.921 361.822 390.644 362.367C390.272 363.101 390.018 363.873 389.946 364.698" stroke="#C5CAE9" stroke-linecap="round" stroke-dasharray="2 2"/>
<path d="M395.043 362.68C395.043 362.834 395.043 362.987 395.043 363.141C395.043 363.56 394.717 363.954 394.541 364.311C394.137 365.127 393.746 365.944 393.299 366.738C393.29 366.755 393.218 366.952 393.204 366.838C393.16 366.491 393.198 366.105 393.21 365.759C393.281 363.822 393.586 361.918 393.88 360.007C393.935 359.645 394.024 359.287 394.073 358.926C394.078 358.889 394.13 358.63 394.093 358.672C393.595 359.247 393.219 359.984 392.845 360.638C392.045 362.041 391.324 363.481 390.712 364.976C390.471 365.565 390.248 366.154 390.087 366.769C390.065 366.854 389.998 367.106 389.998 367.018C389.998 366.834 390.013 366.657 390.049 366.475C390.237 365.529 390.524 364.597 390.75 363.659C391.056 362.394 391.428 361.13 391.649 359.846C391.662 359.77 391.72 359.7 391.72 359.624C391.72 359.597 391.723 359.678 391.72 359.704C391.644 360.355 391.398 361.018 391.226 361.644C390.863 362.964 390.456 364.28 390.165 365.619C390.141 365.727 390.129 366.055 390.038 366.146C389.983 366.202 390.037 365.989 390.038 365.91C390.051 365.202 390.225 364.512 390.403 363.83C390.716 362.628 391.023 361.406 391.46 360.24C391.575 359.932 391.607 359.577 391.7 359.257C391.802 358.906 391.947 358.537 392 358.176C392.045 357.874 392.127 357.539 392.2 357.244C392.229 357.129 392.218 357.011 392.243 356.899C392.255 356.843 392.239 357.124 392.232 357.159C391.69 359.566 390.756 361.875 390.038 364.233C389.843 364.876 389.776 365.552 389.578 366.191C389.535 366.328 389.436 366.951 389.4 366.502C389.343 365.794 389.52 365.03 389.678 364.344C389.827 363.697 390.047 363.08 390.207 362.44C390.339 361.912 390.033 363.521 389.847 364.033C389.667 364.526 389.612 365.05 389.498 365.559C389.446 365.79 389.358 366.492 389.358 366.255C389.358 365.695 389.411 365.129 389.616 364.602C389.632 364.561 389.678 364.312 389.678 364.371C389.678 364.537 389.655 364.728 389.589 364.883C389.566 364.937 389.346 365.599 389.297 365.599C389.173 365.599 389.409 364.894 389.429 364.834C389.528 364.537 389.631 364.241 389.709 363.939C389.89 363.236 390.068 362.552 390.298 361.86C390.396 361.568 390.455 361.258 390.528 360.959C390.709 360.213 390.962 359.509 391.279 358.805C391.451 358.425 391.592 358.027 391.782 357.655C392.069 357.094 392.235 356.498 392.478 355.92C393.204 354.196 391.287 359.467 390.721 361.25C390.693 361.338 390.409 362.085 390.399 361.648C390.394 361.426 390.354 361.215 390.359 360.99C390.373 360.341 390.672 359.632 390.83 359.01C390.882 358.805 390.966 358.586 391.035 358.383C391.298 357.6 391.619 356.819 391.798 356.014C391.866 355.707 392.009 355.413 392.071 355.099C392.125 354.833 392.148 354.432 392.481 354.432" stroke="#C5CAE9" stroke-linecap="round" stroke-dasharray="2 2"/>
<path d="M391.119 361.96C391.119 361.219 391.119 360.478 391.119 359.737C391.119 359.154 391.279 357.41 391.279 357.993C391.279 358.594 390.954 359.204 390.743 359.751C390.63 360.044 390.57 360.385 390.419 360.658C390.324 360.829 390.359 360.649 390.359 360.518C390.359 360.248 390.433 359.954 390.488 359.691C390.645 358.925 390.944 358.191 391.128 357.435C391.259 356.897 391.406 356.374 391.58 355.854C391.664 355.599 391.748 355.321 391.88 355.091C391.908 355.042 392.029 354.778 392.038 354.817C392.108 355.132 391.815 355.57 391.72 355.851C391.538 356.391 391.379 356.936 391.199 357.475C391.002 358.066 390.956 358.762 390.679 359.317" stroke="#C5CAE9" stroke-linecap="round" stroke-dasharray="2 2"/>
<path d="M332.274 351.446C332.274 349.257 332.274 347.068 332.274 344.879C332.274 344.757 332.274 344.39 332.274 344.512C332.274 344.895 332.245 345.274 332.218 345.656C332.082 347.549 331.978 349.451 332.012 351.35C332.016 351.579 332.025 351.811 332.082 352.035C332.085 352.046 332.101 352.074 332.103 352.063C332.142 351.852 332.11 351.589 332.109 351.382C332.105 350.255 332.091 349.128 332 348.004C331.934 347.191 331.867 346.359 331.699 345.559C331.674 345.439 331.65 345.263 331.58 345.157C331.574 345.148 331.562 345.17 331.559 345.18C331.516 345.36 331.503 345.553 331.482 345.735C331.302 347.335 331.205 348.942 331.089 350.547C331.08 350.668 331.072 350.788 331.062 350.909C331.06 350.935 331.064 351.012 331.05 351.04C331.011 351.118 331.05 350.865 331.05 350.778C331.05 350.012 331.049 349.245 331.05 348.479C331.05 347.431 331.046 346.384 331.085 345.338C331.091 345.174 331.097 345.011 331.1 344.847C331.1 344.824 331.108 344.757 331.1 344.728C331.093 344.7 331.084 344.781 331.076 344.808C331.03 344.964 330.986 345.121 330.945 345.279C330.741 346.049 330.575 346.829 330.424 347.612C330.371 347.885 330.337 348.174 330.244 348.439C330.24 348.451 330.222 348.502 330.22 348.45C330.205 348.107 330.217 347.757 330.217 347.414C330.217 346.495 330.217 345.577 330.217 344.659C330.217 344.609 330.228 344.514 330.214 344.458C330.207 344.429 330.13 344.528 330.129 344.53C329.969 344.717 329.818 344.911 329.68 345.115C329.598 345.235 329.506 345.359 329.46 345.498C329.404 345.671 329.422 345.867 329.437 346.044C329.473 346.467 329.57 346.881 329.662 347.294" stroke="#C5CAE9" stroke-linecap="round" stroke-dasharray="2 2"/>
<path d="M330.835 345.64C330.835 346.572 330.935 347.503 331.044 348.428C331.134 349.19 331.204 349.984 331.435 350.719C331.439 350.731 331.478 350.836 331.477 350.823C331.46 350.6 331.359 350.362 331.29 350.154C330.834 348.784 330.282 347.446 329.805 346.083C329.722 345.847 329.645 345.608 329.558 345.373C329.526 345.288 329.524 345.295 329.549 345.382C329.853 346.411 330.186 347.431 330.486 348.462C330.562 348.724 330.633 348.988 330.713 349.25C330.717 349.263 330.741 349.377 330.765 349.386C330.808 349.401 330.902 349.276 330.919 349.257C331.073 349.085 331.21 348.896 331.309 348.686C331.403 348.488 331.468 348.277 331.52 348.065C331.54 347.987 331.547 347.894 331.58 347.819C331.604 347.764 331.622 347.932 331.636 347.99C331.726 348.363 331.818 348.735 331.905 349.109C331.987 349.461 332.07 349.812 332.145 350.165C332.169 350.28 332.187 350.401 332.223 350.513C332.231 350.537 332.246 350.468 332.25 350.443C332.282 350.246 332.3 350.046 332.324 349.848C332.347 349.668 332.372 349.489 332.392 349.309C332.396 349.277 332.398 349.26 332.399 349.229C332.4 349.217 332.409 349.187 332.397 349.192C332.355 349.21 332.295 349.386 332.277 349.419C332.198 349.572 332.122 349.727 332.043 349.879C332.014 349.934 331.987 349.99 331.954 350.042C331.938 350.066 331.947 349.985 331.949 349.956C331.967 349.698 332.021 349.44 332.062 349.185C332.138 348.716 332.224 348.249 332.309 347.782C332.393 347.322 332.508 346.847 332.514 346.378C332.515 346.275 332.514 345.965 332.514 346.068C332.514 346.437 332.252 347.521 332.343 347.163C332.461 346.697 332.602 346.232 332.772 345.782C332.921 345.386 333.111 345.007 333.293 344.627C333.395 344.415 333.502 344.192 333.637 344C333.707 343.9 333.826 343.829 333.909 343.738C333.988 343.651 334.071 343.549 334.126 343.444C334.142 343.415 334.163 343.397 334.177 343.369C334.204 343.314 334.192 343.432 334.192 343.447C334.192 343.67 334.192 343.86 334.192 343.886" stroke="#C5CAE9" stroke-linecap="round" stroke-dasharray="2 2"/>
<path d="M331.847 351.701C331.847 350.958 332.04 350.251 332.213 349.532C332.369 348.881 332.531 348.233 332.72 347.591C332.803 347.308 332.898 347.025 332.956 346.735C332.96 346.715 332.991 346.479 332.967 346.58C332.909 346.829 332.776 347.076 332.67 347.305C332.186 348.343 331.615 349.361 331.44 350.508C331.426 350.602 331.396 350.883 331.396 350.788C331.396 350.408 331.543 350.038 331.668 349.685C332.029 348.67 332.389 347.651 332.783 346.649C332.798 346.611 332.804 346.924 332.804 346.937C332.804 347.724 332.745 348.505 332.664 349.288C332.599 349.902 332.528 350.516 332.413 351.123C332.404 351.173 332.382 351.386 332.382 351.385C332.382 350.692 332.748 350.054 332.748 349.37C332.748 348.461 332.848 347.583 332.988 346.687C333.04 346.351 333.081 346.028 333.193 345.707C333.236 345.581 333.207 345.975 333.193 346.107C333.107 346.902 332.859 347.668 332.811 348.467C332.794 348.75 332.804 349.036 332.804 349.319C332.804 349.597 332.834 348.758 332.906 348.489C333.096 347.779 333.258 347.09 333.369 346.366C333.38 346.298 333.396 346.363 333.396 346.394C333.396 346.512 333.401 346.631 333.39 346.749C333.362 347.029 333.293 347.307 333.233 347.582C333.165 347.896 333.133 348.225 333.114 348.546C333.112 348.592 333.086 348.33 333.086 348.278C333.086 347.87 333.136 347.471 333.229 347.071C333.353 346.535 333.486 345.988 333.639 345.461C333.714 345.2 333.796 344.939 333.881 344.68C333.963 344.433 334.003 344.174 334.1 343.932C334.126 343.868 334.341 343.462 334.354 343.475" stroke="#C5CAE9" stroke-linecap="round" stroke-dasharray="2 2"/>
<path d="M332.999 348.654C332.995 348.738 332.96 348.819 332.932 348.898C332.9 348.986 332.885 349.077 332.851 349.165C332.822 349.239 332.803 349.318 332.776 349.393C332.764 349.424 332.749 349.463 332.721 349.48C332.673 349.51 332.659 349.612 332.652 349.659C332.621 349.848 332.592 350.038 332.592 350.231C332.592 350.309 332.582 350.382 332.582 350.461" stroke="#C5CAE9" stroke-linecap="round" stroke-dasharray="2 2"/>
<path d="M332.274 351.632C332.284 351.631 332.294 351.626 332.304 351.623" stroke="#C5CAE9" stroke-linecap="round" stroke-dasharray="2 2"/>
<defs>
<clipPath id="clip0_3105_1067">
<rect width="70" height="70" fill="white" transform="translate(21 27)"/>
</clipPath>
</defs>
</svg>
