<svg width="1280" height="832" viewBox="0 0 1280 832" fill="none" xmlns="http://www.w3.org/2000/svg">
<rect width="1280" height="832" fill="#C5CAE9"/>
<path d="M654.435 122.817L653.534 123.647L654.759 123.684C738.166 126.214 817.137 158.861 874.616 214.564C891.793 231.211 906.638 249.517 918.972 269.053C947.909 314.89 963.019 367.503 961.971 421.363C960.992 471.67 945.967 520.424 918.972 563.186C904.746 585.721 887.196 606.591 866.624 625.148C807.013 678.918 726.822 708.938 643.37 708.713H643.369H324.947C317.39 708.713 310.15 705.947 304.817 701.036C299.486 696.126 296.5 689.476 296.5 682.551C296.5 675.626 299.486 668.976 304.817 664.066C310.15 659.155 317.39 656.389 324.947 656.389H643.368C711.504 656.474 776.977 631.997 825.781 588.183C843.305 572.45 858.181 554.672 870.127 535.439C891.449 501.111 903.438 462.151 904.497 421.919C905.66 377.738 893.579 334.5 870.127 296.745C860.259 280.857 848.377 265.941 834.622 252.334C788.181 206.391 724.072 179.02 656.011 176.062L654.645 176.003L655.651 176.929L663.489 184.149C663.49 184.15 663.492 184.151 663.493 184.152C668.668 189.089 671.524 195.692 671.459 202.536C671.395 209.382 668.414 215.94 663.143 220.794C657.871 225.65 650.732 228.41 643.26 228.47C635.79 228.53 628.601 225.885 623.238 221.116C623.237 221.115 623.236 221.114 623.235 221.113L565.347 167.795C560.018 162.886 557.033 156.237 557.033 149.313C557.033 142.39 560.018 135.741 565.347 130.831L623.242 77.5074L623.248 77.5014C625.87 75.0006 629.009 73.0039 632.483 71.6295C635.957 70.2552 639.694 69.5313 643.477 69.501C647.26 69.4707 651.01 70.1347 654.509 71.4533C658.009 72.7719 661.185 74.7182 663.854 77.1769C666.524 79.6354 668.632 82.5566 670.059 85.7689C671.486 88.9811 672.203 92.4211 672.171 95.8888C672.138 99.3565 671.356 102.785 669.868 105.974C668.381 109.163 666.218 112.05 663.502 114.466L663.496 114.472L654.435 122.817Z" fill="#4C46C8" stroke="white"/>
<path d="M1007.7 656.386H1008.98L1008.04 655.518L999.565 647.712C999.564 647.712 999.563 647.711 999.562 647.71C994.386 642.773 991.53 636.17 991.595 629.325C991.659 622.479 994.64 615.921 999.911 611.067C1005.18 606.211 1012.32 603.451 1019.79 603.391C1027.26 603.331 1034.45 605.976 1039.82 610.746C1039.82 610.746 1039.82 610.747 1039.82 610.748L1097.71 664.066C1103.04 668.976 1106.02 675.625 1106.02 682.548C1106.02 689.471 1103.04 696.12 1097.71 701.03L1039.81 754.354L1039.81 754.36C1037.18 756.861 1034.04 758.857 1030.57 760.232C1027.1 761.606 1023.36 762.33 1019.58 762.36C1015.79 762.391 1012.04 761.727 1008.54 760.408C1005.05 759.089 1001.87 757.143 999.199 754.684C996.53 752.226 994.422 749.305 992.995 746.092C991.568 742.88 990.851 739.44 990.883 735.972C990.916 732.505 991.698 729.077 993.185 725.887C994.673 722.698 996.836 719.811 999.552 717.395L999.558 717.39L1008.04 709.578L1008.98 708.71H1007.7H903.896C896.338 708.71 889.098 705.944 883.766 701.033C878.435 696.123 875.448 689.473 875.448 682.548C875.448 675.623 878.435 668.973 883.766 664.063C889.098 659.152 896.338 656.386 903.896 656.386H1007.7ZM512.872 207.978L512.871 207.978C473.24 229.053 440.316 259.356 417.404 295.855C414.261 300.863 411.321 305.963 408.587 311.146C400.781 325.947 394.662 341.414 390.303 357.299C385.065 376.385 382.37 396.073 382.343 415.928C382.223 468.033 400.683 518.727 434.88 560.22C438.045 564.107 439.969 568.725 440.441 573.555C440.914 578.385 439.918 583.243 437.561 587.586C435.203 591.928 431.576 595.587 427.08 598.146C422.584 600.705 417.4 602.062 412.109 602.062C407.686 602.062 403.325 601.114 399.372 599.293C395.419 597.473 391.985 594.832 389.338 591.582L389.337 591.58C347.735 541.045 325.293 479.338 325.448 415.93L325.448 415.93C325.479 392.625 328.528 369.51 334.457 347.056C339.813 326.776 347.518 307.035 357.471 288.182C360.776 281.923 364.329 275.761 368.126 269.709C396.021 225.253 436.114 188.324 484.394 162.629C490.939 159.153 498.721 158.212 506.024 160.018C513.327 161.823 519.54 166.224 523.306 172.238C527.07 178.25 528.085 185.387 526.133 192.083C524.181 198.78 519.416 204.502 512.872 207.978Z" fill="#13104C" stroke="white"/>
<path d="M706.335 146.997L706.706 144.209L726.226 146.339L725.855 149.127L717.671 148.234L714.59 171.399L711.438 171.055L714.519 147.89L706.335 146.997Z" fill="white"/>
<path d="M733.008 175.006L743.048 150.826L758.19 155.344L757.111 157.941L745.008 154.33L741.615 162.5L752.935 165.877L751.856 168.475L740.537 165.098L737.124 173.315L749.424 176.985L748.345 179.582L733.008 175.006Z" fill="white"/>
<path d="M782.823 174.322C783.463 173.213 783.512 172.121 782.972 171.046C782.432 169.97 781.459 169.068 780.051 168.338C779.022 167.805 778.01 167.488 777.013 167.389C776.025 167.293 775.118 167.396 774.294 167.698C773.477 168.004 772.819 168.492 772.319 169.161C771.901 169.721 771.689 170.279 771.683 170.834C771.69 171.387 771.828 171.918 772.098 172.428C772.374 172.93 772.705 173.4 773.092 173.838C773.484 174.268 773.857 174.647 774.212 174.973L776.144 176.77C776.642 177.227 777.168 177.774 777.721 178.411C778.281 179.052 778.738 179.767 779.093 180.557C779.46 181.344 779.614 182.191 779.556 183.099C779.497 184.006 779.101 184.951 778.366 185.934C777.519 187.068 776.425 187.921 775.083 188.495C773.748 189.072 772.252 189.305 770.593 189.194C768.941 189.086 767.223 188.569 765.437 187.643C763.772 186.78 762.512 185.791 761.656 184.675C760.807 183.562 760.359 182.392 760.311 181.164C760.27 179.94 760.633 178.731 761.399 177.537L764.305 179.044C763.789 179.875 763.594 180.683 763.721 181.469C763.86 182.251 764.233 182.975 764.839 183.639C765.457 184.301 766.228 184.871 767.151 185.349C768.225 185.906 769.307 186.249 770.397 186.379C771.492 186.501 772.501 186.408 773.424 186.1C774.352 185.786 775.101 185.246 775.673 184.481C776.193 183.785 776.401 183.107 776.296 182.446C776.191 181.786 775.889 181.136 775.389 180.499C774.89 179.861 774.308 179.228 773.644 178.599L771.334 176.379C769.87 174.967 768.935 173.549 768.529 172.126C768.123 170.703 768.447 169.285 769.503 167.872C770.381 166.698 771.498 165.856 772.855 165.347C774.224 164.835 775.688 164.646 777.245 164.781C778.816 164.913 780.342 165.364 781.826 166.132C783.324 166.909 784.474 167.842 785.277 168.93C786.086 170.012 786.519 171.146 786.577 172.332C786.644 173.522 786.3 174.656 785.547 175.734L782.823 174.322Z" fill="white"/>
<path d="M797.807 180.898L799.959 179.088L815.242 191.417L813.09 193.227L806.682 188.058L788.799 203.102L786.331 201.111L804.214 186.067L797.807 180.898Z" fill="white"/>
<path d="M872.303 272.814L867.51 266.169L889.591 252.743L894.596 259.683C896.103 261.772 896.95 263.829 897.138 265.853C897.333 267.872 896.893 269.778 895.818 271.571C894.751 273.36 893.074 274.949 890.789 276.339C888.488 277.737 886.22 278.542 883.983 278.752C881.754 278.958 879.642 278.568 877.648 277.581C875.662 276.591 873.88 275.002 872.303 272.814ZM871.762 267.334L874.553 271.204C875.838 272.985 877.254 274.246 878.803 274.989C880.352 275.731 881.984 275.994 883.7 275.778C885.415 275.562 887.171 274.908 888.968 273.815C890.751 272.731 892.081 271.514 892.958 270.164C893.842 268.809 894.222 267.358 894.098 265.81C893.981 264.257 893.316 262.64 892.103 260.957L889.1 256.793L871.762 267.334Z" fill="white"/>
<path d="M888.349 296.495L912.067 285.974L919.535 300.079L916.987 301.21L911.017 289.934L903.003 293.489L908.586 304.034L906.038 305.164L900.455 294.619L892.395 298.195L898.461 309.653L895.913 310.783L888.349 296.495Z" fill="white"/>
<path d="M927.987 318.368L909.654 332.051L909.759 332.34L933.432 333.344L934.574 336.484L906.321 334.933L905.197 331.841L926.845 315.228L927.987 318.368Z" fill="white"/>
<path d="M913.714 358.058L939.519 353.616L942.789 369.074L940.017 369.551L937.403 357.195L928.684 358.696L931.128 370.251L928.356 370.728L925.912 359.173L917.142 360.682L919.798 373.239L917.026 373.716L913.714 358.058Z" fill="white"/>
<path d="M919.315 388.83L945.568 387.32L945.81 390.465L922.377 391.813L923.304 403.886L920.484 404.048L919.315 388.83Z" fill="white"/>
<path d="M932.509 441.565C929.729 441.376 927.362 440.72 925.408 439.598C923.453 438.476 921.987 437.019 921.011 435.228C920.035 433.437 919.625 431.439 919.781 429.234C919.938 427.03 920.626 425.107 921.846 423.465C923.066 421.823 924.723 420.578 926.818 419.731C928.912 418.884 931.349 418.555 934.129 418.744C936.908 418.933 939.275 419.589 941.23 420.711C943.185 421.833 944.65 423.289 945.626 425.081C946.603 426.872 947.013 428.87 946.856 431.074C946.7 433.279 946.011 435.202 944.792 436.844C943.572 438.486 941.914 439.731 939.82 440.578C937.725 441.425 935.288 441.754 932.509 441.565ZM932.724 438.535C935.006 438.691 936.958 438.447 938.581 437.805C940.204 437.171 941.463 436.246 942.36 435.03C943.256 433.823 943.76 432.437 943.871 430.872C943.982 429.306 943.679 427.861 942.963 426.536C942.246 425.219 941.129 424.132 939.613 423.277C938.095 422.43 936.195 421.929 933.914 421.773C931.632 421.618 929.679 421.858 928.057 422.492C926.434 423.134 925.174 424.059 924.278 425.266C923.382 426.482 922.878 427.872 922.767 429.437C922.656 431.002 922.959 432.444 923.675 433.761C924.392 435.086 925.508 436.172 927.026 437.019C928.543 437.875 930.442 438.38 932.724 438.535Z" fill="white"/>
<path d="M916.83 456.646L942.836 461.85L940.906 470.351C940.458 472.325 939.724 473.865 938.703 474.971C937.688 476.086 936.49 476.823 935.108 477.18C933.726 477.537 932.269 477.562 930.737 477.255C929.205 476.949 927.881 476.367 926.765 475.51C925.648 474.662 924.859 473.536 924.399 472.134C923.947 470.734 923.943 469.055 924.387 467.097L925.77 461.004L928.564 461.563L927.203 467.558C926.896 468.909 926.891 470.043 927.188 470.958C927.485 471.874 928.002 472.598 928.739 473.131C929.483 473.674 930.376 474.049 931.417 474.258C932.458 474.466 933.432 474.464 934.339 474.252C935.244 474.047 936.023 473.578 936.676 472.844C937.338 472.112 937.824 471.062 938.135 469.694L939.351 464.338L916.138 459.693L916.83 456.646Z" fill="white"/>
<path d="M752.413 677.514L745.105 681.2L731.909 659.002L739.54 655.153C741.838 653.995 744.068 653.448 746.23 653.512C748.388 653.57 750.395 654.206 752.25 655.421C754.1 656.63 755.709 658.383 757.075 660.68C758.449 662.993 759.193 665.205 759.307 667.317C759.416 669.423 758.897 671.347 757.749 673.09C756.597 674.827 754.818 676.301 752.413 677.514ZM746.555 677.369L750.81 675.223C752.768 674.236 754.181 673.063 755.047 671.706C755.913 670.348 756.274 668.856 756.128 667.23C755.983 665.603 755.373 663.886 754.299 662.08C753.234 660.288 752.005 658.903 750.611 657.924C749.214 656.938 747.688 656.412 746.035 656.344C744.377 656.269 742.623 656.698 740.773 657.631L736.194 659.94L746.555 677.369Z" fill="white"/>
<path d="M774.769 666.465L759.844 645.205L773.523 637.059L775.126 639.343L764.192 645.854L769.235 653.038L779.461 646.948L781.064 649.232L770.838 655.321L775.911 662.546L787.021 655.93L788.625 658.213L774.769 666.465Z" fill="white"/>
<path d="M799.719 627.741C798.777 626.826 797.631 626.402 796.28 626.469C794.929 626.536 793.601 627.021 792.293 627.923C791.337 628.583 790.619 629.306 790.138 630.091C789.664 630.871 789.434 631.654 789.446 632.438C789.466 633.218 789.739 633.931 790.265 634.577C790.705 635.118 791.221 635.488 791.811 635.688C792.404 635.877 793.023 635.949 793.668 635.905C794.308 635.855 794.933 635.747 795.546 635.582C796.152 635.411 796.696 635.236 797.178 635.058L799.821 634.098C800.496 633.849 801.278 633.608 802.165 633.377C803.06 633.14 803.995 633.015 804.971 633C805.949 632.974 806.911 633.144 807.857 633.511C808.803 633.878 809.662 634.536 810.435 635.485C811.326 636.58 811.826 637.781 811.933 639.087C812.048 640.388 811.734 641.702 810.991 643.028C810.256 644.35 809.058 645.583 807.4 646.729C805.853 647.796 804.324 648.486 802.811 648.799C801.305 649.108 799.888 649.066 798.56 648.675C797.239 648.279 796.085 647.556 795.099 646.506L797.798 644.643C798.491 645.359 799.28 645.803 800.166 645.974C801.054 646.134 801.966 646.081 802.902 645.816C803.841 645.539 804.739 645.105 805.596 644.512C806.594 643.823 807.367 643.053 807.914 642.201C808.456 641.343 808.736 640.48 808.755 639.612C808.768 638.738 808.474 637.931 807.873 637.193C807.325 636.52 806.679 636.111 805.935 635.965C805.191 635.82 804.385 635.841 803.516 636.028C802.648 636.216 801.754 636.473 800.834 636.799L797.597 637.921C795.54 638.63 793.676 638.903 792.004 638.738C790.333 638.573 788.942 637.808 787.831 636.443C786.908 635.308 786.43 634.093 786.396 632.798C786.365 631.491 786.714 630.22 787.443 628.985C788.174 627.739 789.229 626.64 790.606 625.689C791.998 624.728 793.426 624.108 794.889 623.829C796.347 623.543 797.72 623.584 799.007 623.952C800.302 624.315 801.383 624.996 802.25 625.994L799.719 627.741Z" fill="white"/>
<path d="M813.842 610.933L831.497 630.342L828.992 632.275L811.337 612.866L813.842 610.933Z" fill="white"/>
<path d="M843.323 598.623C842.492 598.2 841.658 597.9 840.822 597.72C839.986 597.529 839.156 597.468 838.334 597.538C837.517 597.601 836.72 597.802 835.941 598.138C835.163 598.475 834.419 598.952 833.71 599.568C832.547 600.579 831.778 601.78 831.404 603.171C831.029 604.562 831.123 606.05 831.685 607.636C832.246 609.221 833.344 610.811 834.978 612.405C836.612 614 838.275 615.098 839.967 615.701C841.66 616.303 843.28 616.464 844.829 616.183C846.377 615.902 847.758 615.234 848.972 614.179C850.097 613.201 850.857 612.116 851.252 610.922C851.648 609.717 851.662 608.492 851.293 607.248C850.925 605.993 850.163 604.802 849.009 603.675L849.885 603.186L843.981 608.318L841.954 606.34L849.429 599.842L851.456 601.82C853.01 603.336 854.016 604.955 854.475 606.675C854.94 608.39 854.885 610.081 854.31 611.748C853.735 613.404 852.669 614.909 851.11 616.264C849.372 617.775 847.452 618.719 845.35 619.096C843.254 619.467 841.114 619.265 838.93 618.49C836.752 617.708 834.668 616.347 832.678 614.405C831.185 612.949 830.051 611.458 829.275 609.935C828.499 608.399 828.073 606.888 827.998 605.4C827.924 603.913 828.186 602.495 828.785 601.146C829.385 599.798 830.314 598.577 831.572 597.483C832.607 596.583 833.723 595.891 834.918 595.407C836.114 594.912 837.336 594.625 838.586 594.548C839.835 594.458 841.074 594.577 842.302 594.903C843.524 595.223 844.683 595.752 845.777 596.49L843.323 598.623Z" fill="white"/>
<path d="M863.449 567.835L883.88 584.758L881.764 586.925L855.885 583.713L855.709 583.894L871.75 597.181L869.564 599.42L849.133 582.497L851.249 580.33L877.203 583.539L877.379 583.358L861.298 570.038L863.449 567.835Z" fill="white"/>
<path d="M431.779 693.003V666.822H440.625C442.679 666.822 444.358 667.192 445.662 667.934C446.975 668.667 447.946 669.66 448.577 670.913C449.208 672.165 449.523 673.563 449.523 675.106C449.523 676.648 449.208 678.05 448.577 679.312C447.955 680.573 446.992 681.579 445.688 682.329C444.384 683.07 442.713 683.441 440.676 683.441H434.336V680.628H440.574C441.98 680.628 443.11 680.386 443.962 679.9C444.814 679.414 445.432 678.758 445.816 677.931C446.208 677.096 446.404 676.154 446.404 675.106C446.404 674.057 446.208 673.12 445.816 672.293C445.432 671.466 444.81 670.819 443.949 670.35C443.088 669.873 441.946 669.634 440.523 669.634H434.949V693.003H431.779ZM454.63 693.003V666.822H457.801V690.191H469.971V693.003H454.63ZM477.607 693.003H474.283L483.896 666.822H487.169L496.783 693.003H493.459L485.635 670.964H485.43L477.607 693.003ZM478.834 682.776H492.232V685.589H478.834V682.776ZM521.622 666.822V693.003H518.554L504.287 672.447H504.031V693.003H500.861V666.822H503.929L518.247 687.43H518.503V666.822H521.622Z" fill="white"/>
<path d="M903.611 689.003V665.731H906.429V686.503H917.247V689.003H903.611ZM924.034 689.003H921.08L929.625 665.731H932.534L941.08 689.003H938.125L931.171 669.413H930.989L924.034 689.003ZM925.125 679.913H937.034V682.413H925.125V679.913ZM959.977 665.731H962.796V681.14C962.796 682.731 962.421 684.151 961.671 685.401C960.928 686.644 959.879 687.625 958.523 688.344C957.167 689.056 955.576 689.413 953.75 689.413C951.924 689.413 950.333 689.056 948.977 688.344C947.621 687.625 946.568 686.644 945.818 685.401C945.076 684.151 944.705 682.731 944.705 681.14V665.731H947.523V680.913C947.523 682.049 947.773 683.06 948.273 683.947C948.773 684.825 949.485 685.519 950.409 686.026C951.341 686.526 952.455 686.776 953.75 686.776C955.046 686.776 956.159 686.526 957.091 686.026C958.023 685.519 958.735 684.825 959.227 683.947C959.727 683.06 959.977 682.049 959.977 680.913V665.731ZM986.878 665.731V689.003H984.151L971.469 670.731H971.242V689.003H968.423V665.731H971.151L983.878 684.049H984.105V665.731H986.878ZM1011.24 673.003H1008.43C1008.26 672.193 1007.97 671.481 1007.55 670.867C1007.14 670.253 1006.64 669.738 1006.05 669.322C1005.47 668.897 1004.82 668.579 1004.11 668.367C1003.4 668.155 1002.65 668.049 1001.88 668.049C1000.47 668.049 999.195 668.405 998.051 669.117C996.915 669.829 996.01 670.878 995.335 672.265C994.669 673.651 994.335 675.352 994.335 677.367C994.335 679.382 994.669 681.083 995.335 682.469C996.01 683.856 996.915 684.905 998.051 685.617C999.195 686.329 1000.47 686.685 1001.88 686.685C1002.65 686.685 1003.4 686.579 1004.11 686.367C1004.82 686.155 1005.47 685.841 1006.05 685.424C1006.64 685 1007.14 684.481 1007.55 683.867C1007.97 683.246 1008.26 682.534 1008.43 681.731H1011.24C1011.03 682.92 1010.65 683.984 1010.09 684.924C1009.52 685.863 1008.83 686.663 1007.99 687.322C1007.16 687.973 1006.23 688.469 1005.19 688.81C1004.16 689.151 1003.06 689.322 1001.88 689.322C999.896 689.322 998.131 688.837 996.585 687.867C995.04 686.897 993.824 685.519 992.938 683.731C992.051 681.943 991.608 679.822 991.608 677.367C991.608 674.913 992.051 672.791 992.938 671.003C993.824 669.216 995.04 667.837 996.585 666.867C998.131 665.897 999.896 665.413 1001.88 665.413C1003.06 665.413 1004.16 665.583 1005.19 665.924C1006.23 666.265 1007.16 666.765 1007.99 667.424C1008.83 668.075 1009.52 668.871 1010.09 669.81C1010.65 670.742 1011.03 671.806 1011.24 673.003ZM1015.8 689.003V665.731H1018.62V676.094H1031.03V665.731H1033.84V689.003H1031.03V678.594H1018.62V689.003H1015.8Z" fill="white"/>
<path d="M390.568 331.795L387.264 338.952L361.584 330.915L365.035 323.44C366.074 321.19 367.477 319.426 369.244 318.147C371.003 316.866 373.036 316.098 375.345 315.844C377.645 315.587 380.124 315.875 382.782 316.707C385.457 317.544 387.561 318.695 389.095 320.161C390.62 321.623 391.521 323.339 391.798 325.31C392.066 327.277 391.656 329.439 390.568 331.795ZM385.802 335.28L387.726 331.113C388.612 329.195 388.936 327.477 388.699 325.96C388.462 324.443 387.73 323.138 386.502 322.045C385.275 320.953 383.617 320.079 381.527 319.425C379.454 318.776 377.528 318.523 375.749 318.667C373.962 318.807 372.387 319.36 371.023 320.324C369.651 321.286 368.546 322.673 367.71 324.485L365.639 328.969L385.802 335.28Z" fill="white"/>
<path d="M397.235 310.397L372.587 300.015L380.359 286.584L383.007 287.7L376.794 298.435L385.123 301.943L390.932 291.903L393.58 293.018L387.77 303.059L396.146 306.587L402.459 295.677L405.107 296.793L397.235 310.397Z" fill="white"/>
<path d="M412.824 287.27L389.09 275.239L393.824 267.917C394.924 266.217 396.158 264.998 397.528 264.259C398.895 263.509 400.315 263.162 401.788 263.215C403.262 263.269 404.697 263.65 406.096 264.359C407.494 265.068 408.596 265.973 409.402 267.075C410.213 268.169 410.609 269.429 410.591 270.853C410.565 272.273 410.008 273.826 408.917 275.512L405.524 280.76L402.974 279.468L406.313 274.304C407.066 273.14 407.45 272.094 407.466 271.165C407.481 270.236 407.217 269.423 406.673 268.726C406.126 268.018 405.377 267.423 404.427 266.941C403.476 266.459 402.521 266.191 401.562 266.135C400.608 266.073 399.687 266.29 398.802 266.787C397.908 267.28 397.081 268.116 396.319 269.294L393.336 273.908L414.521 284.646L412.824 287.27Z" fill="white"/>
<path d="M426.098 266.615L405.638 250.278L407.811 247.969L426.073 262.551L434.414 253.689L436.612 255.444L426.098 266.615Z" fill="white"/>
<path d="M451.067 227.1C452.695 229.263 453.684 231.42 454.034 233.569C454.384 235.718 454.152 237.721 453.337 239.576C452.522 241.431 451.178 243.001 449.306 244.286C447.433 245.57 445.446 246.286 443.345 246.432C441.243 246.578 439.181 246.15 437.159 245.148C435.137 244.146 433.311 242.563 431.683 240.4C430.054 238.237 429.065 236.081 428.715 233.931C428.366 231.782 428.598 229.78 429.413 227.925C430.228 226.07 431.571 224.5 433.444 223.215C435.317 221.93 437.304 221.215 439.405 221.069C441.506 220.923 443.568 221.351 445.591 222.353C447.613 223.355 449.438 224.937 451.067 227.1ZM448.494 228.866C447.157 227.09 445.71 225.809 444.155 225.024C442.606 224.234 441.056 223.895 439.504 224.008C437.959 224.116 436.522 224.626 435.193 225.538C433.863 226.451 432.895 227.591 432.289 228.959C431.689 230.322 431.531 231.833 431.814 233.491C432.105 235.144 432.919 236.859 434.256 238.635C435.593 240.411 437.036 241.694 438.584 242.484C440.14 243.269 441.69 243.608 443.235 243.5C444.787 243.387 446.227 242.874 447.557 241.962C448.886 241.05 449.851 239.912 450.45 238.549C451.057 237.181 451.215 235.67 450.924 234.017C450.641 232.359 449.831 230.642 448.494 228.866Z" fill="white"/>
<path d="M444.235 208.488L447.329 206.461L460.209 212.298L460.471 212.127L459.966 198.185L463.06 196.159L463.427 213.894L469.336 222.625L466.634 224.394L460.725 215.663L444.235 208.488Z" fill="white"/>
<path d="M413.933 548.641L395.961 567.681L389.595 561.538C388.123 560.118 387.155 558.698 386.69 557.278C386.22 555.865 386.173 554.499 386.55 553.181C386.926 551.863 387.644 550.643 388.703 549.521C389.762 548.4 390.928 547.624 392.201 547.194C393.474 546.764 394.813 546.754 396.22 547.164C397.62 547.58 399.05 548.492 400.51 549.9L405.662 554.871L403.696 556.954L398.618 552.054C397.612 551.083 396.662 550.451 395.768 550.156C394.868 549.856 394.022 549.846 393.231 550.125C392.429 550.404 391.668 550.925 390.948 551.687C390.228 552.45 389.741 553.252 389.484 554.094C389.228 554.937 389.264 555.812 389.591 556.719C389.912 557.633 390.581 558.581 391.599 559.564L395.611 563.434L411.652 546.44L413.933 548.641ZM396.992 548.637L400.428 535.61L403.078 538.166L399.567 551.122L396.992 548.637Z" fill="white"/>
<path d="M400.39 525.975L378.942 540.991L370.027 527.945L372.331 526.332L379.457 536.76L386.704 531.687L380.039 521.934L382.343 520.321L389.008 530.074L396.297 524.971L389.055 514.374L391.359 512.761L400.39 525.975Z" fill="white"/>
<path d="M363.379 514.273L380.621 498.391L380.502 498.108L357.255 499.651L355.971 496.585L383.734 495.103L384.999 498.121L364.663 517.339L363.379 514.273Z" fill="white"/>
<path d="M351.669 478.798L377.323 473.565L377.936 476.676L352.282 481.908L351.669 478.798Z" fill="white"/>
<path d="M374.106 458.508L347.924 458.39L348.034 442.589L350.846 442.602L350.759 455.232L359.605 455.272L359.687 443.46L362.499 443.473L362.417 455.285L371.315 455.325L371.404 442.49L374.217 442.503L374.106 458.508Z" fill="white"/>
<path d="M371.292 428.236L344.208 429.771L344.874 426.619L366.859 425.721L366.911 425.47L347.21 415.562L347.951 412.06L369.956 411.061L370.009 410.811L350.287 401.003L350.953 397.851L375.077 410.325L374.401 413.527L352.803 414.822L352.76 415.022L371.969 425.034L371.292 428.236Z" fill="white"/>
<path d="M465.153 447H441.426L477.58 342.273H506.114L542.216 447H518.489L492.256 366.205H491.438L465.153 447ZM463.67 405.835H519.716V423.119H463.67V405.835ZM619.342 376.125C618.626 373.636 617.621 371.437 616.325 369.528C615.03 367.585 613.445 365.949 611.57 364.619C609.729 363.256 607.615 362.216 605.229 361.5C602.876 360.784 600.268 360.426 597.405 360.426C592.053 360.426 587.348 361.756 583.291 364.415C579.268 367.074 576.132 370.943 573.882 376.023C571.632 381.068 570.507 387.239 570.507 394.534C570.507 401.83 571.615 408.034 573.831 413.148C576.047 418.261 579.183 422.165 583.24 424.858C587.297 427.517 592.087 428.847 597.609 428.847C602.621 428.847 606.899 427.96 610.445 426.188C614.024 424.381 616.751 421.841 618.626 418.568C620.536 415.295 621.49 411.426 621.49 406.96L625.99 407.625H598.99V390.955H642.814V404.148C642.814 413.352 640.871 421.261 636.984 427.875C633.098 434.455 627.746 439.534 620.928 443.114C614.109 446.659 606.303 448.432 597.507 448.432C587.689 448.432 579.064 446.267 571.632 441.938C564.2 437.574 558.405 431.386 554.246 423.375C550.121 415.33 548.058 405.784 548.058 394.739C548.058 386.25 549.286 378.682 551.74 372.034C554.229 365.352 557.706 359.693 562.172 355.057C566.638 350.42 571.837 346.892 577.768 344.472C583.7 342.051 590.126 340.841 597.047 340.841C602.979 340.841 608.501 341.71 613.615 343.449C618.729 345.153 623.263 347.574 627.217 350.71C631.206 353.847 634.462 357.58 636.984 361.909C639.507 366.205 641.126 370.943 641.842 376.125H619.342ZM681.588 342.273V447H659.446V342.273H681.588ZM699.805 447V342.273H721.947V428.744H766.845V447H699.805ZM781.509 447V342.273H852.077V360.528H803.651V385.483H848.446V403.739H803.651V428.744H852.281V447H781.509Z" fill="black"/>
<path d="M458.656 514H444.477V474H458.773C462.797 474 466.26 474.801 469.164 476.402C472.068 477.991 474.301 480.276 475.863 483.258C477.439 486.24 478.227 489.807 478.227 493.961C478.227 498.128 477.439 501.708 475.863 504.703C474.301 507.698 472.055 509.996 469.125 511.598C466.208 513.199 462.719 514 458.656 514ZM452.934 506.754H458.305C460.805 506.754 462.908 506.311 464.613 505.426C466.332 504.527 467.621 503.141 468.48 501.266C469.353 499.378 469.789 496.943 469.789 493.961C469.789 491.005 469.353 488.59 468.48 486.715C467.621 484.84 466.339 483.46 464.633 482.574C462.927 481.689 460.824 481.246 458.324 481.246H452.934V506.754ZM484.491 514V474H511.444V480.973H492.948V490.504H510.058V497.477H492.948V507.027H511.522V514H484.491ZM525.395 474L535.063 504.391H535.434L545.121 474H554.496L540.707 514H529.809L516 474H525.395ZM559.311 514V474H586.264V480.973H567.768V490.504H584.877V497.477H567.768V507.027H586.342V514H559.311ZM592.987 514V474H601.444V507.027H618.593V514H592.987ZM659.394 494C659.394 498.362 658.567 502.073 656.913 505.133C655.272 508.193 653.033 510.53 650.194 512.145C647.369 513.746 644.192 514.547 640.663 514.547C637.108 514.547 633.918 513.74 631.093 512.125C628.267 510.51 626.034 508.173 624.394 505.113C622.753 502.053 621.933 498.349 621.933 494C621.933 489.638 622.753 485.927 624.394 482.867C626.034 479.807 628.267 477.477 631.093 475.875C633.918 474.26 637.108 473.453 640.663 473.453C644.192 473.453 647.369 474.26 650.194 475.875C653.033 477.477 655.272 479.807 656.913 482.867C658.567 485.927 659.394 489.638 659.394 494ZM650.819 494C650.819 491.174 650.396 488.792 649.55 486.852C648.716 484.911 647.538 483.44 646.015 482.438C644.491 481.435 642.707 480.934 640.663 480.934C638.619 480.934 636.835 481.435 635.312 482.438C633.788 483.44 632.603 484.911 631.757 486.852C630.924 488.792 630.507 491.174 630.507 494C630.507 496.826 630.924 499.208 631.757 501.148C632.603 503.089 633.788 504.56 635.312 505.562C636.835 506.565 638.619 507.066 640.663 507.066C642.707 507.066 644.491 506.565 646.015 505.562C647.538 504.56 648.716 503.089 649.55 501.148C650.396 499.208 650.819 496.826 650.819 494ZM665.658 514V474H681.439C684.473 474 687.058 474.579 689.193 475.738C691.329 476.884 692.956 478.479 694.076 480.523C695.209 482.555 695.775 484.898 695.775 487.555C695.775 490.211 695.202 492.555 694.057 494.586C692.911 496.617 691.251 498.199 689.076 499.332C686.915 500.465 684.298 501.031 681.225 501.031H671.166V494.254H679.857C681.485 494.254 682.826 493.974 683.881 493.414C684.949 492.841 685.743 492.053 686.264 491.051C686.798 490.035 687.064 488.87 687.064 487.555C687.064 486.227 686.798 485.068 686.264 484.078C685.743 483.076 684.949 482.301 683.881 481.754C682.813 481.194 681.459 480.914 679.818 480.914H674.115V514H665.658ZM701.269 474H711.698L722.714 500.875H723.183L734.198 474H744.628V514H736.425V487.965H736.093L725.741 513.805H720.155L709.804 487.867H709.472V514H701.269V474ZM751.596 514V474H778.549V480.973H760.053V490.504H777.162V497.477H760.053V507.027H778.627V514H751.596ZM818.729 474V514H811.425L794.022 488.824H793.729V514H785.272V474H792.694L809.96 499.156H810.312V474H818.729ZM824.193 480.973V474H857.045V480.973H844.799V514H836.439V480.973H824.193Z" fill="black"/>
<path d="M651 654L680 683.059L651 711" stroke="white" stroke-width="7"/>
<path d="M868.052 532.485L910.098 517.531L924.04 559.026" stroke="white" stroke-width="7"/>
<path d="M836.136 260.904L838.7 216.352L882.352 219.635" stroke="white" stroke-width="7"/>
<path d="M393.245 358.172L355.678 382.26L332.702 345" stroke="white" stroke-width="7"/>
<g clip-path="url(#clip0_3105_1067)">
<path d="M56 97C75.33 97 91 81.33 91 62C91 42.67 75.33 27 56 27C36.67 27 21 42.67 21 62C21 81.33 36.67 97 56 97Z" fill="#5559D9"/>
<path d="M74.3114 51.1044C74.3707 51.1102 74.43 51.1209 74.4893 51.1209H77.7475C77.8078 51.1209 77.8681 51.1209 77.9274 51.1267C78.0987 51.1399 78.2595 51.2143 78.3805 51.3363C78.5015 51.4583 78.5746 51.6197 78.5864 51.7911C78.5982 51.9625 78.5479 52.1324 78.4448 52.2698C78.3416 52.4072 78.1925 52.503 78.0246 52.5395C77.9362 52.5568 77.8463 52.565 77.7562 52.5638C75.0221 52.5638 72.2877 52.5638 69.5529 52.5638C69.4238 52.5579 69.2952 52.584 69.1786 52.6396C69.0572 52.6965 68.9546 52.7868 68.8827 52.8999C68.8109 53.0131 68.7729 53.1444 68.7731 53.2784C68.767 53.4126 68.8006 53.5455 68.8698 53.6606C68.939 53.7756 69.0407 53.8676 69.1621 53.925C69.2761 53.9864 69.404 54.0172 69.5335 54.0145C70.1557 54.0145 70.778 54.0145 71.4003 54.0145C71.591 54.002 71.7796 54.0601 71.9302 54.1778C72.0402 54.2622 72.1226 54.3775 72.1668 54.509C72.2109 54.6404 72.2149 54.7821 72.1781 54.9158C72.1507 55.0517 72.082 55.1759 71.9814 55.2714C71.8809 55.3669 71.7533 55.4292 71.6161 55.4496C71.5401 55.4631 71.4629 55.4692 71.3857 55.4681C70.2092 55.4681 69.0331 55.4681 67.8572 55.4681C67.7631 55.4652 67.6689 55.4747 67.5772 55.4963C67.407 55.5415 67.2591 55.6474 67.1615 55.794C67.0639 55.9407 67.0232 56.1179 67.0471 56.2924C67.071 56.4669 67.1578 56.6267 67.2912 56.7417C67.4247 56.8567 67.5955 56.919 67.7717 56.9168C68.8496 56.9168 69.9272 56.9168 71.0046 56.9168C71.11 56.9127 71.2151 56.9321 71.3122 56.9736C71.4092 57.0151 71.4958 57.0778 71.5656 57.157C71.6622 57.2624 71.7256 57.394 71.7479 57.5353C71.7702 57.6765 71.7504 57.8212 71.691 57.9513C71.5743 58.2498 71.3293 58.3859 71.0104 58.3996C70.9132 58.3996 70.8159 58.3996 70.7187 58.3996H68.6652C68.5174 58.3996 68.5223 58.3782 68.4581 58.5337C67.2913 61.3923 66.123 64.2502 64.9529 67.1075C63.6766 70.2364 62.3994 73.364 61.1211 76.4902L60.8294 77.2088C60.7555 77.2088 60.6797 77.2088 60.6048 77.2088C59.3683 77.1549 58.1966 76.6409 57.3194 75.7678C56.5598 75.0279 56.0621 74.0605 55.9018 73.0123C55.7319 71.9752 55.5628 70.9381 55.3942 69.9009C55.2445 68.9779 55.0948 68.0555 54.945 67.1338C54.8219 66.3715 54.6974 65.6098 54.5717 64.8488C54.4459 64.0879 54.3218 63.322 54.1993 62.5513C54.0748 61.79 53.9484 61.0287 53.8269 60.2674C53.7024 59.4837 53.5828 58.7 53.4623 57.9163C53.4467 57.8191 53.4419 57.7219 53.4292 57.5945C53.4126 57.6163 53.3982 57.6397 53.3864 57.6645C53.086 58.5707 52.6971 59.4467 52.3373 60.3315C51.0344 63.5285 49.7299 66.7244 48.4238 69.9194C47.4567 72.2905 46.4886 74.6604 45.5195 77.0289C45.4437 77.2156 45.4427 77.2234 45.2424 77.2078C44.0803 77.1575 42.9723 76.703 42.1095 75.9228C41.2468 75.1426 40.6836 74.0857 40.517 72.9345C40.4081 72.2315 40.2895 71.5295 40.1748 70.8275C40.049 70.062 39.9239 69.2965 39.7995 68.531L39.4232 66.2334C39.2812 65.3622 39.1393 64.4907 38.9973 63.6189C38.8677 62.8106 38.7358 62.0026 38.6016 61.1949C38.4421 60.2226 38.283 59.2503 38.1242 58.278C37.9816 57.4068 37.839 56.5357 37.6964 55.6645C37.5538 54.7933 37.4125 53.9244 37.2724 53.0577C37.1752 52.4743 37.078 51.891 36.9808 51.3076C36.9697 51.2734 36.9543 51.2407 36.9351 51.2104V51.1073H40.7465C40.8554 51.1248 40.9662 51.1374 41.0742 51.1598C41.3274 51.2057 41.5598 51.3303 41.7382 51.5159C41.9165 51.7014 42.0319 51.9385 42.0678 52.1933C42.1126 52.5327 42.1651 52.874 42.2147 53.2113L42.4879 55.1054L42.7796 57.154C42.8775 57.8418 42.9747 58.5292 43.0713 59.2163C43.1678 59.9034 43.2651 60.5908 43.363 61.2785C43.4699 62.0253 43.5765 62.7723 43.6828 63.5197C43.7995 64.3384 43.9168 65.1571 44.0348 65.9757C44.1262 66.6087 44.2196 67.2397 44.3071 67.8727C44.3576 68.2461 44.414 68.6204 44.4412 68.9957C44.4811 69.548 44.4967 70.1003 44.5239 70.6535C44.5257 70.6796 44.529 70.7055 44.5336 70.7313C44.5624 70.6964 44.5839 70.656 44.5968 70.6127C44.6795 70.3647 44.7602 70.1158 44.8438 69.8679C45.1899 68.8839 45.5993 67.934 45.9882 66.9685C46.9799 64.5202 47.9739 62.0729 48.9702 59.6266C49.9665 57.1803 50.9602 54.733 51.9513 52.2847C52.0468 52.0357 52.1981 51.8118 52.3937 51.6304C52.6866 51.3412 53.0708 51.1628 53.4807 51.1258C53.5051 51.121 53.5288 51.1138 53.5517 51.1044H54.8361C54.945 51.1209 55.0559 51.1326 55.1638 51.1569C55.6957 51.2765 56.0496 51.5895 56.1886 52.1243C56.2168 52.2313 56.2294 52.3431 56.2469 52.453C56.4414 53.6424 56.6339 54.8312 56.8245 56.0194C56.9917 57.0519 57.1599 58.0842 57.3291 59.1161C57.4983 60.1481 57.6652 61.1803 57.8299 62.2129C57.9984 63.2455 58.1666 64.2778 58.3345 65.3097C58.5046 66.3549 58.6767 67.3992 58.8391 68.4454C58.9363 69.0803 59.0248 69.7181 59.0627 70.3608C59.0686 70.4581 59.0812 70.5553 59.0919 70.67C59.1026 70.6585 59.1123 70.6462 59.1211 70.6331C59.1434 70.5592 59.1658 70.4853 59.1872 70.4114C59.406 69.6579 59.6199 68.9034 59.9038 68.1702C60.4697 66.7118 61.0346 65.2533 61.5985 63.7949C63.0894 59.9394 64.5802 56.0848 66.0711 52.2313C66.0976 52.1541 66.1325 52.0801 66.1751 52.0106C66.3279 51.7635 66.5364 51.5557 66.7839 51.4038C67.0315 51.2518 67.3111 51.1599 67.6005 51.1355C67.6377 51.1294 67.6743 51.1209 67.7104 51.1102L74.3114 51.1044ZM80.5963 54.6047C80.5839 54.5823 80.5744 54.5585 80.5681 54.5337C80.5353 54.3841 80.4541 54.2496 80.337 54.151C80.2199 54.0524 80.0735 53.9952 79.9206 53.9882C79.5861 53.9882 79.2516 53.9834 78.9172 53.9882C78.7335 53.9951 78.5595 54.0723 78.4312 54.2039C78.3028 54.3354 78.2299 54.5113 78.2276 54.6951C78.2252 54.8788 78.2935 55.0565 78.4184 55.1913C78.5433 55.3261 78.7153 55.4078 78.8987 55.4195C79.2419 55.4311 79.5851 55.4301 79.9284 55.4195C80.0794 55.4124 80.2239 55.3557 80.3394 55.2581C80.4549 55.1606 80.535 55.0276 80.5672 54.8798C80.5742 54.8555 80.584 54.832 80.5963 54.8098V54.6047ZM73.5676 53.9882C73.4289 53.983 73.292 54.021 73.1758 54.0969C73.0596 54.1729 72.9699 54.283 72.919 54.4121C72.8578 54.5365 72.8359 54.6766 72.8564 54.8137C72.8769 54.9508 72.9388 55.0783 73.0338 55.1793C73.1036 55.2611 73.1913 55.3258 73.2901 55.3685C73.3888 55.4111 73.4961 55.4305 73.6035 55.4253C74.4319 55.4253 75.2597 55.4253 76.0868 55.4253C76.3571 55.4253 76.6274 55.4311 76.8967 55.4253C77.0064 55.4221 77.1139 55.3937 77.2108 55.3424C77.3078 55.2911 77.3917 55.2181 77.4561 55.1293C77.5204 55.0404 77.5635 54.9379 77.582 54.8298C77.6005 54.7216 77.5939 54.6107 77.5627 54.5055C77.5216 54.3568 77.4326 54.2258 77.3096 54.1327C77.1866 54.0396 77.0364 53.9895 76.8821 53.9902C76.3299 53.9902 75.7766 53.9902 75.2234 53.9902C74.6701 53.9902 74.1208 53.9863 73.5676 53.9882Z" fill="white"/>
</g>
<defs>
<clipPath id="clip0_3105_1067">
<rect width="70" height="70" fill="white" transform="translate(21 27)"/>
</clipPath>
</defs>
</svg>
