<svg width="124" height="100" viewBox="0 0 124 100" fill="none" xmlns="http://www.w3.org/2000/svg">
<path d="M114.026 0H9.43569C4.2245 0 0 4.2245 0 9.43569V90.203C0 95.4142 4.2245 99.6387 9.43569 99.6387H114.026C119.237 99.6387 123.461 95.4142 123.461 90.203V9.43569C123.461 4.2245 119.237 0 114.026 0Z" fill="#004ECB"/>
<path d="M44.8944 12.6238H7.75391V86.8647H44.8944V12.6238Z" fill="#2979FF"/>
<path d="M12.0996 20.4655H28.4866" stroke="#75A7FF" stroke-width="3" stroke-miterlimit="10"/>
<path d="M33.334 20.4655H40.3735" stroke="#75A7FF" stroke-width="3" stroke-miterlimit="10"/>
<path d="M12.0996 24.069H40.373" stroke="#75A7FF" stroke-width="3" stroke-miterlimit="10"/>
<path d="M12.0996 28.5734H28.4866" stroke="#75A7FF" stroke-width="3" stroke-miterlimit="10"/>
<path d="M33.334 28.5734H40.3735" stroke="#75A7FF" stroke-width="3" stroke-miterlimit="10"/>
<path d="M12.0996 35.7805H28.4866" stroke="#75A7FF" stroke-width="3" stroke-miterlimit="10"/>
<path d="M33.334 35.7805H40.3735" stroke="#75A7FF" stroke-width="3" stroke-miterlimit="10"/>
<path d="M12.0996 39.384H40.373" stroke="#75A7FF" stroke-width="3" stroke-miterlimit="10"/>
<path d="M12.0996 43.8885H28.4866" stroke="#75A7FF" stroke-width="3" stroke-miterlimit="10"/>
<path d="M33.334 43.8885H40.3735" stroke="#75A7FF" stroke-width="3" stroke-miterlimit="10"/>
<path d="M12.0996 47.4921H40.373" stroke="#75A7FF" stroke-width="3" stroke-miterlimit="10"/>
<path d="M12.0996 55.6H40.373" stroke="#75A7FF" stroke-width="3" stroke-miterlimit="10"/>
<path d="M12.0996 60.1045H28.4866" stroke="#75A7FF" stroke-width="3" stroke-miterlimit="10"/>
<path d="M33.334 60.1045H40.3735" stroke="#75A7FF" stroke-width="3" stroke-miterlimit="10"/>
<path d="M12.0996 63.708H40.373" stroke="#75A7FF" stroke-width="3" stroke-miterlimit="10"/>
<path d="M12.0996 67.3115H28.4866" stroke="#75A7FF" stroke-width="3" stroke-miterlimit="10"/>
<path d="M33.334 67.3115H40.3735" stroke="#75A7FF" stroke-width="3" stroke-miterlimit="10"/>
<path d="M12.2754 75.4196H28.6624" stroke="#75A7FF" stroke-width="3" stroke-miterlimit="10"/>
<path d="M33.5098 75.4196H40.5493" stroke="#75A7FF" stroke-width="3" stroke-miterlimit="10"/>
<path d="M12.2754 79.0231H40.5488" stroke="#75A7FF" stroke-width="3" stroke-miterlimit="10"/>
<path d="M83.3648 83.891C92.5053 83.891 99.9151 76.4811 99.9151 67.3406C99.9151 58.2001 92.5053 50.7903 83.3648 50.7903C74.2243 50.7903 66.8145 58.2001 66.8145 67.3406C66.8145 76.4811 74.2243 83.891 83.3648 83.891Z" stroke="#A5C7F9" stroke-width="8" stroke-miterlimit="10"/>
<path d="M82.8652 46.4767V54.9532C82.8652 54.9532 95.8553 55.2209 95.4984 68.3818H104.153C104.153 68.3818 104.956 59.0576 97.9521 52.4995C90.9479 45.9414 82.8652 46.4767 82.8652 46.4767Z" fill="#75A7FF"/>
<path d="M85.4648 79.4905L88.5843 87.3425C88.5843 87.3425 94.8097 86.9075 100.318 79.4905C104.171 74.3014 104.154 68.3818 104.154 68.3818H95.4993C95.4993 68.3818 95.5732 76.4568 85.4648 79.4905Z" fill="#2979FF"/>
<path d="M61.7657 18.3856H55.3867V41.7123H61.7657V18.3856Z" fill="#2979FF"/>
<path d="M74.1583 12.0811H67.7793V41.7123H74.1583V12.0811Z" fill="#75A7FF"/>
<path d="M85.8927 18.3856H79.5137V41.7123H85.8927V18.3856Z" fill="#2979FF"/>
<path d="M98.2852 12.0811H91.9062V41.7123H98.2852V12.0811Z" fill="#75A7FF"/>
<path d="M110.662 18.3856H104.283V41.7123H110.662V18.3856Z" fill="#2979FF"/>
</svg>
