<svg xmlns="http://www.w3.org/2000/svg" width="237" height="223" viewBox="0 0 237 223">
  <g id="Group_242" data-name="Group 242" transform="translate(-1279 -1718)" opacity="0.12">
    <circle id="Ellipse_65" data-name="Ellipse 65" cx="3.5" cy="3.5" r="3.5" transform="translate(1279 1718)" fill="#20212a"/>
    <circle id="Ellipse_65-2" data-name="Ellipse 65" cx="3.5" cy="3.5" r="3.5" transform="translate(1302 1718)" fill="#20212a"/>
    <circle id="Ellipse_65-3" data-name="Ellipse 65" cx="3.5" cy="3.5" r="3.5" transform="translate(1325 1718)" fill="#20212a"/>
    <circle id="Ellipse_65-4" data-name="Ellipse 65" cx="3.5" cy="3.5" r="3.5" transform="translate(1348 1718)" fill="#20212a"/>
    <circle id="Ellipse_65-5" data-name="Ellipse 65" cx="3.5" cy="3.5" r="3.5" transform="translate(1371 1718)" fill="#20212a"/>
    <circle id="Ellipse_65-6" data-name="Ellipse 65" cx="3.5" cy="3.5" r="3.5" transform="translate(1394 1718)" fill="#20212a"/>
    <circle id="Ellipse_65-7" data-name="Ellipse 65" cx="3.5" cy="3.5" r="3.5" transform="translate(1417 1718)" fill="#20212a"/>
    <circle id="Ellipse_65-8" data-name="Ellipse 65" cx="3.5" cy="3.5" r="3.5" transform="translate(1440 1718)" fill="#20212a"/>
    <circle id="Ellipse_65-9" data-name="Ellipse 65" cx="3.5" cy="3.5" r="3.5" transform="translate(1463 1718)" fill="#20212a"/>
    <circle id="Ellipse_65-10" data-name="Ellipse 65" cx="3.5" cy="3.5" r="3.5" transform="translate(1486 1718)" fill="#20212a"/>
    <circle id="Ellipse_65-11" data-name="Ellipse 65" cx="3.5" cy="3.5" r="3.5" transform="translate(1509 1718)" fill="#20212a"/>
    <circle id="Ellipse_65-12" data-name="Ellipse 65" cx="3.5" cy="3.5" r="3.5" transform="translate(1279 1742)" fill="#20212a"/>
    <circle id="Ellipse_65-13" data-name="Ellipse 65" cx="3.5" cy="3.5" r="3.5" transform="translate(1302 1742)" fill="#20212a"/>
    <circle id="Ellipse_65-14" data-name="Ellipse 65" cx="3.5" cy="3.5" r="3.5" transform="translate(1325 1742)" fill="#20212a"/>
    <circle id="Ellipse_65-15" data-name="Ellipse 65" cx="3.5" cy="3.5" r="3.5" transform="translate(1348 1742)" fill="#20212a"/>
    <circle id="Ellipse_65-16" data-name="Ellipse 65" cx="3.5" cy="3.5" r="3.5" transform="translate(1371 1742)" fill="#20212a"/>
    <circle id="Ellipse_65-17" data-name="Ellipse 65" cx="3.5" cy="3.5" r="3.5" transform="translate(1394 1742)" fill="#20212a"/>
    <circle id="Ellipse_65-18" data-name="Ellipse 65" cx="3.5" cy="3.5" r="3.5" transform="translate(1417 1742)" fill="#20212a"/>
    <circle id="Ellipse_65-19" data-name="Ellipse 65" cx="3.5" cy="3.5" r="3.5" transform="translate(1440 1742)" fill="#20212a"/>
    <circle id="Ellipse_65-20" data-name="Ellipse 65" cx="3.5" cy="3.5" r="3.5" transform="translate(1463 1742)" fill="#20212a"/>
    <circle id="Ellipse_65-21" data-name="Ellipse 65" cx="3.5" cy="3.5" r="3.5" transform="translate(1486 1742)" fill="#20212a"/>
    <circle id="Ellipse_65-22" data-name="Ellipse 65" cx="3.5" cy="3.5" r="3.5" transform="translate(1509 1742)" fill="#20212a"/>
    <circle id="Ellipse_65-23" data-name="Ellipse 65" cx="3.5" cy="3.5" r="3.5" transform="translate(1279 1766)" fill="#20212a"/>
    <circle id="Ellipse_65-24" data-name="Ellipse 65" cx="3.5" cy="3.5" r="3.5" transform="translate(1302 1766)" fill="#20212a"/>
    <circle id="Ellipse_65-25" data-name="Ellipse 65" cx="3.5" cy="3.5" r="3.5" transform="translate(1325 1766)" fill="#20212a"/>
    <circle id="Ellipse_65-26" data-name="Ellipse 65" cx="3.5" cy="3.5" r="3.5" transform="translate(1348 1766)" fill="#20212a"/>
    <circle id="Ellipse_65-27" data-name="Ellipse 65" cx="3.5" cy="3.5" r="3.5" transform="translate(1371 1766)" fill="#20212a"/>
    <circle id="Ellipse_65-28" data-name="Ellipse 65" cx="3.5" cy="3.5" r="3.5" transform="translate(1394 1766)" fill="#20212a"/>
    <circle id="Ellipse_65-29" data-name="Ellipse 65" cx="3.5" cy="3.5" r="3.5" transform="translate(1417 1766)" fill="#20212a"/>
    <circle id="Ellipse_65-30" data-name="Ellipse 65" cx="3.5" cy="3.5" r="3.5" transform="translate(1440 1766)" fill="#20212a"/>
    <circle id="Ellipse_65-31" data-name="Ellipse 65" cx="3.5" cy="3.5" r="3.5" transform="translate(1463 1766)" fill="#20212a"/>
    <circle id="Ellipse_65-32" data-name="Ellipse 65" cx="3.5" cy="3.5" r="3.5" transform="translate(1486 1766)" fill="#20212a"/>
    <circle id="Ellipse_65-33" data-name="Ellipse 65" cx="3.5" cy="3.5" r="3.5" transform="translate(1509 1766)" fill="#20212a"/>
    <circle id="Ellipse_65-34" data-name="Ellipse 65" cx="3.5" cy="3.5" r="3.5" transform="translate(1279 1790)" fill="#20212a"/>
    <circle id="Ellipse_65-35" data-name="Ellipse 65" cx="3.5" cy="3.5" r="3.5" transform="translate(1302 1790)" fill="#20212a"/>
    <circle id="Ellipse_65-36" data-name="Ellipse 65" cx="3.5" cy="3.5" r="3.5" transform="translate(1325 1790)" fill="#20212a"/>
    <circle id="Ellipse_65-37" data-name="Ellipse 65" cx="3.5" cy="3.5" r="3.5" transform="translate(1348 1790)" fill="#20212a"/>
    <circle id="Ellipse_65-38" data-name="Ellipse 65" cx="3.5" cy="3.5" r="3.5" transform="translate(1371 1790)" fill="#20212a"/>
    <circle id="Ellipse_65-39" data-name="Ellipse 65" cx="3.5" cy="3.5" r="3.5" transform="translate(1394 1790)" fill="#20212a"/>
    <circle id="Ellipse_65-40" data-name="Ellipse 65" cx="3.5" cy="3.5" r="3.5" transform="translate(1417 1790)" fill="#20212a"/>
    <circle id="Ellipse_65-41" data-name="Ellipse 65" cx="3.5" cy="3.5" r="3.5" transform="translate(1440 1790)" fill="#20212a"/>
    <circle id="Ellipse_65-42" data-name="Ellipse 65" cx="3.5" cy="3.5" r="3.5" transform="translate(1463 1790)" fill="#20212a"/>
    <circle id="Ellipse_65-43" data-name="Ellipse 65" cx="3.5" cy="3.5" r="3.5" transform="translate(1486 1790)" fill="#20212a"/>
    <circle id="Ellipse_65-44" data-name="Ellipse 65" cx="3.5" cy="3.5" r="3.5" transform="translate(1509 1790)" fill="#20212a"/>
    <circle id="Ellipse_65-45" data-name="Ellipse 65" cx="3.5" cy="3.5" r="3.5" transform="translate(1279 1814)" fill="#20212a"/>
    <circle id="Ellipse_65-46" data-name="Ellipse 65" cx="3.5" cy="3.5" r="3.5" transform="translate(1302 1814)" fill="#20212a"/>
    <circle id="Ellipse_65-47" data-name="Ellipse 65" cx="3.5" cy="3.5" r="3.5" transform="translate(1325 1814)" fill="#20212a"/>
    <circle id="Ellipse_65-48" data-name="Ellipse 65" cx="3.5" cy="3.5" r="3.5" transform="translate(1348 1814)" fill="#20212a"/>
    <circle id="Ellipse_65-49" data-name="Ellipse 65" cx="3.5" cy="3.5" r="3.5" transform="translate(1371 1814)" fill="#20212a"/>
    <circle id="Ellipse_65-50" data-name="Ellipse 65" cx="3.5" cy="3.5" r="3.5" transform="translate(1394 1814)" fill="#20212a"/>
    <circle id="Ellipse_65-51" data-name="Ellipse 65" cx="3.5" cy="3.5" r="3.5" transform="translate(1417 1814)" fill="#20212a"/>
    <circle id="Ellipse_65-52" data-name="Ellipse 65" cx="3.5" cy="3.5" r="3.5" transform="translate(1440 1814)" fill="#20212a"/>
    <circle id="Ellipse_65-53" data-name="Ellipse 65" cx="3.5" cy="3.5" r="3.5" transform="translate(1463 1814)" fill="#20212a"/>
    <circle id="Ellipse_65-54" data-name="Ellipse 65" cx="3.5" cy="3.5" r="3.5" transform="translate(1486 1814)" fill="#20212a"/>
    <circle id="Ellipse_65-55" data-name="Ellipse 65" cx="3.5" cy="3.5" r="3.5" transform="translate(1509 1814)" fill="#20212a"/>
    <circle id="Ellipse_65-56" data-name="Ellipse 65" cx="3.5" cy="3.5" r="3.5" transform="translate(1279 1838)" fill="#20212a"/>
    <circle id="Ellipse_65-57" data-name="Ellipse 65" cx="3.5" cy="3.5" r="3.5" transform="translate(1302 1838)" fill="#20212a"/>
    <circle id="Ellipse_65-58" data-name="Ellipse 65" cx="3.5" cy="3.5" r="3.5" transform="translate(1325 1838)" fill="#20212a"/>
    <circle id="Ellipse_65-59" data-name="Ellipse 65" cx="3.5" cy="3.5" r="3.5" transform="translate(1348 1838)" fill="#20212a"/>
    <circle id="Ellipse_65-60" data-name="Ellipse 65" cx="3.5" cy="3.5" r="3.5" transform="translate(1371 1838)" fill="#20212a"/>
    <circle id="Ellipse_65-61" data-name="Ellipse 65" cx="3.5" cy="3.5" r="3.5" transform="translate(1394 1838)" fill="#20212a"/>
    <circle id="Ellipse_65-62" data-name="Ellipse 65" cx="3.5" cy="3.5" r="3.5" transform="translate(1417 1838)" fill="#20212a"/>
    <circle id="Ellipse_65-63" data-name="Ellipse 65" cx="3.5" cy="3.5" r="3.5" transform="translate(1440 1838)" fill="#20212a"/>
    <circle id="Ellipse_65-64" data-name="Ellipse 65" cx="3.5" cy="3.5" r="3.5" transform="translate(1463 1838)" fill="#20212a"/>
    <circle id="Ellipse_65-65" data-name="Ellipse 65" cx="3.5" cy="3.5" r="3.5" transform="translate(1486 1838)" fill="#20212a"/>
    <circle id="Ellipse_65-66" data-name="Ellipse 65" cx="3.5" cy="3.5" r="3.5" transform="translate(1509 1838)" fill="#20212a"/>
    <circle id="Ellipse_65-67" data-name="Ellipse 65" cx="3.5" cy="3.5" r="3.5" transform="translate(1279 1862)" fill="#20212a"/>
    <circle id="Ellipse_65-68" data-name="Ellipse 65" cx="3.5" cy="3.5" r="3.5" transform="translate(1302 1862)" fill="#20212a"/>
    <circle id="Ellipse_65-69" data-name="Ellipse 65" cx="3.5" cy="3.5" r="3.5" transform="translate(1325 1862)" fill="#20212a"/>
    <circle id="Ellipse_65-70" data-name="Ellipse 65" cx="3.5" cy="3.5" r="3.5" transform="translate(1348 1862)" fill="#20212a"/>
    <circle id="Ellipse_65-71" data-name="Ellipse 65" cx="3.5" cy="3.5" r="3.5" transform="translate(1371 1862)" fill="#20212a"/>
    <circle id="Ellipse_65-72" data-name="Ellipse 65" cx="3.5" cy="3.5" r="3.5" transform="translate(1394 1862)" fill="#20212a"/>
    <circle id="Ellipse_65-73" data-name="Ellipse 65" cx="3.5" cy="3.5" r="3.5" transform="translate(1417 1862)" fill="#20212a"/>
    <circle id="Ellipse_65-74" data-name="Ellipse 65" cx="3.5" cy="3.5" r="3.5" transform="translate(1440 1862)" fill="#20212a"/>
    <circle id="Ellipse_65-75" data-name="Ellipse 65" cx="3.5" cy="3.5" r="3.5" transform="translate(1463 1862)" fill="#20212a"/>
    <circle id="Ellipse_65-76" data-name="Ellipse 65" cx="3.5" cy="3.5" r="3.5" transform="translate(1486 1862)" fill="#20212a"/>
    <circle id="Ellipse_65-77" data-name="Ellipse 65" cx="3.5" cy="3.5" r="3.5" transform="translate(1509 1862)" fill="#20212a"/>
    <circle id="Ellipse_65-78" data-name="Ellipse 65" cx="3.5" cy="3.5" r="3.5" transform="translate(1279 1886)" fill="#20212a"/>
    <circle id="Ellipse_65-79" data-name="Ellipse 65" cx="3.5" cy="3.5" r="3.5" transform="translate(1302 1886)" fill="#20212a"/>
    <circle id="Ellipse_65-80" data-name="Ellipse 65" cx="3.5" cy="3.5" r="3.5" transform="translate(1325 1886)" fill="#20212a"/>
    <circle id="Ellipse_65-81" data-name="Ellipse 65" cx="3.5" cy="3.5" r="3.5" transform="translate(1348 1886)" fill="#20212a"/>
    <circle id="Ellipse_65-82" data-name="Ellipse 65" cx="3.5" cy="3.5" r="3.5" transform="translate(1371 1886)" fill="#20212a"/>
    <circle id="Ellipse_65-83" data-name="Ellipse 65" cx="3.5" cy="3.5" r="3.5" transform="translate(1394 1886)" fill="#20212a"/>
    <circle id="Ellipse_65-84" data-name="Ellipse 65" cx="3.5" cy="3.5" r="3.5" transform="translate(1417 1886)" fill="#20212a"/>
    <circle id="Ellipse_65-85" data-name="Ellipse 65" cx="3.5" cy="3.5" r="3.5" transform="translate(1440 1886)" fill="#20212a"/>
    <circle id="Ellipse_65-86" data-name="Ellipse 65" cx="3.5" cy="3.5" r="3.5" transform="translate(1463 1886)" fill="#20212a"/>
    <circle id="Ellipse_65-87" data-name="Ellipse 65" cx="3.5" cy="3.5" r="3.5" transform="translate(1486 1886)" fill="#20212a"/>
    <circle id="Ellipse_65-88" data-name="Ellipse 65" cx="3.5" cy="3.5" r="3.5" transform="translate(1509 1886)" fill="#20212a"/>
    <circle id="Ellipse_65-89" data-name="Ellipse 65" cx="3.5" cy="3.5" r="3.5" transform="translate(1279 1910)" fill="#20212a"/>
    <circle id="Ellipse_65-90" data-name="Ellipse 65" cx="3.5" cy="3.5" r="3.5" transform="translate(1302 1910)" fill="#20212a"/>
    <circle id="Ellipse_65-91" data-name="Ellipse 65" cx="3.5" cy="3.5" r="3.5" transform="translate(1325 1910)" fill="#20212a"/>
    <circle id="Ellipse_65-92" data-name="Ellipse 65" cx="3.5" cy="3.5" r="3.5" transform="translate(1348 1910)" fill="#20212a"/>
    <circle id="Ellipse_65-93" data-name="Ellipse 65" cx="3.5" cy="3.5" r="3.5" transform="translate(1371 1910)" fill="#20212a"/>
    <circle id="Ellipse_65-94" data-name="Ellipse 65" cx="3.5" cy="3.5" r="3.5" transform="translate(1394 1910)" fill="#20212a"/>
    <circle id="Ellipse_65-95" data-name="Ellipse 65" cx="3.5" cy="3.5" r="3.5" transform="translate(1417 1910)" fill="#20212a"/>
    <circle id="Ellipse_65-96" data-name="Ellipse 65" cx="3.5" cy="3.5" r="3.5" transform="translate(1440 1910)" fill="#20212a"/>
    <circle id="Ellipse_65-97" data-name="Ellipse 65" cx="3.5" cy="3.5" r="3.5" transform="translate(1463 1910)" fill="#20212a"/>
    <circle id="Ellipse_65-98" data-name="Ellipse 65" cx="3.5" cy="3.5" r="3.5" transform="translate(1486 1910)" fill="#20212a"/>
    <circle id="Ellipse_65-99" data-name="Ellipse 65" cx="3.5" cy="3.5" r="3.5" transform="translate(1509 1910)" fill="#20212a"/>
    <circle id="Ellipse_65-100" data-name="Ellipse 65" cx="3.5" cy="3.5" r="3.5" transform="translate(1279 1934)" fill="#20212a"/>
    <circle id="Ellipse_65-101" data-name="Ellipse 65" cx="3.5" cy="3.5" r="3.5" transform="translate(1302 1934)" fill="#20212a"/>
    <circle id="Ellipse_65-102" data-name="Ellipse 65" cx="3.5" cy="3.5" r="3.5" transform="translate(1325 1934)" fill="#20212a"/>
    <circle id="Ellipse_65-103" data-name="Ellipse 65" cx="3.5" cy="3.5" r="3.5" transform="translate(1348 1934)" fill="#20212a"/>
    <circle id="Ellipse_65-104" data-name="Ellipse 65" cx="3.5" cy="3.5" r="3.5" transform="translate(1371 1934)" fill="#20212a"/>
    <circle id="Ellipse_65-105" data-name="Ellipse 65" cx="3.5" cy="3.5" r="3.5" transform="translate(1394 1934)" fill="#20212a"/>
    <circle id="Ellipse_65-106" data-name="Ellipse 65" cx="3.5" cy="3.5" r="3.5" transform="translate(1417 1934)" fill="#20212a"/>
    <circle id="Ellipse_65-107" data-name="Ellipse 65" cx="3.5" cy="3.5" r="3.5" transform="translate(1440 1934)" fill="#20212a"/>
    <circle id="Ellipse_65-108" data-name="Ellipse 65" cx="3.5" cy="3.5" r="3.5" transform="translate(1463 1934)" fill="#20212a"/>
    <circle id="Ellipse_65-109" data-name="Ellipse 65" cx="3.5" cy="3.5" r="3.5" transform="translate(1486 1934)" fill="#20212a"/>
    <circle id="Ellipse_65-110" data-name="Ellipse 65" cx="3.5" cy="3.5" r="3.5" transform="translate(1509 1934)" fill="#20212a"/>
  </g>
</svg>
