<svg width="14" height="13" viewBox="0 0 14 13" fill="none" xmlns="http://www.w3.org/2000/svg">
<rect width="14" height="13" fill="#E5E5E5"/>
<path d="M542 -1700H-1378V402H542V-1700Z" fill="#F6F7F9"/>
<rect x="-34.7089" y="-99.7089" width="392.496" height="476.418" rx="6.45553" stroke="#5559D9" stroke-width="2.58221"/>
<rect x="-32.7734" y="-97.7725" width="389.914" height="472.739" rx="7.64537" fill="white"/>
<path d="M83.2203 -4.16699H-0.667535C-1.6429 -4.16699 -2.43359 -3.38885 -2.43359 -2.42897V16.6893C-2.43359 17.6492 -1.6429 18.4273 -0.667535 18.4273H83.2203C84.1956 18.4273 84.9863 17.6492 84.9863 16.6893V-2.42897C84.9863 -3.38885 84.1956 -4.16699 83.2203 -4.16699Z" fill="#5559D9"/>
<path d="M6.96373 0.997733C5.50167 0.991064 4.08489 1.43886 2.96837 2.26053C1.85185 3.0822 1.1089 4.22379 0.873244 5.47983C0.637587 6.73587 0.924696 8.02389 1.6829 9.11207C2.4411 10.2003 3.6206 11.0171 5.00913 11.4157C5.318 11.4624 5.43395 11.3021 5.43395 11.1613C5.43395 11.034 5.42616 10.6133 5.42616 10.1655C3.87349 10.4128 3.47156 9.83813 3.34781 9.53746C3.21042 9.2446 2.99302 8.98534 2.71447 8.78217C2.49816 8.68208 2.18928 8.43484 2.70667 8.42806C2.90402 8.44638 3.09341 8.50577 3.25884 8.6012C3.42428 8.69664 3.5609 8.82533 3.65718 8.9764C3.82933 9.24211 4.11535 9.43767 4.45269 9.52032C4.79003 9.60297 5.15124 9.56598 5.45734 9.41744C5.48432 9.14528 5.62446 8.89105 5.85148 8.70244C4.47614 8.56886 3.03942 8.10873 3.03942 6.06296C3.03092 5.53103 3.25767 5.01662 3.67277 4.62617C3.48359 4.1645 3.50574 3.65716 3.73464 3.20932C3.73464 3.20932 4.25203 3.06895 5.43444 3.75723C6.44599 3.51667 7.51314 3.51667 8.52468 3.75723C9.7066 3.06216 10.2245 3.20932 10.2245 3.20932C10.4534 3.65716 10.4755 4.1645 10.2864 4.62617C10.7027 5.01596 10.9296 5.53081 10.9197 6.06296C10.9197 8.11424 9.47518 8.56886 8.09985 8.70244C8.24715 8.83137 8.36069 8.9865 8.43267 9.1572C8.50465 9.3279 8.53338 9.51013 8.51688 9.6914C8.51688 10.4064 8.50909 10.981 8.50909 11.1617C8.50909 11.3021 8.62504 11.4691 8.93392 11.4161C10.3242 11.0175 11.505 10.1995 12.2635 9.10981C13.022 8.02007 13.3081 6.73029 13.0704 5.47308C12.8326 4.21586 12.0866 3.07398 10.9669 2.25337C9.84715 1.43276 8.42742 0.987441 6.96373 0.997733V0.997733Z" fill="white"/>
</svg>
