<svg id="Group_1" data-name="Group 1" xmlns="http://www.w3.org/2000/svg" width="28.417" height="28.996" viewBox="0 0 28.417 28.996">
  <path id="Path_168" data-name="Path 168" d="M144.468,109.723a12.421,12.421,0,0,0-.306-2.964H130.55v5.38h7.99a7.085,7.085,0,0,1-2.964,4.7l-.028.18,4.3,3.334.3.03a14.176,14.176,0,0,0,4.317-10.664" transform="translate(-116.052 -94.903)" fill="#4285f4"/>
  <path id="Path_169" data-name="Path 169" d="M26.876,168a13.819,13.819,0,0,0,9.6-3.512L31.9,160.945a8.579,8.579,0,0,1-5.026,1.45,8.728,8.728,0,0,1-8.248-6.025l-.17.014-4.475,3.463-.058.163A14.487,14.487,0,0,0,26.877,168" transform="translate(-12.379 -139.004)" fill="#34a853"/>
  <path id="Path_170" data-name="Path 170" d="M6.25,80.758a8.925,8.925,0,0,1-.484-2.867,9.379,9.379,0,0,1,.467-2.867l-.008-.192-4.53-3.519-.148.07a14.467,14.467,0,0,0,0,13.016l4.7-3.64" transform="translate(0 -63.392)" fill="#fbbc05"/>
  <path id="Path_171" data-name="Path 171" d="M26.871,5.6a8.035,8.035,0,0,1,5.606,2.159l4.092-3.995A13.929,13.929,0,0,0,26.871,0,14.488,14.488,0,0,0,13.917,7.99l4.69,3.638A8.763,8.763,0,0,1,26.871,5.6" transform="translate(-12.373 0.004)" fill="#eb4335"/>
</svg>
