<svg xmlns="http://www.w3.org/2000/svg" xmlns:xlink="http://www.w3.org/1999/xlink" width="1390" height="822" viewBox="0 0 1390 822">
  <defs>
    <filter id="Rectangle_6" x="162" y="0" width="1228" height="593" filterUnits="userSpaceOnUse">
      <feOffset dy="10" input="SourceAlpha"/>
      <feGaussianBlur stdDeviation="33" result="blur"/>
      <feFlood flood-color="#616161" flood-opacity="0.059"/>
      <feComposite operator="in" in2="blur"/>
      <feComposite in="SourceGraphic"/>
    </filter>
    <filter id="Rectangle_7" x="0" y="259" width="651" height="563" filterUnits="userSpaceOnUse">
      <feOffset dy="10" input="SourceAlpha"/>
      <feGaussianBlur stdDeviation="33" result="blur-2"/>
      <feFlood flood-color="#616161" flood-opacity="0.059"/>
      <feComposite operator="in" in2="blur-2"/>
      <feComposite in="SourceGraphic"/>
    </filter>
  </defs>
  <g id="Group_314" data-name="Group 314" transform="translate(-902 -154)">
    <g id="Group_305" data-name="Group 305" transform="translate(383 66)">
      <g transform="matrix(1, 0, 0, 1, 519, 88)" filter="url(#Rectangle_6)">
        <rect id="Rectangle_6-2" data-name="Rectangle 6" width="1030" height="395" rx="7" transform="translate(261 89)" fill="#fff"/>
      </g>
      <text id="Sprint_Velocity_Chart" data-name="Sprint Velocity Chart" transform="translate(847.494 226.721)" fill="#545454" font-size="21" font-family="Poppins-Medium, Poppins" font-weight="500"><tspan x="0" y="0">Sprint Velocity Chart</tspan></text>
      <text id="Team_ID:_Dev" data-name="Team ID: Dev" transform="translate(847.494 258.721)" fill="#545454" font-size="12" font-family="Poppins-Light, Poppins" font-weight="300"><tspan x="0" y="0">Team ID: Dev</tspan></text>
      <text id="_80" data-name="80" transform="translate(851.793 308.721)" fill="#545454" font-size="15" font-family="Poppins-Medium, Poppins" font-weight="500"><tspan x="0" y="0">80</tspan></text>
      <text id="_60" data-name="60" transform="translate(851.793 361.721)" fill="#545454" font-size="15" font-family="Poppins-Medium, Poppins" font-weight="500"><tspan x="0" y="0">60</tspan></text>
      <text id="_40" data-name="40" transform="translate(851.793 415.721)" fill="#545454" font-size="15" font-family="Poppins-Medium, Poppins" font-weight="500"><tspan x="0" y="0">40</tspan></text>
      <text id="_20" data-name="20" transform="translate(851.793 468.721)" fill="#545454" font-size="15" font-family="Poppins-Medium, Poppins" font-weight="500"><tspan x="0" y="0">20</tspan></text>
      <text id="S1" transform="translate(1079.469 536.721)" fill="#545454" font-size="15" font-family="Poppins-Regular, Poppins"><tspan x="0" y="0">S1</tspan></text>
      <text id="S2" transform="translate(1273.579 536.721)" fill="#545454" font-size="15" font-family="Poppins-Regular, Poppins"><tspan x="0" y="0">S2</tspan></text>
      <text id="S3" transform="translate(1463.854 536.721)" fill="#545454" font-size="15" font-family="Poppins-Regular, Poppins"><tspan x="0" y="0">S3</tspan></text>
      <text id="S4" transform="translate(1655.963 536.721)" fill="#545454" font-size="15" font-family="Poppins-Regular, Poppins"><tspan x="0" y="0">S4</tspan></text>
      <text id="S0" transform="translate(915.494 536.721)" fill="#545454" font-size="15" font-family="Poppins-Regular, Poppins"><tspan x="0" y="0">S0</tspan></text>
      <text id="_0" data-name="0" transform="translate(851.793 518.721)" fill="#545454" font-size="15" font-family="Poppins-Medium, Poppins" font-weight="500"><tspan x="0" y="0">0</tspan></text>
      <path id="Path_1" data-name="Path 1" d="M618,421.5h862.408" transform="translate(261.793 -119.427)" fill="none" stroke="#6437ef" stroke-width="0.8" opacity="0.23"/>
      <path id="Path_1-2" data-name="Path 1" d="M618,421.5h862.408" transform="translate(261.793 -89.427)" fill="none" stroke="#6437ef" stroke-width="0.8" opacity="0.23"/>
      <path id="Path_1-3" data-name="Path 1" d="M618,421.5h862.408" transform="translate(261.793 -66.415)" fill="none" stroke="#6437ef" stroke-width="0.8" opacity="0.23"/>
      <path id="Path_1-4" data-name="Path 1" d="M618,421.5h862.408" transform="translate(261.793 -39.432)" fill="none" stroke="#6437ef" stroke-width="0.8" opacity="0.23"/>
      <path id="Path_1-5" data-name="Path 1" d="M618,421.5h862.408" transform="translate(261.793 -12.448)" fill="none" stroke="#5421d8" stroke-width="0.8" opacity="0.23"/>
      <path id="Path_1-6" data-name="Path 1" d="M618,421.5h862.408" transform="translate(261.793 14.535)" fill="none" stroke="#460ec3" stroke-width="0.8" opacity="0.23"/>
      <path id="Path_1-7" data-name="Path 1" d="M618,421.5h862.408" transform="translate(261.793 41.519)" fill="none" stroke="#460ec3" stroke-width="0.8" opacity="0.23"/>
      <path id="Path_1-8" data-name="Path 1" d="M618,421.5h862.408" transform="translate(261.793 68.502)" fill="none" stroke="#460ec3" stroke-width="0.8" opacity="0.23"/>
      <path id="Path_2" data-name="Path 2" d="M618,421.5h862.408" transform="translate(261.793 92.721)" fill="none" stroke="#9d9d9d" stroke-width="0.8" opacity="0.34"/>
      <path id="Path_3" data-name="Path 3" d="M593,223H813.946" transform="translate(254.494 14.721)" fill="none" stroke="#707070" stroke-width="0.5" opacity="0.34"/>
      <g id="filter" transform="translate(1718.027 203.547)">
        <path id="Path_4" data-name="Path 4" d="M13.051,24.087h4.029V22.072H13.051ZM6,12v2.014H24.13V12Zm3.022,7.051H21.108V17.036H9.022Z" transform="translate(-2.978 -5.957)" fill="#545454"/>
        <path id="Path_5" data-name="Path 5" d="M0,0H24.173V24.173H0Z" fill="none"/>
      </g>
      <g id="settings-2" transform="translate(1680.027 206.547)">
        <rect id="Rectangle_11" data-name="Rectangle 11" width="18" height="18" transform="translate(18 18) rotate(180)" fill="#545454" opacity="0"/>
        <path id="_Group_" data-name="&lt;Group&gt;" d="M10.2,17H8.787a1.26,1.26,0,0,1-1.26-1.26v-.818a.255.255,0,0,0-.165-.218.285.285,0,0,0-.307,0l-.555.6a1.252,1.252,0,0,1-1.778,0L3.7,14.3a1.245,1.245,0,0,1-.375-.892,1.29,1.29,0,0,1,.375-.908l.555-.555a.255.255,0,0,0,0-.278c-.045-.112-.12-.195-.225-.195H3.26A1.268,1.268,0,0,1,2,10.2V8.787a1.26,1.26,0,0,1,1.26-1.26h.817A.255.255,0,0,0,4.3,7.362a.285.285,0,0,0,0-.307L3.7,6.5a1.253,1.253,0,0,1,0-1.778L4.7,3.7a1.238,1.238,0,0,1,.885-.375,1.29,1.29,0,0,1,.915.375l.555.555a.255.255,0,0,0,.278,0c.112-.045.195-.12.195-.225V3.26A1.267,1.267,0,0,1,8.8,2H10.25a1.26,1.26,0,0,1,1.26,1.26v.818a.255.255,0,0,0,.165.218.285.285,0,0,0,.307,0l.517-.6a1.253,1.253,0,0,1,1.777,0L15.305,4.7a1.253,1.253,0,0,1,.375.892,1.223,1.223,0,0,1-.375.908l-.555.555a.255.255,0,0,0,0,.277c.045.113.12.2.225.2h.818A1.267,1.267,0,0,1,17,8.8V10.25a1.26,1.26,0,0,1-1.26,1.26h-.818a.309.309,0,0,0-.218.443l.578.578a1.252,1.252,0,0,1,0,1.777l-.983,1a1.237,1.237,0,0,1-.885.375,1.29,1.29,0,0,1-.892-.375l-.578-.555a.255.255,0,0,0-.277,0c-.113.045-.2.12-.2.225v.818A1.267,1.267,0,0,1,10.2,17ZM9.028,15.5h.945v-.578a1.747,1.747,0,0,1,1.1-1.605,1.77,1.77,0,0,1,1.943.353l.405.405.66-.66L13.67,13A1.775,1.775,0,0,1,14.915,10H15.5V9.028h-.578a1.748,1.748,0,0,1-1.6-1.1A1.77,1.77,0,0,1,13.67,5.99l.405-.4-.66-.66L13,5.33a1.792,1.792,0,0,1-3-1.252V3.5H9.028v.577A1.747,1.747,0,0,1,7.933,5.682,1.77,1.77,0,0,1,5.99,5.33l-.405-.4-.66.66L5.33,6A1.792,1.792,0,0,1,4.078,9H3.5v.945h.577a1.748,1.748,0,0,1,1.605,1.1A1.77,1.77,0,0,1,5.33,12.98l-.4.405.66.66L6,13.64a1.792,1.792,0,0,1,3,1.253Z" transform="translate(-0.5 -0.5)" fill="#545454"/>
        <path id="Path_6" data-name="Path 6" d="M11.125,13.75a2.625,2.625,0,1,1,2.625-2.625,2.625,2.625,0,0,1-2.625,2.625Zm0-3.75a1.125,1.125,0,1,0,1.125,1.125A1.125,1.125,0,0,0,11.125,10Z" transform="translate(-2.125 -2.125)" fill="#545454"/>
      </g>
      <text id="Initial" transform="translate(1470.575 274)" fill="#545454" font-size="14" font-family="Poppins-Regular, Poppins"><tspan x="0" y="0">Initial</tspan></text>
      <text id="Final" transform="translate(1568.694 274)" fill="#545454" font-size="14" font-family="Poppins-Regular, Poppins"><tspan x="0" y="0">Final</tspan></text>
      <text id="Completed" transform="translate(1661.694 274)" fill="#545454" font-size="14" font-family="Poppins-Regular, Poppins"><tspan x="0" y="0">Completed</tspan></text>
      <path id="Rectangle_9" data-name="Rectangle 9" d="M2,0H15a2,2,0,0,1,2,2V78.186a0,0,0,0,1,0,0H0a0,0,0,0,1,0,0V2A2,2,0,0,1,2,0Z" transform="translate(898 436.035)" fill="#f3941f"/>
      <path id="Rectangle_253" data-name="Rectangle 253" d="M2,0H15a2,2,0,0,1,2,2V173.186a0,0,0,0,1,0,0H0a0,0,0,0,1,0,0V2A2,2,0,0,1,2,0Z" transform="translate(1060.969 341.035)" fill="#f3941f"/>
      <path id="Rectangle_257" data-name="Rectangle 257" d="M2,0H15a2,2,0,0,1,2,2V109.776a0,0,0,0,1,0,0H0a0,0,0,0,1,0,0V2A2,2,0,0,1,2,0Z" transform="translate(1256.579 403.444)" fill="#f3941f"/>
      <path id="Rectangle_258" data-name="Rectangle 258" d="M2,0H15a2,2,0,0,1,2,2V121.776a0,0,0,0,1,0,0H0a0,0,0,0,1,0,0V2A2,2,0,0,1,2,0Z" transform="translate(1447.354 392.444)" fill="#f3941f"/>
      <path id="Rectangle_263" data-name="Rectangle 263" d="M2,0H15a2,2,0,0,1,2,2V74.776a0,0,0,0,1,0,0H0a0,0,0,0,1,0,0V2A2,2,0,0,1,2,0Z" transform="translate(1639.463 439)" fill="#f3941f"/>
      <path id="Rectangle_9-2" data-name="Rectangle 9" d="M2,0H15a2,2,0,0,1,2,2V132.152a0,0,0,0,1,0,0H0a0,0,0,0,1,0,0V2A2,2,0,0,1,2,0Z" transform="translate(932 382.068)" fill="#5c60ec"/>
      <path id="Rectangle_252" data-name="Rectangle 252" d="M2,0H15a2,2,0,0,1,2,2V69.152a0,0,0,0,1,0,0H0a0,0,0,0,1,0,0V2A2,2,0,0,1,2,0Z" transform="translate(1094.969 445.068)" fill="#5c60ec"/>
      <path id="Rectangle_255" data-name="Rectangle 255" d="M2,0H15a2,2,0,0,1,2,2V69.152a0,0,0,0,1,0,0H0a0,0,0,0,1,0,0V2A2,2,0,0,1,2,0Z" transform="translate(1290.579 444.068)" fill="#5c60ec"/>
      <path id="Rectangle_260" data-name="Rectangle 260" d="M2,0H15a2,2,0,0,1,2,2V142.152a0,0,0,0,1,0,0H0a0,0,0,0,1,0,0V2A2,2,0,0,1,2,0Z" transform="translate(1481.354 372.068)" fill="#5c60ec"/>
      <path id="Rectangle_261" data-name="Rectangle 261" d="M2,0H15a2,2,0,0,1,2,2V66.152a0,0,0,0,1,0,0H0a0,0,0,0,1,0,0V2A2,2,0,0,1,2,0Z" transform="translate(1673.463 448)" fill="#5c60ec"/>
      <path id="Rectangle_9-3" data-name="Rectangle 9" d="M2,0H15a2,2,0,0,1,2,2V93.5a0,0,0,0,1,0,0H0a0,0,0,0,1,0,0V2A2,2,0,0,1,2,0Z" transform="translate(915 420.721)" fill="#d91d5c"/>
      <path id="Rectangle_254" data-name="Rectangle 254" d="M2,0H15a2,2,0,0,1,2,2V93.5a0,0,0,0,1,0,0H0a0,0,0,0,1,0,0V2A2,2,0,0,1,2,0Z" transform="translate(1077.969 420.721)" fill="#d91d5c"/>
      <path id="Rectangle_256" data-name="Rectangle 256" d="M2,0H15a2,2,0,0,1,2,2V146.5a0,0,0,0,1,0,0H0a0,0,0,0,1,0,0V2A2,2,0,0,1,2,0Z" transform="translate(1273.579 366.721)" fill="#d91d5c"/>
      <path id="Rectangle_259" data-name="Rectangle 259" d="M2,0H15a2,2,0,0,1,2,2V113.5a0,0,0,0,1,0,0H0a0,0,0,0,1,0,0V2A2,2,0,0,1,2,0Z" transform="translate(1464.354 400.721)" fill="#d91d5c"/>
      <path id="Rectangle_262" data-name="Rectangle 262" d="M2,0H15a2,2,0,0,1,2,2V113.5a0,0,0,0,1,0,0H0a0,0,0,0,1,0,0V2A2,2,0,0,1,2,0Z" transform="translate(1656.463 401)" fill="#d91d5c"/>
      <rect id="Rectangle_10" data-name="Rectangle 10" width="17" height="37" rx="3" transform="translate(1463.575 260) rotate(90)" fill="#f3941f"/>
      <rect id="Rectangle_248" data-name="Rectangle 248" width="17" height="37" rx="3" transform="translate(1561.694 260) rotate(90)" fill="#d91d5c"/>
      <rect id="Rectangle_249" data-name="Rectangle 249" width="17" height="37" rx="3" transform="translate(1654.694 260) rotate(90)" fill="#5c60ec"/>
    </g>
    <g id="Group_249" data-name="Group 249" transform="translate(682 275.055)">
      <g transform="matrix(1, 0, 0, 1, 220, -121.05)" filter="url(#Rectangle_7)">
        <rect id="Rectangle_7-2" data-name="Rectangle 7" width="453" height="365" rx="7" transform="translate(99 348)" fill="#fff"/>
      </g>
      <text id="Start_Date" data-name="Start Date" transform="translate(378.035 377.578)" fill="#67cb45" font-size="15" font-family="Poppins-Medium, Poppins" font-weight="500"><tspan x="0" y="0">Start Date</tspan></text>
      <text id="End_Date" data-name="End Date" transform="translate(578.905 377.578)" fill="#cb2727" font-size="15" font-family="Poppins-Medium, Poppins" font-weight="500"><tspan x="0" y="0">End Date</tspan></text>
      <text id="Status" transform="translate(378.331 450.461)" fill="#545454" font-size="15" font-family="Poppins-Light, Poppins" font-weight="300"><tspan x="0" y="0">Status</tspan></text>
      <text id="Number_of_Task:" data-name="Number of Task:" transform="translate(373.479 538.674)" fill="#545454" font-size="15" font-family="Poppins-Light, Poppins" font-weight="300"><tspan x="0" y="0">Number of Task:</tspan></text>
      <text id="_25" data-name="25" transform="translate(506.688 538.891)" fill="#545454" font-size="15" font-family="Poppins-Medium, Poppins" font-weight="500"><tspan x="0" y="0">25</tspan></text>
      <text id="_78_" data-name="78%" transform="translate(687.839 499.914)" fill="#545454" font-size="11" font-family="Poppins-Light, Poppins" font-weight="300"><tspan x="0" y="0">78%</tspan></text>
      <text id="Under_Progress" data-name="Under Progress" transform="translate(356.058 499.914)" fill="#545454" font-size="11" font-family="Poppins-Light, Poppins" font-weight="300"><tspan x="0" y="0">Under Progress</tspan></text>
      <text id="_12-04-2021" data-name="12-04-2021" transform="translate(356.058 408.596)" fill="#545454" font-size="19" font-family="Poppins-Regular, Poppins"><tspan x="0" y="0">12-04-2021</tspan></text>
      <text id="_23-09-2021" data-name="23-09-2021" transform="translate(556.928 408.596)" fill="#545454" font-size="19" font-family="Poppins-Regular, Poppins"><tspan x="0" y="0">23-09-2021</tspan></text>
      <g id="filter-2" data-name="filter" transform="translate(710.04 251.316)">
        <path id="Path_4-2" data-name="Path 4" d="M15.1,24.778h5.2v-2.13H15.1ZM6,12v2.13H29.4V12Zm3.9,7.454H25.5v-2.13H9.9Z" transform="translate(-2.805 -5.611)" fill="#545454"/>
        <path id="Path_5-2" data-name="Path 5" d="M0,0H29.785V25.556H0Z" fill="none"/>
      </g>
      <g id="calendar_1_" data-name="calendar (1)" transform="translate(356.058 364.278)">
        <path id="Path_7" data-name="Path 7" d="M14.734,23.824a.3.3,0,0,0,.123.026.3.3,0,0,0,.124-.027,3.109,3.109,0,0,0,.494-.288,1.124,1.124,0,0,0,.566-.868V21.457a.3.3,0,0,0-.321-.3l-.087,0A.943.943,0,0,1,15.058,21a.3.3,0,0,0-.4,0,.942.942,0,0,1-.575.154c-.03,0-.059,0-.087,0a.308.308,0,0,0-.226.082.3.3,0,0,0-.1.22v1.211C13.675,23.319,14.557,23.746,14.734,23.824Zm-.454-2.072a1.616,1.616,0,0,0,.578-.161,1.616,1.616,0,0,0,.577.161v.915c0,.072-.083.209-.315.377a2.547,2.547,0,0,1-.265.165c-.293-.157-.575-.393-.575-.542Zm8.7,6.135c-.03,0-.061,0-.091,0a.938.938,0,0,1-.575-.154.3.3,0,0,0-.4,0,.942.942,0,0,1-.575.154c-.03,0-.061,0-.091,0a.306.306,0,0,0-.224.083.3.3,0,0,0-.094.219V29.4c0,.65.882,1.078,1.059,1.157a.3.3,0,0,0,.248,0,3.114,3.114,0,0,0,.494-.289A1.122,1.122,0,0,0,23.3,29.4V28.19a.3.3,0,0,0-.318-.3ZM22.693,29.4c0,.072-.083.209-.315.377a2.476,2.476,0,0,1-.264.165c-.272-.147-.575-.387-.575-.542v-.916a1.619,1.619,0,0,0,.578-.161,1.614,1.614,0,0,0,.577.161ZM18.9,21.036H17.9a.852.852,0,0,0-.851.851v1.006a.852.852,0,0,0,.851.851H18.9a.852.852,0,0,0,.851-.851V21.887A.852.852,0,0,0,18.9,21.036Zm.246,1.857a.246.246,0,0,1-.246.246H17.9a.246.246,0,0,1-.246-.246V21.887a.246.246,0,0,1,.246-.246H18.9a.246.246,0,0,1,.246.246Zm3.468-1.857H21.612a.852.852,0,0,0-.851.851v1.006a.852.852,0,0,0,.851.851h1.006a.852.852,0,0,0,.851-.851V21.887A.852.852,0,0,0,22.619,21.036Zm.246,1.857a.246.246,0,0,1-.246.246H21.612a.246.246,0,0,1-.246-.246V21.887a.246.246,0,0,1,.246-.246h1.006a.246.246,0,0,1,.246.246Zm-3.96,1.5H17.9a.852.852,0,0,0-.851.851v1.006a.852.852,0,0,0,.851.851H18.9a.852.852,0,0,0,.851-.851V25.242A.852.852,0,0,0,18.9,24.39Zm.246,1.858a.246.246,0,0,1-.246.245H17.9a.246.246,0,0,1-.246-.245V25.242A.246.246,0,0,1,17.9,25H18.9a.246.246,0,0,1,.246.246ZM15.36,24.39H14.355a.852.852,0,0,0-.851.851v1.006a.852.852,0,0,0,.851.851H15.36a.852.852,0,0,0,.851-.851V25.242A.852.852,0,0,0,15.36,24.39Zm.246,1.858a.246.246,0,0,1-.246.245H14.355a.246.246,0,0,1-.246-.245V25.242A.246.246,0,0,1,14.355,25H15.36a.246.246,0,0,1,.246.246ZM11.819,24.39H10.812a.852.852,0,0,0-.851.851v1.006a.852.852,0,0,0,.851.851h1.007a.852.852,0,0,0,.851-.851V25.242A.852.852,0,0,0,11.819,24.39Zm.246,1.858a.246.246,0,0,1-.246.245H10.812a.246.246,0,0,1-.246-.245V25.242A.246.246,0,0,1,10.812,25h1.007a.246.246,0,0,1,.246.246ZM22.619,24.39H21.612a.852.852,0,0,0-.851.851v1.006a.852.852,0,0,0,.851.851h1.006a.852.852,0,0,0,.851-.851V25.242A.852.852,0,0,0,22.619,24.39Zm.246,1.858a.246.246,0,0,1-.246.245H21.612a.246.246,0,0,1-.246-.245V25.242A.246.246,0,0,1,21.612,25h1.006a.246.246,0,0,1,.246.246Zm-3.96,1.52H17.9a.852.852,0,0,0-.851.851v1.006a.852.852,0,0,0,.851.851H18.9a.852.852,0,0,0,.851-.851V28.62A.852.852,0,0,0,18.9,27.768Zm.246,1.858a.246.246,0,0,1-.246.245H17.9a.246.246,0,0,1-.246-.245V28.62a.246.246,0,0,1,.246-.246H18.9a.246.246,0,0,1,.246.246Zm-3.79-1.858H14.355a.852.852,0,0,0-.851.851v1.006a.852.852,0,0,0,.851.851H15.36a.852.852,0,0,0,.851-.851V28.62A.852.852,0,0,0,15.36,27.768Zm.246,1.858a.246.246,0,0,1-.246.245H14.355a.246.246,0,0,1-.246-.245V28.62a.246.246,0,0,1,.246-.246H15.36a.246.246,0,0,1,.246.246Zm-3.787-1.858H10.812a.852.852,0,0,0-.851.851v1.006a.852.852,0,0,0,.851.851h1.007a.852.852,0,0,0,.851-.851V28.62A.852.852,0,0,0,11.819,27.768Zm.246,1.858a.246.246,0,0,1-.246.245H10.812a.246.246,0,0,1-.246-.245V28.62a.246.246,0,0,1,.246-.246h1.007a.246.246,0,0,1,.246.246Z" transform="translate(-8.602 -15.391)" fill="#67cb45"/>
        <path id="Path_8" data-name="Path 8" d="M21.763,7.128V4.876a.61.61,0,0,0-.608-.611H18.234v-.8a.826.826,0,0,0-1.653,0v.8h-5.9v-.8a.828.828,0,0,0-1.656,0v.8H6.081a.612.612,0,0,0-.611.611V18.714a.61.61,0,0,0,.611.608H21.154a.609.609,0,0,0,.608-.608ZM17.186,3.463a.221.221,0,0,1,.442,0V5.469a.221.221,0,1,1-.442,0Zm-7.552,0a.222.222,0,0,1,.445,0V5.469a.222.222,0,0,1-.445,0ZM9.029,4.87v.6a.828.828,0,1,0,1.656,0v-.6h5.9v.6a.826.826,0,0,0,1.653,0v-.6h2.919a.009.009,0,0,1,0,.006V6.826H6.08V4.871ZM6.075,18.714l0-11.283H21.157l0,11.286Z" transform="translate(-5.47 -2.635)" fill="#67cb45"/>
      </g>
      <g id="calendar_1_2" data-name="calendar (1)" transform="translate(556.928 364.278)">
        <path id="Path_7-2" data-name="Path 7" d="M14.734,23.824a.3.3,0,0,0,.123.026.3.3,0,0,0,.124-.027,3.109,3.109,0,0,0,.494-.288,1.124,1.124,0,0,0,.566-.868V21.457a.3.3,0,0,0-.321-.3l-.087,0A.943.943,0,0,1,15.058,21a.3.3,0,0,0-.4,0,.942.942,0,0,1-.575.154c-.03,0-.059,0-.087,0a.308.308,0,0,0-.226.082.3.3,0,0,0-.1.22v1.211C13.675,23.319,14.557,23.746,14.734,23.824Zm-.454-2.072a1.616,1.616,0,0,0,.578-.161,1.616,1.616,0,0,0,.577.161v.915c0,.072-.083.209-.315.377a2.547,2.547,0,0,1-.265.165c-.293-.157-.575-.393-.575-.542Zm8.7,6.135c-.03,0-.061,0-.091,0a.938.938,0,0,1-.575-.154.3.3,0,0,0-.4,0,.942.942,0,0,1-.575.154c-.03,0-.061,0-.091,0a.306.306,0,0,0-.224.083.3.3,0,0,0-.094.219V29.4c0,.65.882,1.078,1.059,1.157a.3.3,0,0,0,.248,0,3.114,3.114,0,0,0,.494-.289A1.122,1.122,0,0,0,23.3,29.4V28.19a.3.3,0,0,0-.318-.3ZM22.693,29.4c0,.072-.083.209-.315.377a2.476,2.476,0,0,1-.264.165c-.272-.147-.575-.387-.575-.542v-.916a1.619,1.619,0,0,0,.578-.161,1.614,1.614,0,0,0,.577.161ZM18.9,21.036H17.9a.852.852,0,0,0-.851.851v1.006a.852.852,0,0,0,.851.851H18.9a.852.852,0,0,0,.851-.851V21.887A.852.852,0,0,0,18.9,21.036Zm.246,1.857a.246.246,0,0,1-.246.246H17.9a.246.246,0,0,1-.246-.246V21.887a.246.246,0,0,1,.246-.246H18.9a.246.246,0,0,1,.246.246Zm3.468-1.857H21.612a.852.852,0,0,0-.851.851v1.006a.852.852,0,0,0,.851.851h1.006a.852.852,0,0,0,.851-.851V21.887A.852.852,0,0,0,22.619,21.036Zm.246,1.857a.246.246,0,0,1-.246.246H21.612a.246.246,0,0,1-.246-.246V21.887a.246.246,0,0,1,.246-.246h1.006a.246.246,0,0,1,.246.246Zm-3.96,1.5H17.9a.852.852,0,0,0-.851.851v1.006a.852.852,0,0,0,.851.851H18.9a.852.852,0,0,0,.851-.851V25.242A.852.852,0,0,0,18.9,24.39Zm.246,1.858a.246.246,0,0,1-.246.245H17.9a.246.246,0,0,1-.246-.245V25.242A.246.246,0,0,1,17.9,25H18.9a.246.246,0,0,1,.246.246ZM15.36,24.39H14.355a.852.852,0,0,0-.851.851v1.006a.852.852,0,0,0,.851.851H15.36a.852.852,0,0,0,.851-.851V25.242A.852.852,0,0,0,15.36,24.39Zm.246,1.858a.246.246,0,0,1-.246.245H14.355a.246.246,0,0,1-.246-.245V25.242A.246.246,0,0,1,14.355,25H15.36a.246.246,0,0,1,.246.246ZM11.819,24.39H10.812a.852.852,0,0,0-.851.851v1.006a.852.852,0,0,0,.851.851h1.007a.852.852,0,0,0,.851-.851V25.242A.852.852,0,0,0,11.819,24.39Zm.246,1.858a.246.246,0,0,1-.246.245H10.812a.246.246,0,0,1-.246-.245V25.242A.246.246,0,0,1,10.812,25h1.007a.246.246,0,0,1,.246.246ZM22.619,24.39H21.612a.852.852,0,0,0-.851.851v1.006a.852.852,0,0,0,.851.851h1.006a.852.852,0,0,0,.851-.851V25.242A.852.852,0,0,0,22.619,24.39Zm.246,1.858a.246.246,0,0,1-.246.245H21.612a.246.246,0,0,1-.246-.245V25.242A.246.246,0,0,1,21.612,25h1.006a.246.246,0,0,1,.246.246Zm-3.96,1.52H17.9a.852.852,0,0,0-.851.851v1.006a.852.852,0,0,0,.851.851H18.9a.852.852,0,0,0,.851-.851V28.62A.852.852,0,0,0,18.9,27.768Zm.246,1.858a.246.246,0,0,1-.246.245H17.9a.246.246,0,0,1-.246-.245V28.62a.246.246,0,0,1,.246-.246H18.9a.246.246,0,0,1,.246.246Zm-3.79-1.858H14.355a.852.852,0,0,0-.851.851v1.006a.852.852,0,0,0,.851.851H15.36a.852.852,0,0,0,.851-.851V28.62A.852.852,0,0,0,15.36,27.768Zm.246,1.858a.246.246,0,0,1-.246.245H14.355a.246.246,0,0,1-.246-.245V28.62a.246.246,0,0,1,.246-.246H15.36a.246.246,0,0,1,.246.246Zm-3.787-1.858H10.812a.852.852,0,0,0-.851.851v1.006a.852.852,0,0,0,.851.851h1.007a.852.852,0,0,0,.851-.851V28.62A.852.852,0,0,0,11.819,27.768Zm.246,1.858a.246.246,0,0,1-.246.245H10.812a.246.246,0,0,1-.246-.245V28.62a.246.246,0,0,1,.246-.246h1.007a.246.246,0,0,1,.246.246Z" transform="translate(-8.602 -15.391)" fill="#cb2727"/>
        <path id="Path_8-2" data-name="Path 8" d="M21.763,7.128V4.876a.61.61,0,0,0-.608-.611H18.234v-.8a.826.826,0,0,0-1.653,0v.8h-5.9v-.8a.828.828,0,0,0-1.656,0v.8H6.081a.612.612,0,0,0-.611.611V18.714a.61.61,0,0,0,.611.608H21.154a.609.609,0,0,0,.608-.608ZM17.186,3.463a.221.221,0,0,1,.442,0V5.469a.221.221,0,1,1-.442,0Zm-7.552,0a.222.222,0,0,1,.445,0V5.469a.222.222,0,0,1-.445,0ZM9.029,4.87v.6a.828.828,0,1,0,1.656,0v-.6h5.9v.6a.826.826,0,0,0,1.653,0v-.6h2.919a.009.009,0,0,1,0,.006V6.826H6.08V4.871ZM6.075,18.714l0-11.283H21.157l0,11.286Z" transform="translate(-5.47 -2.635)" fill="#cb2727"/>
      </g>
      <g id="progress" transform="translate(352.886 435.01)">
        <rect id="Rectangle_13" data-name="Rectangle 13" width="18.841" height="18.841" transform="translate(1.404 1.405)" fill="none"/>
        <path id="Path_9" data-name="Path 9" d="M692.156,49.543v1.631a.589.589,0,0,0,1.178,0V49.543a.589.589,0,0,0-1.178,0Z" transform="translate(-681.92 -43.609)" fill="#545454"/>
        <path id="Path_10" data-name="Path 10" d="M0,.589v1.63a.589.589,0,0,0,1.178,0V.589A.589.589,0,0,0,0,.589Z" transform="translate(14.284 6.535) rotate(45)" fill="#545454"/>
        <path id="Path_11" data-name="Path 11" d="M0,.589V1.947a.589.589,0,0,0,1.178,0V.589A.589.589,0,0,0,0,.589Z" transform="translate(16.033 10.237) rotate(90)" fill="#545454"/>
        <path id="Path_12" data-name="Path 12" d="M0,.589V1.948a.589.589,0,0,0,1.178,0V.589A.589.589,0,0,0,0,.589Z" transform="translate(14.922 14.093) rotate(135)" fill="#545454"/>
        <path id="Path_13" data-name="Path 13" d="M0,.589V1.676a.589.589,0,0,0,1.178,0V.589A.589.589,0,0,0,0,.589Z" transform="translate(11.413 15.762) rotate(180)" fill="#545454"/>
        <path id="Path_14" data-name="Path 14" d="M0,.589V1.676a.589.589,0,0,0,1.178,0V.589A.589.589,0,0,0,0,.589Z" transform="translate(7.748 14.732) rotate(-135)" fill="#545454"/>
        <path id="Path_15" data-name="Path 15" d="M0,.589V1.4a.589.589,0,0,0,1.178,0V.589A.589.589,0,0,0,0,.589Z" transform="translate(6.159 11.413) rotate(-90)" fill="#545454"/>
        <path id="Path_16" data-name="Path 16" d="M0,.589V1.4a.589.589,0,0,0,1.178,0V.589A.589.589,0,0,0,0,.589Z" transform="translate(7.11 7.941) rotate(-45)" fill="#545454"/>
        <path id="Path_17" data-name="Path 17" d="M7.654,14.131a6.471,6.471,0,1,1,2.159-.369.589.589,0,1,0,.393,1.11,7.657,7.657,0,1,0-2.552.437.589.589,0,1,0,0-1.178Z" transform="translate(0 10.825) rotate(-45)" fill="#545454"/>
      </g>
      <rect id="Rectangle_14" data-name="Rectangle 14" width="353.982" height="17.973" rx="4" transform="translate(356.058 464.656)" fill="#545454" opacity="0.12"/>
      <rect id="Rectangle_15" data-name="Rectangle 15" width="223.072" height="17.973" rx="3" transform="translate(356.058 464.656)" fill="#5c60ec"/>
      <g id="task" transform="translate(356.058 526.614)">
        <path id="Path_18" data-name="Path 18" d="M6.707,9.166a.457.457,0,0,1-.323-.134.475.475,0,0,1-.1-.146.445.445,0,0,1,0-.353.457.457,0,0,1,.878.177.439.439,0,0,1-.037.177.475.475,0,0,1-.1.146A.457.457,0,0,1,6.707,9.166Z" transform="translate(-4.422 -3.377)" fill="#545454"/>
        <rect id="Rectangle_16" data-name="Rectangle 16" width="4.875" height="0.914" transform="translate(4.113 4.875)" fill="#545454"/>
        <path id="Path_19" data-name="Path 19" d="M6.707,14.167a.457.457,0,0,1-.323-.134.384.384,0,0,1-.1-.146.439.439,0,0,1-.037-.177.457.457,0,0,1,.134-.323.469.469,0,0,1,.646,0,.457.457,0,0,1,.134.323.439.439,0,0,1-.037.177.451.451,0,0,1-.244.244A.439.439,0,0,1,6.707,14.167Z" transform="translate(-4.422 -5.331)" fill="#545454"/>
        <rect id="Rectangle_17" data-name="Rectangle 17" width="4.875" height="0.914" transform="translate(4.113 7.922)" fill="#545454"/>
        <path id="Path_20" data-name="Path 20" d="M6.707,19.166a.439.439,0,0,1-.177-.037.451.451,0,0,1-.244-.244.445.445,0,0,1,0-.353.457.457,0,0,1,.841,0,.445.445,0,0,1,0,.353.384.384,0,0,1-.1.146.457.457,0,0,1-.323.134Z" transform="translate(-4.422 -7.283)" fill="#545454"/>
        <rect id="Rectangle_18" data-name="Rectangle 18" width="4.875" height="0.914" transform="translate(4.113 10.969)" fill="#545454"/>
        <path id="Path_21" data-name="Path 21" d="M13.457,1.469h-2.59V.707A.463.463,0,0,0,10.41.25H6.754A.463.463,0,0,0,6.3.707v.762H3.707a.463.463,0,0,0-.457.457V14.113a.463.463,0,0,0,.457.457h9.75a.463.463,0,0,0,.457-.457V1.926a.463.463,0,0,0-.457-.457Zm-6.246-.3H9.953V2.688H7.211ZM13,13.656H4.164V2.383H6.3v.762a.463.463,0,0,0,.457.457H10.41a.463.463,0,0,0,.457-.457V2.383H13Z" transform="translate(-3.25 -0.25)" fill="#545454"/>
      </g>
      <text id="Sprint_No." data-name="Sprint No." transform="translate(353 271.945)" fill="#545454" font-size="20" font-family="Poppins-Light, Poppins" font-weight="300"><tspan x="0" y="0">Sprint No.</tspan></text>
      <text id="Team_ID:" data-name="Team ID:" transform="translate(353 309.945)" fill="#545454" font-size="20" font-family="Poppins-Light, Poppins" font-weight="300"><tspan x="0" y="0">Team ID:</tspan></text>
      <text id="S10" transform="translate(454 271.945)" fill="#545454" font-size="20" font-family="Poppins-Medium, Poppins" font-weight="500"><tspan x="0" y="0">S10</tspan></text>
      <text id="Dev" transform="translate(447 309.945)" fill="#545454" font-size="20" font-family="Poppins-Medium, Poppins" font-weight="500"><tspan x="0" y="0">Dev</tspan></text>
    </g>
  </g>
</svg>
