<svg width="120" height="114" viewBox="0 0 120 114" fill="none" xmlns="http://www.w3.org/2000/svg">
<g filter="url(#filter0_d_34_54)">
<rect x="8" width="104" height="98" rx="14" fill="#F05A59"/>
</g>
<rect x="18" y="21" width="16.6676" height="8.61012" rx="1.70497" fill="#FCAD68"/>
<rect x="18" y="36.6094" width="16.6676" height="8.61012" rx="1.70497" fill="#BAB2E5"/>
<rect x="18" y="52.2188" width="16.6676" height="8.61012" rx="1.70497" fill="white"/>
<rect x="18" y="67.8281" width="16.6676" height="8.61012" rx="1.70497" fill="white"/>
<rect x="46.668" y="21" width="22.1" height="8.61012" rx="1.70497" fill="white"/>
<rect x="46.668" y="36.6094" width="22.1" height="8.61012" rx="1.70497" fill="white"/>
<rect x="80.7676" y="36.6094" width="22.1" height="8.61012" rx="1.70497" fill="#FCAD68"/>
<rect x="80.7676" y="52.2188" width="22.1" height="8.61012" rx="1.70497" fill="white"/>
<rect x="80.7676" y="67.8281" width="22.1" height="8.61012" rx="1.70497" fill="white"/>
<rect x="46.668" y="52.2188" width="22.1" height="8.61012" rx="1.70497" fill="#BAB2E5"/>
<rect x="46.668" y="67.8281" width="22.1" height="8.61012" rx="1.70497" fill="#FCAD68"/>
<line y1="109.5" x2="119.004" y2="109.5" stroke="#F05A59" stroke-width="9"/>
<defs>
<filter id="filter0_d_34_54" x="4" y="0" width="112" height="106" filterUnits="userSpaceOnUse" color-interpolation-filters="sRGB">
<feFlood flood-opacity="0" result="BackgroundImageFix"/>
<feColorMatrix in="SourceAlpha" type="matrix" values="0 0 0 0 0 0 0 0 0 0 0 0 0 0 0 0 0 0 127 0" result="hardAlpha"/>
<feOffset dy="4"/>
<feGaussianBlur stdDeviation="2"/>
<feComposite in2="hardAlpha" operator="out"/>
<feColorMatrix type="matrix" values="0 0 0 0 0 0 0 0 0 0 0 0 0 0 0 0 0 0 0.25 0"/>
<feBlend mode="normal" in2="BackgroundImageFix" result="effect1_dropShadow_34_54"/>
<feBlend mode="normal" in="SourceGraphic" in2="effect1_dropShadow_34_54" result="shape"/>
</filter>
</defs>
</svg>
