<svg width="111" height="109" viewBox="0 0 111 109" fill="none" xmlns="http://www.w3.org/2000/svg">
<g filter="url(#filter0_d_33_17)">
<rect x="4" width="102.278" height="101" rx="12.7848" fill="#FF7700"/>
</g>
<g filter="url(#filter1_d_33_17)">
<path d="M67.9818 52.5375C67.4309 52.5423 66.8926 52.3727 66.4439 52.0531L50.2828 40.4592C49.8172 40.0297 49.525 39.4444 49.4616 38.8141C49.3983 38.1838 49.5681 37.552 49.9389 37.0384C50.3098 36.5248 50.856 36.1648 51.4742 36.0266C52.0925 35.8885 52.74 35.9816 53.2942 36.2885L69.4553 47.8824C70.0076 48.2836 70.3809 48.8853 70.4951 49.5584C70.6093 50.2315 70.4553 50.9225 70.0662 51.4835C69.8233 51.8078 69.5088 52.0716 69.1473 52.2544C68.7857 52.4372 68.3869 52.5341 67.9818 52.5375Z" fill="white"/>
<path d="M36.7243 30.1298C36.1734 30.1346 35.6351 29.965 35.1864 29.6454L24.2805 21.8413C24.0034 21.6426 23.7683 21.3911 23.5886 21.1014C23.409 20.8116 23.2882 20.4893 23.2334 20.1528C23.1786 19.8163 23.1907 19.4723 23.2691 19.1405C23.3474 18.8087 23.4905 18.4956 23.6902 18.2192C23.887 17.9429 24.1365 17.7082 24.4245 17.5288C24.7125 17.3494 25.0331 17.2288 25.3679 17.1739C25.7027 17.1191 26.045 17.131 26.3752 17.2091C26.7053 17.2873 27.0168 17.43 27.2915 17.6291L38.1974 25.4332C38.7557 25.8348 39.1329 26.4404 39.2474 27.1185C39.3618 27.7966 39.2041 28.4925 38.8085 29.0551C38.5678 29.3831 38.2543 29.6509 37.8927 29.8373C37.531 30.0238 37.1311 30.1239 36.7243 30.1298Z" fill="white"/>
<path d="M44.3367 69.9193C43.6496 69.9251 42.9884 69.6578 42.4985 69.1761C42.0085 68.6944 41.73 68.0378 41.7241 67.3507L41.5132 42.4812C41.5074 41.7941 41.7747 41.1329 42.2564 40.643C42.7381 40.153 43.3947 39.8745 44.0818 39.8686C44.7688 39.8628 45.4301 40.1302 45.92 40.6119C46.41 41.0936 46.6885 41.7502 46.6943 42.4372L46.9053 67.3068C46.9111 67.9938 46.6438 68.6551 46.1621 69.145C45.6804 69.635 45.0238 69.9135 44.3367 69.9193Z" fill="white"/>
<path d="M44.1048 45.1322C41.7569 45.1481 39.4571 44.4676 37.4959 43.1768C35.5346 41.886 34 40.0428 33.086 37.8801C32.172 35.7174 31.9195 33.3323 32.3605 31.0262C32.8015 28.7201 33.9162 26.5965 35.5638 24.9237C37.2113 23.2509 39.3177 22.104 41.6168 21.6279C43.9159 21.1519 46.3046 21.368 48.4809 22.249C50.6573 23.13 52.5236 24.6364 53.8441 26.5778C55.1646 28.5191 55.88 30.8083 55.9 33.1561C55.9212 36.3076 54.6911 39.3387 52.4796 41.584C50.2682 43.8294 47.2562 45.1055 44.1048 45.1322ZM43.9466 26.4801C42.6271 26.4955 41.3416 26.9005 40.2516 27.6442C39.1615 28.3879 38.3156 29.4372 37.8202 30.6602C37.3247 31.8832 37.2017 33.2254 37.4666 34.5181C37.7316 35.8108 38.3727 36.9964 39.3094 37.9258C40.2461 38.8553 41.4365 39.4872 42.7313 39.7421C44.026 39.997 45.3671 39.8636 46.5863 39.3587C47.8054 38.8537 48.8481 37.9997 49.5834 36.904C50.3186 35.8082 50.7137 34.5196 50.7188 33.2001C50.7113 32.3193 50.5301 31.4486 50.1855 30.6379C49.8409 29.8273 49.3397 29.0926 48.7106 28.476C48.0816 27.8595 47.337 27.3731 46.5196 27.0448C45.7022 26.7165 44.828 26.5528 43.9473 26.563L43.9466 26.4801Z" fill="white"/>
<path d="M44.4729 88.4897C42.1268 88.5055 39.8286 87.826 37.8683 86.537C35.908 85.248 34.3734 83.4072 33.4582 81.247C32.543 79.0868 32.2881 76.7038 32.7258 74.3989C33.1635 72.0939 34.2741 69.9703 35.9174 68.2959C37.5608 66.6215 39.6633 65.4714 41.9597 64.9906C44.256 64.5099 46.6433 64.7202 48.8203 65.5948C50.9973 66.4695 52.8664 67.9694 54.1918 69.9052C55.5173 71.8411 56.2396 74.1262 56.2677 76.4721C56.2837 78.036 55.9911 79.5877 55.4068 81.0385C54.8225 82.4892 53.9578 83.8105 52.8623 84.9267C51.7667 86.0429 50.4619 86.9321 49.0223 87.5435C47.5828 88.1549 46.0368 88.4764 44.4729 88.4897ZM44.3146 69.8375C42.9934 69.8528 41.7062 70.2588 40.6153 71.0044C39.5243 71.7499 38.6784 72.8016 38.1841 74.027C37.6898 75.2524 37.5691 76.5967 37.8374 77.8905C38.1057 79.1844 38.7509 80.3699 39.6917 81.2977C40.6325 82.2255 41.8268 82.8542 43.1242 83.1045C44.4217 83.3547 45.7642 83.2155 46.9826 82.7042C48.201 82.1929 49.2409 81.3325 49.9712 80.2313C50.7015 79.1301 51.0896 77.8374 51.0866 76.5161C51.0606 74.7444 50.3332 73.0553 49.064 71.8189C47.7947 70.5826 46.0871 69.8999 44.3153 69.9204L44.3146 69.8375Z" fill="white"/>
<path d="M75.6109 67.2297C73.2622 67.2497 70.9603 66.5727 68.9964 65.2844C67.0324 63.9961 65.4946 62.1543 64.5774 59.9921C63.6602 57.8298 63.4048 55.4441 63.8434 53.1366C64.2821 50.8292 65.3952 48.7036 67.0419 47.0287C68.6885 45.3539 70.7949 44.2049 73.0946 43.7272C75.3943 43.2494 77.784 43.4643 79.9615 44.3447C82.139 45.2251 84.0066 46.7315 85.328 48.6733C86.6494 50.6151 87.3654 52.9051 87.3853 55.2538C87.4065 58.4017 86.1792 61.4296 83.9723 63.6743C81.7653 65.9191 78.7586 67.1976 75.6109 67.2297ZM75.4526 48.5776C74.1287 48.5888 72.8378 48.9924 71.7432 49.7373C70.6486 50.4822 69.7995 51.5349 69.3032 52.7624C68.8069 53.9899 68.6858 55.337 68.9551 56.6333C69.2244 57.9296 69.872 59.117 70.8162 60.0452C71.7603 60.9734 72.9585 61.6009 74.2592 61.8481C75.5599 62.0954 76.9047 61.9514 78.1236 61.4344C79.3425 60.9174 80.3806 60.0505 81.1069 58.9434C81.8331 57.8364 82.2147 56.5388 82.2035 55.2149C82.1667 53.4541 81.4376 51.7787 80.1741 50.5518C78.9105 49.325 77.2144 48.6454 75.4533 48.6605L75.4526 48.5776Z" fill="white"/>
<circle cx="44.0438" cy="33.5652" r="8.29014" transform="rotate(-0.486017 44.0438 33.5652)" fill="white"/>
<circle cx="75.3231" cy="56.0984" r="8.29014" transform="rotate(-0.486017 75.3231 56.0984)" fill="white"/>
<circle cx="44.3943" cy="75.0164" r="8.29014" transform="rotate(-0.486017 44.3943 75.0164)" fill="white"/>
</g>
<defs>
<filter id="filter0_d_33_17" x="0" y="0" width="110.278" height="109" filterUnits="userSpaceOnUse" color-interpolation-filters="sRGB">
<feFlood flood-opacity="0" result="BackgroundImageFix"/>
<feColorMatrix in="SourceAlpha" type="matrix" values="0 0 0 0 0 0 0 0 0 0 0 0 0 0 0 0 0 0 127 0" result="hardAlpha"/>
<feOffset dy="4"/>
<feGaussianBlur stdDeviation="2"/>
<feComposite in2="hardAlpha" operator="out"/>
<feColorMatrix type="matrix" values="0 0 0 0 0 0 0 0 0 0 0 0 0 0 0 0 0 0 0.25 0"/>
<feBlend mode="normal" in2="BackgroundImageFix" result="effect1_dropShadow_33_17"/>
<feBlend mode="normal" in="SourceGraphic" in2="effect1_dropShadow_33_17" result="shape"/>
</filter>
<filter id="filter1_d_33_17" x="20.9964" y="17.1406" width="68.5922" height="75.7553" filterUnits="userSpaceOnUse" color-interpolation-filters="sRGB">
<feFlood flood-opacity="0" result="BackgroundImageFix"/>
<feColorMatrix in="SourceAlpha" type="matrix" values="0 0 0 0 0 0 0 0 0 0 0 0 0 0 0 0 0 0 127 0" result="hardAlpha"/>
<feOffset dy="2.20284"/>
<feGaussianBlur stdDeviation="1.10142"/>
<feComposite in2="hardAlpha" operator="out"/>
<feColorMatrix type="matrix" values="0 0 0 0 0 0 0 0 0 0 0 0 0 0 0 0 0 0 0.25 0"/>
<feBlend mode="normal" in2="BackgroundImageFix" result="effect1_dropShadow_33_17"/>
<feBlend mode="normal" in="SourceGraphic" in2="effect1_dropShadow_33_17" result="shape"/>
</filter>
</defs>
</svg>
