<svg width="124" height="100" viewBox="0 0 124 100" fill="none" xmlns="http://www.w3.org/2000/svg">
<path d="M114.026 0H9.43569C4.2245 0 0 4.2245 0 9.43569V90.203C0 95.4142 4.2245 99.6387 9.43569 99.6387H114.026C119.237 99.6387 123.461 95.4142 123.461 90.203V9.43569C123.461 4.2245 119.237 0 114.026 0Z" fill="#00867D"/>
<path d="M40.3097 20.6179H12.8597C11.9912 20.6179 11.2871 21.322 11.2871 22.1905V39.2164C11.2871 40.085 11.9912 40.7891 12.8597 40.7891H40.3097C41.1783 40.7891 41.8823 40.085 41.8823 39.2164V22.1905C41.8823 21.322 41.1783 20.6179 40.3097 20.6179Z" fill="#4DB6AC"/>
<path d="M40.3097 45.8794H12.8597C11.9912 45.8794 11.2871 46.5835 11.2871 47.452V64.4779C11.2871 65.3465 11.9912 66.0505 12.8597 66.0505H40.3097C41.1783 66.0505 41.8823 65.3465 41.8823 64.4779V47.452C41.8823 46.5835 41.1783 45.8794 40.3097 45.8794Z" fill="#82E9DE"/>
<path d="M40.3097 71.1409H12.8597C11.9912 71.1409 11.2871 71.845 11.2871 72.7135V89.7394C11.2871 90.6079 11.9912 91.312 12.8597 91.312H40.3097C41.1783 91.312 41.8823 90.6079 41.8823 89.7394V72.7135C41.8823 71.845 41.1783 71.1409 40.3097 71.1409Z" fill="#4DB6AC"/>
<path d="M75.466 20.6179H48.016C47.1474 20.6179 46.4434 21.322 46.4434 22.1905V39.2164C46.4434 40.085 47.1474 40.7891 48.016 40.7891H75.466C76.3345 40.7891 77.0386 40.085 77.0386 39.2164V22.1905C77.0386 21.322 76.3345 20.6179 75.466 20.6179Z" fill="#82E9DE"/>
<path d="M75.466 45.3605H48.016C47.1474 45.3605 46.4434 46.0646 46.4434 46.9331V63.959C46.4434 64.8275 47.1474 65.5316 48.016 65.5316H75.466C76.3345 65.5316 77.0386 64.8275 77.0386 63.959V46.9331C77.0386 46.0646 76.3345 45.3605 75.466 45.3605Z" fill="#4DB6AC"/>
<path d="M110.601 20.4951H83.1507C82.2822 20.4951 81.5781 21.1992 81.5781 22.0677V39.0937C81.5781 39.9622 82.2822 40.6663 83.1507 40.6663H110.601C111.469 40.6663 112.173 39.9622 112.173 39.0937V22.0677C112.173 21.1992 111.469 20.4951 110.601 20.4951Z" fill="#82E9DE"/>
<path d="M112.172 7.3844H11.2871V17.2885H112.172V7.3844Z" fill="#4DB6AC"/>
</svg>
