<svg xmlns="http://www.w3.org/2000/svg" xmlns:xlink="http://www.w3.org/1999/xlink" width="2001.799" height="689.443" viewBox="0 0 2001.799 689.443">
  <defs>
    <clipPath id="clip-path">
      <path id="Path_120" data-name="Path 120" d="M0,314H2001.8v689.443H0Zm0,0" transform="translate(0 -314)"/>
    </clipPath>
    <clipPath id="clip-path-2">
      <path id="Path_119" data-name="Path 119" d="M1521.244,751.034c-109.452,0-326.525-121.882-446.6-189.591-25.99-14.64-48.318-27.085-64.789-35.872-95.908-50.506-157.411-28.909-235.748-1.829-71.017,24.523-151.547,52.341-279.3,33.673-94.079-13.544-126.66-68.806-157.775-122.246-22.693-37.7-43.561-73.563-85.656-94.427-111.282-54.535-169.852-1.465-226.593,49.774-28.188,25.62-54.911,49.779-87.856,61.491l-1.1-2.562c32.212-11.713,58.934-35.867,86.759-61.123,57.468-51.609,117.135-105.411,229.883-50.142,42.829,20.862,64.06,57.463,86.759,95.528,31.115,52.7,63.328,107.237,155.94,120.779,127.024,18.67,207.2-9.15,277.843-33.672,75.774-26.353,140.936-48.677,237.942,2.2,16.47,8.416,38.8,21.226,64.793,35.866,128.485,72.1,367.163,206.062,466,187.392,21.228-4.023,43.192-7.683,66.254-11.708,104.691-17.936,223.659-38.066,305.288-94.795,8.424-5.859,16.473-11.713,24.9-17.573,71.008-49.772,143.865-101.381,228.427-101.381h3.656v2.926h-3.295c-83.825,0-156.307,51.245-226.593,101.019-8.424,5.859-16.473,11.713-24.9,17.567-82.366,57.1-201.334,77.228-306.386,95.528-23.062,4.03-45.027,7.69-66.268,11.713A199.558,199.558,0,0,1,1521.244,751.034Zm-41.37-4.393q18.12-.555,37.339-1.1c129.964-3.66,277.11-8.053,392.8-81.254,18.67-11.712,37.7-25.255,55.995-38.065,63.335-44.29,128.866-90.4,203.169-90.4h1.1V532.89h-1.1c-75.415,0-140.932,46.119-204.628,90.772-18.308,12.81-37.339,25.983-56.009,38.066-114.937,72.835-262.1,77.224-391.324,80.882q-19.205.555-37.339,1.1h-6.228c-127.745,0-394.239-128.1-496.007-176.781l-1.1-.733c-94.079-45.385-161.8-30.377-239.771-12.81-69.914,15.736-148.62,33.3-265.391,13.543C386.451,552.657,354.6,501.048,323.487,450.9c-22.693-36.962-44.294-71.733-85.656-91.5C130.209,308.53,72.736,363.8,17.092,417.6c-26.353,25.62-51.614,49.779-81.263,61.487l1.1,2.563c30.382-12.077,55.274-36.237,82-61.856,54.91-53.07,111.651-107.606,217.812-57.094,41,19.034,62.23,53.8,84.922,90.4,31.115,50.507,63.328,102.848,149.723,117.119,117.134,19.765,196.574,1.829,266.494-13.539,77.6-17.571,144.59-32.575,237.936,12.44l1.1.734C1078.674,618.535,1345.532,747,1474.021,747A31.644,31.644,0,0,0,1479.874,746.641Zm425.368-60.026c25.62-15,50.518-33.309,75.04-50.507,59.679-42.823,121.164-87.112,190.727-87.476V545.7c-70.646.37-132.522,44.653-192.548,87.844-24.175,17.567-49.419,35.5-74.678,50.507-152.651,89.675-327.266,72.836-481.377,57.833l-4.754-.37c-133.247-12.44-374.485-87.476-475.883-131.759-91.153-39.9-160.7-32.576-240.869-24.159-68.823,7.32-146.79,15.373-253.315-5.49-77.239-15.374-108.724-64.049-139.47-111.265-23.062-35.5-44.658-69.176-84.559-87.476-103.6-47.58-161.435,12.077-212.686,65.152-24.523,25.984-47.954,50.144-75.04,61.856l1.1,2.558c27.455-11.713,51.25-36.23,76.143-62.22,53.081-54.9,107.986-111.628,209.754-64.782,38.8,17.936,60.4,51.239,83.462,86.379,30.746,47.579,62.964,96.989,141.3,112.362,106.889,20.862,185.226,12.809,254.048,5.49,79.8-8.417,148.984-15.736,239.4,23.789,101.4,44.29,343,119.318,476.617,131.764l4.754.364c60.04,5.854,123.361,12.078,187.057,12.078C1709.761,756.523,1811.533,741.514,1905.242,686.615Zm-4.754,22.324c30.375-16.835,60.026-39.157,88.58-60.39,59.679-44.653,116.049-86.742,182.664-87.839v-2.928c-30.374.364-61.5,9.514-95.53,28.184-30.389,16.469-60.04,38.793-88.594,60.389-28.554,21.227-57.844,43.187-88.218,60.026-176.089,97.353-357.279,71.005-543.241,32.939-49.052-10.247-106.156-18.67-166.192-27.819-105.792-16.1-215.243-32.57-281.867-58.56-87.123-34.036-158.139-35.133-240.5-36.235-68.083-.727-145.688-1.829-242.7-24.154C355.335,576.446,324.22,530.7,293.838,486.408c-23.795-33.673-45.761-65.88-83.827-83.083-99.2-43.92-155.212,18.3-204.633,73.2-23.062,25.62-45.022,49.774-69.186,61.487l1.1,2.562c24.892-11.712,46.852-36.235,70.283-61.856,49.051-54.167,104.326-115.658,201.7-72.466,37.338,16.835,59.3,48.677,82.36,82.713,30.387,44.653,62.23,91.136,132.514,107.242,97.375,22.323,174.978,23.425,243.431,24.154,82,1.1,152.65,1.829,239.408,35.872,66.624,25.983,176.439,42.453,282.6,58.56,60.032,9.15,117.141,17.566,166.193,27.813,90.781,18.67,180.473,34.776,269.053,34.776C1717.823,776.654,1809.7,759.081,1900.488,708.939Zm-5.13,22.328c34.781-18.3,67.728-43.92,99.576-68.806,57.83-45.022,112.379-87.844,176.8-88.941v-2.928c-65.517,1.461-120.427,44.284-178.633,89.669-31.848,24.886-64.419,50.507-99.2,68.442-211.593,111.265-420.975,62.59-600.345,8.417-75.045-22.687-155.946-22.687-234.281-23.057-69.914,0-135.81-.364-186.322-17.567C791.682,668.315,717,658.8,637.935,648.548c-72.478-9.15-147.523-18.664-237.572-43.186-61.5-16.47-91.885-59.292-121.534-100.286-23.795-33.309-46.489-64.419-83.1-80.52C100.924,383.929,46.746,449.075-1.208,506.173c-21.232,25.62-41.367,49.41-62.963,60.759l1.466,2.563C-40.745,558.146-20.61,533.623.986,508c47.221-56.366,101.035-120.415,193.647-80.52,36.242,15.372,58.571,46.482,82,79.423,30.019,41.725,60.77,84.548,123,101.381,90.419,24.523,165.46,34.038,237.942,43.188,78.7,9.882,153.377,19.4,234.646,47.584,50.882,17.567,117.136,17.567,187.056,17.931,77.973,0,158.872.368,233.184,22.693,100.3,30.381,210.118,58.928,324.332,58.928C1707.564,798.612,1801.273,780.677,1895.358,731.267Zm-5.13,22.324c38.813-19.4,74.317-48.313,108.723-76.491,56.37-46.118,109.821-89.305,172.78-91.5V582.67c-64.057,2.194-117.494,45.749-174.6,91.869-34.42,27.813-69.924,56.729-108.361,76.125-109.084,54.9-221.1,76.5-342.627,66.25-115.312-9.884-224.036-47.216-314.818-82.35-84.2-32.575-165.1-16.469-236.476-2.562-56.007,10.979-109.087,21.59-156.308,7.319-65.163-19.4-129.223-34.77-196.944-50.876-83.462-19.765-169.488-40.258-265.028-70.636-53.444-16.839-83.463-56.366-112.015-94.432-24.528-32.207-47.59-62.588-83.1-77.228C91.041,409.185,36.13,479.82-7.8,536.551c-19.4,24.892-37.7,48.681-56.371,59.662l1.466,2.194c19.033-11.343,37.338-35.133,57.1-60.389,45.755-58.559,97.369-125.542,186.328-88.942,34.774,14.277,57.837,44.653,82,76.5,29.285,38.436,59.3,78.326,113.481,95.529,95.539,30.377,181.564,50.876,265.027,70.643,67.721,16.1,131.781,31.109,196.938,50.869,47.591,14.277,101.035,3.66,157.775-7.319,71.017-13.907,151.547-30.013,235.01,2.562,91.151,35.14,199.875,72.836,315.549,82.719,19.768,1.831,39.174,2.563,58.205,2.563C1704.27,822.4,1798.354,799.711,1890.228,753.591Zm-4.754,22.328c42.093-20.129,80.169-52.706,116.772-83.816,55.647-47.216,107.986-91.5,170.222-94.062v-2.563c-62.959,2.563-116.049,47.216-171.682,94.8-36.616,31.11-74.678,63.317-116.41,83.451-269.423,129.929-502.6,57.093-714.55-40.992-90.055-41.726-162.532-8.786-226.228,20.129-47.59,21.592-92.248,42.091-138.737,30.377-138-34.77-298.706-94.432-450.991-152.258-45.391-17.2-74.307-53.07-102.131-87.84-25.256-31.842-49.415-61.491-83.827-75.035-86.754-33.672-139.47,40.265-181.935,99.922-17.936,25.256-33.673,47.216-49.415,57.827l1.461,2.2c16.111-10.979,31.848-32.939,50.154-58.56,42.1-58.565,94.079-131.764,179-98.825,34.049,13.18,57.474,42.823,82.73,74.3,28.189,35.134,57.11,71.37,103.234,88.937C505.786,691.741,666.123,751.4,804.492,786.167c47.226,12.078,92.618-8.78,140.572-30.376,63.326-28.916,135.077-61.493,224.029-20.131,130.684,60.39,269.062,111.265,419.5,111.265C1681.944,846.193,1781.144,826.426,1885.474,775.92Zm-5.491,22.324c45.388-20.858,85.3-56.36,124.459-90.766,54.91-48.313,106.888-94.062,168.026-96.99v-2.562c-62.236,2.926-114.575,49.04-169.847,97.721-38.813,34.038-78.71,69.54-123.736,90.4-303.467,140.914-550.556,51.972-772.023-65.516-94.812-50.506-157.041-.734-211.951,43.192-40.265,32.207-78.337,62.584-125.194,53.07-101.03-20.5-232.082-83.451-347.757-139.085-32.582-15.736-63.328-30.376-92.25-43.556-36.968-16.833-64.06-49.04-90.419-80.15-26.721-32.212-52.341-61.856-86.02-74.3-83.1-30.013-136.179,51.239-174.978,110.531-15.742,24.159-29.285,45.022-42.1,54.9l1.83,2.2c13.179-10.248,27.091-31.11,42.834-55.633,40.629-61.856,90.783-138.715,171.682-109.436,33.309,12.078,58.2,41.726,84.923,73.2,26.358,31.11,53.814,63.685,91.516,80.888,28.922,13.174,59.673,28.184,92.248,43.556C537.27,745.544,668.686,808.5,769.716,828.99c47.954,9.883,86.758-21.226,127.394-53.8,56.74-45.387,115.675-92.233,209.02-42.823,140.931,74.666,292.482,137.988,461.976,137.988C1665.471,870.716,1768.7,849.853,1879.983,798.244Zm-4.754,22.328c48.321-21.6,90.415-60.025,131.048-97.358,54.535-49.772,105.79-96.626,166.552-99.916v-2.563c-61.861,3.292-113.477,50.876-168.387,100.65-40.634,36.969-82.366,75.4-130.312,96.994-151.191,67.709-295.78,88.937-442.94,64.783-118.968-19.766-238.3-67.347-385.826-154.821-99.2-58.56-148.625,4.393-196.211,65.146-33.677,43.192-65.526,83.816-113.48,76.5-95.91-14.64-237.942-99.552-351.787-167.631-28.188-16.833-54.541-32.57-77.6-45.75-28.552-16.106-53.081-43.92-76.876-70.636C200.124,553.389,173.037,522.644,139,511.3,59.193,484.578,7.942,570.957-29.76,633.909c-13.179,22.33-24.528,41.362-34.411,50.512l1.83,1.829c10.252-9.518,21.6-28.915,35.144-51.245,36.969-62.22,87.85-147.132,165.459-121.512,32.945,10.979,60.4,41.726,88.953,73.933,23.795,26.721,48.687,54.535,77.6,71.005,23.062,13.178,49.421,28.915,77.609,45.75,114.21,68.442,256.241,153.354,352.884,168,49.051,7.321,81.628-34.042,116.039-77.6,46.857-60.021,95.544-121.876,192.549-64.413,148.257,87.476,267.592,135.419,386.931,155.185a707.344,707.344,0,0,0,117.508,9.882C1656.324,895.238,1764.31,870.352,1875.229,820.572Zm-4.768,22.324c51.254-22.324,95.183-63.681,137.651-103.945,53.8-51.24,105.053-99.553,165.454-103.214v-2.562c-61.5,4.029-112.754,52.706-167.289,103.945-42.107,39.9-86.022,81.622-136.9,103.582-165.107,71.738-321.414,92.965-476.987,64.049-126.66-23.421-256.611-80.155-409.261-178.61-34.406-22.324-63.326-29.645-88.952-22.694-42.095,11.351-66.987,60.759-90.782,108.709-27.455,54.535-53.081,106.138-102.132,101.381C601.33,904.02,422.692,772.624,315.8,693.935c-12.083-8.787-23.432-17.2-33.315-24.154-19.766-14.277-39.169-35.14-59.667-57.463-31.115-33.673-63.328-68.449-98.1-79.059-77.609-23.427-128.854,73.2-162.9,136.884-10.247,19.034-19.033,35.5-25.989,43.92l2.194,1.831c7.325-8.417,16.111-25.256,26.358-44.284C-1.941,608.653,48.94,513.494,124.35,535.822c34.042,10.248,66.26,45.017,97.006,78.326,20.5,22.324,39.9,43.187,60.037,57.463,9.883,7.321,21.232,15.368,33.309,24.154,106.893,78.69,286.259,210.454,386.561,219.967a39.429,39.429,0,0,0,6.592.37c46.488,0,71.744-50.142,98.1-103.212,23.795-47.216,48.324-96.261,89.322-107.242,24.523-6.586,53.076.734,86.753,22.324,153.014,98.825,283.334,155.555,410.358,178.98a734.41,734.41,0,0,0,135.444,12.44C1639.114,919.762,1752.591,894.141,1870.461,842.9ZM759.834,829.722c17.571-56.365,35.877-114.924,74.675-128.1,22.7-7.683,50.153,0,84.559,23.795,159.97,111.265,297.979,175.679,433.788,203.128,164.731,32.941,332.382,12.446,512.488-63.679,54.174-22.693,99.562-67.347,143.49-110.538,53.812-52.706,104.33-102.48,164.731-106.872l-.361-2.563c-61.138,4.394-112.393,54.536-166.191,107.606-43.928,43.192-89.33,87.474-142.767,110.168-179.37,75.763-346.659,96.626-511.026,63.321-135.441-27.085-273.08-91.5-432.686-202.77-35.144-24.522-63.328-32.207-86.758-24.154C793.881,712.6,775.211,771.9,757.27,828.99c-20.5,65.516-39.9,127.371-88.584,127.371h-2.2c-43.926-1.467-117.868-39.9-213.777-110.9-73.58-54.536-150.456-121.149-194.017-163.6-9.513-9.15-20.129-20.863-31.478-33.309-34.411-37.332-77.6-84.178-116.777-94.427C34.3,534.72-18.78,648.548-47.7,710.041c-6.956,15-12.446,26.716-16.839,33.3l2.194,1.465c4.393-6.956,9.883-18.668,16.839-33.672,28.188-60.39,80.9-173.121,155.212-153.724,38.435,9.883,81.264,56.366,115.306,93.7,11.349,12.446,21.966,24.159,31.848,33.309,72.483,70.273,303.468,271.208,409.259,275.231h2.2C719.2,959.289,740.067,893.409,759.834,829.722ZM632.445,1002.475c53.808-1.461,68.083-80.884,81.633-157.379,11.712-65.516,23.795-133.225,60.763-147.865,20.869-8.053,47.591.364,82.366,25.983,166.926,123.711,312.25,195.815,456.845,226.923,173.509,37.334,352.155,16.835,546.524-62.952,56.745-23.425,103.968-71.005,149.356-117.119C2063.384,715.9,2113.9,664.655,2173.928,659.9v-2.2c-61.125,4.763-112.017,56.366-165.816,110.9-45.4,45.749-92.25,93.328-148.62,116.391-193.66,79.423-371.932,99.916-545.076,62.952C1170.19,916.83,1025.23,844.726,858.668,721.385c-35.5-26.353-63.326-34.77-84.923-26.353-38.435,15.372-50.153,80.525-62.23,149.694-13.543,75.4-27.455,153.361-79.07,155.191-55.275,1.829-157.042-75.763-212.68-121.882-85.293-70.641-158.509-147.132-184.133-183-24.523-34.406-90.783-108.339-139.1-118.95C18.194,559.243-37.813,704.182-58.681,758.354c-2.194,5.852-4.024,10.979-5.49,14.27l2.563,1.1q2.2-5.49,5.49-14.275C-35.25,705.647,20.024,562.539,95.8,579.01c43.561,9.15,106.525,74.3,137.271,117.852,54.178,75.763,298.711,305.983,397.178,305.983A4.613,4.613,0,0,1,632.445,1002.475Zm0,0" transform="translate(64.535 -314.882)"/>
    </clipPath>
    <linearGradient id="linear-gradient" x1="0.017" y1="-0.337" x2="0.397" y2="-0.337" gradientUnits="objectBoundingBox">
      <stop offset="0" stop-color="#3a5dca"/>
      <stop offset="0.016" stop-color="#3b5dca"/>
      <stop offset="0.031" stop-color="#3b5dcb"/>
      <stop offset="0.047" stop-color="#3c5ccb"/>
      <stop offset="0.063" stop-color="#3d5ccc"/>
      <stop offset="0.078" stop-color="#3e5ccc"/>
      <stop offset="0.094" stop-color="#3e5ccc"/>
      <stop offset="0.109" stop-color="#3f5ccd"/>
      <stop offset="0.125" stop-color="#405ccd"/>
      <stop offset="0.141" stop-color="#415cce"/>
      <stop offset="0.156" stop-color="#415cce"/>
      <stop offset="0.172" stop-color="#425ccf"/>
      <stop offset="0.188" stop-color="#435ccf"/>
      <stop offset="0.203" stop-color="#445bcf"/>
      <stop offset="0.219" stop-color="#445bd0"/>
      <stop offset="0.234" stop-color="#455bd0"/>
      <stop offset="0.25" stop-color="#465bd1"/>
      <stop offset="0.266" stop-color="#475bd1"/>
      <stop offset="0.281" stop-color="#475bd1"/>
      <stop offset="0.297" stop-color="#485bd2"/>
      <stop offset="0.313" stop-color="#495bd2"/>
      <stop offset="0.328" stop-color="#4a5bd3"/>
      <stop offset="0.344" stop-color="#4a5ad3"/>
      <stop offset="0.359" stop-color="#4b5ad4"/>
      <stop offset="0.375" stop-color="#4c5ad4"/>
      <stop offset="0.391" stop-color="#4d5ad4"/>
      <stop offset="0.406" stop-color="#4d5ad5"/>
      <stop offset="0.422" stop-color="#4e5ad5"/>
      <stop offset="0.438" stop-color="#4f5ad6"/>
      <stop offset="0.453" stop-color="#505ad6"/>
      <stop offset="0.469" stop-color="#505ad6"/>
      <stop offset="0.484" stop-color="#515ad7"/>
      <stop offset="0.5" stop-color="#5259d7"/>
      <stop offset="0.516" stop-color="#5359d8"/>
      <stop offset="0.531" stop-color="#5359d8"/>
      <stop offset="0.563" stop-color="#5459d9"/>
      <stop offset="0.578" stop-color="#5459d9"/>
      <stop offset="0.594" stop-color="#5359d8"/>
      <stop offset="0.609" stop-color="#5259d8"/>
      <stop offset="0.625" stop-color="#5159d7"/>
      <stop offset="0.641" stop-color="#515ad7"/>
      <stop offset="0.656" stop-color="#505ad6"/>
      <stop offset="0.672" stop-color="#4f5ad6"/>
      <stop offset="0.688" stop-color="#4e5ad5"/>
      <stop offset="0.703" stop-color="#4d5ad5"/>
      <stop offset="0.719" stop-color="#4c5ad4"/>
      <stop offset="0.734" stop-color="#4b5ad4"/>
      <stop offset="0.75" stop-color="#4a5ad3"/>
      <stop offset="0.766" stop-color="#4a5bd3"/>
      <stop offset="0.781" stop-color="#495bd2"/>
      <stop offset="0.797" stop-color="#485bd2"/>
      <stop offset="0.813" stop-color="#475bd1"/>
      <stop offset="0.828" stop-color="#465bd1"/>
      <stop offset="0.844" stop-color="#455bd0"/>
      <stop offset="0.859" stop-color="#445bd0"/>
      <stop offset="0.875" stop-color="#435bcf"/>
      <stop offset="0.891" stop-color="#435ccf"/>
      <stop offset="0.906" stop-color="#425cce"/>
      <stop offset="0.922" stop-color="#415cce"/>
      <stop offset="0.938" stop-color="#405ccd"/>
      <stop offset="0.953" stop-color="#3f5ccd"/>
      <stop offset="0.969" stop-color="#3e5ccc"/>
      <stop offset="0.984" stop-color="#3d5ccc"/>
      <stop offset="1" stop-color="#3c5ccb"/>
    </linearGradient>
  </defs>
  <g id="surface1" transform="translate(0 -314)" opacity="0.03">
    <g id="Group_135" data-name="Group 135" transform="translate(0 314)" clip-path="url(#clip-path)">
      <g id="Group_134" data-name="Group 134" transform="translate(-89.713 1.226)" clip-path="url(#clip-path-2)">
        <path id="Path_118" data-name="Path 118" d="M0,291.883v719.934H2001.8V291.883Zm0,0" transform="translate(89.713 -323.855)" fill="url(#linear-gradient)"/>
      </g>
    </g>
  </g>
</svg>
