<svg xmlns="http://www.w3.org/2000/svg" viewBox="0 0 196.36 117.42"><defs><style>.cls-1{fill:#5559d9;}</style></defs><g id="Layer_2" data-name="Layer 2"><g id="Layer_1-2" data-name="Layer 1"><path class="cls-1" d="M168.09,0a7.2,7.2,0,0,0,.8.07h14.65a7.13,7.13,0,0,1,.81,0,3.22,3.22,0,0,1,.44,6.35,5.45,5.45,0,0,1-1.21.11H146.69A3.59,3.59,0,0,0,145,6.9a3.19,3.19,0,0,0-1.83,2.88,3.09,3.09,0,0,0,1.75,2.91,3.49,3.49,0,0,0,1.67.4H155a3.45,3.45,0,0,1,2.38.73,3.14,3.14,0,0,1,1.12,3.32,3.05,3.05,0,0,1-2.53,2.4,5.15,5.15,0,0,1-1,.08H139.07a4.82,4.82,0,0,0-1.26.13,3.25,3.25,0,0,0,.87,6.39h14.54a3.18,3.18,0,0,1,2.52,1.08,3.28,3.28,0,0,1,.57,3.57,3.14,3.14,0,0,1-3.06,2H142.7c-.67,0-.64-.1-.93.6Q133.9,52.7,126,72q-8.61,21.11-17.23,42.2l-1.31,3.23h-1a22.37,22.37,0,0,1-14.78-6.48A22,22,0,0,1,85.3,98.53q-1.15-7-2.28-14-1-6.23-2-12.44L79.32,61.81q-.85-5.13-1.68-10.33c-.56-3.42-1.13-6.85-1.67-10.27s-1.1-7.05-1.64-10.57c-.07-.44-.09-.88-.15-1.45a1.44,1.44,0,0,0-.19.31c-1.35,4.08-3.1,8-4.72,12q-8.79,21.55-17.6,43.12-6.53,16-13.06,32c-.34.84-.35.87-1.25.8A22.44,22.44,0,0,1,16.11,98.18c-.49-3.17-1-6.32-1.54-9.48q-.86-5.16-1.69-10.33L11.19,68,9.27,56.28q-.87-5.45-1.78-10.9Q6.43,38.82,5.35,32.26q-1-5.88-1.93-11.75T1.52,8.78L.21.91A1.72,1.72,0,0,0,0,.48V0H17.14c.49.08,1,.14,1.47.24A5.5,5.5,0,0,1,23.08,4.9c.2,1.52.44,3.06.66,4.58L25,18l1.31,9.22,1.32,9.27q.64,4.64,1.31,9.28.72,5,1.44,10.08.78,5.52,1.58,11c.41,2.85.83,5.69,1.22,8.53.23,1.68.48,3.36.61,5,.18,2.49.25,5,.37,7.46,0,.11,0,.23,0,.35a1.57,1.57,0,0,0,.29-.54c.37-1.11.73-2.23,1.11-3.35,1.55-4.42,3.4-8.69,5.14-13q6.69-16.53,13.42-33t13.4-33a7.79,7.79,0,0,1,2-2.94A8,8,0,0,1,74.41.1l.32-.1h5.78c.49.07,1,.13,1.47.24a5.68,5.68,0,0,1,4.61,4.35,14.58,14.58,0,0,1,.26,1.47q1.32,8,2.6,16,1.13,7,2.27,13.93T94,50q1.14,7,2.27,13.93c.76,4.7,1.54,9.39,2.27,14.1.44,2.85.83,5.72,1,8.61,0,.44.09.88.14,1.39l.13-.16c.1-.34.2-.67.29-1,1-3.39,2-6.78,3.23-10.08l7.62-19.68q10-26,20.11-52a5,5,0,0,1,.47-1A8.34,8.34,0,0,1,137.91.14L138.4,0Zm28.27,15.74a1.27,1.27,0,0,1-.13-.32A3.12,3.12,0,0,0,193.32,13c-1.51,0-3,0-4.52,0a3.22,3.22,0,0,0-.08,6.44c1.55.05,3.09,0,4.63,0A3.1,3.1,0,0,0,196.23,17a1.27,1.27,0,0,1,.13-.32ZM164.75,13a3,3,0,0,0-2.92,1.91,3.06,3.06,0,0,0,.52,3.45,3.16,3.16,0,0,0,2.56,1.1h11.17c1.21,0,2.43,0,3.64,0a3.2,3.2,0,0,0,3.12-3.31,2.81,2.81,0,0,0-.13-.82A3.15,3.15,0,0,0,179.65,13h-7.46C169.7,13,167.23,13,164.75,13Z"/></g></g></svg>