<svg xmlns="http://www.w3.org/2000/svg" viewBox="0 0 262.26 159.68"><defs><style>.cls-1{fill:#5559d9;}</style></defs><g id="Layer_2" data-name="Layer 2"><g id="Layer_1-2" data-name="Layer 1"><path class="cls-1" d="M242.27,0c.91,2,3,3.67,1.71,6.35S240.06,9,237.57,9H193.25c-3.06,0-6.34.12-6.4,4.16-.1,4.2,3.13,4.85,6.4,4.8h6.4c3.2,0,7.07-.55,6.95,4.43s-4,4.19-7.19,4.21H182c-1.83,0-3.66.1-4.8,1.9a4.53,4.53,0,0,0,1,6.14,4,4,0,0,0,2.46.8c5.78.19,11.58.09,17.38.1,3.17,0,6.08.62,5.9,4.75-.15,3.72-2.82,4.47-5.87,4.3H196.7c-13,0-12.47.25-17,13.44-5.28,15.3-11.69,30.2-17.6,45.28-6.83,17.41-13.77,34.78-20.4,52.28-1.44,3.81-3.34,4.48-6.87,3.71-13.5-2.93-22.05-12.86-24.33-27.81-4.57-29.84-9.3-59.62-14-89.4-2-.29-1.42,1.38-1.75,2.21q-22.06,56.16-44,112.41c-1.16,3-2.84,3.18-5.29,2.86C33.07,157.89,23.07,148,20.85,135.11c-5-30.57-9.66-61.25-14.45-91.9Q3.73,26.65,1,10c-.13-.86.09-2-1-2.37Q0,0,7.32,0H24.69c2.74,1.9,4.87,4,5.36,7.69q5.91,44,12,87.9c1,7.19,2.12,14.34,2.56,21.7,1.73-3.49,2.74-7.08,4.08-10.53C61.07,75.2,73.57,43.64,85.86,12c2-5.08,4-9.76,9.25-12H107c4.23,1.8,6.08,5.15,6.46,9.81.32,3.94,1.18,7.82,1.83,11.72q7.49,48.24,15,96.32c1.83-5.29,3.52-10.81,5.49-16.18C146.87,71.39,158.21,41.26,169.26,11c1.83-5,4.32-8.81,9-11h64Zm-2.41,30.74c2.67-.1,4.52-1.61,4.55-4.58s-1.88-4.5-4.53-4.53q-9.57-.12-19.14,0a4.18,4.18,0,0,0-4.54,3.79,4.7,4.7,0,0,0,0,.75c0,2.93,1.82,4.49,4.51,4.58,3.12.11,6.23,0,9.38,0s6.56.1,9.8,0Zm22.38-4.68c0-4.63-3.25-4.44-6.25-4.48-3.28,0-6.9-.45-7.4,4.44-.26,2.41,1.31,4,3.46,4.57a17.15,17.15,0,0,0,3.65.24c3.15-.13,6.56.19,6.56-4.77Z"/></g></g></svg>