<svg width="102" height="51" viewBox="0 0 102 51" fill="none" xmlns="http://www.w3.org/2000/svg">
<g clip-path="url(#clip0_1994_1491)">
<path d="M56.8847 49.1157L9.53682 49.1157C8.41556 49.1157 7.34023 48.6304 6.54738 47.7664C5.75453 46.9024 5.30912 45.7306 5.30912 44.5088V16.1243C5.30912 11.8479 6.86807 7.74662 9.64304 4.72274C12.418 1.69886 16.1817 5.72205e-05 20.1061 5.72205e-05L67.4539 5.72205e-05C68.5752 5.72205e-05 69.6505 0.485432 70.4434 1.3494C71.2362 2.21336 71.6816 3.38515 71.6816 4.60698V32.9915C71.6816 37.2679 70.1227 41.3692 67.3477 44.393C64.5728 47.4169 60.8091 49.1157 56.8847 49.1157Z" fill="#2962FF"/>
<path d="M77.5916 10.6803L92.6572 1.00407C96.538 -1.48849 101.999 0.945119 101.999 5.16699V45.2755C101.999 49.644 96.2009 52.0344 92.373 49.2438L77.3074 38.2611C76.6644 37.8152 76.1367 37.2228 75.7678 36.5328C75.3989 35.8428 75.1993 35.075 75.1855 34.2927V14.8433C75.1855 13.1981 76.0794 11.6516 77.5916 10.6803Z" fill="#0039CB"/>
</g>
<defs>
<clipPath id="clip0_1994_1491">
<rect width="102" height="50.4431" fill="white"/>
</clipPath>
</defs>
</svg>
