<svg width="101" height="86" viewBox="0 0 101 86" fill="none" xmlns="http://www.w3.org/2000/svg">
<path d="M25.0118 0L0 38.7755L50 38.6674L25.0118 0Z" fill="#4CAF50"/>
<path d="M98 46H58V86H98V46Z" fill="#4CAF50"/>
<path d="M25 86C36.0457 86 45 77.0457 45 66C45 54.9543 36.0457 46 25 46C13.9543 46 5 54.9543 5 66C5 77.0457 13.9543 86 25 86Z" fill="#80E27E"/>
<path d="M77.9711 38.3099C76.1802 36.8009 74.3884 35.3254 72.6347 33.8059C69.4601 31.0551 66.2677 28.3226 63.1605 25.4971C60.8659 23.4106 58.7141 21.154 57.3331 18.3287C53.8491 11.2012 57.4516 3.02934 65.1425 1.35079C69.9783 0.295352 74.1869 1.60564 77.4401 5.4979C77.5986 5.68761 77.7723 5.86473 78.0084 6.12404C78.243 5.84004 78.4312 5.60448 78.6274 5.37569C81.8307 1.6403 85.9446 0.35333 90.6538 1.30386C95.1237 2.2061 98.1874 4.98276 99.4779 9.384C100.808 13.9187 99.6219 18.0536 96.5235 21.4801C93.8836 24.3995 90.9975 27.1123 88.0746 29.7555C84.9207 32.6078 81.5977 35.273 78.3477 38.0191C78.2424 38.108 78.1295 38.188 77.9711 38.3099Z" fill="#087F23"/>
</svg>
