<svg width="99" height="93" viewBox="0 0 99 93" fill="none" xmlns="http://www.w3.org/2000/svg">
<path d="M27.0009 24L25 27L29 26.9916L27.0009 24Z" fill="#4CAF50" stroke="#4CAF50" stroke-width="26" stroke-miterlimit="10"/>
<path d="M84 63H71V77H84V63Z" fill="#4CAF50" stroke="#4CAF50" stroke-width="26" stroke-miterlimit="10"/>
<path d="M25.462 80C31.2399 80 35.9239 75.316 35.9239 69.5381C35.9239 63.7601 31.2399 59.0761 25.462 59.0761C19.684 59.0761 15 63.7601 15 69.5381C15 75.316 19.684 80 25.462 80Z" fill="#80E27E" stroke="#80E27E" stroke-width="26" stroke-miterlimit="10"/>
<path d="M75.9711 39.3099C74.1802 37.8009 72.3884 36.3254 70.6347 34.8059C67.4601 32.0551 64.2677 29.3226 61.1605 26.4971C58.8659 24.4106 56.7141 22.154 55.3331 19.3287C51.8491 12.2012 55.4516 4.02934 63.1425 2.35079C67.9783 1.29535 72.1869 2.60564 75.4401 6.4979C75.5986 6.68761 75.7723 6.86473 76.0084 7.12404C76.243 6.84004 76.4312 6.60448 76.6274 6.37569C79.8307 2.6403 83.9446 1.35333 88.6538 2.30386C93.1237 3.2061 96.1874 5.98276 97.4779 10.384C98.8076 14.9187 97.6219 19.0536 94.5235 22.4801C91.8836 25.3995 88.9975 28.1123 86.0746 30.7555C82.9207 33.6078 79.5977 36.2731 76.3477 39.0191C76.2424 39.108 76.1295 39.188 75.9711 39.3099ZM75.9657 15.5323C75.0796 14.6856 74.2886 13.8329 73.3987 13.1004C71.7403 11.7352 70.124 10.2779 68.3054 9.15944C66.3272 7.94289 63.5757 8.4012 62.1352 9.83619C60.427 11.5378 59.9342 14.0587 61.1323 16.2549C61.8836 17.6319 62.8007 19.0098 63.9407 20.0664C67.7274 23.5762 71.6536 26.9352 75.5107 30.3695C75.9055 30.721 76.1452 30.6584 76.509 30.3441C77.6039 29.3983 78.7633 28.5258 79.8397 27.5602C82.6712 25.02 85.5497 22.5244 88.2575 19.8569C90.0141 18.1264 91.537 16.1811 91.43 13.4207C91.3171 10.5097 88.8877 8.17163 85.6075 8.53134C83.5106 8.76129 81.9751 10.048 80.4822 11.362C78.9743 12.6893 77.527 14.0854 75.9657 15.5323H75.9657Z" fill="#087F23"/>
<path d="M75.9657 15.5323C77.5269 14.0854 78.9742 12.6892 80.4821 11.362C81.9751 10.0479 83.5105 8.76128 85.6074 8.53133C88.8876 8.17162 91.317 10.5097 91.4299 13.4206C91.537 16.1811 90.014 18.1264 88.2574 19.8568C85.5496 22.5244 82.6711 25.02 79.8396 27.5602C78.7633 28.5258 77.6039 29.3983 76.509 30.3441C76.1451 30.6584 75.9055 30.721 75.5107 30.3695C71.6535 26.9352 67.7273 23.5762 63.9406 20.0664C62.8006 19.0097 61.8835 17.6318 61.1323 16.2549C59.9341 14.0586 60.427 11.5377 62.1351 9.83618C63.5756 8.40119 66.3271 7.94287 68.3053 9.15942C70.124 10.2778 71.7402 11.7352 73.3986 13.1003C74.2885 13.8329 75.0795 14.6856 75.9657 15.5323Z" fill="#087F23"/>
</svg>
