<svg width="104" height="92" viewBox="0 0 104 92" fill="none" xmlns="http://www.w3.org/2000/svg">
<path d="M93.6514 0H9.43569C4.2245 0 0 4.2245 0 9.43569V82.4701C0 87.6813 4.2245 91.9058 9.43569 91.9058H93.6514C98.8626 91.9058 103.087 87.6813 103.087 82.4701V9.43569C103.087 4.2245 98.8626 0 93.6514 0Z" fill="#FFA000"/>
<path d="M73.8221 9.1748H9.67773V11.792H73.8221V9.1748Z" fill="#C67100"/>
<path d="M49.9386 20.4827H9.67773V23.0999H49.9386V20.4827Z" fill="#C67100"/>
<path d="M73.8221 31.7906H9.67773V34.4079H73.8221V31.7906Z" fill="#C67100"/>
<path d="M62.904 43.0985H9.67773V45.7157H62.904V43.0985Z" fill="#C67100"/>
<path d="M50.2549 54.4064H9.67773V57.0236H50.2549V54.4064Z" fill="#C67100"/>
<path d="M62.904 65.7144H9.67773V68.3316H62.904V65.7144Z" fill="#C67100"/>
<path d="M73.8221 77.0222H9.67773V79.6394H73.8221V77.0222Z" fill="#C67100"/>
<path d="M85.4016 88.2753C93.1526 88.2753 99.436 81.9919 99.436 74.2409C99.436 66.4899 93.1526 60.2065 85.4016 60.2065C77.6506 60.2065 71.3672 66.4899 71.3672 74.2409C71.3672 81.9919 77.6506 88.2753 85.4016 88.2753Z" fill="#FFD149"/>
<path d="M85.4023 67.5568V80.9249" stroke="#C67100" stroke-width="3" stroke-miterlimit="10"/>
<path d="M92.085 74.2409H78.7168" stroke="#C67100" stroke-width="3" stroke-miterlimit="10"/>
</svg>
