<svg xmlns="http://www.w3.org/2000/svg" width="199" height="199" viewBox="0 0 199 199">
  <g id="quotes" opacity="0.05">
    <rect id="Rectangle_18" data-name="Rectangle 18" width="199" height="199" fill="none" opacity="0.1"/>
    <rect id="Rectangle_19" data-name="Rectangle 19" width="199" height="199" fill="none"/>
    <path id="Path_1" data-name="Path 1" d="M95.516,68.438v68.406A37.355,37.355,0,0,1,58.2,174.156a6.219,6.219,0,0,1,0-12.437,24.9,24.9,0,0,0,24.875-24.875v-6.219H36.438A12.452,12.452,0,0,1,24,118.188V68.438A12.452,12.452,0,0,1,36.438,56H83.078A12.452,12.452,0,0,1,95.516,68.438ZM173.25,56H126.609a12.452,12.452,0,0,0-12.437,12.438v49.75a12.452,12.452,0,0,0,12.438,12.438H173.25v6.219a24.9,24.9,0,0,1-24.875,24.875,6.219,6.219,0,1,0,0,12.438,37.355,37.355,0,0,0,37.313-37.312V68.438A12.452,12.452,0,0,0,173.25,56Z" transform="translate(-5.344 -12.469)" fill="#6f46ff"/>
  </g>
</svg>
