<svg width="38" height="34" viewBox="0 0 38 34" fill="none" xmlns="http://www.w3.org/2000/svg">
<path d="M9.16 33.32C6.36 33.32 4.12 32.32 2.44 30.32C0.84 28.24 0.0400004 25.56 0.0400004 22.28C0.0400004 17.8 1.24 13.76 3.64 10.16C6.12 6.47999 9.88 3.39999 14.92 0.919998L16.24 2.83999C13.84 4.28 11.64 6.32 9.64 8.95999C7.72 11.52 6.76 14.12 6.76 16.76C6.76 17.48 6.96 18.08 7.36 18.56C7.76 18.96 8.36 19.16 9.16 19.16C11.16 19.16 12.84 19.88 14.2 21.32C15.64 22.68 16.36 24.36 16.36 26.36C16.36 28.36 15.64 30.04 14.2 31.4C12.84 32.68 11.16 33.32 9.16 33.32ZM29.92 33.32C27.12 33.32 24.88 32.32 23.2 30.32C21.6 28.24 20.8 25.56 20.8 22.28C20.8 17.8 22 13.76 24.4 10.16C26.88 6.47999 30.64 3.39999 35.68 0.919998L37 2.83999C34.6 4.28 32.4 6.32 30.4 8.95999C28.48 11.52 27.52 14.12 27.52 16.76C27.52 17.48 27.72 18.08 28.12 18.56C28.52 18.96 29.12 19.16 29.92 19.16C31.92 19.16 33.6 19.88 34.96 21.32C36.4 22.68 37.12 24.36 37.12 26.36C37.12 28.36 36.4 30.04 34.96 31.4C33.6 32.68 31.92 33.32 29.92 33.32Z" fill="#4006BA"/>
</svg>
