<svg xmlns="http://www.w3.org/2000/svg" width="108" height="108" viewBox="0 0 108 108">
  <g id="Group_317" data-name="Group 317" transform="translate(-1080 -1360)">
    <circle id="Ellipse_63" data-name="Ellipse 63" cx="54" cy="54" r="54" transform="translate(1080 1360)" fill="#529bdd" opacity="0.12"/>
    <path id="workspace" d="M37.126,27.4H12.047c1.176-2.925,3.439-5.405,6.6-5.405H30.506C33.677,21.993,35.94,24.473,37.126,27.4ZM17.037,10.748a7.55,7.55,0,1,1,15.1,0c0,4.041-3.231,8.557-7.549,8.557S17.037,14.789,17.037,10.748ZM48.43,45.411a.991.991,0,0,1-.988.988H1.988a.988.988,0,1,1,0-1.976h9.931L9.567,30.53a.992.992,0,0,1,.968-1.156H38.885a.992.992,0,0,1,.978,1.156L37.5,44.423h9.94A.985.985,0,0,1,48.43,45.411Z" transform="translate(1109.285 1389.261)" fill="#529bdd"/>
  </g>
</svg>
