<svg xmlns="http://www.w3.org/2000/svg" width="108" height="108" viewBox="0 0 108 108">
  <g id="Group_318" data-name="Group 318" transform="translate(-1447 -1360)">
    <circle id="Ellipse_64" data-name="Ellipse 64" cx="54" cy="54" r="54" transform="translate(1447 1360)" fill="#d91d5c" opacity="0.12"/>
    <path id="report-analytics" d="M37.524,5.029H32.5a.9.9,0,0,0-.146.028,2.509,2.509,0,0,0-2.368-1.7h-2.8a5.03,5.03,0,0,0-9.484,0H14.9a2.51,2.51,0,0,0-2.368,1.7.9.9,0,0,0-.146-.028H7.352A3.356,3.356,0,0,0,4,8.381V46.934a3.356,3.356,0,0,0,3.352,3.352H37.524a3.356,3.356,0,0,0,3.352-3.352V8.381A3.356,3.356,0,0,0,37.524,5.029Zm-23.467.838a.838.838,0,0,1,.838-.838h3.436a.838.838,0,0,0,.821-.671,3.353,3.353,0,0,1,6.571,0,.838.838,0,0,0,.821.67h3.436a.838.838,0,0,1,.838.838V6.7a1.679,1.679,0,0,1-1.676,1.676H15.733A1.679,1.679,0,0,1,14.057,6.7V5.867ZM33.334,41.905H11.543a.838.838,0,1,1,0-1.676H33.334a.838.838,0,1,1,0,1.676Zm0-6.7H11.543a.838.838,0,1,1,0-1.676H33.334a.838.838,0,1,1,0,1.676ZM32.5,20.114a1.546,1.546,0,0,1-.278-.057L25.7,28.019a1.665,1.665,0,1,1-3.257.476,1.6,1.6,0,0,1,.084-.411l-4.667-4.708a1.586,1.586,0,0,1-.446.091,1.733,1.733,0,0,1-.181-.037l-3.3,4.413a1.632,1.632,0,1,1-1.544-1.024,1.2,1.2,0,0,1,.184.037l3.3-4.408a1.676,1.676,0,1,1,3.218-.659,1.583,1.583,0,0,1-.075.369l4.7,4.742a1.645,1.645,0,0,1,.406-.082,1.656,1.656,0,0,1,.34.069l6.475-7.9a1.641,1.641,0,0,1-.111-.545A1.676,1.676,0,1,1,32.5,20.114Z" transform="translate(1478.062 1388.857)" fill="#d91d5c"/>
  </g>
</svg>
