<svg width="634" height="564" viewBox="0 0 634 564" fill="none" xmlns="http://www.w3.org/2000/svg">
<path d="M467.19 69.854H468.71C468.779 68.0548 469.525 66.3481 470.799 65.0759C472.073 63.8037 473.781 63.0601 475.58 62.9942C476.667 63.0067 477.734 63.2825 478.691 63.7981C479.648 64.3136 480.465 65.0534 481.073 65.9541C481.538 65.4225 482.11 64.9954 482.752 64.7012C483.393 64.4069 484.09 64.2522 484.796 64.2471C484.84 64.2471 484.883 64.253 484.927 64.2542C485.185 62.1889 486.172 60.2835 487.71 58.8811C489.248 57.4786 491.236 56.6712 493.317 56.604C494.437 56.611 495.544 56.8482 496.569 57.3009C497.594 57.7536 498.515 58.412 499.274 59.2354C500.853 55.4384 503.505 52.1837 506.904 49.8695C510.303 47.5552 514.303 46.2817 518.415 46.2046C530.131 46.2046 539.629 56.4703 539.629 69.1335C539.629 69.375 539.621 69.6144 539.614 69.854H543.324C544.211 69.9231 545.04 70.3243 545.644 70.9775C546.249 71.6308 546.584 72.488 546.584 73.3779C546.584 74.2678 546.249 75.125 545.644 75.7782C545.04 76.4315 544.211 76.8327 543.324 76.9018H467.19C466.303 76.8327 465.474 76.4315 464.87 75.7782C464.265 75.125 463.93 74.2678 463.93 73.3779C463.93 72.488 464.265 71.6308 464.87 70.9775C465.474 70.3243 466.303 69.9231 467.19 69.854V69.854Z" stroke="#D7DDFF" stroke-miterlimit="10"/>
<path d="M213.812 97.7073H211.488C211.058 91.8397 206.525 87.2202 200.986 87.2202C199.324 87.2393 197.692 87.661 196.23 88.4492C194.767 89.2373 193.517 90.3684 192.588 91.7454C191.878 90.9326 191.003 90.2796 190.022 89.8297C189.041 89.3798 187.976 89.1432 186.897 89.1356C186.829 89.1356 186.763 89.1447 186.696 89.1465C185.647 82.5087 180.312 77.4515 173.871 77.4515C172.158 77.4622 170.466 77.8248 168.899 78.5168C167.332 79.2087 165.924 80.2153 164.763 81.4741C159.537 69.6908 148.4 61.5532 135.502 61.5532C117.591 61.5532 103.071 77.2467 103.071 96.6059C103.071 96.9749 103.083 97.341 103.093 97.7073H97.422C96.0656 97.8128 94.7988 98.4261 93.8748 99.4248C92.9508 100.423 92.4375 101.734 92.4375 103.094C92.4375 104.455 92.9508 105.765 93.8748 106.764C94.7988 107.763 96.0656 108.376 97.422 108.482H213.812C215.169 108.376 216.435 107.763 217.359 106.764C218.283 105.765 218.797 104.455 218.797 103.094C218.797 101.734 218.283 100.423 217.359 99.4248C216.435 98.4262 215.169 97.8128 213.812 97.7073H213.812Z" stroke="#D7DDFF" stroke-miterlimit="10"/>
<path d="M451.746 139.043H449.422C448.991 133.176 444.459 128.556 438.919 128.556C437.258 128.575 435.626 128.997 434.163 129.785C432.701 130.573 431.451 131.704 430.521 133.081C429.811 132.268 428.937 131.616 427.956 131.166C426.975 130.716 425.909 130.479 424.83 130.471C424.762 130.471 424.697 130.481 424.63 130.482C423.58 123.845 418.245 118.787 411.805 118.787C410.092 118.798 408.399 119.161 406.833 119.853C405.266 120.545 403.858 121.551 402.696 122.81C397.471 111.027 386.333 102.889 373.436 102.889C355.524 102.889 341.004 118.583 341.004 137.942C341.004 138.311 341.016 138.677 341.027 139.043H335.356C333.999 139.149 332.732 139.762 331.808 140.761C330.884 141.759 330.371 143.07 330.371 144.43C330.371 145.791 330.884 147.101 331.808 148.1C332.732 149.099 333.999 149.712 335.356 149.817H451.746C453.102 149.712 454.369 149.099 455.293 148.1C456.217 147.101 456.73 145.791 456.73 144.43C456.73 143.07 456.217 141.759 455.293 140.761C454.369 139.762 453.102 139.149 451.746 139.043V139.043Z" stroke="#D7DDFF" stroke-miterlimit="10"/>
<path opacity="0.2" d="M394.368 152.38C389.562 156.842 386.002 159.122 378.446 170.453C378.429 170.477 378.412 170.502 378.396 170.528L378.416 170.44C381.445 157.161 380.652 153.009 380.585 146.452C380.518 139.865 385.862 134.182 385.862 134.182L392.962 136.622L392.992 136.634L399.646 140.111C399.646 140.111 399.196 147.899 394.368 152.38Z" fill="#6E84E0"/>
<path opacity="0.2" d="M383.188 159.39C383.512 156.069 383.593 152.729 383.43 149.396C383.4 148.417 383.37 147.404 383.359 146.353C383.324 142.895 386.253 137.547 387.579 135.707L392.251 137.717L397.055 139.783C396.634 142.008 395.077 147.938 392.533 150.299C391.763 151.014 391.007 151.688 390.276 152.34C387.744 154.514 385.375 156.87 383.188 159.39V159.39Z" fill="#6E84E0"/>
<path opacity="0.2" d="M385.91 153.06C386.001 151.482 386.047 150.016 386.091 148.571L386.092 148.553C386.126 147.445 386.162 146.299 386.219 145.122C386.326 142.908 387.989 139.128 389.419 136.498L395.263 139.012C394.353 142.135 392.895 145.879 391.46 147.377C390.643 148.229 389.834 149.045 389.052 149.833L389.043 149.842C388.024 150.869 386.992 151.909 385.91 153.06Z" fill="#4053C1"/>
<path d="M389.706 116.398C388.286 115.781 386.736 115.523 385.192 115.645C382.296 115.922 378.867 117.92 377.667 125.301C377.113 129.324 376.005 133.251 374.374 136.97C374.242 137.247 374.023 137.474 373.75 137.614C373.476 137.754 373.164 137.8 372.862 137.745C372.56 137.689 372.284 137.535 372.079 137.307C371.873 137.079 371.749 136.789 371.725 136.483C371.192 129.871 370.763 116.643 374.878 109.322C377.613 104.455 383.211 100.888 388.251 98.5065C391.437 97.0069 394.743 95.7771 398.134 94.8301C395.117 100.57 392.628 106.573 390.7 112.764L390.699 112.768C390.658 112.904 390.617 113.041 390.578 113.177C390.254 114.269 389.965 115.346 389.706 116.398Z" fill="#4B51E5"/>
<path d="M389.706 116.398C388.286 115.781 386.736 115.523 385.193 115.645C382.296 115.922 378.867 117.92 377.667 125.301C377.113 129.324 376.005 133.251 374.374 136.97C374.252 137.24 374.045 137.463 373.785 137.605C373.524 137.747 373.225 137.8 372.932 137.756C372.973 136.975 373.195 136.215 373.58 135.535C376.045 131.085 375.123 120.844 377.78 115.355C378.555 113.747 379.719 112.358 381.167 111.313C384.686 108.772 387.084 104.967 387.86 100.697L388.251 98.5065C391.437 97.0069 394.743 95.7771 398.135 94.8301C395.117 100.57 392.628 106.573 390.701 112.764L390.699 112.768C390.658 112.904 390.617 113.041 390.578 113.177C390.562 113.229 390.546 113.282 390.533 113.333C390.481 113.507 390.429 113.681 390.382 113.855C390.317 114.078 390.253 114.301 390.194 114.526L390.166 114.622C390.107 114.841 390.049 115.058 389.993 115.274C389.893 115.652 389.797 116.028 389.706 116.398Z" fill="#4B51E5"/>
<path d="M409.659 124.981C411.084 125.588 412.338 126.535 413.31 127.74C415.101 130.033 416.009 133.897 411.476 139.844C408.937 143.013 406.848 146.518 405.27 150.26C405.159 150.546 405.146 150.861 405.232 151.156C405.318 151.451 405.5 151.709 405.748 151.89C405.996 152.071 406.297 152.165 406.604 152.157C406.911 152.15 407.207 152.041 407.446 151.848C412.612 147.687 422.509 138.901 424.995 130.879C426.647 125.546 425.386 119.029 423.648 113.732C422.546 110.388 421.165 107.142 419.52 104.029C417.429 110.167 414.782 116.102 411.613 121.76L411.612 121.763C411.541 121.887 411.47 122.011 411.398 122.132C410.828 123.119 410.245 124.069 409.659 124.981Z" fill="#4B51E5"/>
<path d="M409.66 124.981C411.085 125.588 412.339 126.535 413.312 127.74C415.102 130.033 416.01 133.897 411.477 139.844C408.938 143.013 406.85 146.518 405.272 150.26C405.159 150.534 405.139 150.838 405.215 151.124C405.291 151.411 405.459 151.665 405.693 151.847C406.231 151.28 406.63 150.596 406.859 149.849C408.394 144.999 416.462 138.625 418.62 132.921C419.254 131.252 419.462 129.452 419.225 127.683C418.649 123.38 419.762 119.023 422.328 115.522L423.65 113.732C422.547 110.388 421.166 107.142 419.521 104.029C417.43 110.167 414.783 116.102 411.615 121.76L411.613 121.763C411.542 121.887 411.471 122.011 411.399 122.132C411.372 122.18 411.345 122.228 411.317 122.273C411.226 122.43 411.136 122.588 411.042 122.741C410.924 122.942 410.806 123.142 410.684 123.339L410.634 123.425C410.515 123.619 410.397 123.811 410.279 124C410.074 124.332 409.868 124.66 409.66 124.981Z" fill="#4B51E5"/>
<path d="M401.824 137.817C400.425 139.834 399.602 141.001 399.602 141.001C396.278 140.773 393.04 139.844 390.1 138.276C388.349 137.328 386.719 136.169 385.248 134.826C385.248 134.826 385.549 133.326 386.085 130.764C388.605 118.715 396.332 83.1777 402.429 69.7968C403.903 66.6513 405.856 63.7539 408.218 61.208C408.949 60.4005 409.71 59.6258 410.492 58.8811C411.099 58.3041 411.721 57.7448 412.35 57.2044C417.54 52.8848 423.324 49.3334 429.524 46.659C429.864 46.5118 430.231 46.4357 430.601 46.4353C430.972 46.4349 431.339 46.5102 431.679 46.6566C432.019 46.803 432.326 47.0174 432.581 47.2867C432.835 47.5559 433.032 47.8743 433.159 48.2224C435.519 54.6607 436.923 61.4102 437.325 68.2555C437.359 69.0321 437.372 69.8138 437.371 70.5988C437.365 71.6791 437.322 72.7648 437.236 73.8514C437.002 77.2639 436.245 80.6201 434.992 83.8028C429.433 97.5324 408.689 127.921 401.824 137.817Z" fill="#4B51E5"/>
<path d="M401.824 137.817C400.425 139.834 399.602 141.001 399.602 141.001C396.278 140.773 393.04 139.844 390.1 138.276C388.349 137.328 386.719 136.169 385.248 134.827C385.248 134.827 385.549 133.326 386.085 130.764C388.017 133.057 390.483 134.842 393.265 135.961C395.969 137.135 398.877 137.765 401.824 137.817Z" fill="#4B51E5"/>
<path d="M437.237 73.8522C431.917 73.141 426.707 71.7711 421.725 69.7742C416.868 67.5207 412.327 64.6407 408.219 61.2077C408.95 60.4002 409.71 59.6254 410.493 58.8821C414.302 62.0534 418.506 64.7192 422.999 66.8133C427.617 68.6569 432.444 69.9283 437.371 70.5994C437.367 71.6799 437.322 72.7641 437.237 73.8522Z" fill="#ACB1EF"/>
<path opacity="0.2" d="M390.1 138.276C388.348 137.328 386.719 136.17 385.248 134.827C385.248 134.827 395.036 86.023 402.429 69.7971C403.903 66.6517 405.856 63.7542 408.218 61.2084C408.949 60.4008 409.71 59.626 410.492 58.8814C411.099 58.3045 411.721 57.7452 412.35 57.2047C417.54 52.8852 423.324 49.3337 429.524 46.6593C430.162 46.3818 430.882 46.3605 431.535 46.5999C426.091 51.5025 409.759 70.8802 390.1 138.276Z" fill="black"/>
<path d="M437.324 68.2543L437.318 68.2527C434.987 67.9151 432.683 67.4127 430.423 66.7493C428.223 66.1034 426.065 65.3246 423.96 64.4172C419.701 62.7038 415.772 60.2627 412.35 57.2032C417.538 52.8836 423.322 49.3332 429.522 46.6612C429.862 46.514 430.228 46.4379 430.599 46.4375C430.969 46.4371 431.335 46.5123 431.676 46.6586C432.016 46.805 432.323 47.0193 432.577 47.2884C432.831 47.5575 433.028 47.8758 433.155 48.2237C435.227 53.9066 436.574 59.8282 437.165 65.8483L437.167 65.8491C437.235 66.6422 437.288 67.4439 437.324 68.2543Z" fill="#ACB1EF"/>
<path d="M389.44 146.485C389.319 146.608 389.163 146.692 388.994 146.726C388.824 146.759 388.648 146.741 388.489 146.672C388.33 146.604 388.196 146.489 388.103 146.343C388.011 146.197 387.965 146.026 387.971 145.853C388.507 131.313 400.499 112.195 405.679 104.581C405.791 104.417 405.956 104.296 406.147 104.24C406.338 104.184 406.543 104.196 406.725 104.275C406.908 104.354 407.058 104.494 407.148 104.671C407.239 104.848 407.265 105.051 407.222 105.245C405.258 114.242 399.627 136.096 389.44 146.485Z" fill="#ACB1EF"/>
<path d="M406.726 104.275L388.489 146.673C388.33 146.605 388.194 146.491 388.102 146.344C388.009 146.198 387.964 146.027 387.972 145.853C388.508 131.313 400.499 112.195 405.679 104.582C405.788 104.414 405.954 104.29 406.146 104.234C406.338 104.178 406.543 104.193 406.726 104.275V104.275Z" fill="#ACB1EF"/>
<path d="M423.387 89.9483C425.448 85.1566 423.234 79.6014 418.442 77.5403C413.651 75.4793 408.096 77.693 406.035 82.4847C403.974 87.2763 406.187 92.8315 410.979 94.8926C415.771 96.9536 421.326 94.7399 423.387 89.9483Z" fill="#4B51E5"/>
<path d="M421.573 89.1683C421.56 89.1981 421.547 89.2293 421.533 89.2585C420.739 91.0352 419.283 92.4322 417.475 93.1526C415.667 93.873 413.65 93.86 411.851 93.1165C411.821 93.105 411.79 93.0916 411.76 93.0788C410.402 92.4953 409.247 91.522 408.442 90.2821C407.637 89.0423 407.217 87.5914 407.237 86.1132C407.257 84.635 407.714 83.1959 408.552 81.9778C409.39 80.7597 410.57 79.8174 411.943 79.2702C413.316 78.7229 414.821 78.5953 416.267 78.9034C417.713 79.2115 419.035 79.9415 420.066 81.0011C421.097 82.0607 421.79 83.4022 422.058 84.856C422.327 86.3098 422.158 87.8105 421.573 89.1683Z" fill="white"/>
<path opacity="0.1" d="M422.117 87.1957C422.353 85.4073 421.934 83.5939 420.937 82.0904C419.941 80.5868 418.434 79.4946 416.694 79.0156C414.955 78.5365 413.102 78.7029 411.476 79.4841C409.85 80.2652 408.561 81.6083 407.848 83.2653C407.767 83.4546 407.694 83.6445 407.631 83.8353C408.455 82.2923 409.795 81.0875 411.416 80.4306C413.037 79.7738 414.838 79.7065 416.503 80.2407C418.169 80.7748 419.595 81.8764 420.532 83.3536C421.469 84.8308 421.858 86.5899 421.631 88.3245C421.568 88.8006 421.459 89.2694 421.304 89.724C421.386 89.5734 421.461 89.4168 421.532 89.2585C421.546 89.2293 421.559 89.1981 421.572 89.1683C421.844 88.5389 422.027 87.8751 422.117 87.1957V87.1957Z" fill="black"/>
<path d="M437.318 68.2527C434.987 67.9151 432.683 67.4127 430.423 66.7493C428.223 66.1034 426.065 65.3246 423.96 64.4172C419.701 62.7038 415.772 60.2627 412.35 57.2032C417.538 52.8836 423.322 49.3332 429.522 46.6612C429.872 46.5079 430.25 46.4308 430.631 46.435C431.013 46.4391 431.389 46.5244 431.735 46.6852C431.735 46.6852 424.627 50.8046 423.34 56.6569C421.835 63.503 436.968 68.1409 437.318 68.2527Z" fill="#ACB1EF"/>
<path d="M311.724 532.666C464.174 532.666 587.759 521.22 587.759 507.101C587.759 492.981 464.174 481.536 311.724 481.536C159.274 481.536 35.6895 492.981 35.6895 507.101C35.6895 521.22 159.274 532.666 311.724 532.666Z" fill="#F3F7FF"/>
<path d="M324.691 512.146L183.314 493.697V335.272L324.691 344.648V512.146Z" fill="#A2ABF4"/>
<path d="M324.691 512.146L440.132 493.697V335.272L324.691 344.648V512.146Z" fill="#8E95EF"/>
<g style="mix-blend-mode:overlay" opacity="0.15">
<path d="M324.691 351.702L183.314 335.272V358.635L324.691 369.016L440.131 358.635V335.272L324.691 351.702Z" fill="black"/>
</g>
<path d="M326.381 361.73L178 351.772V317L326.381 327.664V361.73Z" fill="#A2ABF4"/>
<path d="M176.311 316.93L321.448 315.334L444.628 316.93L324.691 327.594L176.311 316.93Z" fill="#B0BBF7"/>
<path d="M324.691 361.66L444.628 351.702V316.93L324.691 327.594V361.66Z" fill="#8E95EF"/>
<path d="M139.975 389.806C140.384 389.856 140.797 389.742 141.122 389.488C141.447 389.234 141.658 388.862 141.709 388.453C141.823 387.523 141.564 386.585 140.988 385.846C140.411 385.107 139.565 384.628 138.634 384.513L133.163 383.838L129.516 383.388L124.045 382.713C123.115 382.598 122.178 382.858 121.439 383.434C120.7 384.011 120.22 384.857 120.105 385.787C120.055 386.197 120.169 386.609 120.423 386.934C120.676 387.259 121.049 387.47 121.458 387.521C121.632 387.544 121.801 387.597 121.958 387.677L139.452 389.836C139.624 389.796 139.8 389.786 139.975 389.806V389.806Z" fill="#E1EDFF"/>
<path d="M139.452 389.836L121.957 387.677C122.215 387.806 122.432 388.004 122.583 388.249C122.735 388.494 122.815 388.777 122.814 389.065L138.283 390.973C138.352 390.694 138.499 390.439 138.705 390.238C138.912 390.037 139.17 389.898 139.452 389.836V389.836Z" fill="#E1EDFF"/>
<path d="M124.877 422.597C129.013 424.841 136.546 423.386 141.651 421.966C138.787 412.758 136.404 406.045 136.404 406.045L137.729 395.308L138.241 391.158C138.252 391.096 138.266 391.034 138.283 390.974L122.815 389.065C122.817 389.128 122.816 389.191 122.811 389.254L120.974 404.138C120.974 404.138 115.727 412.039 111.135 419.573C115.901 419.363 120.639 420.406 124.877 422.597V422.597Z" fill="#E1EDFF"/>
<path d="M129.959 418.485C131.152 418.485 132.12 417.518 132.12 416.325C132.12 415.132 131.152 414.164 129.959 414.164C128.766 414.164 127.799 415.132 127.799 416.325C127.799 417.518 128.766 418.485 129.959 418.485Z" fill="#7072FF"/>
<path d="M127.81 402.941C128.08 402.975 128.354 402.927 128.597 402.805C128.841 402.682 129.042 402.49 129.176 402.253C129.311 402.016 129.372 401.745 129.351 401.473C129.331 401.202 129.231 400.942 129.064 400.728C128.896 400.513 128.669 400.353 128.41 400.267C128.152 400.182 127.874 400.175 127.611 400.248C127.349 400.32 127.114 400.469 126.936 400.675C126.758 400.882 126.645 401.136 126.612 401.406C126.567 401.769 126.668 402.134 126.893 402.422C127.118 402.71 127.447 402.896 127.81 402.941V402.941Z" fill="#7072FF"/>
<path d="M148.965 447.106C148.488 444.167 147.741 441.278 146.734 438.477C146.152 436.46 143.461 427.9 142.755 425.563C142.381 424.328 142.013 423.129 141.651 421.966C136.546 423.386 129.013 424.841 124.877 422.597C120.639 420.405 115.901 419.363 111.134 419.573C108.614 423.707 106.107 427.851 103.663 432.031C99.3856 439.345 93.5037 449.288 105.612 452.093C116.797 454.531 128.183 455.936 139.626 456.29C143.126 456.353 147.017 455.122 148.449 451.541C148.972 450.125 149.149 448.604 148.965 447.106Z" fill="#4C52E6"/>
<path d="M124.279 427.442C124.703 427.494 125.102 427.671 125.426 427.95C125.749 428.229 125.982 428.597 126.096 429.009C126.21 429.421 126.199 429.857 126.065 430.262C125.931 430.668 125.68 431.025 125.343 431.287C125.007 431.55 124.6 431.707 124.174 431.739C123.748 431.77 123.322 431.674 122.95 431.464C122.579 431.253 122.278 430.937 122.086 430.556C121.894 430.174 121.819 429.744 121.872 429.32C121.906 429.039 121.996 428.767 122.136 428.52C122.276 428.274 122.463 428.057 122.686 427.882C122.91 427.708 123.166 427.579 123.439 427.504C123.712 427.428 123.998 427.407 124.279 427.442V427.442Z" fill="#8592FF"/>
<path d="M133.537 437.199C134.243 437.286 134.907 437.581 135.446 438.045C135.984 438.51 136.373 439.124 136.563 439.809C136.752 440.495 136.734 441.221 136.511 441.897C136.288 442.572 135.87 443.166 135.309 443.604C134.748 444.041 134.07 444.303 133.361 444.355C132.651 444.407 131.942 444.248 131.324 443.897C130.705 443.547 130.204 443.021 129.884 442.385C129.564 441.75 129.44 441.034 129.527 440.328C129.644 439.381 130.132 438.52 130.884 437.933C131.636 437.346 132.59 437.082 133.537 437.199V437.199Z" fill="#8592FF"/>
<path d="M109.989 435.285C110.66 435.285 111.204 434.741 111.204 434.07C111.204 433.399 110.66 432.855 109.989 432.855C109.317 432.855 108.773 433.399 108.773 434.07C108.773 434.741 109.317 435.285 109.989 435.285Z" fill="#8592FF"/>
<path d="M135.774 377.404C136.013 377.433 136.237 377.533 136.419 377.69C136.601 377.847 136.732 378.054 136.796 378.286C136.861 378.518 136.855 378.763 136.779 378.991C136.704 379.219 136.562 379.42 136.373 379.568C136.183 379.716 135.954 379.804 135.715 379.822C135.475 379.839 135.235 379.786 135.026 379.667C134.817 379.549 134.648 379.371 134.54 379.156C134.432 378.942 134.39 378.7 134.419 378.461C134.439 378.303 134.489 378.15 134.568 378.011C134.647 377.872 134.752 377.75 134.878 377.652C135.004 377.554 135.147 377.481 135.301 377.439C135.455 377.396 135.616 377.384 135.774 377.404Z" fill="#8592FF"/>
<path d="M121.483 413.141C121.722 413.171 121.946 413.27 122.128 413.427C122.31 413.584 122.441 413.791 122.505 414.023C122.569 414.255 122.563 414.5 122.488 414.728C122.413 414.956 122.271 415.157 122.082 415.305C121.892 415.453 121.663 415.541 121.424 415.559C121.184 415.577 120.944 415.523 120.735 415.404C120.526 415.286 120.357 415.108 120.249 414.893C120.141 414.679 120.099 414.437 120.128 414.198C120.168 413.878 120.333 413.587 120.587 413.389C120.841 413.191 121.163 413.102 121.483 413.141Z" fill="#8592FF"/>
<path d="M121.897 442.289C122.136 442.318 122.36 442.418 122.542 442.575C122.724 442.732 122.855 442.939 122.919 443.171C122.984 443.402 122.977 443.648 122.902 443.876C122.827 444.104 122.685 444.305 122.496 444.453C122.306 444.6 122.077 444.689 121.838 444.706C121.598 444.724 121.358 444.67 121.149 444.552C120.94 444.433 120.771 444.256 120.663 444.041C120.555 443.826 120.513 443.584 120.542 443.346C120.582 443.026 120.747 442.735 121.001 442.537C121.255 442.338 121.577 442.249 121.897 442.289V442.289Z" fill="#8592FF"/>
<path d="M131.663 369.032C132.093 369.085 132.497 369.265 132.824 369.547C133.152 369.83 133.389 370.204 133.504 370.621C133.619 371.038 133.609 371.48 133.473 371.891C133.337 372.302 133.082 372.663 132.741 372.929C132.4 373.195 131.988 373.355 131.556 373.386C131.124 373.418 130.693 373.321 130.317 373.108C129.94 372.895 129.635 372.574 129.441 372.188C129.246 371.801 129.171 371.366 129.224 370.936C129.259 370.651 129.35 370.376 129.491 370.125C129.633 369.875 129.823 369.656 130.049 369.479C130.276 369.302 130.535 369.172 130.812 369.095C131.089 369.019 131.378 368.997 131.663 369.032Z" stroke="#8592FF" stroke-miterlimit="10"/>
<path d="M144.8 443.89C144.8 443.89 148.455 453.969 137.537 453.467" stroke="#CAD8FD" stroke-width="1.44757" stroke-linecap="round" stroke-linejoin="round"/>
<path d="M341.852 240.806H298.89C296.231 240.806 294.076 242.962 294.076 245.62V279.957C294.076 282.615 296.231 284.77 298.89 284.77H341.852C344.511 284.77 346.666 282.615 346.666 279.957V245.62C346.666 242.962 344.511 240.806 341.852 240.806Z" fill="#4042E2"/>
<path d="M346.667 273.731V292.985C346.667 292.985 345.728 294.396 343.505 292.985L334.949 282.096L346.667 273.731Z" fill="#4042E2"/>
<path d="M315.075 252.642L306.336 262.812L315.075 271.963" stroke="#C1C4F4" stroke-width="3" stroke-miterlimit="10"/>
<path d="M326.227 271.963L334.966 261.794L326.227 252.642" stroke="#C1C4F4" stroke-width="3" stroke-miterlimit="10"/>
<path d="M406.725 398.906C408.267 398.187 409.886 397.645 411.55 397.287" stroke="#4345DE" stroke-width="2" stroke-miterlimit="10"/>
<path d="M506.805 490.707C508.49 490.468 510.147 490.058 511.749 489.483" stroke="#4345DE" stroke-width="2" stroke-miterlimit="10"/>
<path d="M513.643 354.306V478.03" stroke="#4D53E9" stroke-width="6" stroke-miterlimit="10"/>
<path d="M513.643 354.306C519.103 354.306 523.529 349.984 523.529 344.653C523.529 339.322 519.103 335 513.643 335C508.182 335 503.756 339.322 503.756 344.653C503.756 349.984 508.182 354.306 513.643 354.306Z" stroke="#4D53E9" stroke-width="6" stroke-miterlimit="10"/>
<path d="M514.547 453.855L553.139 428.763V409.885" stroke="#4D53E9" stroke-width="6" stroke-miterlimit="10"/>
<path d="M553.139 409.863C558.599 409.863 563.025 405.541 563.025 400.21C563.025 394.879 558.599 390.557 553.139 390.557C547.678 390.557 543.252 394.879 543.252 400.21C543.252 405.541 547.678 409.863 553.139 409.863Z" stroke="#4D53E9" stroke-width="6" stroke-miterlimit="10"/>
<path d="M513.643 495.936C519.103 495.936 523.529 491.614 523.529 486.283C523.529 480.952 519.103 476.63 513.643 476.63C508.182 476.63 503.756 480.952 503.756 486.283C503.756 491.614 508.182 495.936 513.643 495.936Z" stroke="#4D53E9" stroke-width="6" stroke-miterlimit="10"/>
<path d="M512.593 428.29L481.871 408.316V393.287" stroke="#4D53E9" stroke-width="6" stroke-miterlimit="10"/>
<path d="M481.87 393.27C486.217 393.27 489.741 389.83 489.741 385.586C489.741 381.342 486.217 377.901 481.87 377.901C477.524 377.901 474 381.342 474 385.586C474 389.83 477.524 393.27 481.87 393.27Z" stroke="#4D53E9" stroke-width="6" stroke-miterlimit="10"/>
<path d="M513.643 390.557L541.387 373.127V360.012" stroke="#4D53E9" stroke-width="6" stroke-miterlimit="10"/>
<path d="M541.387 359.998C545.312 359.998 548.495 356.995 548.495 353.292C548.495 349.589 545.312 346.586 541.387 346.586C537.462 346.586 534.279 349.589 534.279 353.292C534.279 356.995 537.462 359.998 541.387 359.998Z" stroke="#4D53E9" stroke-width="6" stroke-miterlimit="10"/>
<path d="M378.499 171.5C366.499 184.5 330.699 210.5 283.499 210.5C224.499 210.5 166.499 196 116.999 259.5C67.4994 323 86.4994 430.5 126.999 458.5C167.499 486.5 224 478.5 272 469.5C320 460.5 333 410 384 409C435 408 481.5 458 511.5 438.5C541.5 419 543 382 511.5 356.5C480 331 484 304 486.5 284C489 264 433.5 223.5 347.5 256.5" stroke="#4B51E5" stroke-width="2" stroke-dasharray="7 7"/>
<path d="M367 386.729L411.27 381C411.27 381 412.126 411.706 421.996 428.927L378.695 431.871C378.695 431.871 367.224 415.906 367 386.729Z" fill="white"/>
<path d="M376.707 395.696L405.214 391.349" stroke="#4C52E6" stroke-width="2" stroke-miterlimit="10"/>
<path d="M377.984 404.628L406.491 400.281" stroke="#4C52E6" stroke-width="2" stroke-miterlimit="10"/>
<path d="M380.535 416.113L409.042 411.766" stroke="#4C52E6" stroke-width="2" stroke-miterlimit="10"/>
<path d="M248.95 391H247.688V473.05H248.95V391Z" fill="#4C52E6"/>
<path d="M248.318 400.769C249.73 400.769 250.875 399.624 250.875 398.212C250.875 396.8 249.73 395.656 248.318 395.656C246.906 395.656 245.762 396.8 245.762 398.212C245.762 399.624 246.906 400.769 248.318 400.769Z" fill="white"/>
<path d="M248.318 417.376C249.73 417.376 250.875 416.232 250.875 414.82C250.875 413.408 249.73 412.263 248.318 412.263C246.906 412.263 245.762 413.408 245.762 414.82C245.762 416.232 246.906 417.376 248.318 417.376Z" fill="white"/>
<path d="M296.817 390H257.647C256.525 390 255.615 390.909 255.615 392.032V404.087C255.615 405.209 256.525 406.119 257.647 406.119H296.817C297.939 406.119 298.849 405.209 298.849 404.087V392.032C298.849 390.909 297.939 390 296.817 390Z" fill="#4C52E6"/>
<path d="M252.934 398.06L256.02 399.841V396.277L252.934 398.06Z" fill="#4C52E6"/>
<path d="M238.305 406.76H199.135C198.013 406.76 197.104 407.67 197.104 408.792V420.848C197.104 421.97 198.013 422.879 199.135 422.879H238.305C239.427 422.879 240.337 421.97 240.337 420.848V408.792C240.337 407.67 239.427 406.76 238.305 406.76Z" fill="white"/>
<path d="M243.018 414.82L239.932 416.603V413.038L243.018 414.82Z" fill="white"/>
<path d="M296.817 424.192H257.647C256.525 424.192 255.615 425.101 255.615 426.223V438.279C255.615 439.401 256.525 440.311 257.647 440.311H296.817C297.939 440.311 298.849 439.401 298.849 438.279V426.223C298.849 425.101 297.939 424.192 296.817 424.192Z" fill="#4C52E6"/>
<path d="M252.934 432.251L256.02 434.033V430.468L252.934 432.251Z" fill="#4C52E6"/>
<path d="M238.305 441.929H199.135C198.013 441.929 197.104 442.839 197.104 443.961V456.016C197.104 457.138 198.013 458.048 199.135 458.048H238.305C239.427 458.048 240.337 457.138 240.337 456.016V443.961C240.337 442.839 239.427 441.929 238.305 441.929Z" fill="white"/>
<path d="M243.018 449.989L239.932 451.771V448.206L243.018 449.989Z" fill="white"/>
<path d="M248.318 435.449C249.73 435.449 250.875 434.305 250.875 432.893C250.875 431.481 249.73 430.336 248.318 430.336C246.906 430.336 245.762 431.481 245.762 432.893C245.762 434.305 246.906 435.449 248.318 435.449Z" fill="white"/>
<path d="M248.318 452.057C249.73 452.057 250.875 450.912 250.875 449.5C250.875 448.088 249.73 446.944 248.318 446.944C246.906 446.944 245.762 448.088 245.762 449.5C245.762 450.912 246.906 452.057 248.318 452.057Z" fill="white"/>
<path d="M248.318 468.176C249.73 468.176 250.875 467.031 250.875 465.619C250.875 464.207 249.73 463.063 248.318 463.063C246.906 463.063 245.762 464.207 245.762 465.619C245.762 467.031 246.906 468.176 248.318 468.176Z" fill="white"/>
<path d="M296.817 457.407H257.647C256.525 457.407 255.615 458.316 255.615 459.438V471.494C255.615 472.616 256.525 473.526 257.647 473.526H296.817C297.939 473.526 298.849 472.616 298.849 471.494V459.438C298.849 458.316 297.939 457.407 296.817 457.407Z" fill="#4C52E6"/>
<path d="M252.934 465.466L256.02 467.248V463.684L252.934 465.466Z" fill="#4C52E6"/>
<path d="M277.232 392.663H258.359V395.656H277.232V392.663Z" fill="white"/>
<path d="M271.205 397.776H258.359V399.272H271.205V397.776Z" fill="white"/>
<path d="M285.857 397.776H273.012V399.272H285.857V397.776Z" fill="white"/>
<path d="M276.186 401.195H258.359V402.692H276.186V401.195Z" fill="white"/>
<path d="M296.52 401.195H278.693V402.692H296.52V401.195Z" fill="white"/>
<path d="M276.826 426.912H257.953V429.905H276.826V426.912Z" fill="white"/>
<path d="M270.798 432.025H257.953V433.521H270.798V432.025Z" fill="white"/>
<path d="M285.453 432.025H272.607V433.521H285.453V432.025Z" fill="white"/>
<path d="M275.779 435.444H257.953V436.941H275.779V435.444Z" fill="white"/>
<path d="M296.115 435.444H278.289V436.941H296.115V435.444Z" fill="white"/>
<path d="M276.826 460.127H257.953V463.12H276.826V460.127Z" fill="white"/>
<path d="M270.798 465.24H257.953V466.736H270.798V465.24Z" fill="white"/>
<path d="M285.453 465.24H272.607V466.736H285.453V465.24Z" fill="white"/>
<path d="M275.779 468.659H257.953V470.156H275.779V468.659Z" fill="white"/>
<path d="M296.115 468.659H278.289V470.156H296.115V468.659Z" fill="white"/>
<path d="M218.211 409.816H199.338V412.809H218.211V409.816Z" fill="#4C52E6"/>
<path d="M212.183 414.929H199.338V416.425H212.183V414.929Z" fill="#4C52E6"/>
<path d="M226.838 414.929H213.992V416.425H226.838V414.929Z" fill="#4C52E6"/>
<path d="M217.164 418.348H199.338V419.845H217.164V418.348Z" fill="#4C52E6"/>
<path d="M237.5 418.348H219.674V419.845H237.5V418.348Z" fill="#4C52E6"/>
<path d="M218.211 444.984H199.338V447.978H218.211V444.984Z" fill="#4C52E6"/>
<path d="M212.183 450.098H199.338V451.594H212.183V450.098Z" fill="#4C52E6"/>
<path d="M226.838 450.098H213.992V451.594H226.838V450.098Z" fill="#4C52E6"/>
<path d="M217.164 453.517H199.338V455.014H217.164V453.517Z" fill="#4C52E6"/>
<path d="M237.5 453.517H219.674V455.014H237.5V453.517Z" fill="#4C52E6"/>
<path d="M197.738 242.086C197.738 240.568 196.902 239.337 195.869 239.337H160.977C159.944 239.337 159.107 240.568 159.107 242.086V254.529C159.107 256.047 159.944 257.278 160.977 257.278H195.869C196.902 257.278 197.738 256.047 197.738 254.529V242.086Z" fill="#4D53E9"/>
<path d="M195.055 243.31C195.043 243.518 194.949 243.713 194.794 243.852C194.639 243.991 194.436 244.064 194.228 244.053H170.237C170.029 244.064 169.825 243.991 169.67 243.852C169.516 243.713 169.422 243.518 169.41 243.31V243.222C169.422 243.014 169.516 242.82 169.67 242.68C169.825 242.541 170.029 242.469 170.237 242.48H194.228C194.436 242.469 194.639 242.541 194.794 242.68C194.949 242.82 195.043 243.014 195.055 243.222V243.31Z" fill="white"/>
<path d="M165.954 242.485H162.705C162.142 242.485 161.809 243.014 161.809 243.634V246.666C161.809 247.185 162.068 247.468 162.54 247.468H165.954C166.089 247.478 166.225 247.46 166.352 247.414C166.48 247.369 166.597 247.298 166.697 247.206C166.796 247.114 166.875 247.002 166.93 246.878C166.984 246.754 167.012 246.62 167.013 246.484V243.634C167.018 243.343 166.91 243.061 166.713 242.847C166.516 242.633 166.244 242.503 165.954 242.485Z" fill="white"/>
<path d="M166.944 243.158L166.25 242.537C166.227 242.516 166.2 242.5 166.171 242.491C166.141 242.481 166.11 242.478 166.08 242.481C166.049 242.485 166.019 242.495 165.992 242.511C165.965 242.527 165.942 242.549 165.924 242.574L164.126 245.011C164.105 245.042 164.078 245.068 164.046 245.087C164.014 245.107 163.978 245.119 163.941 245.124C163.904 245.129 163.867 245.126 163.831 245.115C163.795 245.105 163.762 245.087 163.734 245.062L163.246 244.651C163.223 244.631 163.195 244.616 163.166 244.608C163.136 244.599 163.105 244.597 163.075 244.601C163.044 244.606 163.014 244.617 162.988 244.634C162.961 244.651 162.939 244.673 162.921 244.699L162.378 245.481C162.34 245.536 162.324 245.603 162.332 245.67C162.339 245.735 162.371 245.796 162.421 245.839L163.786 246.989C163.837 247.032 163.895 247.064 163.959 247.083C164.022 247.102 164.089 247.108 164.155 247.099C164.221 247.09 164.284 247.068 164.341 247.034C164.397 246.999 164.446 246.953 164.483 246.898L166.977 243.517C167.016 243.463 167.034 243.397 167.028 243.331C167.022 243.265 166.992 243.203 166.944 243.158V243.158Z" fill="#1C8716"/>
<path d="M195.055 247.918C195.043 248.126 194.949 248.321 194.794 248.46C194.639 248.599 194.436 248.671 194.228 248.661H170.237C170.029 248.671 169.825 248.599 169.67 248.46C169.516 248.321 169.422 248.126 169.41 247.918V247.83C169.422 247.622 169.516 247.427 169.67 247.288C169.825 247.149 170.029 247.077 170.237 247.087H194.228C194.436 247.077 194.639 247.149 194.794 247.288C194.949 247.427 195.043 247.622 195.055 247.83V247.918Z" fill="white"/>
<path d="M195.055 252.526C195.043 252.734 194.949 252.928 194.794 253.068C194.639 253.207 194.436 253.279 194.228 253.268H170.237C170.029 253.279 169.825 253.207 169.67 253.068C169.516 252.928 169.422 252.734 169.41 252.526V252.438C169.422 252.23 169.516 252.035 169.67 251.896C169.825 251.756 170.029 251.684 170.237 251.695H194.228C194.436 251.684 194.639 251.756 194.794 251.896C194.949 252.035 195.043 252.23 195.055 252.438V252.526Z" fill="white"/>
<path d="M155.901 242.086C155.901 240.568 155.064 239.337 154.031 239.337H119.139C118.106 239.337 117.27 240.568 117.27 242.086V254.529C117.27 256.047 118.106 257.278 119.139 257.278H154.031C155.064 257.278 155.901 256.047 155.901 254.529V242.086Z" fill="#A2ABF4"/>
<path d="M153.217 243.31C153.205 243.518 153.111 243.713 152.956 243.852C152.801 243.991 152.598 244.064 152.39 244.053H128.399C128.191 244.064 127.988 243.991 127.833 243.852C127.678 243.713 127.584 243.518 127.572 243.31V243.222C127.584 243.014 127.678 242.82 127.833 242.68C127.988 242.541 128.191 242.469 128.399 242.48H152.39C152.598 242.469 152.801 242.541 152.956 242.68C153.111 242.82 153.205 243.014 153.217 243.222V243.31Z" fill="white"/>
<path d="M124.116 242.485H120.867C120.304 242.485 119.971 243.014 119.971 243.634V246.666C119.971 247.186 120.23 247.468 120.702 247.468H124.116C124.251 247.478 124.387 247.46 124.515 247.415C124.642 247.37 124.76 247.299 124.859 247.206C124.958 247.114 125.037 247.002 125.092 246.878C125.146 246.754 125.174 246.62 125.175 246.484V243.634C125.18 243.343 125.073 243.061 124.875 242.847C124.678 242.633 124.406 242.503 124.116 242.485V242.485Z" fill="white"/>
<path d="M153.217 247.918C153.205 248.126 153.111 248.321 152.956 248.46C152.801 248.599 152.598 248.671 152.39 248.661H128.399C128.191 248.671 127.988 248.599 127.833 248.46C127.678 248.321 127.584 248.126 127.572 247.918V247.83C127.584 247.622 127.678 247.427 127.833 247.288C127.988 247.149 128.191 247.077 128.399 247.087H152.39C152.598 247.077 152.801 247.149 152.956 247.288C153.111 247.427 153.205 247.622 153.217 247.83V247.918Z" fill="white"/>
<path d="M153.217 252.526C153.205 252.734 153.111 252.928 152.956 253.068C152.801 253.207 152.598 253.279 152.39 253.268H128.399C128.191 253.279 127.988 253.207 127.833 253.068C127.678 252.928 127.584 252.734 127.572 252.526V252.438C127.584 252.23 127.678 252.035 127.833 251.896C127.988 251.756 128.191 251.684 128.399 251.695H152.39C152.598 251.684 152.801 251.756 152.956 251.896C153.111 252.035 153.205 252.23 153.217 252.438V252.526Z" fill="white"/>
<path d="M114.065 242.086C114.065 240.568 113.228 239.337 112.195 239.337H77.303C76.2705 239.337 75.4336 240.568 75.4336 242.086V254.529C75.4336 256.047 76.2705 257.278 77.303 257.278H112.195C113.228 257.278 114.065 256.047 114.065 254.529L114.065 242.086Z" fill="#4D53E9"/>
<path d="M111.381 243.31C111.369 243.518 111.275 243.713 111.12 243.852C110.965 243.991 110.762 244.064 110.554 244.053H86.5633C86.3553 244.064 86.1516 243.991 85.9966 243.852C85.8417 243.713 85.7481 243.518 85.7363 243.31V243.222C85.7481 243.014 85.8417 242.82 85.9966 242.68C86.1516 242.541 86.3553 242.469 86.5633 242.48H110.554C110.762 242.469 110.965 242.541 111.12 242.68C111.275 242.82 111.369 243.014 111.381 243.222V243.31Z" fill="white"/>
<path d="M82.2799 242.485H79.031C78.4683 242.485 78.1348 243.014 78.1348 243.634V246.666C78.1348 247.186 78.3944 247.468 78.8658 247.468H82.2799C82.4151 247.478 82.5508 247.46 82.6786 247.415C82.8064 247.37 82.9236 247.299 83.0229 247.206C83.1222 247.114 83.2015 247.002 83.2558 246.878C83.3101 246.754 83.3383 246.62 83.3387 246.484V243.634C83.3438 243.343 83.2366 243.061 83.0394 242.847C82.8423 242.633 82.5702 242.503 82.2799 242.485V242.485Z" fill="white"/>
<path d="M111.381 247.918C111.369 248.126 111.275 248.321 111.12 248.46C110.965 248.599 110.762 248.671 110.554 248.661H86.5633C86.3553 248.671 86.1516 248.599 85.9966 248.46C85.8417 248.321 85.7481 248.126 85.7363 247.918V247.83C85.7481 247.622 85.8417 247.427 85.9966 247.288C86.1516 247.149 86.3553 247.077 86.5633 247.087H110.554C110.762 247.077 110.965 247.149 111.12 247.288C111.275 247.427 111.369 247.622 111.381 247.83V247.918Z" fill="white"/>
<path d="M111.381 252.526C111.369 252.734 111.275 252.928 111.12 253.068C110.965 253.207 110.762 253.279 110.554 253.268H86.5633C86.3553 253.279 86.1516 253.207 85.9966 253.068C85.8417 252.928 85.7481 252.734 85.7363 252.526V252.438C85.7481 252.23 85.8417 252.035 85.9966 251.896C86.1516 251.756 86.3553 251.684 86.5633 251.695H110.554C110.762 251.684 110.965 251.756 111.12 251.896C111.275 252.035 111.369 252.23 111.381 252.438V252.526Z" fill="white"/>
<path d="M155.901 263.972C155.901 262.454 155.064 261.223 154.031 261.223H119.139C118.106 261.223 117.27 262.454 117.27 263.972V276.415C117.27 277.933 118.106 279.164 119.139 279.164H154.031C155.064 279.164 155.901 277.933 155.901 276.415V263.972Z" fill="#8E95EF"/>
<path d="M153.217 265.197C153.205 265.404 153.111 265.599 152.956 265.738C152.801 265.878 152.598 265.95 152.39 265.939H128.399C128.191 265.95 127.988 265.878 127.833 265.738C127.678 265.599 127.584 265.404 127.572 265.197V265.108C127.584 264.9 127.678 264.706 127.833 264.567C127.988 264.427 128.191 264.355 128.399 264.366H152.39C152.598 264.355 152.801 264.427 152.956 264.567C153.111 264.706 153.205 264.9 153.217 265.108V265.197Z" fill="white"/>
<path d="M124.116 264.371H120.867C120.304 264.371 119.971 264.901 119.971 265.52V268.553C119.971 269.072 120.23 269.355 120.702 269.355H124.116C124.251 269.364 124.387 269.346 124.515 269.301C124.642 269.256 124.76 269.185 124.859 269.093C124.958 269 125.037 268.889 125.092 268.764C125.146 268.64 125.174 268.506 125.175 268.371V265.52C125.18 265.229 125.073 264.948 124.875 264.733C124.678 264.519 124.406 264.39 124.116 264.371Z" fill="white"/>
<path d="M153.217 269.804C153.205 270.012 153.111 270.207 152.956 270.346C152.801 270.485 152.598 270.557 152.39 270.547H128.399C128.191 270.557 127.988 270.485 127.833 270.346C127.678 270.207 127.584 270.012 127.572 269.804V269.716C127.584 269.508 127.678 269.313 127.833 269.174C127.988 269.035 128.191 268.963 128.399 268.973H152.39C152.598 268.963 152.801 269.035 152.956 269.174C153.111 269.313 153.205 269.508 153.217 269.716V269.804Z" fill="white"/>
<path d="M153.217 274.412C153.205 274.62 153.111 274.814 152.956 274.954C152.801 275.093 152.598 275.165 152.39 275.154H128.399C128.191 275.165 127.988 275.093 127.833 274.954C127.678 274.814 127.584 274.62 127.572 274.412V274.324C127.584 274.116 127.678 273.921 127.833 273.782C127.988 273.643 128.191 273.57 128.399 273.581H152.39C152.598 273.57 152.801 273.643 152.956 273.782C153.111 273.921 153.205 274.116 153.217 274.324V274.412Z" fill="white"/>
<path d="M114.065 263.972C114.065 262.454 113.228 261.223 112.195 261.223H77.303C76.2705 261.223 75.4336 262.454 75.4336 263.972V276.415C75.4336 277.933 76.2705 279.164 77.303 279.164H112.195C113.228 279.164 114.065 277.933 114.065 276.415L114.065 263.972Z" fill="#A2ABF4"/>
<path d="M111.381 265.197C111.369 265.404 111.275 265.599 111.12 265.738C110.965 265.878 110.762 265.95 110.554 265.939H86.5633C86.3553 265.95 86.1516 265.878 85.9966 265.738C85.8417 265.599 85.7481 265.404 85.7363 265.197V265.108C85.7481 264.9 85.8417 264.706 85.9966 264.567C86.1516 264.427 86.3553 264.355 86.5633 264.366H110.554C110.762 264.355 110.965 264.427 111.12 264.567C111.275 264.706 111.369 264.9 111.381 265.108V265.197Z" fill="white"/>
<path d="M82.2799 264.371H79.031C78.4683 264.371 78.1348 264.901 78.1348 265.52V268.553C78.1348 269.072 78.3944 269.355 78.8658 269.355H82.2799C82.4151 269.364 82.5508 269.346 82.6786 269.301C82.8064 269.256 82.9236 269.185 83.0229 269.093C83.1222 269 83.2015 268.889 83.2558 268.764C83.3101 268.64 83.3383 268.506 83.3387 268.371V265.52C83.3438 265.229 83.2366 264.948 83.0395 264.733C82.8423 264.519 82.5703 264.39 82.2799 264.371V264.371Z" fill="white"/>
<path d="M111.381 269.804C111.369 270.012 111.275 270.207 111.12 270.346C110.965 270.485 110.762 270.557 110.554 270.547H86.5633C86.3553 270.557 86.1516 270.485 85.9966 270.346C85.8417 270.207 85.7481 270.012 85.7363 269.804V269.716C85.7481 269.508 85.8417 269.313 85.9966 269.174C86.1516 269.035 86.3553 268.963 86.5633 268.973H110.554C110.762 268.963 110.965 269.035 111.12 269.174C111.275 269.313 111.369 269.508 111.381 269.716V269.804Z" fill="white"/>
<path d="M111.381 274.412C111.369 274.62 111.275 274.814 111.12 274.954C110.965 275.093 110.762 275.165 110.554 275.154H86.5633C86.3553 275.165 86.1516 275.093 85.9966 274.954C85.8417 274.814 85.7481 274.62 85.7363 274.412V274.324C85.7481 274.116 85.8417 273.921 85.9966 273.782C86.1516 273.643 86.3553 273.57 86.5633 273.581H110.554C110.762 273.57 110.965 273.643 111.12 273.782C111.275 273.921 111.369 274.116 111.381 274.324V274.412Z" fill="white"/>
<path d="M114.065 285.858C114.065 284.34 113.228 283.109 112.195 283.109H77.303C76.2705 283.109 75.4336 284.34 75.4336 285.858V298.301C75.4336 299.82 76.2705 301.051 77.303 301.051H112.195C113.228 301.051 114.065 299.82 114.065 298.301L114.065 285.858Z" fill="#8E95EF"/>
<path d="M111.381 287.083C111.369 287.291 111.275 287.485 111.12 287.625C110.965 287.764 110.762 287.836 110.554 287.825H86.5633C86.3553 287.836 86.1516 287.764 85.9966 287.625C85.8417 287.485 85.7481 287.291 85.7363 287.083V286.995C85.7481 286.787 85.8417 286.592 85.9966 286.453C86.1516 286.313 86.3553 286.241 86.5633 286.252H110.554C110.762 286.241 110.965 286.313 111.12 286.453C111.275 286.592 111.369 286.787 111.381 286.995V287.083Z" fill="white"/>
<path d="M82.2799 286.257H79.031C78.4683 286.257 78.1348 286.787 78.1348 287.406V290.439C78.1348 290.958 78.3944 291.241 78.8658 291.241H82.2799C82.4151 291.25 82.5508 291.232 82.6786 291.187C82.8064 291.142 82.9236 291.071 83.0229 290.979C83.1222 290.886 83.2015 290.775 83.2558 290.651C83.3101 290.526 83.3383 290.392 83.3387 290.257V287.406C83.3438 287.115 83.2366 286.834 83.0394 286.62C82.8423 286.406 82.5702 286.276 82.2799 286.257V286.257Z" fill="white"/>
<path d="M111.381 291.69C111.369 291.898 111.275 292.093 111.12 292.232C110.965 292.371 110.762 292.444 110.554 292.433H86.5633C86.3553 292.444 86.1516 292.371 85.9966 292.232C85.8417 292.093 85.7481 291.898 85.7363 291.69V291.602C85.7481 291.394 85.8417 291.199 85.9966 291.06C86.1516 290.921 86.3553 290.849 86.5633 290.86H110.554C110.762 290.849 110.965 290.921 111.12 291.06C111.275 291.199 111.369 291.394 111.381 291.602V291.69Z" fill="white"/>
<path d="M111.381 296.298C111.369 296.506 111.275 296.701 111.12 296.84C110.965 296.979 110.762 297.051 110.554 297.041H86.5633C86.3553 297.051 86.1516 296.979 85.9966 296.84C85.8417 296.701 85.7481 296.506 85.7363 296.298V296.21C85.7481 296.002 85.8417 295.807 85.9966 295.668C86.1516 295.529 86.3553 295.457 86.5633 295.467H110.554C110.762 295.457 110.965 295.529 111.12 295.668C111.275 295.807 111.369 296.002 111.381 296.21V296.298Z" fill="white"/>
<path d="M114.065 307.745C114.065 306.226 113.228 304.995 112.195 304.995H77.303C76.2705 304.995 75.4336 306.226 75.4336 307.745V320.187C75.4336 321.706 76.2705 322.937 77.303 322.937H112.195C113.228 322.937 114.065 321.706 114.065 320.187L114.065 307.745Z" fill="#4D53E9"/>
<path d="M111.381 308.969C111.369 309.177 111.275 309.372 111.12 309.511C110.965 309.65 110.762 309.722 110.554 309.711H86.5633C86.3553 309.722 86.1516 309.65 85.9966 309.511C85.8417 309.372 85.7481 309.177 85.7363 308.969V308.881C85.7481 308.673 85.8417 308.478 85.9966 308.339C86.1516 308.2 86.3553 308.128 86.5633 308.138H110.554C110.762 308.128 110.965 308.2 111.12 308.339C111.275 308.478 111.369 308.673 111.381 308.881V308.969Z" fill="white"/>
<path d="M82.2799 308.143H79.031C78.4683 308.143 78.1348 308.673 78.1348 309.293V312.325C78.1348 312.844 78.3944 313.127 78.8658 313.127H82.2799C82.4151 313.136 82.5508 313.118 82.6786 313.073C82.8064 313.028 82.9236 312.957 83.0229 312.865C83.1222 312.772 83.2015 312.661 83.2558 312.537C83.3101 312.412 83.3383 312.278 83.3387 312.143V309.293C83.3438 309.002 83.2366 308.72 83.0394 308.506C82.8423 308.292 82.5702 308.162 82.2799 308.143V308.143Z" fill="white"/>
<path d="M111.381 313.576C111.369 313.784 111.275 313.979 111.12 314.118C110.965 314.257 110.762 314.33 110.554 314.319H86.5633C86.3553 314.33 86.1516 314.257 85.9966 314.118C85.8417 313.979 85.7481 313.784 85.7363 313.576V313.488C85.7481 313.28 85.8417 313.086 85.9966 312.946C86.1516 312.807 86.3553 312.735 86.5633 312.746H110.554C110.762 312.735 110.965 312.807 111.12 312.946C111.275 313.086 111.369 313.28 111.381 313.488V313.576Z" fill="white"/>
<path d="M111.381 318.184C111.369 318.392 111.275 318.587 111.12 318.726C110.965 318.865 110.762 318.937 110.554 318.927H86.5633C86.3553 318.937 86.1516 318.865 85.9966 318.726C85.8417 318.587 85.7481 318.392 85.7363 318.184V318.096C85.7481 317.888 85.8417 317.693 85.9966 317.554C86.1516 317.415 86.3553 317.343 86.5633 317.353H110.554C110.762 317.343 110.965 317.415 111.12 317.554C111.275 317.693 111.369 317.888 111.381 318.096V318.184Z" fill="white"/>
<path d="M155.901 285.425C155.901 283.906 155.064 282.676 154.031 282.676H119.139C118.106 282.676 117.27 283.906 117.27 285.425V297.868C117.27 299.386 118.106 300.617 119.139 300.617H154.031C155.064 300.617 155.901 299.386 155.901 297.868V285.425Z" fill="#4D53E9"/>
<path d="M153.217 286.649C153.205 286.857 153.111 287.052 152.956 287.191C152.801 287.33 152.598 287.402 152.39 287.392H128.399C128.191 287.402 127.988 287.33 127.833 287.191C127.678 287.052 127.584 286.857 127.572 286.649V286.561C127.584 286.353 127.678 286.158 127.833 286.019C127.988 285.88 128.191 285.808 128.399 285.818H152.39C152.598 285.808 152.801 285.88 152.956 286.019C153.111 286.158 153.205 286.353 153.217 286.561V286.649Z" fill="white"/>
<path d="M124.116 285.824H120.867C120.304 285.824 119.971 286.353 119.971 286.973V290.005C119.971 290.524 120.23 290.807 120.702 290.807H124.116C124.251 290.817 124.387 290.798 124.515 290.753C124.642 290.708 124.76 290.637 124.859 290.545C124.958 290.453 125.037 290.341 125.092 290.217C125.146 290.093 125.174 289.959 125.175 289.823V286.973C125.18 286.682 125.073 286.4 124.875 286.186C124.678 285.972 124.406 285.842 124.116 285.824V285.824Z" fill="white"/>
<path d="M153.217 291.257C153.205 291.465 153.111 291.659 152.956 291.799C152.801 291.938 152.598 292.01 152.39 291.999H128.399C128.191 292.01 127.988 291.938 127.833 291.799C127.678 291.659 127.584 291.465 127.572 291.257V291.169C127.584 290.961 127.678 290.766 127.833 290.627C127.988 290.488 128.191 290.415 128.399 290.426H152.39C152.598 290.415 152.801 290.488 152.956 290.627C153.111 290.766 153.205 290.961 153.217 291.169V291.257Z" fill="white"/>
<path d="M153.217 295.864C153.205 296.072 153.111 296.267 152.956 296.406C152.801 296.545 152.598 296.618 152.39 296.607H128.399C128.191 296.618 127.988 296.545 127.833 296.406C127.678 296.267 127.584 296.072 127.572 295.864V295.776C127.584 295.568 127.678 295.374 127.833 295.234C127.988 295.095 128.191 295.023 128.399 295.034H152.39C152.598 295.023 152.801 295.095 152.956 295.234C153.111 295.374 153.205 295.568 153.217 295.776V295.864Z" fill="white"/>
<path d="M197.738 263.972C197.738 262.454 196.902 261.223 195.869 261.223H160.977C159.944 261.223 159.107 262.454 159.107 263.972V276.415C159.107 277.933 159.944 279.164 160.977 279.164H195.869C196.902 279.164 197.738 277.933 197.738 276.415V263.972Z" fill="#A2ABF4"/>
<path d="M195.055 265.197C195.043 265.404 194.949 265.599 194.794 265.738C194.639 265.878 194.436 265.95 194.228 265.939H170.237C170.029 265.95 169.825 265.878 169.67 265.738C169.516 265.599 169.422 265.404 169.41 265.197V265.108C169.422 264.9 169.516 264.706 169.67 264.567C169.825 264.427 170.029 264.355 170.237 264.366H194.228C194.436 264.355 194.639 264.427 194.794 264.567C194.949 264.706 195.043 264.9 195.055 265.108V265.197Z" fill="white"/>
<path d="M165.954 264.371H162.705C162.142 264.371 161.809 264.9 161.809 265.52V268.552C161.809 269.072 162.068 269.355 162.54 269.355H165.954C166.089 269.364 166.225 269.346 166.352 269.301C166.48 269.256 166.597 269.185 166.697 269.092C166.796 269 166.875 268.888 166.93 268.764C166.984 268.64 167.012 268.506 167.013 268.37V265.52C167.018 265.229 166.91 264.947 166.713 264.733C166.516 264.519 166.244 264.389 165.954 264.371Z" fill="white"/>
<path d="M166.944 265.044L166.25 264.423C166.227 264.402 166.2 264.386 166.171 264.377C166.141 264.367 166.11 264.364 166.08 264.367C166.049 264.371 166.019 264.381 165.992 264.397C165.965 264.413 165.942 264.435 165.924 264.46L164.126 266.897C164.105 266.928 164.078 266.954 164.046 266.974C164.014 266.993 163.978 267.006 163.941 267.01C163.904 267.015 163.867 267.012 163.831 267.001C163.795 266.991 163.762 266.973 163.734 266.948L163.246 266.537C163.223 266.517 163.195 266.502 163.166 266.494C163.136 266.485 163.105 266.483 163.075 266.487C163.044 266.492 163.014 266.503 162.988 266.52C162.961 266.537 162.939 266.559 162.921 266.585L162.378 267.367C162.34 267.422 162.324 267.489 162.332 267.556C162.339 267.621 162.371 267.682 162.421 267.725L163.786 268.875C163.837 268.918 163.895 268.95 163.959 268.969C164.022 268.988 164.089 268.994 164.155 268.985C164.221 268.977 164.284 268.954 164.341 268.92C164.397 268.885 164.446 268.839 164.483 268.784L166.977 265.403C167.016 265.349 167.034 265.283 167.028 265.217C167.022 265.151 166.992 265.089 166.944 265.044V265.044Z" fill="#1C8716"/>
<path d="M195.055 269.804C195.043 270.012 194.949 270.207 194.794 270.346C194.639 270.485 194.436 270.557 194.228 270.547H170.237C170.029 270.557 169.825 270.485 169.67 270.346C169.516 270.207 169.422 270.012 169.41 269.804V269.716C169.422 269.508 169.516 269.313 169.67 269.174C169.825 269.035 170.029 268.963 170.237 268.973H194.228C194.436 268.963 194.639 269.035 194.794 269.174C194.949 269.313 195.043 269.508 195.055 269.716V269.804Z" fill="white"/>
<path d="M195.055 274.412C195.043 274.62 194.949 274.814 194.794 274.954C194.639 275.093 194.436 275.165 194.228 275.154H170.237C170.029 275.165 169.825 275.093 169.67 274.954C169.516 274.814 169.422 274.62 169.41 274.412V274.324C169.422 274.116 169.516 273.921 169.67 273.782C169.825 273.643 170.029 273.57 170.237 273.581H194.228C194.436 273.57 194.639 273.643 194.794 273.782C194.949 273.921 195.043 274.116 195.055 274.324V274.412Z" fill="white"/>
<path d="M511.745 270.31H409.201C409.083 270.31 408.966 270.287 408.857 270.242C408.748 270.197 408.649 270.13 408.566 270.047C408.482 269.963 408.416 269.864 408.371 269.755C408.326 269.646 408.303 269.529 408.303 269.411V181.542C408.303 181.304 408.397 181.076 408.566 180.907C408.734 180.739 408.963 180.644 409.201 180.644C409.44 180.644 409.668 180.739 409.837 180.907C410.005 181.076 410.1 181.304 410.1 181.542V268.513H511.745C511.863 268.512 511.98 268.535 512.09 268.58C512.199 268.625 512.298 268.691 512.382 268.775C512.466 268.858 512.533 268.958 512.578 269.067C512.623 269.176 512.647 269.293 512.647 269.411C512.647 269.53 512.623 269.647 512.578 269.756C512.533 269.865 512.466 269.965 512.382 270.048C512.298 270.132 512.199 270.198 512.09 270.243C511.98 270.288 511.863 270.31 511.745 270.31V270.31Z" stroke="#D7DDFF" stroke-miterlimit="10"/>
<path d="M434.669 209.224C433.098 209.224 431.824 211.034 431.824 213.268V264.083H437.515V213.268C437.515 211.034 436.241 209.224 434.669 209.224Z" fill="#BEC6F4"/>
<path d="M425.984 192.682C424.413 192.682 423.139 194.493 423.139 196.726V264.083H428.829V196.726C428.829 194.493 427.555 192.682 425.984 192.682Z" fill="#4B51E5"/>
<path d="M418.498 222.349C416.926 222.349 415.652 224.159 415.652 226.392V264.083H421.343V226.392C421.343 224.159 420.069 222.349 418.498 222.349Z" fill="#8E95EF"/>
<path d="M464.023 209.224C462.452 209.224 461.178 211.034 461.178 213.268V264.083H466.869V213.268C466.869 211.034 465.594 209.224 464.023 209.224Z" fill="#BEC6F4"/>
<path d="M455.335 192.682C453.764 192.682 452.49 194.493 452.49 196.726V264.083H458.181V196.726C458.181 194.493 456.907 192.682 455.335 192.682Z" fill="#4B51E5"/>
<path d="M447.849 222.349C446.278 222.349 445.004 224.159 445.004 226.392V264.083H450.695V226.392C450.695 224.159 449.421 222.349 447.849 222.349Z" fill="#8E95EF"/>
<path d="M493.525 209.224C491.954 209.224 490.68 211.034 490.68 213.268V264.083H496.371V213.268C496.371 211.034 495.096 209.224 493.525 209.224Z" fill="#BEC6F4"/>
<path d="M484.837 192.682C483.266 192.682 481.992 194.493 481.992 196.726V264.083H487.683V196.726C487.683 194.493 486.409 192.682 484.837 192.682Z" fill="#4B51E5"/>
<path d="M477.351 222.349C475.78 222.349 474.506 224.159 474.506 226.392V264.083H480.197V226.392C480.197 224.159 478.923 222.349 477.351 222.349Z" fill="#8E95EF"/>
<path d="M501.912 222.349C500.341 222.349 499.066 224.159 499.066 226.392V264.083H504.757V226.392C504.757 224.159 503.483 222.349 501.912 222.349Z" fill="#8E95EF"/>
<path d="M545.106 263.36L512.621 263.36L521.273 231.54C518.432 230.742 515.496 230.336 512.545 230.336C503.866 230.38 495.559 233.87 489.453 240.038C483.347 246.206 479.941 254.547 479.985 263.227C479.985 263.272 479.987 263.314 479.987 263.36H479.985C480.052 271.951 483.513 280.167 489.612 286.219C495.711 292.27 503.954 295.665 512.546 295.665C521.137 295.665 529.38 292.27 535.479 286.218C541.578 280.167 545.039 271.951 545.106 263.36H545.106Z" fill="#4B51E5"/>
<path d="M525.304 228.347L516.52 260.157L549.099 260.157C549.129 252.989 546.823 246.006 542.529 240.266C538.235 234.526 532.188 230.342 525.304 228.347V228.347Z" fill="#BEC6F4"/>
</svg>
