<svg width="600" height="500" viewBox="0 0 600 500" fill="none" xmlns="http://www.w3.org/2000/svg">
<style>
#gas {
  opacity: 1;
  stroke: none;
  animation: gfadeinout 3s infinite;
}

#Vector_3 {
  stroke: none;
  animation: gfadeinout 3s infinite;
}

@keyframes gfadeinout {
  0% {
    opacity: 1;
    fill: #FF6E40;
  }
  50% {
    opacity: 1;
    fill: #D50000;
  }
  100% {
    opacity: 1;
    fill: #FF6E40;
  }
}

#Vector_2 {
  stroke: none;
  animation: g5fadeinout 3s infinite;
}

@keyframes g5fadeinout {
  0% {
    opacity: 1;
    fill: #FF8A65;
  }
  50% {
    opacity: 1;
    fill: #FF6E40;
  }
  100% {
    opacity: 1;
    fill: #FF8A65;
  }
}

#Vector {
  animation: g4fadeinout 3s infinite;
}

@keyframes g4fadeinout {
  0% {
    opacity: 1;
    fill: #FBE9E7;
  }
  50% {
    opacity: 1;
    fill: #FF8A65;
  }
  100% {
    opacity: 1;
    fill: #FFCCBC;
  }
}

#smallBubble, #bigBubbles {
  opacity: 1;
}

#sb1, #sb2, #bb1, #bb3 {
  animation: sb2fadeinout 2s infinite;
}

#sb3, #sb4, #bb2, #bb4 {
  animation: sb1fadeinout 2s infinite;
}

@keyframes sb1fadeinout {
  0% {
    opacity: 0;
  }
  50% {
    opacity: 1;
  }
  100% {
    opacity: 0;
  }
}

@keyframes sb2fadeinout {
  0% {
    opacity: 1;
  }
  50% {
    opacity: 0;
  }
  100% {
    opacity: 1;
  }
}

#c1, #c2, #c3 {
  animation: cloudshake 6s infinite;
}

@keyframes cloudshake {
  0% {
    opacity: 1;
    transform:  translate(0,0);
  }
  80% {
    opacity: 1;
  }
  97% {
    transform:  translate(-3em,0);
  }
  98% {
    opacity: 0;
  }
  99% {
    transform:  translate(0,0);
  }
  100% {
    opacity: 1;
  }
}

#kb1, #kb2, #kb3, # kb4 {
  opacity: 0;
}

#kb1 {
  animation: kb1action 4s infinite;
}

@keyframes kb1action {
  0% {
    opacity: 1;
  }
  25% {
    opacity: 0;
  }
  50% {
    opacity: 0;
  }
  100% {
    opacity: 0;
  }
}

#kb2 {
  animation: kb2action 4s infinite;
}

@keyframes kb2action {
  0% {
    opacity: 0;
  }
  50% {
    opacity: 1;
  }
  100% {
    opacity: 0;
  }
}

#kb3 {
  animation: kb3action 4s infinite;
}

@keyframes kb3action {
  0% {
    opacity: 0;
  }
  50% {
    opacity: 0;
  }
  75% {
    opacity: 1;
  }
  100% {
    opacity: 1;
  }
}

#kb4 {
  animation: kb4action 4s infinite;
}

@keyframes kb4action {
  0% {
    opacity: 1;
  }
  50% {
    opacity: 1;
  }
  75% {
    opacity: 0;
  }
  100% {
    opacity: 1;
  }
}



<!-- #mGas {
  opacity: 1;
  animation: mfadeinout 1s infinite;
}

@keyframes mfadeinout {
  0% {
    opacity: 1;
  }
  50% {
    opacity: 0.2;
  }
  100% {
    opacity: 1;
  }
} -->
</style>
<g id="Group 1139">
<g id="main illustration">
<g id="main illustration_2">
<g id="main illustration_02-01 2">
<g id="Group">
<g id="Layer 1">
<g id="clouds">
<path id="c3" d="M428 53.337L429.307 53.3342C429.362 51.637 430 50.0257 431.093 48.8234C432.186 47.6211 433.652 46.9167 435.199 46.8512C436.133 46.8611 437.051 47.1193 437.875 47.6038C438.698 48.0884 439.402 48.7847 439.927 49.6332C440.325 49.1309 440.816 48.7271 441.367 48.4484C441.918 48.1696 442.517 48.0224 443.123 48.0163C443.162 48.0163 443.198 48.0218 443.236 48.0228C443.454 46.0742 444.299 44.2752 445.618 42.9495C446.938 41.6239 448.645 40.8586 450.433 40.7915C451.396 40.7961 452.348 41.0179 453.23 41.443C454.112 41.8681 454.905 42.4875 455.559 43.2628C456.909 39.6784 459.182 36.6036 462.1 34.4145C465.018 32.2254 468.454 31.0169 471.988 30.9368C482.059 30.9155 490.243 40.5815 490.267 52.5262C490.268 52.754 490.261 52.9799 490.256 53.2058L493.445 53.1991C494.208 53.2627 494.921 53.6396 495.441 54.2547C495.962 54.8698 496.252 55.6777 496.254 56.5172C496.256 57.3566 495.969 58.1657 495.45 58.783C494.932 59.4003 494.221 59.7802 493.458 59.847L428.013 59.9849C427.25 59.9213 426.537 59.5443 426.017 58.9293C425.496 58.3142 425.206 57.5062 425.204 56.6668C425.202 55.8274 425.489 55.0182 426.008 54.401C426.526 53.7837 427.237 53.4037 428 53.337V53.337Z" stroke="#D7DDFF" stroke-miterlimit="10"/>
<path id="c2" d="M210.248 80.0687L208.25 80.0729C207.869 74.5389 203.964 70.1898 199.203 70.1999C197.775 70.2209 196.372 70.6216 195.117 71.3677C193.861 72.1137 192.789 73.1829 191.992 74.4834C191.38 73.718 190.628 73.1037 189.783 72.6811C188.939 72.2585 188.023 72.0373 187.095 72.032C187.037 72.0321 186.981 72.0409 186.923 72.0427C186.008 65.7834 181.413 61.0229 175.876 61.0346C174.404 61.0477 172.95 61.3928 171.604 62.0483C170.259 62.7039 169.051 63.6559 168.054 64.8453C163.54 53.7401 153.951 46.0845 142.864 46.1078C127.468 46.1402 115.016 60.9696 115.053 79.2302C115.053 79.5783 115.064 79.9236 115.074 80.2691L110.199 80.2794C109.033 80.3813 107.946 80.9621 107.153 81.9058C106.361 82.8494 105.922 84.0865 105.925 85.3698C105.927 86.6532 106.371 87.8884 107.167 88.8287C107.963 89.769 109.053 90.3452 110.22 90.4422L210.269 90.2315C211.434 90.1295 212.522 89.5487 213.315 88.6051C214.107 87.6614 214.546 86.4244 214.543 85.1411C214.54 83.8577 214.097 82.6226 213.301 81.6823C212.504 80.7419 211.414 80.1657 210.248 80.0687Z" stroke="#D7DDFF" stroke-miterlimit="10"/>
<path id="c1" d="M414.854 118.628L412.856 118.632C412.475 113.099 408.57 108.749 403.808 108.759C402.38 108.78 400.978 109.181 399.722 109.927C398.466 110.673 397.394 111.742 396.598 113.043C395.986 112.278 395.233 111.663 394.389 111.241C393.545 110.818 392.629 110.597 391.701 110.592C391.642 110.592 391.586 110.6 391.528 110.602C390.614 104.343 386.018 99.5825 380.482 99.5941C379.009 99.6073 377.555 99.9524 376.21 100.608C374.864 101.263 373.656 102.215 372.66 103.405C368.146 92.2997 358.556 84.644 347.47 84.6674C332.073 84.6998 319.621 99.5291 319.658 117.79C319.659 118.138 319.67 118.483 319.679 118.829L314.805 118.839C313.639 118.941 312.551 119.522 311.759 120.465C310.966 121.409 310.528 122.646 310.53 123.929C310.533 125.213 310.976 126.448 311.773 127.388C312.569 128.329 313.659 128.905 314.825 129.002L414.874 128.791C416.04 128.689 417.128 128.108 417.92 127.165C418.712 126.221 419.151 124.984 419.148 123.701C419.146 122.417 418.702 121.182 417.906 120.242C417.11 119.302 416.02 118.725 414.854 118.628V118.628Z" stroke="#D7DDFF" stroke-miterlimit="10"/>
</g>
<g id="Group_2">
<g id="gas">
<path id="Vector" opacity="0.2" d="M365.556 131.313C361.433 135.53 358.378 137.687 351.904 148.389C351.89 148.412 351.876 148.434 351.862 148.46L351.878 148.377C354.457 135.846 353.767 131.931 353.697 125.745C353.627 119.532 358.21 114.163 358.21 114.163L364.318 116.451L364.343 116.463L370.069 119.73C370.069 119.73 369.698 127.077 365.556 131.313Z" fill="#6E84E0"/>
<path id="Vector_2" opacity="0.2" d="M355.959 137.944C356.232 134.811 356.295 131.661 356.148 128.517C356.121 127.594 356.093 126.639 356.082 125.647C356.045 122.385 358.553 117.335 359.689 115.598L363.709 117.485L367.842 119.425C367.484 121.525 366.157 127.121 363.975 129.353C363.314 130.029 362.665 130.666 362.039 131.282C359.866 133.337 357.834 135.564 355.959 137.944Z" fill="#6E84E0"/>
<path id="Vector_3" opacity="0.2" d="M358.287 131.969C358.363 130.481 358.399 129.098 358.434 127.734L358.435 127.718C358.462 126.672 358.491 125.592 358.537 124.481C358.626 122.393 360.047 118.824 361.272 116.341L366.3 118.701C365.524 121.649 364.277 125.183 363.047 126.599C362.347 127.404 361.653 128.174 360.982 128.92L360.974 128.928C360.101 129.898 359.215 130.881 358.287 131.969Z" fill="#4053C1"/>
</g>
<g id="Group_3">
<g id="Group_4">
<g id="Group_5">
<path id="Vector_4" d="M361.482 97.3809C360.26 96.8014 358.927 96.5601 357.601 96.6783C355.112 96.9451 352.168 98.8362 351.15 105.8C350.682 109.596 349.737 113.302 348.342 116.813C348.229 117.075 348.041 117.289 347.806 117.422C347.572 117.554 347.303 117.598 347.044 117.546C346.784 117.494 346.547 117.35 346.37 117.135C346.192 116.92 346.085 116.647 346.064 116.358C345.593 110.122 345.199 97.6462 348.722 90.7326C351.064 86.1368 355.869 82.7621 360.197 80.5069C362.933 79.0866 365.773 77.9206 368.686 77.0212C366.103 82.4406 363.975 88.1074 362.33 93.9511L362.329 93.9546C362.294 94.0835 362.259 94.2125 362.226 94.3404C361.949 95.3714 361.703 96.3877 361.482 97.3809Z" fill="#4B51E5"/>
<path id="Vector_5" d="M361.481 97.3807C360.259 96.8012 358.927 96.56 357.6 96.6782C355.111 96.9449 352.167 98.8361 351.15 105.8C350.681 109.596 349.736 113.302 348.341 116.813C348.237 117.068 348.06 117.279 347.836 117.413C347.613 117.547 347.355 117.598 347.103 117.556C347.137 116.82 347.327 116.103 347.656 115.461C349.767 111.259 348.955 101.6 351.228 96.4178C351.891 94.8998 352.889 93.5874 354.132 92.5996C357.151 90.1961 359.206 86.6031 359.865 82.5735L360.196 80.5068C362.932 79.0864 365.772 77.9204 368.685 77.021C366.102 82.4405 363.974 88.1073 362.329 93.951L362.328 93.9545C362.293 94.0834 362.258 94.2123 362.225 94.3402C362.211 94.3899 362.197 94.4396 362.186 94.4882C362.142 94.6524 362.097 94.8166 362.057 94.9804C362.002 95.1909 361.947 95.4017 361.897 95.6136L361.873 95.7039C361.823 95.9108 361.773 96.1159 361.726 96.3201C361.64 96.6765 361.559 97.0308 361.481 97.3807Z" fill="#4B51E5"/>
</g>
<g id="Group_6">
<path id="Vector_6" d="M378.651 105.441C379.877 106.01 380.957 106.901 381.795 108.036C383.339 110.196 384.126 113.839 380.242 119.457C378.065 122.45 376.276 125.76 374.927 129.293C374.832 129.563 374.821 129.86 374.896 130.138C374.97 130.416 375.127 130.659 375.34 130.83C375.554 131 375.813 131.088 376.077 131.08C376.341 131.073 376.595 130.969 376.8 130.787C381.233 126.853 389.723 118.547 391.844 110.976C393.254 105.943 392.158 99.7975 390.655 94.8048C389.701 91.6523 388.507 88.5931 387.087 85.6593C385.302 91.4531 383.038 97.056 380.325 102.398L380.324 102.402C380.263 102.519 380.202 102.636 380.141 102.75C379.653 103.682 379.153 104.58 378.651 105.441Z" fill="#4B51E5"/>
<path id="Vector_7" d="M378.652 105.441C379.877 106.01 380.957 106.901 381.795 108.036C383.339 110.196 384.127 113.839 380.242 119.457C378.065 122.45 376.276 125.76 374.927 129.293C374.831 129.552 374.815 129.838 374.881 130.108C374.947 130.378 375.091 130.618 375.292 130.789C375.754 130.253 376.095 129.608 376.291 128.903C377.601 124.325 384.524 118.298 386.368 112.914C386.91 111.339 387.085 109.64 386.878 107.971C386.375 103.914 387.323 99.8019 389.522 96.4956L390.655 94.8048C389.701 91.6523 388.507 88.5931 387.088 85.6593C385.302 91.4531 383.038 97.056 380.325 102.398L380.324 102.402C380.263 102.519 380.202 102.636 380.141 102.75C380.118 102.795 380.094 102.841 380.07 102.883C379.993 103.032 379.915 103.18 379.835 103.325C379.734 103.514 379.633 103.703 379.528 103.89L379.485 103.971C379.384 104.154 379.283 104.335 379.181 104.514C379.006 104.828 378.829 105.137 378.652 105.441Z" fill="#4B51E5"/>
</g>
<g id="Group_7">
<path id="Vector_8" d="M371.94 117.562C370.741 119.467 370.036 120.569 370.036 120.569C367.179 120.36 364.393 119.49 361.863 118.016C360.356 117.125 358.953 116.035 357.686 114.771C357.686 114.771 357.942 113.356 358.397 110.938C360.541 99.5682 367.115 66.0332 372.331 53.4005C373.591 50.4309 375.265 47.6943 377.291 45.2886C377.917 44.5256 378.57 43.7935 379.241 43.0896C379.762 42.5443 380.295 42.0156 380.835 41.5047C385.288 37.4208 390.253 34.0605 395.578 31.5266C395.87 31.3872 396.185 31.3147 396.503 31.3136C396.822 31.3126 397.137 31.3829 397.43 31.5204C397.723 31.6579 397.987 31.8596 398.206 32.1131C398.426 32.3666 398.595 32.6666 398.705 32.9947C400.746 39.0634 401.966 45.4273 402.325 51.8836C402.355 52.616 402.368 53.3533 402.368 54.0938C402.366 55.1127 402.331 56.137 402.259 57.1621C402.064 60.3813 401.42 63.5485 400.349 66.5528C395.596 79.5134 377.823 108.215 371.94 117.562Z" fill="#4B51E5"/>
<path id="Vector_9" d="M371.939 117.562C370.74 119.467 370.036 120.569 370.036 120.569C367.178 120.36 364.393 119.49 361.863 118.016C360.355 117.125 358.952 116.035 357.685 114.771C357.685 114.771 357.942 113.356 358.397 110.938C360.062 113.097 362.185 114.776 364.579 115.827C366.905 116.929 369.406 117.519 371.939 117.562Z" fill="#4B51E5"/>
<path id="Vector_10" d="M402.258 57.1628C397.684 56.5016 393.202 55.2189 388.916 53.3444C384.737 51.2275 380.828 48.5192 377.29 45.2884C377.916 44.5254 378.569 43.7932 379.24 43.0906C382.521 46.075 386.139 48.582 390.005 50.5491C393.978 52.2797 398.13 53.4703 402.367 54.0944C402.365 55.1136 402.329 56.1364 402.258 57.1628Z" fill="#ACB1EF"/>
<path id="Vector_11" opacity="0.2" d="M361.863 118.016C360.356 117.125 358.953 116.036 357.686 114.771C357.686 114.771 366.006 68.7193 372.331 53.4008C373.591 50.4312 375.265 47.6946 377.291 45.2889C377.917 44.5259 378.57 43.7936 379.241 43.0899C379.762 42.5446 380.295 42.0159 380.835 41.505C385.288 37.4211 390.253 34.0607 395.578 31.5268C396.126 31.2639 396.745 31.2425 397.307 31.4672C392.636 36.1015 378.634 54.4091 361.863 118.016Z" fill="black"/>
</g>
<path id="Vector_12" d="M402.323 51.8825L402.318 51.881C400.313 51.5668 398.332 51.0971 396.388 50.4754C394.496 49.8702 392.64 49.1395 390.829 48.2873C387.165 46.6788 383.783 44.3834 380.835 41.5037C385.287 37.4198 390.251 34.0604 395.576 31.5288C395.868 31.3894 396.182 31.3169 396.501 31.3158C396.819 31.3148 397.134 31.3851 397.427 31.5225C397.719 31.6599 397.984 31.8615 398.203 32.1149C398.422 32.3683 398.591 32.6681 398.701 32.996C400.493 38.3527 401.663 43.9359 402.181 49.6133L402.183 49.6141C402.244 50.362 402.29 51.1182 402.323 51.8825Z" fill="#ACB1EF"/>
<g id="mGas">
<path id="Vector_13" d="M361.31 125.761C361.206 125.877 361.073 125.957 360.927 125.989C360.781 126.021 360.63 126.003 360.493 125.939C360.357 125.875 360.241 125.767 360.161 125.629C360.081 125.491 360.041 125.33 360.046 125.167C360.48 111.451 370.751 93.3964 375.189 86.2054C375.285 86.0498 375.427 85.9355 375.591 85.8824C375.755 85.8293 375.93 85.8407 376.088 85.9145C376.245 85.9883 376.374 86.12 376.452 86.2869C376.53 86.4538 376.553 86.6454 376.517 86.8287C374.845 95.3185 370.046 115.943 361.31 125.761Z" fill="#ACB1EF"/>
<path id="Vector_14" d="M376.088 85.9149L360.493 125.94C360.356 125.876 360.239 125.769 360.16 125.631C360.08 125.493 360.04 125.331 360.047 125.168C360.48 111.452 370.751 93.3968 375.189 86.2058C375.282 86.0472 375.424 85.9307 375.589 85.8773C375.754 85.8239 375.931 85.8372 376.088 85.9149V85.9149Z" fill="#ACB1EF"/>
</g>
<g id="Group_8">
<path id="Vector_15" d="M390.382 72.3709C392.145 67.8473 390.232 62.6113 386.109 60.6759C381.986 58.7406 377.215 60.8387 375.453 65.3622C373.69 69.8857 375.604 75.1217 379.726 77.0571C383.849 78.9925 388.62 76.8944 390.382 72.3709Z" fill="#4B51E5"/>
<path id="Vector_16" d="M388.822 71.6382C388.811 71.6664 388.799 71.6958 388.787 71.7233C388.108 73.4007 386.859 74.721 385.307 75.4039C383.754 76.0867 382.02 76.0781 380.473 75.38C380.446 75.3692 380.42 75.3566 380.394 75.3446C379.225 74.7967 378.231 73.8807 377.537 72.7126C376.842 71.5446 376.479 70.1768 376.493 68.7825C376.507 67.3881 376.898 66.0298 377.615 64.8793C378.333 63.7288 379.346 62.8378 380.525 62.3192C381.705 61.8005 382.998 61.6773 384.241 61.9654C385.485 62.2534 386.622 62.9396 387.511 63.9372C388.399 64.9348 388.997 66.1989 389.231 67.5697C389.464 68.9405 389.322 70.3564 388.822 71.6382Z" fill="white"/>
<path id="Vector_17" opacity="0.1" d="M389.286 69.7765C389.485 68.0892 389.122 66.3794 388.262 64.963C387.403 63.5465 386.105 62.5191 384.61 62.0704C383.114 61.6216 381.521 61.782 380.125 62.5217C378.728 63.2615 377.624 64.5307 377.014 66.095C376.944 66.2736 376.882 66.453 376.828 66.633C377.534 65.1761 378.683 64.0372 380.075 63.4147C381.467 62.7921 383.015 62.7255 384.448 63.2263C385.88 63.7271 387.108 64.7637 387.916 66.1553C388.724 67.547 389.062 69.2056 388.871 70.8421C388.818 71.2914 388.724 71.7337 388.592 72.1629C388.662 72.0206 388.726 71.8727 388.787 71.7233C388.799 71.6957 388.811 71.6663 388.822 71.6381C389.054 71.044 389.21 70.4176 389.286 69.7765V69.7765Z" fill="black"/>
</g>
</g>
<path id="Vector_18" d="M402.318 51.8809C400.313 51.5667 398.332 51.0969 396.388 50.4752C394.496 49.87 392.64 49.1393 390.829 48.2872C387.165 46.6787 383.783 44.3833 380.835 41.5036C385.287 37.4196 390.251 34.0602 395.576 31.5286C395.876 31.3834 396.201 31.31 396.529 31.3132C396.857 31.3165 397.18 31.3962 397.478 31.5472C397.478 31.5472 391.376 35.4458 390.281 40.9683C389 47.4287 402.017 51.776 402.318 51.8809Z" fill="#ACB1EF"/>
</g>
</g>
<path id="Vector_19" d="M295.24 490.169C426.286 489.893 532.498 478.873 532.471 465.555C532.444 452.237 426.189 441.664 295.143 441.94C164.097 442.216 57.885 453.236 57.9119 466.554C57.9387 479.872 164.194 490.445 295.24 490.169Z" fill="#F3F7FF"/>
<g id="Group_9">
<path id="Vector_20" d="M306.348 470.79L184.786 453.645L184.484 304.208L306.03 312.797L306.348 470.79Z" fill="#A2ABF4"/>
<path id="Vector_21" d="M306.348 470.79L405.545 453.179L405.244 303.743L306.03 312.797L306.348 470.79Z" fill="#8E95EF"/>
<g id="Vector_22" style="mix-blend-mode:overlay" opacity="0.15">
<path d="M306.043 319.45L184.484 304.208L184.529 326.246L306.076 335.782L405.289 325.781L405.244 303.744L306.043 319.45Z" fill="black"/>
</g>
<g id="Group_10">
<path id="Vector_23" d="M307.514 328.906L179.947 319.781L179.881 286.983L307.449 296.773L307.514 328.906Z" fill="#A2ABF4"/>
<path id="Vector_24" d="M178.429 286.92L303.186 285.152L409.075 286.434L305.997 296.71L178.429 286.92Z" fill="#B0BBF7"/>
<path id="Vector_25" d="M306.062 328.843L409.141 319.233L409.074 286.434L305.997 296.71L306.062 328.843Z" fill="#8E95EF"/>
</g>
</g>
<g id="Group_11">
<g id="Group_12">
<g id="Group_13">
<path id="Vector_26" d="M147.333 355.726C147.685 355.773 148.04 355.664 148.319 355.424C148.598 355.185 148.778 354.833 148.821 354.447C148.918 353.569 148.693 352.685 148.196 351.989C147.699 351.293 146.971 350.843 146.171 350.736L141.467 350.109L138.331 349.691L133.627 349.065C132.827 348.958 132.022 349.204 131.388 349.75C130.754 350.295 130.343 351.094 130.246 351.972C130.204 352.358 130.303 352.747 130.521 353.053C130.74 353.359 131.061 353.557 131.412 353.604C131.562 353.626 131.708 353.675 131.842 353.751L146.884 355.756C147.031 355.718 147.183 355.707 147.333 355.726V355.726Z" fill="#E1EDFF"/>
<path id="Vector_27" d="M146.884 355.756L131.842 353.751C132.064 353.872 132.251 354.058 132.381 354.289C132.512 354.52 132.581 354.786 132.581 355.058L145.881 356.831C145.94 356.567 146.065 356.326 146.243 356.136C146.42 355.946 146.642 355.814 146.884 355.756V355.756Z" fill="#E1EDFF"/>
<path id="Vector_28" d="M134.418 386.684C137.978 388.793 144.45 387.407 148.835 386.059C146.356 377.378 144.295 371.05 144.295 371.05L145.414 360.92L145.846 357.005C145.855 356.946 145.866 356.888 145.882 356.831L132.581 355.058C132.583 355.118 132.582 355.177 132.578 355.237L131.028 369.279C131.028 369.279 126.532 376.742 122.599 383.856C126.696 383.65 130.77 384.625 134.418 386.684V386.684Z" fill="#E1EDFF"/>
<path id="Vector_29" d="M155.172 409.758C154.755 406.987 154.108 404.264 153.237 401.623C152.733 399.722 150.404 391.653 149.792 389.449C149.468 388.285 149.15 387.154 148.836 386.059C144.451 387.407 137.978 388.793 134.419 386.684C130.771 384.624 126.696 383.649 122.6 383.856C120.441 387.761 118.294 391.674 116.201 395.621C112.538 402.528 107.501 411.917 117.915 414.541C127.534 416.821 137.324 418.125 147.16 418.439C150.169 418.491 153.512 417.323 154.736 413.943C155.183 412.606 155.333 411.171 155.172 409.758Z" fill="#4C52E6"/>
</g>
<path id="Vector_30" d="M133.912 391.255C134.276 391.303 134.619 391.469 134.898 391.732C135.176 391.995 135.378 392.342 135.476 392.73C135.575 393.118 135.567 393.529 135.452 393.912C135.338 394.295 135.123 394.632 134.834 394.88C134.545 395.129 134.195 395.278 133.829 395.308C133.463 395.338 133.097 395.249 132.777 395.051C132.457 394.853 132.198 394.556 132.032 394.196C131.866 393.837 131.802 393.431 131.846 393.031C131.875 392.766 131.952 392.509 132.071 392.276C132.191 392.043 132.351 391.838 132.543 391.673C132.735 391.508 132.955 391.387 133.19 391.315C133.424 391.243 133.67 391.223 133.912 391.255V391.255Z" fill="#8592FF"/>
<path id="Vector_31" d="M141.888 400.442C142.495 400.523 143.066 400.799 143.53 401.237C143.994 401.674 144.329 402.252 144.494 402.899C144.658 403.545 144.644 404.23 144.454 404.868C144.263 405.505 143.905 406.066 143.423 406.48C142.942 406.894 142.36 407.142 141.75 407.192C141.141 407.243 140.531 407.094 139.998 406.764C139.466 406.435 139.034 405.939 138.758 405.34C138.482 404.742 138.374 404.067 138.447 403.4C138.546 402.507 138.964 401.694 139.609 401.139C140.254 400.584 141.074 400.333 141.888 400.442V400.442Z" fill="#8592FF"/>
<path id="Vector_32" d="M121.643 398.679C122.22 398.678 122.686 398.164 122.685 397.531C122.684 396.898 122.215 396.386 121.638 396.387C121.061 396.388 120.595 396.902 120.596 397.535C120.597 398.168 121.066 398.68 121.643 398.679Z" fill="#8592FF"/>
<g id="smallBubble">
<path id="sb1" d="M143.172 338.011C143.378 338.038 143.571 338.131 143.727 338.279C143.884 338.427 143.997 338.622 144.053 338.841C144.108 339.059 144.104 339.291 144.039 339.506C143.975 339.721 143.854 339.911 143.691 340.051C143.529 340.191 143.332 340.274 143.126 340.291C142.92 340.308 142.714 340.258 142.534 340.147C142.354 340.035 142.208 339.868 142.115 339.666C142.022 339.463 141.985 339.235 142.01 339.01C142.026 338.861 142.07 338.716 142.137 338.585C142.204 338.454 142.294 338.339 142.402 338.246C142.51 338.153 142.634 338.085 142.766 338.044C142.898 338.004 143.036 337.992 143.172 338.011Z" fill="#8592FF"/>
<path id="sb2" d="M143.172 349.011C143.378 349.038 143.571 349.131 143.727 349.279C143.884 349.427 143.997 349.622 144.053 349.841C144.108 350.059 144.104 350.291 144.039 350.506C143.975 350.721 143.854 350.911 143.691 351.051C143.529 351.191 143.332 351.274 143.126 351.291C142.92 351.308 142.714 351.258 142.534 351.147C142.354 351.035 142.208 350.868 142.115 350.666C142.022 350.463 141.985 350.235 142.01 350.01C142.026 349.861 142.07 349.716 142.137 349.585C142.204 349.454 142.294 349.339 142.402 349.246C142.51 349.153 142.634 349.085 142.766 349.044C142.898 349.004 143.036 348.992 143.172 349.011Z" fill="#8592FF"/>
<path id="sb3" d="M143.174 363.011C143.379 363.038 143.573 363.131 143.729 363.279C143.886 363.427 143.999 363.622 144.055 363.841C144.11 364.059 144.106 364.291 144.041 364.506C143.977 364.721 143.856 364.911 143.693 365.051C143.531 365.191 143.334 365.274 143.128 365.291C142.922 365.308 142.716 365.258 142.536 365.147C142.356 365.035 142.21 364.868 142.117 364.666C142.024 364.463 141.987 364.235 142.012 364.01C142.028 363.861 142.071 363.716 142.139 363.585C142.206 363.454 142.296 363.339 142.404 363.246C142.512 363.153 142.636 363.085 142.768 363.044C142.9 363.004 143.038 362.992 143.174 363.011Z" fill="#8592FF"/>
<path id="sb4" d="M136.172 369.011C136.378 369.038 136.571 369.131 136.727 369.279C136.884 369.427 136.997 369.622 137.053 369.841C137.108 370.059 137.104 370.291 137.039 370.506C136.975 370.721 136.854 370.911 136.691 371.051C136.529 371.191 136.332 371.274 136.126 371.291C135.92 371.308 135.714 371.258 135.534 371.147C135.354 371.035 135.208 370.868 135.115 370.666C135.022 370.463 134.985 370.235 135.01 370.01C135.026 369.861 135.07 369.716 135.137 369.585C135.204 369.454 135.294 369.339 135.402 369.246C135.51 369.153 135.634 369.085 135.766 369.044C135.898 369.004 136.036 368.992 136.172 369.011Z" fill="#8592FF"/>
</g>
<path id="Vector_33" d="M131.481 377.771C131.686 377.798 131.879 377.892 132.036 378.039C132.193 378.187 132.306 378.382 132.361 378.601C132.417 378.819 132.412 379.051 132.348 379.266C132.283 379.481 132.162 379.671 132 379.811C131.837 379.951 131.64 380.034 131.434 380.051C131.229 380.069 131.023 380.018 130.843 379.907C130.663 379.796 130.517 379.628 130.423 379.426C130.33 379.224 130.294 378.996 130.318 378.77C130.352 378.469 130.493 378.194 130.711 378.006C130.929 377.819 131.206 377.734 131.481 377.771Z" fill="#8592FF"/>
<path id="Vector_34" d="M131.893 405.264C132.098 405.291 132.291 405.385 132.448 405.532C132.605 405.68 132.718 405.876 132.773 406.094C132.829 406.312 132.824 406.544 132.76 406.759C132.696 406.975 132.574 407.164 132.412 407.304C132.249 407.444 132.053 407.528 131.847 407.545C131.641 407.562 131.435 407.511 131.255 407.4C131.075 407.289 130.929 407.121 130.836 406.919C130.742 406.717 130.706 406.489 130.731 406.264C130.764 405.962 130.905 405.687 131.123 405.5C131.341 405.312 131.618 405.227 131.893 405.264V405.264Z" fill="#8592FF"/>
<g id="bigBubbles">
<path id="bb4" d="M137.957 384.08C138.983 384.077 139.812 383.163 139.81 382.038C139.808 380.912 138.974 380.002 137.949 380.004C136.923 380.006 136.094 380.92 136.096 382.046C136.098 383.171 136.931 384.082 137.957 384.08Z" fill="#7072FF"/>
<path id="bb3" d="M138.957 362.08C139.983 362.078 140.812 361.164 140.81 360.038C140.808 358.913 139.974 358.002 138.949 358.004C137.923 358.006 137.094 358.92 137.096 360.046C137.098 361.171 137.931 362.082 138.957 362.08Z" fill="#7072FF"/>
<path id="bb1" d="M139.203 334.019C139.572 334.068 139.92 334.237 140.202 334.503C140.484 334.769 140.688 335.121 140.788 335.514C140.888 335.907 140.88 336.324 140.764 336.712C140.648 337.1 140.43 337.441 140.137 337.693C139.844 337.945 139.49 338.095 139.119 338.126C138.748 338.157 138.377 338.066 138.053 337.866C137.729 337.665 137.467 337.364 137.299 336.999C137.131 336.635 137.065 336.224 137.11 335.819C137.139 335.55 137.217 335.29 137.338 335.054C137.46 334.818 137.622 334.61 137.816 334.443C138.011 334.276 138.233 334.153 138.471 334.08C138.709 334.007 138.958 333.986 139.203 334.019Z" stroke="#8592FF" stroke-miterlimit="10"/>
<path id="bb2" d="M139.203 344.019C139.572 344.068 139.92 344.237 140.202 344.503C140.484 344.769 140.688 345.121 140.788 345.514C140.888 345.907 140.88 346.324 140.764 346.712C140.648 347.1 140.43 347.441 140.137 347.693C139.844 347.945 139.49 348.095 139.119 348.126C138.748 348.157 138.377 348.066 138.053 347.866C137.729 347.665 137.467 347.364 137.299 346.999C137.131 346.635 137.065 346.224 137.11 345.819C137.139 345.55 137.217 345.29 137.338 345.054C137.46 344.818 137.622 344.61 137.816 344.443C138.011 344.276 138.233 344.153 138.471 344.08C138.709 344.007 138.958 343.986 139.203 344.019Z" stroke="#8592FF" stroke-miterlimit="10"/>
</g>
</g>
<path id="Vector_35" d="M151.583 406.732C151.583 406.732 154.744 416.233 145.358 415.779" stroke="#CAD8FD" stroke-width="1.44757" stroke-linecap="round" stroke-linejoin="round"/>
</g>
<g id="Group_14">
<path id="Vector_36" d="M320.582 214.816L283.651 214.894C281.366 214.899 279.518 216.935 279.523 219.443L279.588 251.831C279.593 254.339 281.45 256.368 283.735 256.363L320.666 256.285C322.951 256.281 324.799 254.244 324.794 251.736L324.729 219.348C324.724 216.84 322.867 214.811 320.582 214.816Z" fill="#4042E2"/>
<path id="Vector_37" d="M324.781 245.863L324.817 264.025C324.817 264.025 324.013 265.358 322.099 264.031L314.725 253.775L324.781 245.863Z" fill="#4042E2"/>
<path id="Vector_38" d="M297.588 226.029L290.096 235.637L297.625 244.254" stroke="#C1C4F4" stroke-width="3" stroke-miterlimit="10"/>
<path id="Vector_39" d="M307.211 244.233L314.703 234.625L307.174 226.008" stroke="#C1C4F4" stroke-width="3" stroke-miterlimit="10"/>
</g>
<g id="Group_15">
<path id="Vector_40" d="M376.648 363.827C377.972 363.147 379.363 362.632 380.792 362.292" stroke="#4345DE" stroke-width="2" stroke-miterlimit="10"/>
<path id="Vector_41" d="M462.85 450.238C464.298 450.01 465.722 449.62 467.098 449.075" stroke="#4345DE" stroke-width="2" stroke-miterlimit="10"/>
</g>
<g id="Group_16">
<path id="Vector_42" d="M447.346 297.522L447.624 435.539" stroke="#4D53E9" stroke-width="6" stroke-miterlimit="10"/>
<path id="Vector_43" d="M447.345 297.522C452.297 297.511 456.302 292.682 456.29 286.735C456.278 280.788 452.254 275.975 447.302 275.985C442.35 275.996 438.346 280.825 438.358 286.772C438.37 292.72 442.394 297.532 447.345 297.522Z" stroke="#4D53E9" stroke-width="6" stroke-miterlimit="10"/>
<g id="Group_17">
<path id="Vector_44" d="M448.388 408.569L483.332 380.505L483.289 359.445" stroke="#4D53E9" stroke-width="6" stroke-miterlimit="10"/>
<path id="Vector_45" d="M483.289 359.421C488.241 359.41 492.245 354.581 492.233 348.634C492.221 342.686 488.197 337.874 483.245 337.884C478.294 337.895 474.289 342.724 474.301 348.671C474.313 354.618 478.337 359.431 483.289 359.421Z" stroke="#4D53E9" stroke-width="6" stroke-miterlimit="10"/>
</g>
<path id="Vector_46" d="M447.664 455.513C452.616 455.502 456.62 450.673 456.608 444.726C456.596 438.778 452.572 433.966 447.62 433.976C442.669 433.987 438.664 438.816 438.676 444.763C438.688 450.711 442.712 455.523 447.664 455.513Z" stroke="#4D53E9" stroke-width="6" stroke-miterlimit="10"/>
<g id="Group_18">
<path id="Vector_47" d="M446.56 380.054L418.653 357.832L418.619 341.067" stroke="#4D53E9" stroke-width="6" stroke-miterlimit="10"/>
<path id="Vector_48" d="M418.617 341.048C422.559 341.039 425.747 337.195 425.738 332.461C425.728 327.726 422.525 323.895 418.583 323.903C414.641 323.912 411.453 327.756 411.463 332.491C411.472 337.225 414.675 341.056 418.617 341.048Z" stroke="#4D53E9" stroke-width="6" stroke-miterlimit="10"/>
</g>
<g id="Group_19">
<path id="Vector_49" d="M447.424 337.96L472.547 318.464L472.518 303.834" stroke="#4D53E9" stroke-width="6" stroke-miterlimit="10"/>
<path id="Vector_50" d="M472.519 303.818C476.079 303.81 478.958 300.455 478.95 296.324C478.941 292.193 476.049 288.85 472.489 288.857C468.929 288.865 466.05 292.22 466.058 296.351C466.066 300.482 468.959 303.825 472.519 303.818Z" stroke="#4D53E9" stroke-width="6" stroke-miterlimit="10"/>
</g>
</g>
</g>
</g>
<path id="thread" d="M321.559 240.026C321.559 240.026 364.828 202.014 410.92 201.427C410.92 201.427 455.131 197.51 477.708 220.829C500.284 244.148 482.225 278.046 482.225 278.046C475.077 290.978 455.323 292.741 443.471 302.734C431.619 312.727 428.609 326.051 434.066 335.457C434.066 335.457 448.929 351.525 455.89 358.972C462.851 366.418 475.457 389.736 475.457 389.736C482.231 433.041 434.068 408.35 434.068 408.35C399.263 389.929 405.2 388.944 364.834 358.968C364.834 358.968 317.946 338.928 275.333 381.949C232.72 424.97 199.433 429.725 122.872 401.951C122.872 401.951 67.3421 388.594 66.3951 338.277C65.4481 287.96 88.5002 257.158 88.5002 257.158C97.9091 234.79 151.299 193.971 151.299 193.971C163.527 185.546 177.519 175.945 208.302 172.811C239.085 169.677 242.354 178.495 291.832 180.652C291.832 180.652 329.459 184.181 355.796 139.506" stroke="#4C52E6" stroke-width="2" stroke-dasharray="5 5"/>
</g>
<g id="Group_20">
<path id="Vector_51" d="M331.876 345.598L377.575 340.461C377.575 340.461 378.514 367.492 388.736 382.632L344.033 385.315C344.033 385.315 332.16 371.285 331.876 345.598Z" fill="white"/>
<path id="Vector_52" d="M341.914 353.472L371.34 349.585" stroke="#4C52E6" stroke-width="2" stroke-miterlimit="10"/>
<path id="Vector_53" d="M343.248 361.333L372.674 357.446" stroke="#4C52E6" stroke-width="2" stroke-miterlimit="10"/>
<path id="Vector_54" d="M345.906 371.438L375.332 367.551" stroke="#4C52E6" stroke-width="2" stroke-miterlimit="10"/>
</g>
</g>
<g id="Group_21">
<path id="Vector_55" d="M248.543 352.987L247.24 352.99L247.39 425.224L248.693 425.221L248.543 352.987Z" fill="#4C52E6"/>
<path id="Vector_56" d="M247.909 361.589C249.366 361.586 250.546 360.576 250.544 359.332C250.541 358.089 249.357 357.084 247.899 357.087C246.442 357.09 245.262 358.1 245.264 359.343C245.267 360.586 246.451 361.592 247.909 361.589Z" fill="white"/>
<path id="Vector_57" d="M247.94 376.209C249.398 376.206 250.577 375.196 250.575 373.953C250.572 372.71 249.388 371.705 247.931 371.708C246.473 371.711 245.293 372.721 245.296 373.964C245.298 375.207 246.482 376.212 247.94 376.209Z" fill="white"/>
<g id="Group_22">
<path id="Vector_58" d="M297.961 352.005L257.518 352.088C256.359 352.09 255.422 352.893 255.424 353.881L255.446 364.494C255.448 365.482 256.389 366.281 257.547 366.278L297.99 366.196C299.149 366.193 300.086 365.39 300.084 364.403L300.062 353.789C300.06 352.801 299.12 352.002 297.961 352.005Z" fill="#4C52E6"/>
<path id="Vector_59" d="M252.669 359.193L255.859 360.755L255.853 357.617L252.669 359.193Z" fill="#4C52E6"/>
</g>
<g id="Group_23">
<path id="Vector_60" d="M237.582 366.884L197.139 366.967C195.98 366.97 195.043 367.772 195.045 368.76L195.067 379.373C195.069 380.361 196.01 381.16 197.168 381.158L237.611 381.075C238.77 381.073 239.708 380.27 239.706 379.282L239.684 368.669C239.682 367.681 238.741 366.882 237.582 366.884Z" fill="white"/>
<path id="Vector_61" d="M242.464 373.97L239.28 375.546L239.273 372.407L242.464 373.97Z" fill="white"/>
</g>
<g id="Group_24">
<path id="Vector_62" d="M298.023 382.106L257.58 382.189C256.422 382.191 255.484 382.994 255.486 383.982L255.508 394.595C255.51 395.583 256.451 396.382 257.61 396.38L298.053 396.297C299.211 396.295 300.149 395.492 300.147 394.504L300.125 383.891C300.123 382.903 299.182 382.104 298.023 382.106Z" fill="#4C52E6"/>
<path id="Vector_63" d="M252.732 389.294L255.922 390.857L255.915 387.718L252.732 389.294Z" fill="#4C52E6"/>
</g>
<g id="Group_25">
<path id="Vector_64" d="M237.648 397.846L197.205 397.929C196.047 397.931 195.109 398.734 195.111 399.722L195.133 410.335C195.135 411.323 196.076 412.122 197.235 412.12L237.678 412.037C238.836 412.034 239.774 411.231 239.772 410.244L239.75 399.63C239.748 398.642 238.807 397.844 237.648 397.846Z" fill="white"/>
<path id="Vector_65" d="M242.53 404.931L239.346 406.507L239.34 403.368L242.53 404.931Z" fill="white"/>
</g>
<path id="Vector_66" d="M247.975 392.12C249.433 392.117 250.613 391.107 250.61 389.864C250.607 388.621 249.424 387.616 247.966 387.619C246.508 387.622 245.328 388.632 245.331 389.875C245.333 391.118 246.517 392.123 247.975 392.12Z" fill="white"/>
<path id="Vector_67" d="M248.006 406.741C249.464 406.738 250.644 405.728 250.641 404.485C250.639 403.242 249.455 402.236 247.997 402.239C246.539 402.242 245.36 403.253 245.362 404.496C245.365 405.739 246.549 406.744 248.006 406.741Z" fill="white"/>
<path id="Vector_68" d="M248.034 420.932C249.491 420.929 250.671 419.919 250.669 418.676C250.666 417.433 249.482 416.427 248.024 416.43C246.567 416.433 245.387 417.443 245.389 418.687C245.392 419.93 246.576 420.935 248.034 420.932Z" fill="white"/>
<g id="Group_26">
<path id="Vector_69" d="M298.084 411.348L257.641 411.431C256.482 411.433 255.545 412.236 255.547 413.224L255.569 423.837C255.571 424.825 256.512 425.624 257.67 425.621L298.113 425.539C299.272 425.536 300.21 424.733 300.208 423.746L300.186 413.132C300.183 412.144 299.243 411.345 298.084 411.348Z" fill="#4C52E6"/>
<path id="Vector_70" d="M252.792 418.536L255.982 420.098L255.976 416.961L252.792 418.536Z" fill="#4C52E6"/>
</g>
<path id="Vector_71" d="M277.745 354.391L258.26 354.431L258.265 357.066L277.751 357.026L277.745 354.391Z" fill="white"/>
<path id="Vector_72" d="M271.534 358.905L258.271 358.932L258.274 360.25L271.537 360.222L271.534 358.905Z" fill="white"/>
<path id="Vector_73" d="M286.663 358.874L273.4 358.901L273.403 360.219L286.665 360.191L286.663 358.874Z" fill="white"/>
<path id="Vector_74" d="M276.68 361.905L258.275 361.942L258.278 363.26L276.683 363.222L276.68 361.905Z" fill="white"/>
<path id="Vector_75" d="M297.676 361.862L279.271 361.899L279.274 363.217L297.679 363.179L297.676 361.862Z" fill="white"/>
<path id="Vector_76" d="M277.39 384.543L257.904 384.583L257.91 387.218L277.395 387.178L277.39 384.543Z" fill="white"/>
<path id="Vector_77" d="M271.174 389.058L257.912 389.085L257.915 390.402L271.177 390.375L271.174 389.058Z" fill="white"/>
<path id="Vector_78" d="M286.305 389.027L273.043 389.054L273.046 390.371L286.308 390.344L286.305 389.027Z" fill="white"/>
<path id="Vector_79" d="M276.325 392.057L257.92 392.095L257.923 393.413L276.327 393.375L276.325 392.057Z" fill="white"/>
<path id="Vector_80" d="M297.321 392.014L278.916 392.052L278.919 393.37L297.324 393.332L297.321 392.014Z" fill="white"/>
<path id="Vector_81" d="M277.452 413.785L257.967 413.825L257.972 416.46L277.458 416.42L277.452 413.785Z" fill="white"/>
<path id="Vector_82" d="M271.235 418.299L257.973 418.326L257.975 419.644L271.238 419.617L271.235 418.299Z" fill="white"/>
<path id="Vector_83" d="M286.366 418.268L273.104 418.296L273.106 419.613L286.369 419.586L286.366 418.268Z" fill="white"/>
<path id="Vector_84" d="M276.387 421.299L257.982 421.337L257.985 422.654L276.39 422.616L276.387 421.299Z" fill="white"/>
<path id="Vector_85" d="M297.383 421.256L278.979 421.293L278.981 422.611L297.386 422.573L297.383 421.256Z" fill="white"/>
<path id="Vector_86" d="M216.839 369.617L197.354 369.657L197.359 372.292L216.845 372.252L216.839 369.617Z" fill="#4C52E6"/>
<path id="Vector_87" d="M210.624 374.131L197.361 374.158L197.364 375.476L210.626 375.449L210.624 374.131Z" fill="#4C52E6"/>
<path id="Vector_88" d="M225.754 374.1L212.492 374.127L212.495 375.445L225.757 375.418L225.754 374.1Z" fill="#4C52E6"/>
<path id="Vector_89" d="M215.774 377.131L197.369 377.168L197.372 378.486L215.777 378.448L215.774 377.131Z" fill="#4C52E6"/>
<path id="Vector_90" d="M236.77 377.088L218.365 377.125L218.368 378.443L236.773 378.405L236.77 377.088Z" fill="#4C52E6"/>
<path id="Vector_91" d="M216.902 400.578L197.416 400.618L197.421 403.253L216.907 403.213L216.902 400.578Z" fill="#4C52E6"/>
<path id="Vector_92" d="M210.688 405.092L197.426 405.12L197.429 406.437L210.691 406.41L210.688 405.092Z" fill="#4C52E6"/>
<path id="Vector_93" d="M225.819 405.062L212.557 405.089L212.559 406.407L225.822 406.379L225.819 405.062Z" fill="#4C52E6"/>
<path id="Vector_94" d="M215.838 408.092L197.434 408.13L197.436 409.448L215.841 409.41L215.838 408.092Z" fill="#4C52E6"/>
<path id="Vector_95" d="M236.834 408.049L218.43 408.087L218.432 409.404L236.837 409.367L236.834 408.049Z" fill="#4C52E6"/>
</g>
<g id="kb">
<g id="Group_27">
<path id="Vector_96" d="M184.001 230.393C183.998 229.056 183.132 227.974 182.066 227.977L146.04 228.05C144.974 228.053 144.112 229.138 144.114 230.475L144.137 241.429C144.14 242.766 145.006 243.848 146.072 243.846L182.099 243.772C183.165 243.77 184.027 242.684 184.024 241.347L184.001 230.393Z" fill="#4D53E9"/>
<path id="Vector_97" d="M181.231 231.477C181.22 231.66 181.123 231.831 180.964 231.954C180.804 232.077 180.594 232.141 180.379 232.132L155.609 232.183C155.394 232.193 155.183 232.13 155.023 232.007C154.863 231.885 154.766 231.714 154.753 231.531L154.753 231.453C154.765 231.27 154.861 231.098 155.021 230.976C155.181 230.853 155.391 230.789 155.606 230.798L180.376 230.747C180.591 230.737 180.801 230.8 180.962 230.922C181.122 231.045 181.219 231.216 181.231 231.399L181.231 231.477Z" fill="white"/>
<g id="Group_28">
<path id="Vector_98" d="M151.188 230.811L147.834 230.818C147.253 230.819 146.909 231.286 146.91 231.831L146.916 234.501C146.917 234.958 147.185 235.207 147.672 235.206L151.197 235.198C151.337 235.206 151.477 235.19 151.609 235.15C151.74 235.11 151.861 235.047 151.964 234.966C152.066 234.885 152.148 234.786 152.203 234.677C152.259 234.567 152.288 234.449 152.288 234.33L152.283 231.82C152.288 231.564 152.177 231.316 151.973 231.128C151.769 230.94 151.488 230.827 151.188 230.811Z" fill="white"/>
<path id="Vector_99" d="M152.212 231.402L151.494 230.857C151.471 230.839 151.443 230.825 151.413 230.816C151.382 230.808 151.35 230.805 151.319 230.808C151.287 230.812 151.256 230.821 151.228 230.835C151.2 230.849 151.176 230.868 151.158 230.89L149.306 233.04C149.284 233.067 149.256 233.09 149.223 233.107C149.191 233.124 149.154 233.135 149.116 233.14C149.077 233.144 149.039 233.141 149.002 233.132C148.965 233.123 148.931 233.107 148.901 233.086L148.397 232.725C148.373 232.707 148.345 232.694 148.314 232.687C148.284 232.679 148.251 232.677 148.22 232.681C148.188 232.685 148.157 232.695 148.13 232.71C148.103 232.725 148.08 232.744 148.062 232.767L147.502 233.457C147.463 233.506 147.447 233.565 147.455 233.623C147.463 233.681 147.496 233.734 147.547 233.772L148.959 234.782C149.011 234.82 149.072 234.848 149.137 234.864C149.203 234.881 149.272 234.885 149.34 234.878C149.408 234.87 149.473 234.85 149.531 234.82C149.59 234.789 149.64 234.748 149.678 234.7L152.247 231.718C152.287 231.671 152.306 231.612 152.299 231.554C152.293 231.496 152.262 231.442 152.212 231.402V231.402Z" fill="#1C8716"/>
</g>
<path id="Vector_100" d="M181.239 235.533C181.228 235.716 181.131 235.888 180.972 236.011C180.812 236.133 180.602 236.197 180.387 236.189L155.617 236.239C155.402 236.249 155.191 236.186 155.031 236.064C154.871 235.942 154.774 235.77 154.761 235.587L154.761 235.51C154.773 235.327 154.869 235.155 155.029 235.032C155.189 234.909 155.399 234.845 155.614 234.854L180.384 234.803C180.599 234.794 180.809 234.857 180.969 234.979C181.13 235.101 181.227 235.272 181.239 235.455L181.239 235.533Z" fill="white"/>
<path id="Vector_101" d="M181.249 239.589C181.237 239.772 181.141 239.944 180.981 240.067C180.822 240.19 180.611 240.254 180.397 240.245L155.626 240.296C155.412 240.305 155.201 240.242 155.041 240.12C154.881 239.998 154.784 239.827 154.771 239.644L154.771 239.566C154.783 239.383 154.879 239.211 155.039 239.088C155.198 238.966 155.409 238.902 155.623 238.911L180.394 238.86C180.608 238.85 180.819 238.913 180.979 239.035C181.139 239.157 181.236 239.329 181.249 239.512L181.249 239.589Z" fill="white"/>
</g>
<g id="Group_29">
<path id="Vector_102" d="M140.806 230.482C140.803 229.145 139.937 228.063 138.871 228.065L102.844 228.139C101.778 228.141 100.916 229.227 100.919 230.564L100.942 241.518C100.945 242.855 101.811 243.936 102.877 243.934L138.903 243.86C139.969 243.858 140.831 242.773 140.829 241.436L140.806 230.482Z" fill="#A2ABF4"/>
<path id="Vector_103" d="M138.036 231.565C138.024 231.748 137.928 231.92 137.768 232.043C137.609 232.166 137.398 232.23 137.184 232.221L112.413 232.272C112.199 232.281 111.988 232.218 111.828 232.096C111.668 231.974 111.571 231.803 111.558 231.619L111.558 231.542C111.57 231.359 111.666 231.187 111.826 231.064C111.986 230.941 112.196 230.877 112.411 230.886L137.181 230.836C137.396 230.826 137.606 230.889 137.766 231.011C137.926 231.133 138.023 231.305 138.036 231.488L138.036 231.565Z" fill="white"/>
<path id="Vector_104" d="M107.991 230.9L104.636 230.907C104.055 230.908 103.712 231.375 103.713 231.92L103.719 234.59C103.72 235.047 103.988 235.295 104.475 235.294L108 235.287C108.139 235.295 108.279 235.279 108.411 235.239C108.543 235.199 108.664 235.136 108.766 235.055C108.869 234.973 108.95 234.875 109.006 234.765C109.062 234.656 109.091 234.538 109.091 234.419L109.086 231.909C109.091 231.653 108.979 231.405 108.775 231.217C108.571 231.029 108.29 230.916 107.991 230.9V230.9Z" fill="white"/>
<path id="Vector_105" d="M138.044 235.622C138.032 235.805 137.936 235.976 137.776 236.099C137.616 236.222 137.406 236.286 137.191 236.277L112.421 236.328C112.206 236.338 111.996 236.275 111.836 236.152C111.675 236.03 111.579 235.859 111.566 235.676L111.566 235.598C111.578 235.415 111.674 235.244 111.834 235.121C111.993 234.998 112.204 234.934 112.418 234.943L137.189 234.892C137.403 234.882 137.614 234.945 137.774 235.068C137.934 235.19 138.031 235.361 138.044 235.544L138.044 235.622Z" fill="white"/>
<path id="Vector_106" d="M138.054 239.678C138.042 239.861 137.946 240.033 137.786 240.156C137.626 240.278 137.416 240.342 137.201 240.334L112.431 240.384C112.216 240.394 112.006 240.331 111.845 240.209C111.685 240.087 111.588 239.915 111.576 239.732L111.576 239.655C111.587 239.472 111.684 239.3 111.843 239.177C112.003 239.054 112.213 238.99 112.428 238.999L137.198 238.948C137.413 238.939 137.624 239.002 137.784 239.124C137.944 239.246 138.041 239.417 138.054 239.6L138.054 239.678Z" fill="white"/>
</g>
<g id="Group_30">
<path id="Vector_107" d="M97.6067 230.57C97.6039 229.233 96.7375 228.151 95.6715 228.154L59.645 228.227C58.579 228.23 57.7171 229.315 57.7199 230.652L57.7425 241.606C57.7453 242.943 58.6117 244.025 59.6777 244.023L95.7042 243.949C96.7702 243.947 97.6321 242.861 97.6293 241.524L97.6067 230.57Z" fill="#4D53E9"/>
<path id="Vector_108" d="M94.837 231.654C94.8252 231.837 94.7289 232.009 94.5692 232.131C94.4094 232.254 94.1992 232.318 93.9844 232.309L69.2142 232.36C68.9994 232.37 68.7889 232.307 68.6287 232.185C68.4685 232.062 68.3715 231.891 68.3589 231.708L68.3588 231.631C68.3706 231.447 68.4668 231.276 68.6266 231.153C68.7863 231.03 68.9965 230.966 69.2113 230.975L93.9816 230.924C94.1963 230.914 94.4068 230.978 94.567 231.1C94.7273 231.222 94.8243 231.393 94.8368 231.576L94.837 231.654Z" fill="white"/>
<path id="Vector_109" d="M64.7913 230.988L61.437 230.995C60.8561 230.996 60.5127 231.463 60.5138 232.009L60.5193 234.678C60.5203 235.136 60.7889 235.384 61.2755 235.383L64.8004 235.376C64.94 235.384 65.0801 235.368 65.212 235.328C65.3439 235.288 65.4648 235.225 65.5671 235.143C65.6695 235.062 65.7511 234.964 65.807 234.854C65.8629 234.745 65.8917 234.627 65.8919 234.507L65.8867 231.998C65.8914 231.742 65.7802 231.494 65.5762 231.306C65.3723 231.118 65.0912 231.004 64.7913 230.988V230.988Z" fill="white"/>
<path id="Vector_110" d="M94.8448 235.71C94.833 235.893 94.7367 236.065 94.577 236.188C94.4172 236.31 94.207 236.374 93.9923 236.366L69.222 236.416C69.0072 236.426 68.7968 236.363 68.6365 236.241C68.4763 236.119 68.3793 235.947 68.3668 235.764L68.3666 235.687C68.3784 235.504 68.4746 235.332 68.6344 235.209C68.7941 235.086 69.0043 235.022 69.2191 235.031L93.9894 234.98C94.2041 234.971 94.4146 235.034 94.5748 235.156C94.7351 235.278 94.8321 235.449 94.8446 235.632L94.8448 235.71Z" fill="white"/>
<path id="Vector_111" d="M94.8545 239.766C94.8428 239.949 94.7465 240.121 94.5868 240.244C94.427 240.367 94.2168 240.431 94.002 240.422L69.2317 240.473C69.017 240.482 68.8065 240.419 68.6463 240.297C68.486 240.175 68.389 240.004 68.3765 239.821L68.3764 239.743C68.3881 239.56 68.4844 239.388 68.6441 239.265C68.8039 239.143 69.0141 239.079 69.2289 239.088L93.9991 239.037C94.2139 239.027 94.4244 239.09 94.5846 239.212C94.7449 239.334 94.8418 239.506 94.8544 239.689L94.8545 239.766Z" fill="white"/>
</g>
<g id="Group_31">
<path id="Vector_112" d="M140.845 249.749C140.842 248.412 139.976 247.331 138.91 247.333L102.883 247.407C101.817 247.409 100.955 248.494 100.958 249.831L100.981 260.785C100.984 262.122 101.85 263.204 102.916 263.202L138.942 263.128C140.008 263.126 140.87 262.04 140.868 260.704L140.845 249.749Z" fill="#8E95EF"/>
<path id="Vector_113" d="M138.075 250.833C138.063 251.016 137.967 251.188 137.807 251.311C137.648 251.433 137.438 251.497 137.223 251.489L112.452 251.539C112.238 251.549 112.027 251.486 111.867 251.364C111.707 251.242 111.61 251.07 111.597 250.887L111.597 250.81C111.609 250.627 111.705 250.455 111.865 250.332C112.025 250.209 112.235 250.145 112.45 250.154L137.22 250.103C137.435 250.094 137.645 250.157 137.805 250.279C137.966 250.401 138.063 250.572 138.075 250.755L138.075 250.833Z" fill="white"/>
<path id="Vector_114" d="M108.03 250.167L104.675 250.174C104.094 250.176 103.751 250.643 103.752 251.188L103.758 253.858C103.759 254.315 104.027 254.563 104.514 254.562L108.039 254.555C108.178 254.563 108.318 254.547 108.45 254.507C108.582 254.467 108.703 254.404 108.805 254.323C108.908 254.241 108.989 254.143 109.045 254.033C109.101 253.924 109.13 253.806 109.13 253.687L109.125 251.177C109.13 250.921 109.019 250.673 108.815 250.485C108.611 250.297 108.329 250.183 108.03 250.167Z" fill="white"/>
<path id="Vector_115" d="M138.083 254.889C138.071 255.072 137.975 255.244 137.815 255.367C137.656 255.49 137.445 255.554 137.231 255.545L112.46 255.595C112.246 255.605 112.035 255.542 111.875 255.42C111.715 255.298 111.618 255.126 111.605 254.943L111.605 254.866C111.617 254.683 111.713 254.511 111.873 254.388C112.032 254.265 112.243 254.201 112.457 254.21L137.228 254.16C137.442 254.15 137.653 254.213 137.813 254.335C137.973 254.457 138.07 254.629 138.083 254.812L138.083 254.889Z" fill="white"/>
<path id="Vector_116" d="M138.093 258.946C138.081 259.129 137.985 259.301 137.825 259.423C137.665 259.546 137.455 259.61 137.24 259.601L112.47 259.652C112.255 259.662 112.045 259.599 111.885 259.477C111.724 259.354 111.627 259.183 111.615 259L111.615 258.923C111.626 258.739 111.723 258.568 111.882 258.445C112.042 258.322 112.252 258.258 112.467 258.267L137.237 258.216C137.452 258.206 137.663 258.27 137.823 258.392C137.983 258.514 138.08 258.685 138.093 258.868L138.093 258.946Z" fill="white"/>
</g>
<g id="Group_32">
<path id="Vector_117" d="M97.6477 249.838C97.6449 248.501 96.7785 247.419 95.7125 247.421L59.686 247.495C58.62 247.497 57.7581 248.583 57.7609 249.92L57.7836 260.874C57.7863 262.211 58.6527 263.293 59.7187 263.29L95.7452 263.217C96.8112 263.214 97.6731 262.129 97.6704 260.792L97.6477 249.838Z" fill="#A2ABF4"/>
<path id="Vector_118" d="M94.878 250.922C94.8662 251.105 94.7699 251.276 94.6102 251.399C94.4505 251.522 94.2402 251.586 94.0255 251.577L69.2552 251.628C69.0404 251.638 68.83 251.575 68.6697 251.452C68.5095 251.33 68.4125 251.159 68.4 250.976L68.3998 250.898C68.4116 250.715 68.5078 250.544 68.6676 250.421C68.8273 250.298 69.0375 250.234 69.2523 250.243L94.0226 250.192C94.2373 250.182 94.4478 250.245 94.6081 250.368C94.7683 250.49 94.8653 250.661 94.8778 250.844L94.878 250.922Z" fill="white"/>
<path id="Vector_119" d="M64.8324 250.256L61.478 250.263C60.8971 250.264 60.5537 250.731 60.5548 251.276L60.5604 253.946C60.5613 254.403 60.8299 254.652 61.3165 254.651L64.8414 254.643C64.9811 254.652 65.1212 254.635 65.2531 254.595C65.385 254.555 65.5058 254.493 65.6082 254.411C65.7105 254.33 65.7921 254.231 65.848 254.122C65.9039 254.012 65.9328 253.894 65.9329 253.775L65.9277 251.266C65.9324 251.009 65.8213 250.762 65.6173 250.574C65.4133 250.386 65.1322 250.272 64.8324 250.256V250.256Z" fill="white"/>
<path id="Vector_120" d="M94.8858 254.978C94.874 255.161 94.7777 255.333 94.618 255.455C94.4583 255.578 94.248 255.642 94.0333 255.633L69.263 255.684C69.0483 255.694 68.8378 255.631 68.6775 255.509C68.5173 255.386 68.4203 255.215 68.4078 255.032L68.4076 254.955C68.4194 254.771 68.5157 254.6 68.6754 254.477C68.8351 254.354 69.0453 254.29 69.2601 254.299L94.0304 254.248C94.2451 254.238 94.4556 254.302 94.6159 254.424C94.7761 254.546 94.8731 254.717 94.8856 254.9L94.8858 254.978Z" fill="white"/>
<path id="Vector_121" d="M94.8956 259.034C94.8838 259.217 94.7875 259.389 94.6278 259.512C94.468 259.635 94.2578 259.699 94.043 259.69L69.2728 259.741C69.058 259.75 68.8475 259.687 68.6873 259.565C68.527 259.443 68.4301 259.271 68.4175 259.088L68.4174 259.011C68.4291 258.828 68.5254 258.656 68.6852 258.533C68.8449 258.41 69.0551 258.346 69.2699 258.355L94.0402 258.305C94.2549 258.295 94.4654 258.358 94.6256 258.48C94.7859 258.602 94.8829 258.774 94.8954 258.957L94.8956 259.034Z" fill="white"/>
</g>
<g id="kb4">
<path id="Vector_122" d="M97.6887 269.106C97.6859 267.769 96.8195 266.687 95.7535 266.69L59.727 266.763C58.661 266.766 57.7991 267.851 57.8019 269.188L57.8246 280.142C57.8273 281.479 58.6937 282.561 59.7597 282.558L95.7862 282.485C96.8522 282.482 97.7141 281.397 97.7114 280.06L97.6887 269.106Z" fill="#8E95EF"/>
<path id="Vector_123" d="M94.919 270.189C94.9072 270.373 94.8109 270.544 94.6512 270.667C94.4915 270.79 94.2812 270.854 94.0665 270.845L69.2962 270.896C69.0815 270.906 68.871 270.842 68.7107 270.72C68.5505 270.598 68.4535 270.427 68.441 270.244L68.4408 270.166C68.4526 269.983 68.5489 269.811 68.7086 269.689C68.8683 269.566 69.0786 269.502 69.2933 269.511L94.0636 269.46C94.2783 269.45 94.4888 269.513 94.6491 269.635C94.8093 269.758 94.9063 269.929 94.9188 270.112L94.919 270.189Z" fill="white"/>
<path id="Vector_124" d="M64.8734 269.524L61.5191 269.531C60.9381 269.532 60.5947 269.999 60.5958 270.545L60.6014 273.214C60.6023 273.671 60.8709 273.92 61.3576 273.919L64.8825 273.911C65.0221 273.92 65.1622 273.903 65.2941 273.863C65.426 273.823 65.5468 273.761 65.6492 273.679C65.7515 273.598 65.8332 273.499 65.889 273.39C65.9449 273.28 65.9738 273.162 65.9739 273.043L65.9687 270.534C65.9734 270.277 65.8622 270.03 65.6583 269.842C65.4543 269.654 65.1732 269.54 64.8734 269.524V269.524Z" fill="white"/>
<path id="Vector_125" d="M94.9268 274.246C94.915 274.429 94.8188 274.601 94.659 274.723C94.4993 274.846 94.2891 274.91 94.0743 274.901L69.304 274.952C69.0893 274.962 68.8788 274.899 68.7185 274.777C68.5583 274.654 68.4613 274.483 68.4488 274.3L68.4486 274.223C68.4604 274.039 68.5567 273.868 68.7164 273.745C68.8761 273.622 69.0864 273.558 69.3011 273.567L94.0714 273.516C94.2861 273.506 94.4966 273.57 94.6569 273.692C94.8171 273.814 94.9141 273.985 94.9266 274.168L94.9268 274.246Z" fill="white"/>
<path id="Vector_126" d="M94.9366 278.302C94.9248 278.485 94.8285 278.657 94.6688 278.78C94.509 278.903 94.2988 278.967 94.084 278.958L69.3138 279.009C69.099 279.018 68.8886 278.955 68.7283 278.833C68.5681 278.711 68.4711 278.54 68.4585 278.357L68.4584 278.279C68.4702 278.096 68.5664 277.924 68.7262 277.801C68.8859 277.679 69.0961 277.615 69.3109 277.623L94.0812 277.573C94.2959 277.563 94.5064 277.626 94.6666 277.748C94.8269 277.87 94.9239 278.042 94.9364 278.225L94.9366 278.302Z" fill="white"/>
</g>
<g id="kb1">
<path id="Vector_127" d="M97.7278 288.374C97.725 287.037 96.8586 285.956 95.7926 285.958L59.7661 286.032C58.7001 286.034 57.8382 287.119 57.841 288.456L57.8636 299.41C57.8664 300.747 58.7328 301.829 59.7988 301.827L95.8253 301.753C96.8913 301.751 97.7532 300.665 97.7504 299.329L97.7278 288.374Z" fill="#4D53E9"/>
<path id="Vector_128" d="M94.9581 289.458C94.9463 289.641 94.85 289.813 94.6903 289.935C94.5305 290.058 94.3203 290.122 94.1055 290.113L69.3353 290.164C69.1205 290.174 68.91 290.111 68.7498 289.989C68.5895 289.866 68.4926 289.695 68.48 289.512L68.4799 289.434C68.4916 289.251 68.5879 289.08 68.7477 288.957C68.9074 288.834 69.1176 288.77 69.3324 288.779L94.1027 288.728C94.3174 288.718 94.5279 288.782 94.6881 288.904C94.8484 289.026 94.9454 289.197 94.9579 289.38L94.9581 289.458Z" fill="white"/>
<path id="Vector_129" d="M64.9124 288.792L61.5581 288.799C60.9772 288.8 60.6338 289.267 60.6349 289.813L60.6404 292.482C60.6414 292.939 60.91 293.188 61.3966 293.187L64.9215 293.18C65.0611 293.188 65.2012 293.171 65.3331 293.132C65.465 293.092 65.5859 293.029 65.6882 292.947C65.7906 292.866 65.8722 292.767 65.9281 292.658C65.9839 292.549 66.0128 292.431 66.013 292.311L66.0078 289.802C66.0125 289.546 65.9013 289.298 65.6973 289.11C65.4934 288.922 65.2123 288.808 64.9124 288.792V288.792Z" fill="white"/>
<path id="Vector_130" d="M94.9659 293.514C94.9541 293.697 94.8578 293.869 94.6981 293.992C94.5383 294.114 94.3281 294.178 94.1133 294.169L69.3431 294.22C69.1283 294.23 68.9179 294.167 68.7576 294.045C68.5974 293.923 68.5004 293.751 68.4878 293.568L68.4877 293.491C68.4995 293.308 68.5957 293.136 68.7555 293.013C68.9152 292.89 69.1254 292.826 69.3402 292.835L94.1105 292.784C94.3252 292.775 94.5357 292.838 94.6959 292.96C94.8562 293.082 94.9532 293.253 94.9657 293.436L94.9659 293.514Z" fill="white"/>
<path id="Vector_131" d="M94.9756 297.571C94.9639 297.754 94.8676 297.925 94.7078 298.048C94.5481 298.171 94.3379 298.235 94.1231 298.226L69.3528 298.277C69.1381 298.287 68.9276 298.224 68.7674 298.101C68.6071 297.979 68.5101 297.808 68.4976 297.625L68.4974 297.547C68.5092 297.364 68.6055 297.192 68.7652 297.07C68.925 296.947 69.1352 296.883 69.35 296.892L94.1202 296.841C94.335 296.831 94.5455 296.894 94.7057 297.016C94.866 297.139 94.9629 297.31 94.9755 297.493L94.9756 297.571Z" fill="white"/>
</g>
<g id="kb2">
<path id="Vector_132" d="M140.884 268.636C140.881 267.299 140.015 266.217 138.949 266.219L102.922 266.293C101.856 266.295 100.994 267.381 100.997 268.718L101.02 279.672C101.023 281.009 101.889 282.09 102.955 282.088L138.982 282.014C140.047 282.012 140.909 280.927 140.907 279.59L140.884 268.636Z" fill="#4D53E9"/>
<path id="Vector_133" d="M138.114 269.719C138.103 269.902 138.006 270.074 137.847 270.197C137.687 270.32 137.477 270.384 137.262 270.375L112.492 270.426C112.277 270.435 112.066 270.372 111.906 270.25C111.746 270.128 111.649 269.957 111.636 269.774L111.636 269.696C111.648 269.513 111.744 269.341 111.904 269.218C112.064 269.095 112.274 269.032 112.489 269.04L137.259 268.99C137.474 268.98 137.684 269.043 137.844 269.165C138.005 269.287 138.102 269.459 138.114 269.642L138.114 269.719Z" fill="white"/>
<path id="Vector_134" d="M108.069 269.054L104.714 269.061C104.133 269.062 103.79 269.529 103.791 270.074L103.797 272.744C103.798 273.201 104.066 273.449 104.553 273.448L108.078 273.441C108.217 273.449 108.357 273.433 108.489 273.393C108.621 273.353 108.742 273.29 108.844 273.209C108.947 273.127 109.028 273.029 109.084 272.919C109.14 272.81 109.169 272.692 109.169 272.573L109.164 270.063C109.169 269.807 109.058 269.559 108.854 269.371C108.65 269.183 108.369 269.07 108.069 269.054V269.054Z" fill="white"/>
<path id="Vector_135" d="M138.122 273.776C138.11 273.959 138.014 274.13 137.854 274.253C137.695 274.376 137.484 274.44 137.27 274.431L112.499 274.482C112.285 274.492 112.074 274.429 111.914 274.306C111.754 274.184 111.657 274.013 111.644 273.83L111.644 273.752C111.656 273.569 111.752 273.398 111.912 273.275C112.071 273.152 112.282 273.088 112.496 273.097L137.267 273.046C137.481 273.036 137.692 273.099 137.852 273.222C138.012 273.344 138.109 273.515 138.122 273.698L138.122 273.776Z" fill="white"/>
<path id="Vector_136" d="M138.132 277.832C138.12 278.015 138.024 278.187 137.864 278.31C137.704 278.432 137.494 278.496 137.279 278.488L112.509 278.538C112.294 278.548 112.084 278.485 111.924 278.363C111.763 278.241 111.666 278.069 111.654 277.886L111.654 277.809C111.665 277.626 111.762 277.454 111.921 277.331C112.081 277.208 112.291 277.144 112.506 277.153L137.276 277.102C137.491 277.093 137.702 277.156 137.862 277.278C138.022 277.4 138.119 277.571 138.132 277.754L138.132 277.832Z" fill="white"/>
</g>
<g id="kb3">
<path id="Vector_137" d="M184.04 249.661C184.037 248.324 183.171 247.242 182.105 247.244L146.079 247.318C145.013 247.32 144.151 248.406 144.153 249.743L144.176 260.697C144.179 262.034 145.045 263.116 146.111 263.113L182.138 263.04C183.204 263.037 184.066 261.952 184.063 260.615L184.04 249.661Z" fill="#A2ABF4"/>
<path id="Vector_138" d="M181.271 250.745C181.259 250.928 181.163 251.099 181.003 251.222C180.843 251.345 180.633 251.409 180.418 251.4L155.648 251.451C155.433 251.461 155.223 251.398 155.062 251.275C154.902 251.153 154.805 250.982 154.793 250.799L154.792 250.721C154.804 250.538 154.9 250.367 155.06 250.244C155.22 250.121 155.43 250.057 155.645 250.066L180.415 250.015C180.63 250.005 180.84 250.068 181.001 250.191C181.161 250.313 181.258 250.484 181.27 250.667L181.271 250.745Z" fill="white"/>
<g id="Group_33">
<path id="Vector_139" d="M151.225 250.079L147.871 250.086C147.29 250.087 146.946 250.554 146.947 251.1L146.953 253.77C146.954 254.227 147.222 254.475 147.709 254.474L151.234 254.467C151.374 254.475 151.514 254.459 151.646 254.419C151.778 254.379 151.898 254.316 152.001 254.235C152.103 254.153 152.185 254.055 152.241 253.945C152.296 253.836 152.325 253.718 152.325 253.598L152.32 251.089C152.325 250.833 152.214 250.585 152.01 250.397C151.806 250.209 151.525 250.095 151.225 250.079Z" fill="white"/>
<path id="Vector_140" d="M152.249 250.67L151.531 250.125C151.508 250.107 151.48 250.093 151.45 250.085C151.419 250.076 151.387 250.073 151.356 250.076C151.324 250.08 151.293 250.089 151.265 250.103C151.238 250.117 151.214 250.136 151.195 250.159L149.343 252.308C149.322 252.335 149.293 252.358 149.26 252.375C149.228 252.393 149.191 252.404 149.153 252.408C149.115 252.412 149.076 252.41 149.039 252.4C149.002 252.391 148.968 252.375 148.938 252.354L148.434 251.993C148.41 251.975 148.382 251.962 148.351 251.955C148.321 251.947 148.289 251.945 148.257 251.949C148.225 251.954 148.195 251.964 148.167 251.978C148.14 251.993 148.117 252.013 148.099 252.036L147.539 252.725C147.5 252.774 147.484 252.833 147.492 252.892C147.5 252.949 147.533 253.002 147.584 253.04L148.996 254.05C149.048 254.088 149.109 254.116 149.174 254.133C149.24 254.149 149.309 254.154 149.377 254.146C149.445 254.138 149.51 254.119 149.568 254.088C149.627 254.057 149.677 254.017 149.716 253.969L152.284 250.986C152.325 250.939 152.343 250.881 152.337 250.823C152.33 250.764 152.299 250.71 152.249 250.67V250.67Z" fill="#1C8716"/>
</g>
<path id="Vector_141" d="M181.278 254.801C181.267 254.984 181.17 255.156 181.011 255.279C180.851 255.401 180.641 255.465 180.426 255.457L155.656 255.507C155.441 255.517 155.23 255.454 155.07 255.332C154.91 255.21 154.813 255.038 154.8 254.855L154.8 254.778C154.812 254.595 154.908 254.423 155.068 254.3C155.228 254.177 155.438 254.113 155.653 254.122L180.423 254.071C180.638 254.062 180.848 254.125 181.008 254.247C181.169 254.369 181.266 254.54 181.278 254.723L181.278 254.801Z" fill="white"/>
<path id="Vector_142" d="M181.288 258.857C181.276 259.041 181.18 259.212 181.02 259.335C180.861 259.458 180.65 259.522 180.436 259.513L155.665 259.564C155.451 259.574 155.24 259.51 155.08 259.388C154.92 259.266 154.823 259.095 154.81 258.912L154.81 258.834C154.822 258.651 154.918 258.479 155.078 258.357C155.237 258.234 155.448 258.17 155.662 258.179L180.433 258.128C180.647 258.118 180.858 258.181 181.018 258.303C181.178 258.426 181.275 258.597 181.288 258.78L181.288 258.857Z" fill="white"/>
</g>
</g>
<g id="Group_34">
<g id="Group_35">
<path id="Vector_143" d="M489.702 243.945L395.017 244.139C394.908 244.139 394.8 244.118 394.699 244.077C394.598 244.036 394.507 243.976 394.43 243.9C394.352 243.824 394.291 243.734 394.249 243.634C394.207 243.535 394.186 243.428 394.185 243.321L394.019 163.108C394.019 162.89 394.106 162.681 394.261 162.527C394.416 162.373 394.627 162.286 394.847 162.286C395.067 162.285 395.279 162.371 395.434 162.525C395.59 162.678 395.678 162.887 395.679 163.104L395.843 242.497L489.699 242.305C489.808 242.304 489.917 242.325 490.018 242.365C490.119 242.406 490.211 242.466 490.288 242.542C490.366 242.619 490.427 242.709 490.469 242.809C490.512 242.908 490.533 243.015 490.534 243.123C490.534 243.231 490.512 243.338 490.471 243.438C490.429 243.538 490.368 243.628 490.291 243.705C490.213 243.781 490.122 243.842 490.021 243.883C489.92 243.924 489.812 243.945 489.702 243.945V243.945Z" stroke="#D7DDFF" stroke-miterlimit="10"/>
<path id="Vector_144" d="M418.416 188.327C416.965 188.33 415.792 189.985 415.797 192.024L415.893 238.412L421.147 238.401L421.051 192.013C421.047 189.974 419.867 188.324 418.416 188.327Z" fill="#BEC6F4"/>
<path id="Vector_145" d="M410.365 173.243C408.915 173.246 407.742 174.901 407.746 176.94L407.873 238.428L413.128 238.418L413 176.929C412.996 174.89 411.816 173.24 410.365 173.243Z" fill="#4B51E5"/>
<path id="Vector_146" d="M403.51 200.339C402.059 200.342 400.886 201.997 400.89 204.036L400.962 238.443L406.216 238.432L406.145 204.025C406.141 201.986 404.961 200.336 403.51 200.339Z" fill="#8E95EF"/>
<path id="Vector_147" d="M445.522 188.272C444.071 188.275 442.898 189.93 442.902 191.968L442.998 238.356L448.253 238.346L448.157 191.957C448.153 189.919 446.973 188.269 445.522 188.272Z" fill="#BEC6F4"/>
<path id="Vector_148" d="M437.469 173.188C436.018 173.191 434.845 174.846 434.849 176.884L434.977 238.373L440.231 238.362L440.104 176.874C440.1 174.835 438.92 173.185 437.469 173.188Z" fill="#4B51E5"/>
<path id="Vector_149" d="M430.611 200.283C429.161 200.286 427.988 201.941 427.992 203.98L428.063 238.387L433.318 238.377L433.247 203.969C433.242 201.931 432.062 200.28 430.611 200.283Z" fill="#8E95EF"/>
<path id="Vector_150" d="M472.764 188.216C471.313 188.219 470.14 189.874 470.144 191.912L470.24 238.301L475.495 238.29L475.399 191.902C475.395 189.863 474.215 188.213 472.764 188.216Z" fill="#BEC6F4"/>
<path id="Vector_151" d="M464.711 173.132C463.26 173.135 462.087 174.79 462.092 176.829L462.219 238.317L467.474 238.307L467.346 176.818C467.342 174.779 466.162 173.129 464.711 173.132Z" fill="#4B51E5"/>
<path id="Vector_152" d="M457.852 200.228C456.401 200.23 455.228 201.885 455.232 203.924L455.304 238.331L460.558 238.321L460.487 203.913C460.483 201.875 459.303 200.225 457.852 200.228Z" fill="#8E95EF"/>
<path id="Vector_153" d="M480.531 200.181C479.081 200.184 477.908 201.839 477.912 203.877L477.983 238.285L483.238 238.274L483.166 203.867C483.162 201.828 481.982 200.178 480.531 200.181Z" fill="#8E95EF"/>
</g>
<g id="Group_36">
<path id="Vector_154" d="M520.493 237.537L490.497 237.599L498.426 208.536C495.801 207.812 493.089 207.447 490.364 207.453C482.35 207.509 474.687 210.711 469.061 216.353C463.434 221.995 460.305 229.616 460.361 237.539C460.361 237.58 460.364 237.619 460.364 237.661L460.362 237.661C460.44 245.503 463.651 252.997 469.294 258.51C474.937 264.022 482.555 267.106 490.488 267.09C498.422 267.073 506.027 263.958 511.647 258.423C517.267 252.887 520.447 245.38 520.493 237.537L520.493 237.537Z" fill="#4B51E5"/>
<path id="Vector_155" d="M502.142 205.613L494.091 234.668L524.174 234.606C524.188 228.063 522.046 221.693 518.07 216.461C514.095 211.23 508.503 207.421 502.142 205.613V205.613Z" fill="#BEC6F4"/>
</g>
</g>
</g>
</g>
</svg>
