<svg xmlns="http://www.w3.org/2000/svg" viewBox="0 0 645.77 162.66"><defs><style>.cls-1{fill:#5559d9;}</style></defs><g id="Layer_2" data-name="Layer 2"><g id="Layer_1-2" data-name="Layer 1"><g id="Layer_2-2" data-name="Layer 2-2"><path class="cls-1" d="M242.27,0c.91,2,3,3.67,1.71,6.35S240.06,9,237.57,9H193.25c-3.06,0-6.34.12-6.4,4.16-.1,4.2,3.13,4.85,6.4,4.8h6.4c3.2,0,7.07-.55,6.95,4.43s-4,4.19-7.19,4.21H182c-1.83,0-3.66.1-4.8,1.9a4.52,4.52,0,0,0,1,6.14,4.07,4.07,0,0,0,2.46.8c5.78.19,11.58.09,17.38.1,3.17,0,6.08.62,5.9,4.75-.15,3.72-2.82,4.47-5.87,4.3h-1.37c-13,0-12.47.25-17,13.44-5.28,15.3-11.69,30.2-17.6,45.28-6.83,17.41-13.77,34.78-20.4,52.28-1.44,3.81-3.34,4.48-6.87,3.71-13.5-2.93-22.05-12.86-24.33-27.81-4.57-29.84-9.3-59.62-14-89.4-2-.29-1.42,1.38-1.75,2.21q-22.06,56.16-44,112.41c-1.16,3-2.84,3.18-5.29,2.86C33.07,157.89,23.07,148,20.85,135.11c-5-30.57-9.66-61.25-14.45-91.9Q3.73,26.65,1,10c-.13-.86.09-2-1-2.37Q0,0,7.32,0H24.69c2.74,1.9,4.87,4,5.36,7.69q5.91,44,12,87.9c1,7.19,2.12,14.34,2.56,21.7,1.73-3.49,2.74-7.08,4.08-10.53C61.07,75.2,73.57,43.64,85.86,12c2-5.08,4-9.76,9.25-12H107c4.23,1.8,6.08,5.15,6.46,9.81.32,3.94,1.18,7.82,1.83,11.72q7.48,48.24,15,96.32c1.83-5.29,3.52-10.81,5.49-16.18C146.87,71.39,158.21,41.26,169.26,11c1.83-5,4.32-8.81,9-11h64Zm-2.41,30.74c2.67-.1,4.52-1.61,4.55-4.58s-1.88-4.5-4.53-4.53q-9.57-.12-19.14,0a4.18,4.18,0,0,0-4.54,4.54c0,2.93,1.82,4.49,4.51,4.58,3.12.11,6.23,0,9.38,0s6.56.1,9.8,0Zm22.38-4.68c0-4.63-3.25-4.44-6.25-4.48-3.28,0-6.9-.45-7.4,4.44-.26,2.41,1.31,4,3.46,4.57a17.15,17.15,0,0,0,3.65.24c3.15-.13,6.56.19,6.56-4.77Z"/><path class="cls-1" d="M228.25,162.66a40.7,40.7,0,0,1-20.54-5.27A39.7,39.7,0,0,1,193,142.82a41.24,41.24,0,0,1-5.51-21.39A45.89,45.89,0,0,1,215.32,79a44.32,44.32,0,0,1,17.74-3.57,41.23,41.23,0,0,1,20.85,5.27,39.43,39.43,0,0,1,14.65,14.5A40.83,40.83,0,0,1,274,116.31a45.43,45.43,0,0,1-3.57,18,47.22,47.22,0,0,1-9.92,14.81,46,46,0,0,1-14.57,10A43.89,43.89,0,0,1,228.25,162.66Zm0-13.95a27.58,27.58,0,0,0,15.5-4.5,32,32,0,0,0,10.77-11.85,33.66,33.66,0,0,0,4-16.2,28.56,28.56,0,0,0-3.26-13.8,24,24,0,0,0-9-9.45,25.28,25.28,0,0,0-13.21-3.38A27.63,27.63,0,0,0,217.79,94a31.43,31.43,0,0,0-10.85,11.7,33.21,33.21,0,0,0-4,16.12,29.09,29.09,0,0,0,3.26,13.87,24.24,24.24,0,0,0,22,13.1Z"/><path class="cls-1" d="M281.84,158.14l11.62-83.55h14.42l-2.17,15.35-1.4-2.17a26.53,26.53,0,0,1,10.54-10.62A31.76,31.76,0,0,1,330,73.66h5.12l-2,13.8h-7.29A21,21,0,0,0,311,93.12q-6,5.66-7.75,16.81l-6.67,48.21Z"/><path class="cls-1" d="M335.93,158.14,352.36,40.8h14.73l-11.16,80.45-7.13-1.38,50.53-45.26h19.84l-36.89,33.64,27.28,49.91H393.28l-24.95-45.29,8.37-.47L348.64,138l6.36-10.7-4.34,30.85Z"/><path class="cls-1" d="M457.14,159.07q-12.4,0-18.29-7.13t-4.18-20l6-43.55H425.52l2-13.8h2.79A13.43,13.43,0,0,0,439.76,71a14.81,14.81,0,0,0,4.67-9.16l.93-6.51h14.73l-2.64,19.22H475.9l-2,13.8H455.44l-6.2,44a18.23,18.23,0,0,0,.15,7.21,7.49,7.49,0,0,0,3.41,4.65q2.64,1.62,7.6,1.62,1.39,0,3-.15c1.07-.1,2.09-.21,3-.31l-1.08,12.86a16.52,16.52,0,0,1-4.42.7C459.34,159,458.07,159.07,457.14,159.07Z"/><path class="cls-1" d="M523.64,160a39.64,39.64,0,0,1-20.54-5.27,37.14,37.14,0,0,1-14-14.49,43.13,43.13,0,0,1-5-21,48.67,48.67,0,0,1,3.26-17.82,47.78,47.78,0,0,1,9.14-14.88,42.38,42.38,0,0,1,13.8-10.15,40.65,40.65,0,0,1,17.2-3.65q11.94,0,20.15,5.27a35.29,35.29,0,0,1,12.56,13.72,39.77,39.77,0,0,1,4.34,18.37,35.91,35.91,0,0,1-.47,5.58c-.31,2-.62,3.67-.93,5.11h-68.5l.78-12.55h60.29l-7.44,5.42a22.44,22.44,0,0,0-.16-14.1,20.6,20.6,0,0,0-7.82-10.15,22.24,22.24,0,0,0-12.94-3.8q-9.3,0-15.58,4.65A28.31,28.31,0,0,0,502.32,103a50.47,50.47,0,0,0-3.17,18.6,26.24,26.24,0,0,0,3.33,13.48,22.61,22.61,0,0,0,8.91,8.76,25.51,25.51,0,0,0,12.4,3,26.37,26.37,0,0,0,14.65-3.94,32.9,32.9,0,0,0,10-10l11.93,6.67A34.21,34.21,0,0,1,552,149.92a41.62,41.62,0,0,1-12.71,7.37A44.64,44.64,0,0,1,523.64,160Z"/><path class="cls-1" d="M569.05,158.14l1.55-12.27,57.82-62.46,2.47,5h-49.6l1.87-13.8h62.61l-1.55,12.26-57.5,62.46-2.33-5h51.93l-1.86,13.8Z"/></g></g></g></svg>