<svg width="789" height="168" viewBox="0 0 789 168" fill="none" xmlns="http://www.w3.org/2000/svg">
<path d="M111.5 57H171.5" stroke="#E94E32" stroke-width="3" stroke-dasharray="10 10"/>
<circle cx="56.5" cy="56.5" r="55" fill="white" stroke="#E94E32" stroke-width="3"/>
<path d="M52.9897 56H20.3452C19.6023 56 19 56.6023 19 57.3452V78.9678C19 79.7107 19.6023 80.313 20.3452 80.313H52.9897C53.7326 80.313 54.3349 79.7107 54.3349 78.9678V57.3452C54.3349 56.6023 53.7326 56 52.9897 56Z" fill="#E94E32" stroke="#E94E32" stroke-width="3" stroke-miterlimit="10"/>
<path d="M47.6225 54H43.3775C43.169 54 43 54.2131 43 54.4759V62.5241C43 62.7869 43.169 63 43.3775 63H47.6225C47.831 63 48 62.7869 48 62.5241V54.4759C48 54.2131 47.831 54 47.6225 54Z" fill="white"/>
<path d="M92.3237 55.687H59.6792C58.9363 55.687 58.334 56.2893 58.334 57.0322V78.6548C58.334 79.3977 58.9363 80 59.6792 80H92.3237C93.0666 80 93.6689 79.3977 93.6689 78.6548V57.0322C93.6689 56.2893 93.0666 55.687 92.3237 55.687Z" fill="#E94E32" stroke="#E94E32" stroke-width="3" stroke-miterlimit="10"/>
<path d="M88.6225 54H84.3775C84.169 54 84 54.2131 84 54.4759V62.5241C84 62.7869 84.169 63 84.3775 63H88.6225C88.831 63 89 62.7869 89 62.5241V54.4759C89 54.2131 88.831 54 88.6225 54Z" fill="white"/>
<path d="M72.1318 28H41.3452C40.6023 28 40 28.6023 40 29.3452V49.6904C40 50.4333 40.6023 51.0356 41.3452 51.0356H72.1318C72.8747 51.0356 73.477 50.4333 73.477 49.6904V29.3452C73.477 28.6023 72.8747 28 72.1318 28Z" fill="#E94E32" stroke="#E94E32" stroke-width="3" stroke-miterlimit="10"/>
<path d="M64.6016 26H60.3984C60.1784 26 60 26.1999 60 26.4465V33.5535C60 33.8001 60.1784 34 60.3984 34H64.6016C64.8216 34 65 33.8001 65 33.5535V26.4465C65 26.1999 64.8216 26 64.6016 26Z" fill="white"/>
<path d="M28.728 143V125.12H35.4C36.616 125.12 37.688 125.344 38.616 125.792C39.56 126.224 40.296 126.864 40.824 127.712C41.352 128.544 41.616 129.56 41.616 130.76C41.616 131.944 41.344 132.96 40.8 133.808C40.272 134.64 39.544 135.28 38.616 135.728C37.688 136.176 36.616 136.4 35.4 136.4H31.992V143H28.728ZM31.992 133.52H35.448C36.04 133.52 36.552 133.408 36.984 133.184C37.416 132.944 37.752 132.616 37.992 132.2C38.232 131.784 38.352 131.304 38.352 130.76C38.352 130.2 38.232 129.72 37.992 129.32C37.752 128.904 37.416 128.584 36.984 128.36C36.552 128.12 36.04 128 35.448 128H31.992V133.52ZM44.5065 143V124.832H47.6505V143H44.5065ZM54.9934 143.288C54.0814 143.288 53.2894 143.136 52.6174 142.832C51.9454 142.528 51.4254 142.096 51.0574 141.536C50.6894 140.96 50.5054 140.296 50.5054 139.544C50.5054 138.824 50.6654 138.184 50.9854 137.624C51.3054 137.048 51.8014 136.568 52.4734 136.184C53.1454 135.8 53.9934 135.528 55.0174 135.368L59.2894 134.672V137.072L55.6174 137.696C54.9934 137.808 54.5294 138.008 54.2254 138.296C53.9214 138.584 53.7694 138.96 53.7694 139.424C53.7694 139.872 53.9374 140.232 54.2734 140.504C54.6254 140.76 55.0574 140.888 55.5694 140.888C56.2254 140.888 56.8014 140.752 57.2974 140.48C57.8094 140.192 58.2014 139.8 58.4734 139.304C58.7614 138.808 58.9054 138.264 58.9054 137.672V134.312C58.9054 133.752 58.6814 133.288 58.2334 132.92C57.8014 132.536 57.2254 132.344 56.5054 132.344C55.8334 132.344 55.2334 132.528 54.7054 132.896C54.1934 133.248 53.8174 133.72 53.5774 134.312L51.0094 133.064C51.2654 132.376 51.6654 131.784 52.2094 131.288C52.7694 130.776 53.4254 130.376 54.1774 130.088C54.9294 129.8 55.7454 129.656 56.6254 129.656C57.6974 129.656 58.6414 129.856 59.4574 130.256C60.2734 130.64 60.9054 131.184 61.3534 131.888C61.8174 132.576 62.0494 133.384 62.0494 134.312V143H59.0734V140.768L59.7454 140.72C59.4094 141.28 59.0094 141.752 58.5454 142.136C58.0814 142.504 57.5534 142.792 56.9614 143C56.3694 143.192 55.7134 143.288 54.9934 143.288ZM65.4352 143V129.944H68.3872V132.512L68.1472 132.056C68.4512 131.272 68.9472 130.68 69.6352 130.28C70.3392 129.864 71.1552 129.656 72.0832 129.656C73.0432 129.656 73.8912 129.864 74.6272 130.28C75.3792 130.696 75.9632 131.28 76.3792 132.032C76.7952 132.768 77.0032 133.624 77.0032 134.6V143H73.8592V135.344C73.8592 134.768 73.7472 134.272 73.5232 133.856C73.2992 133.44 72.9872 133.12 72.5872 132.896C72.2032 132.656 71.7472 132.536 71.2192 132.536C70.7072 132.536 70.2512 132.656 69.8512 132.896C69.4512 133.12 69.1392 133.44 68.9152 133.856C68.6912 134.272 68.5792 134.768 68.5792 135.344V143H65.4352Z" fill="white"/>
<path d="M195.896 143V128H191.264V125.12H203.744V128H199.184V143H195.896ZM204.522 143V129.944H207.474V132.848L207.234 132.416C207.538 131.44 208.01 130.76 208.65 130.376C209.306 129.992 210.09 129.8 211.002 129.8H211.77V132.584H210.642C209.746 132.584 209.026 132.864 208.482 133.424C207.938 133.968 207.666 134.736 207.666 135.728V143H204.522ZM217.939 143.288C217.027 143.288 216.235 143.136 215.563 142.832C214.891 142.528 214.371 142.096 214.003 141.536C213.635 140.96 213.451 140.296 213.451 139.544C213.451 138.824 213.611 138.184 213.931 137.624C214.251 137.048 214.747 136.568 215.419 136.184C216.091 135.8 216.939 135.528 217.963 135.368L222.235 134.672V137.072L218.563 137.696C217.939 137.808 217.475 138.008 217.171 138.296C216.867 138.584 216.715 138.96 216.715 139.424C216.715 139.872 216.883 140.232 217.219 140.504C217.571 140.76 218.003 140.888 218.515 140.888C219.171 140.888 219.747 140.752 220.243 140.48C220.755 140.192 221.147 139.8 221.419 139.304C221.707 138.808 221.851 138.264 221.851 137.672V134.312C221.851 133.752 221.627 133.288 221.179 132.92C220.747 132.536 220.171 132.344 219.451 132.344C218.779 132.344 218.179 132.528 217.651 132.896C217.139 133.248 216.763 133.72 216.523 134.312L213.955 133.064C214.211 132.376 214.611 131.784 215.155 131.288C215.715 130.776 216.371 130.376 217.123 130.088C217.875 129.8 218.691 129.656 219.571 129.656C220.643 129.656 221.587 129.856 222.403 130.256C223.219 130.64 223.851 131.184 224.299 131.888C224.763 132.576 224.995 133.384 224.995 134.312V143H222.019V140.768L222.691 140.72C222.355 141.28 221.955 141.752 221.491 142.136C221.027 142.504 220.499 142.792 219.907 143C219.315 143.192 218.659 143.288 217.939 143.288ZM234.669 143.288C233.373 143.288 232.205 142.992 231.165 142.4C230.141 141.792 229.333 140.976 228.741 139.952C228.149 138.912 227.853 137.744 227.853 136.448C227.853 135.152 228.149 133.992 228.741 132.968C229.333 131.944 230.141 131.136 231.165 130.544C232.205 129.952 233.373 129.656 234.669 129.656C235.597 129.656 236.461 129.824 237.261 130.16C238.061 130.48 238.749 130.928 239.325 131.504C239.917 132.064 240.341 132.736 240.597 133.52L237.837 134.72C237.597 134.064 237.189 133.536 236.613 133.136C236.053 132.736 235.405 132.536 234.669 132.536C233.981 132.536 233.365 132.704 232.821 133.04C232.293 133.376 231.877 133.84 231.573 134.432C231.269 135.024 231.117 135.704 231.117 136.472C231.117 137.24 231.269 137.92 231.573 138.512C231.877 139.104 232.293 139.568 232.821 139.904C233.365 140.24 233.981 140.408 234.669 140.408C235.421 140.408 236.077 140.208 236.637 139.808C237.197 139.408 237.597 138.872 237.837 138.2L240.597 139.448C240.341 140.184 239.925 140.848 239.349 141.44C238.773 142.016 238.085 142.472 237.285 142.808C236.485 143.128 235.613 143.288 234.669 143.288ZM243.462 143V124.832H246.606V136.736L245.406 136.376L251.55 129.944H255.462L250.638 135.2L255.558 143H251.958L247.686 136.232L249.558 135.848L245.622 140.072L246.606 138.152V143H243.462Z" fill="white"/>
<circle cx="395.5" cy="56.5" r="52" fill="white" stroke="#004ECB" stroke-width="3"/>
<path d="M386.304 41L371 57.8575L386.304 72.7854" stroke="#004ECB" stroke-width="6" stroke-miterlimit="10"/>
<path d="M405.582 72.7854L420.886 55.9279L405.582 41" stroke="#004ECB" stroke-width="6" stroke-miterlimit="10"/>
<path d="M370.128 143.288C368.848 143.288 367.664 143.056 366.576 142.592C365.504 142.128 364.56 141.48 363.744 140.648C362.944 139.816 362.32 138.84 361.872 137.72C361.424 136.6 361.2 135.376 361.2 134.048C361.2 132.72 361.416 131.496 361.848 130.376C362.296 129.24 362.92 128.264 363.72 127.448C364.536 126.616 365.488 125.976 366.576 125.528C367.664 125.064 368.848 124.832 370.128 124.832C371.408 124.832 372.552 125.048 373.56 125.48C374.584 125.912 375.448 126.488 376.152 127.208C376.856 127.912 377.36 128.688 377.664 129.536L374.736 130.904C374.4 130.008 373.832 129.272 373.032 128.696C372.232 128.104 371.264 127.808 370.128 127.808C369.008 127.808 368.016 128.072 367.152 128.6C366.304 129.128 365.64 129.856 365.16 130.784C364.696 131.712 364.464 132.8 364.464 134.048C364.464 135.296 364.696 136.392 365.16 137.336C365.64 138.264 366.304 138.992 367.152 139.52C368.016 140.048 369.008 140.312 370.128 140.312C371.264 140.312 372.232 140.024 373.032 139.448C373.832 138.856 374.4 138.112 374.736 137.216L377.664 138.584C377.36 139.432 376.856 140.216 376.152 140.936C375.448 141.64 374.584 142.208 373.56 142.64C372.552 143.072 371.408 143.288 370.128 143.288ZM386.68 143.288C385.4 143.288 384.232 142.992 383.176 142.4C382.136 141.808 381.304 141 380.68 139.976C380.072 138.952 379.768 137.784 379.768 136.472C379.768 135.16 380.072 133.992 380.68 132.968C381.304 131.944 382.136 131.136 383.176 130.544C384.216 129.952 385.384 129.656 386.68 129.656C387.96 129.656 389.12 129.952 390.16 130.544C391.2 131.136 392.024 131.944 392.632 132.968C393.256 133.976 393.568 135.144 393.568 136.472C393.568 137.784 393.256 138.952 392.632 139.976C392.008 141 391.176 141.808 390.136 142.4C389.096 142.992 387.944 143.288 386.68 143.288ZM386.68 140.408C387.384 140.408 388 140.24 388.528 139.904C389.072 139.568 389.496 139.104 389.8 138.512C390.12 137.904 390.28 137.224 390.28 136.472C390.28 135.704 390.12 135.032 389.8 134.456C389.496 133.864 389.072 133.4 388.528 133.064C388 132.712 387.384 132.536 386.68 132.536C385.96 132.536 385.328 132.712 384.784 133.064C384.24 133.4 383.808 133.864 383.488 134.456C383.184 135.032 383.032 135.704 383.032 136.472C383.032 137.224 383.184 137.904 383.488 138.512C383.808 139.104 384.24 139.568 384.784 139.904C385.328 140.24 385.96 140.408 386.68 140.408ZM402.504 143.288C401.24 143.288 400.112 142.992 399.12 142.4C398.128 141.792 397.344 140.968 396.768 139.928C396.192 138.888 395.904 137.736 395.904 136.472C395.904 135.192 396.192 134.04 396.768 133.016C397.344 131.992 398.128 131.176 399.12 130.568C400.128 129.96 401.248 129.656 402.48 129.656C403.472 129.656 404.352 129.856 405.12 130.256C405.904 130.64 406.52 131.184 406.968 131.888L406.488 132.536V124.832H409.632V143H406.656V140.48L406.992 141.104C406.544 141.808 405.92 142.352 405.12 142.736C404.32 143.104 403.448 143.288 402.504 143.288ZM402.84 140.408C403.56 140.408 404.192 140.24 404.736 139.904C405.28 139.568 405.704 139.104 406.008 138.512C406.328 137.92 406.488 137.24 406.488 136.472C406.488 135.72 406.328 135.048 406.008 134.456C405.704 133.848 405.28 133.376 404.736 133.04C404.192 132.704 403.56 132.536 402.84 132.536C402.136 132.536 401.504 132.712 400.944 133.064C400.384 133.4 399.944 133.864 399.624 134.456C399.32 135.032 399.168 135.704 399.168 136.472C399.168 137.24 399.32 137.92 399.624 138.512C399.944 139.104 400.384 139.568 400.944 139.904C401.504 140.24 402.136 140.408 402.84 140.408ZM419.229 143.288C417.885 143.288 416.709 142.984 415.701 142.376C414.693 141.768 413.909 140.944 413.349 139.904C412.789 138.864 412.509 137.712 412.509 136.448C412.509 135.136 412.789 133.976 413.349 132.968C413.925 131.944 414.701 131.136 415.677 130.544C416.669 129.952 417.773 129.656 418.989 129.656C420.013 129.656 420.909 129.824 421.677 130.16C422.461 130.496 423.125 130.96 423.669 131.552C424.213 132.144 424.629 132.824 424.917 133.592C425.205 134.344 425.349 135.16 425.349 136.04C425.349 136.264 425.333 136.496 425.301 136.736C425.285 136.976 425.245 137.184 425.181 137.36H415.101V134.96H423.405L421.917 136.088C422.061 135.352 422.021 134.696 421.797 134.12C421.589 133.544 421.237 133.088 420.741 132.752C420.261 132.416 419.677 132.248 418.989 132.248C418.333 132.248 417.749 132.416 417.237 132.752C416.725 133.072 416.333 133.552 416.061 134.192C415.805 134.816 415.709 135.576 415.773 136.472C415.709 137.272 415.813 137.984 416.085 138.608C416.373 139.216 416.789 139.688 417.333 140.024C417.893 140.36 418.533 140.528 419.253 140.528C419.973 140.528 420.581 140.376 421.077 140.072C421.589 139.768 421.989 139.36 422.277 138.848L424.821 140.096C424.565 140.72 424.165 141.272 423.621 141.752C423.077 142.232 422.429 142.608 421.677 142.88C420.941 143.152 420.125 143.288 419.229 143.288Z" fill="white"/>
<circle cx="565.5" cy="56.5" r="52" fill="white" stroke="#FFA000" stroke-width="3"/>
<path d="M562.5 62.5118C556.5 61.7118 549.667 64.8451 547 66.5118L540 77.0117V81.5117L543.5 84.5117L551.5 85.0117H572H586L590.5 83.5117L591.5 78.5117L588 70.5118C585 65.5118 578.5 55.6118 576.5 56.0118C574 56.5118 570 63.5118 562.5 62.5118Z" fill="#FFA000"/>
<path d="M591.373 76.218L571.344 44.1632V33.5648H573.763C574.62 33.5443 575.435 33.1894 576.034 32.5761C576.633 31.9628 576.968 31.1396 576.968 30.2824C576.968 29.4252 576.633 28.602 576.034 27.9886C575.435 27.3753 574.62 27.0205 573.763 27H558.132C557.275 27.0205 556.46 27.3753 555.862 27.9886C555.263 28.602 554.927 29.4252 554.927 30.2824C554.927 31.1396 555.263 31.9628 555.862 32.5761C556.46 33.1894 557.275 33.5443 558.132 33.5648H560.814V44.2679L540.85 76.218C540.321 77.0646 540.028 78.0374 540.002 79.0354C539.976 80.0334 540.217 81.0202 540.701 81.8933C541.185 82.7665 541.894 83.4942 542.754 84.0009C543.615 84.5075 544.595 84.7748 545.593 84.7747H586.63C587.628 84.7748 588.608 84.5076 589.468 84.0009C590.329 83.4942 591.038 82.7665 591.522 81.8933C592.006 81.0202 592.247 80.0334 592.221 79.0354C592.195 78.0374 591.902 77.0646 591.373 76.218V76.218Z" stroke="#FFA000" stroke-width="3" stroke-miterlimit="10"/>
<path d="M550.791 79.6494C552.448 79.6494 553.791 78.3063 553.791 76.6494C553.791 74.9926 552.448 73.6494 550.791 73.6494C549.134 73.6494 547.791 74.9926 547.791 76.6494C547.791 78.3063 549.134 79.6494 550.791 79.6494Z" fill="white" stroke="white" stroke-width="2" stroke-miterlimit="10"/>
<path d="M577.791 73.6494C579.448 73.6494 580.791 72.3063 580.791 70.6494C580.791 68.9926 579.448 67.6494 577.791 67.6494C576.134 67.6494 574.791 68.9926 574.791 70.6494C574.791 72.3063 576.134 73.6494 577.791 73.6494Z" fill="white" stroke="white" stroke-width="2" stroke-miterlimit="10"/>
<path d="M567.791 77.6494C568.896 77.6494 569.791 76.754 569.791 75.6494C569.791 74.5448 568.896 73.6494 567.791 73.6494C566.686 73.6494 565.791 74.5448 565.791 75.6494C565.791 76.754 566.686 77.6494 567.791 77.6494Z" fill="white"/>
<path d="M574.791 80.6494C575.896 80.6494 576.791 79.754 576.791 78.6494C576.791 77.5448 575.896 76.6494 574.791 76.6494C573.686 76.6494 572.791 77.5448 572.791 78.6494C572.791 79.754 573.686 80.6494 574.791 80.6494Z" fill="white"/>
<path d="M583.791 80.6494C584.896 80.6494 585.791 79.754 585.791 78.6494C585.791 77.5448 584.896 76.6494 583.791 76.6494C582.686 76.6494 581.791 77.5448 581.791 78.6494C581.791 79.754 582.686 80.6494 583.791 80.6494Z" fill="white"/>
<path d="M541.896 143V128H537.264V125.12H549.744V128H545.184V143H541.896ZM556.456 143.288C555.112 143.288 553.936 142.984 552.928 142.376C551.92 141.768 551.136 140.944 550.576 139.904C550.016 138.864 549.736 137.712 549.736 136.448C549.736 135.136 550.016 133.976 550.576 132.968C551.152 131.944 551.928 131.136 552.904 130.544C553.896 129.952 555 129.656 556.216 129.656C557.24 129.656 558.136 129.824 558.904 130.16C559.688 130.496 560.352 130.96 560.896 131.552C561.44 132.144 561.856 132.824 562.144 133.592C562.432 134.344 562.576 135.16 562.576 136.04C562.576 136.264 562.56 136.496 562.528 136.736C562.512 136.976 562.472 137.184 562.408 137.36H552.328V134.96H560.632L559.144 136.088C559.288 135.352 559.248 134.696 559.024 134.12C558.816 133.544 558.464 133.088 557.968 132.752C557.488 132.416 556.904 132.248 556.216 132.248C555.56 132.248 554.976 132.416 554.464 132.752C553.952 133.072 553.56 133.552 553.288 134.192C553.032 134.816 552.936 135.576 553 136.472C552.936 137.272 553.04 137.984 553.312 138.608C553.6 139.216 554.016 139.688 554.56 140.024C555.12 140.36 555.76 140.528 556.48 140.528C557.2 140.528 557.808 140.376 558.304 140.072C558.816 139.768 559.216 139.36 559.504 138.848L562.048 140.096C561.792 140.72 561.392 141.272 560.848 141.752C560.304 142.232 559.656 142.608 558.904 142.88C558.168 143.152 557.352 143.288 556.456 143.288ZM570.408 143.288C569.016 143.288 567.8 142.96 566.76 142.304C565.736 141.632 565.032 140.728 564.648 139.592L567 138.464C567.336 139.2 567.8 139.776 568.392 140.192C569 140.608 569.672 140.816 570.408 140.816C570.984 140.816 571.44 140.688 571.776 140.432C572.112 140.176 572.28 139.84 572.28 139.424C572.28 139.168 572.208 138.96 572.064 138.8C571.936 138.624 571.752 138.48 571.512 138.368C571.288 138.24 571.04 138.136 570.768 138.056L568.632 137.456C567.528 137.136 566.688 136.648 566.112 135.992C565.552 135.336 565.272 134.56 565.272 133.664C565.272 132.864 565.472 132.168 565.872 131.576C566.288 130.968 566.856 130.496 567.576 130.16C568.312 129.824 569.152 129.656 570.096 129.656C571.328 129.656 572.416 129.952 573.36 130.544C574.304 131.136 574.976 131.968 575.376 133.04L572.976 134.168C572.752 133.576 572.376 133.104 571.848 132.752C571.32 132.4 570.728 132.224 570.072 132.224C569.544 132.224 569.128 132.344 568.824 132.584C568.52 132.824 568.368 133.136 568.368 133.52C568.368 133.76 568.432 133.968 568.56 134.144C568.688 134.32 568.864 134.464 569.088 134.576C569.328 134.688 569.6 134.792 569.904 134.888L571.992 135.512C573.064 135.832 573.888 136.312 574.464 136.952C575.056 137.592 575.352 138.376 575.352 139.304C575.352 140.088 575.144 140.784 574.728 141.392C574.312 141.984 573.736 142.448 573 142.784C572.264 143.12 571.4 143.288 570.408 143.288ZM584.2 143.144C582.728 143.144 581.584 142.744 580.768 141.944C579.968 141.128 579.568 139.984 579.568 138.512V132.752H577.312V129.944H577.552C578.192 129.944 578.688 129.776 579.04 129.44C579.392 129.104 579.568 128.616 579.568 127.976V126.968H582.712V129.944H585.712V132.752H582.712V138.344C582.712 138.776 582.784 139.144 582.928 139.448C583.088 139.752 583.328 139.984 583.648 140.144C583.984 140.304 584.408 140.384 584.92 140.384C585.032 140.384 585.16 140.376 585.304 140.36C585.464 140.344 585.616 140.328 585.76 140.312V143C585.536 143.032 585.28 143.064 584.992 143.096C584.704 143.128 584.44 143.144 584.2 143.144Z" fill="white"/>
<path d="M694.728 143V125.12H701.376C702.592 125.12 703.664 125.344 704.592 125.792C705.536 126.224 706.272 126.864 706.8 127.712C707.328 128.544 707.592 129.56 707.592 130.76C707.592 131.992 707.296 133.04 706.704 133.904C706.128 134.768 705.344 135.408 704.352 135.824L708.456 143H704.76L700.368 135.152L702.48 136.4H697.992V143H694.728ZM697.992 133.52H701.424C702.016 133.52 702.528 133.408 702.96 133.184C703.392 132.944 703.728 132.616 703.968 132.2C704.208 131.784 704.328 131.304 704.328 130.76C704.328 130.2 704.208 129.72 703.968 129.32C703.728 128.904 703.392 128.584 702.96 128.36C702.528 128.12 702.016 128 701.424 128H697.992V133.52ZM716.277 143.288C714.933 143.288 713.757 142.984 712.749 142.376C711.741 141.768 710.957 140.944 710.397 139.904C709.837 138.864 709.557 137.712 709.557 136.448C709.557 135.136 709.837 133.976 710.397 132.968C710.973 131.944 711.749 131.136 712.725 130.544C713.717 129.952 714.821 129.656 716.037 129.656C717.061 129.656 717.957 129.824 718.725 130.16C719.509 130.496 720.173 130.96 720.717 131.552C721.261 132.144 721.677 132.824 721.965 133.592C722.253 134.344 722.397 135.16 722.397 136.04C722.397 136.264 722.381 136.496 722.349 136.736C722.333 136.976 722.293 137.184 722.229 137.36H712.149V134.96H720.453L718.965 136.088C719.109 135.352 719.069 134.696 718.845 134.12C718.637 133.544 718.285 133.088 717.789 132.752C717.309 132.416 716.725 132.248 716.037 132.248C715.381 132.248 714.797 132.416 714.285 132.752C713.773 133.072 713.381 133.552 713.109 134.192C712.853 134.816 712.757 135.576 712.821 136.472C712.757 137.272 712.861 137.984 713.133 138.608C713.421 139.216 713.837 139.688 714.381 140.024C714.941 140.36 715.581 140.528 716.301 140.528C717.021 140.528 717.629 140.376 718.125 140.072C718.637 139.768 719.037 139.36 719.325 138.848L721.869 140.096C721.613 140.72 721.213 141.272 720.669 141.752C720.125 142.232 719.477 142.608 718.725 142.88C717.989 143.152 717.173 143.288 716.277 143.288ZM725.26 143V124.832H728.404V143H725.26ZM737.979 143.288C736.635 143.288 735.459 142.984 734.451 142.376C733.443 141.768 732.659 140.944 732.099 139.904C731.539 138.864 731.259 137.712 731.259 136.448C731.259 135.136 731.539 133.976 732.099 132.968C732.675 131.944 733.451 131.136 734.427 130.544C735.419 129.952 736.523 129.656 737.739 129.656C738.763 129.656 739.659 129.824 740.427 130.16C741.211 130.496 741.875 130.96 742.419 131.552C742.963 132.144 743.379 132.824 743.667 133.592C743.955 134.344 744.099 135.16 744.099 136.04C744.099 136.264 744.083 136.496 744.051 136.736C744.035 136.976 743.995 137.184 743.931 137.36H733.851V134.96H742.155L740.667 136.088C740.811 135.352 740.771 134.696 740.547 134.12C740.339 133.544 739.987 133.088 739.491 132.752C739.011 132.416 738.427 132.248 737.739 132.248C737.083 132.248 736.499 132.416 735.987 132.752C735.475 133.072 735.083 133.552 734.811 134.192C734.555 134.816 734.459 135.576 734.523 136.472C734.459 137.272 734.563 137.984 734.835 138.608C735.123 139.216 735.539 139.688 736.083 140.024C736.643 140.36 737.283 140.528 738.003 140.528C738.723 140.528 739.331 140.376 739.827 140.072C740.339 139.768 740.739 139.36 741.027 138.848L743.571 140.096C743.315 140.72 742.915 141.272 742.371 141.752C741.827 142.232 741.179 142.608 740.427 142.88C739.691 143.152 738.875 143.288 737.979 143.288ZM750.875 143.288C749.963 143.288 749.171 143.136 748.499 142.832C747.827 142.528 747.307 142.096 746.939 141.536C746.571 140.96 746.387 140.296 746.387 139.544C746.387 138.824 746.547 138.184 746.867 137.624C747.187 137.048 747.683 136.568 748.355 136.184C749.027 135.8 749.875 135.528 750.899 135.368L755.171 134.672V137.072L751.499 137.696C750.875 137.808 750.411 138.008 750.107 138.296C749.803 138.584 749.651 138.96 749.651 139.424C749.651 139.872 749.819 140.232 750.155 140.504C750.507 140.76 750.939 140.888 751.451 140.888C752.107 140.888 752.683 140.752 753.179 140.48C753.691 140.192 754.083 139.8 754.355 139.304C754.643 138.808 754.787 138.264 754.787 137.672V134.312C754.787 133.752 754.563 133.288 754.115 132.92C753.683 132.536 753.107 132.344 752.387 132.344C751.715 132.344 751.115 132.528 750.587 132.896C750.075 133.248 749.699 133.72 749.459 134.312L746.891 133.064C747.147 132.376 747.547 131.784 748.091 131.288C748.651 130.776 749.307 130.376 750.059 130.088C750.811 129.8 751.627 129.656 752.507 129.656C753.579 129.656 754.523 129.856 755.339 130.256C756.155 130.64 756.787 131.184 757.235 131.888C757.699 132.576 757.931 133.384 757.931 134.312V143H754.955V140.768L755.627 140.72C755.291 141.28 754.891 141.752 754.427 142.136C753.963 142.504 753.435 142.792 752.843 143C752.251 143.192 751.595 143.288 750.875 143.288ZM766.285 143.288C764.893 143.288 763.677 142.96 762.637 142.304C761.613 141.632 760.909 140.728 760.525 139.592L762.877 138.464C763.213 139.2 763.677 139.776 764.269 140.192C764.877 140.608 765.549 140.816 766.285 140.816C766.861 140.816 767.317 140.688 767.653 140.432C767.989 140.176 768.157 139.84 768.157 139.424C768.157 139.168 768.085 138.96 767.941 138.8C767.813 138.624 767.629 138.48 767.389 138.368C767.165 138.24 766.917 138.136 766.645 138.056L764.509 137.456C763.405 137.136 762.565 136.648 761.989 135.992C761.429 135.336 761.149 134.56 761.149 133.664C761.149 132.864 761.349 132.168 761.749 131.576C762.165 130.968 762.733 130.496 763.453 130.16C764.189 129.824 765.029 129.656 765.973 129.656C767.205 129.656 768.293 129.952 769.237 130.544C770.181 131.136 770.853 131.968 771.253 133.04L768.853 134.168C768.629 133.576 768.253 133.104 767.725 132.752C767.197 132.4 766.605 132.224 765.949 132.224C765.421 132.224 765.005 132.344 764.701 132.584C764.397 132.824 764.245 133.136 764.245 133.52C764.245 133.76 764.309 133.968 764.437 134.144C764.565 134.32 764.741 134.464 764.965 134.576C765.205 134.688 765.477 134.792 765.781 134.888L767.869 135.512C768.941 135.832 769.765 136.312 770.341 136.952C770.933 137.592 771.229 138.376 771.229 139.304C771.229 140.088 771.021 140.784 770.605 141.392C770.189 141.984 769.613 142.448 768.877 142.784C768.141 143.12 767.277 143.288 766.285 143.288ZM780.317 143.288C778.973 143.288 777.797 142.984 776.789 142.376C775.781 141.768 774.997 140.944 774.437 139.904C773.877 138.864 773.597 137.712 773.597 136.448C773.597 135.136 773.877 133.976 774.437 132.968C775.013 131.944 775.789 131.136 776.765 130.544C777.757 129.952 778.861 129.656 780.077 129.656C781.101 129.656 781.997 129.824 782.765 130.16C783.549 130.496 784.213 130.96 784.757 131.552C785.301 132.144 785.717 132.824 786.005 133.592C786.293 134.344 786.437 135.16 786.437 136.04C786.437 136.264 786.421 136.496 786.389 136.736C786.373 136.976 786.333 137.184 786.269 137.36H776.189V134.96H784.493L783.005 136.088C783.149 135.352 783.109 134.696 782.885 134.12C782.677 133.544 782.325 133.088 781.829 132.752C781.349 132.416 780.765 132.248 780.077 132.248C779.421 132.248 778.837 132.416 778.325 132.752C777.813 133.072 777.421 133.552 777.149 134.192C776.893 134.816 776.797 135.576 776.861 136.472C776.797 137.272 776.901 137.984 777.173 138.608C777.461 139.216 777.877 139.688 778.421 140.024C778.981 140.36 779.621 140.528 780.341 140.528C781.061 140.528 781.669 140.376 782.165 140.072C782.677 139.768 783.077 139.36 783.365 138.848L785.909 140.096C785.653 140.72 785.253 141.272 784.709 141.752C784.165 142.232 783.517 142.608 782.765 142.88C782.029 143.152 781.213 143.288 780.317 143.288Z" fill="white"/>
<path d="M281.5 57H341.5" stroke="#00867D" stroke-width="3" stroke-dasharray="10 10"/>
<path d="M451.5 57H511.5" stroke="#2771E8" stroke-width="3" stroke-dasharray="10 10"/>
<path d="M621.5 57H681.5" stroke="#FFD590" stroke-width="3" stroke-dasharray="10 10"/>
<circle cx="225.5" cy="58.5" r="55" fill="white" stroke="#00867D" stroke-width="3"/>
<path d="M198.67 57.2981C200.395 57.2981 201.794 55.8997 201.794 54.1747C201.794 52.4497 200.395 51.0513 198.67 51.0513C196.945 51.0513 195.547 52.4497 195.547 54.1747C195.547 55.8997 196.945 57.2981 198.67 57.2981Z" fill="white"/>
<path d="M197.562 67.3232L198.799 68.8074L200.036 67.3339" stroke="#F37921" stroke-width="2" stroke-miterlimit="10"/>
<path d="M230.5 31L207 53.5" stroke="#00867D" stroke-width="2" stroke-dasharray="4 4"/>
<path d="M204.5 71.5L235 85.5" stroke="#00867D" stroke-width="2" stroke-dasharray="4 4"/>
<path d="M238 14C235.614 14.0028 233.326 14.9557 231.639 16.6496C229.952 18.3435 229.003 20.6402 229 23.0357C228.997 24.9934 229.634 26.8979 230.813 28.4571C230.813 28.4571 231.059 28.7816 231.099 28.8284L238 37L244.905 28.8243C244.941 28.7808 245.187 28.4571 245.187 28.4571L245.188 28.4547C246.366 26.8961 247.003 24.9925 247 23.0357C246.997 20.6402 246.048 18.3435 244.361 16.6496C242.674 14.9557 240.386 14.0028 238 14ZM238 26.3214C237.353 26.3214 236.72 26.1287 236.182 25.7677C235.644 25.4066 235.224 24.8935 234.976 24.2931C234.729 23.6927 234.664 23.0321 234.79 22.3947C234.916 21.7573 235.228 21.1719 235.686 20.7124C236.144 20.2528 236.727 19.9399 237.362 19.8131C237.996 19.6864 238.654 19.7514 239.252 20.0001C239.85 20.2488 240.362 20.6699 240.721 21.2103C241.081 21.7506 241.273 22.3859 241.273 23.0357C241.272 23.9068 240.926 24.7419 240.313 25.3579C239.699 25.9738 238.868 26.3203 238 26.3214Z" fill="#00867D"/>
<path d="M200 49C197.614 49.0028 195.326 49.9557 193.639 51.6496C191.952 53.3435 191.003 55.6402 191 58.0357C190.997 59.9934 191.634 61.8979 192.813 63.4571C192.813 63.4571 193.059 63.7816 193.099 63.8284L200 72L206.905 63.8243C206.941 63.7808 207.187 63.4571 207.187 63.4571L207.188 63.4547C208.366 61.8961 209.003 59.9925 209 58.0357C208.997 55.6402 208.048 53.3435 206.361 51.6496C204.674 49.9557 202.386 49.0028 200 49ZM200 61.3214C199.353 61.3214 198.72 61.1287 198.182 60.7677C197.644 60.4066 197.224 59.8935 196.976 59.2931C196.729 58.6927 196.664 58.0321 196.79 57.3947C196.916 56.7573 197.228 56.1719 197.686 55.7124C198.144 55.2528 198.727 54.9399 199.362 54.8131C199.996 54.6864 200.654 54.7514 201.252 55.0001C201.85 55.2488 202.362 55.6699 202.721 56.2103C203.081 56.7506 203.273 57.3859 203.273 58.0357C203.272 58.9068 202.926 59.7419 202.313 60.3579C201.699 60.9738 200.868 61.3203 200 61.3214Z" fill="#00867D"/>
<path d="M241 72C238.614 72.0028 236.326 72.9557 234.639 74.6496C232.952 76.3435 232.003 78.6402 232 81.0357C231.997 82.9934 232.634 84.8979 233.813 86.4571C233.813 86.4571 234.059 86.7816 234.099 86.8284L241 95L247.905 86.8243C247.941 86.7808 248.187 86.4571 248.187 86.4571L248.188 86.4547C249.366 84.8961 250.003 82.9925 250 81.0357C249.997 78.6402 249.048 76.3435 247.361 74.6496C245.674 72.9557 243.386 72.0028 241 72ZM241 84.3214C240.353 84.3214 239.72 84.1287 239.182 83.7677C238.644 83.4066 238.224 82.8935 237.976 82.2931C237.729 81.6927 237.664 81.0321 237.79 80.3947C237.916 79.7573 238.228 79.1719 238.686 78.7124C239.144 78.2528 239.727 77.9399 240.362 77.8131C240.996 77.6864 241.654 77.7514 242.252 78.0001C242.85 78.2488 243.362 78.6699 243.721 79.2103C244.081 79.7506 244.273 80.3859 244.273 81.0357C244.272 81.9068 243.926 82.7419 243.313 83.3579C242.699 83.9738 241.868 84.3203 241 84.3214Z" fill="#00867D"/>
<circle cx="735.5" cy="56.5" r="52" fill="white" stroke="#4CAF50" stroke-width="3"/>
<path d="M718 55.5529L739.485 34.6569C739.485 34.6569 750.08 24.2089 765.237 26.269C765.237 26.269 767.003 37.3057 757.732 50.2553L734.04 73.2115L718 55.5529Z" fill="#4CAF50" stroke="#4CAF50" stroke-width="3" stroke-miterlimit="10"/>
<path d="M719.781 59.5264L715.514 62.1753L728.463 75.2721L730.634 69.6071" fill="#4CAF50"/>
<path d="M719.781 59.5264L715.514 62.1753L728.463 75.2721L730.634 69.6071" stroke="#4CAF50" stroke-width="3" stroke-miterlimit="10"/>
<path d="M747.512 60.0303L746.122 71.2985L735.527 81.5993L733.908 73.2114" fill="#4CAF50"/>
<path d="M747.512 60.0303L746.122 71.2985L735.527 81.5993L733.908 73.2114" stroke="#4CAF50" stroke-width="3" stroke-miterlimit="10"/>
<path d="M710.856 73.6539L706.832 77.6773C706.373 78.1371 706.14 78.65 706.313 78.823L706.313 78.823C706.486 78.996 706.999 78.7635 707.459 78.3038L711.482 74.2803C711.942 73.8206 712.175 73.3077 712.002 73.1347C711.829 72.9617 711.316 73.1942 710.856 73.6539Z" fill="#AC0800" stroke="#4CAF50" stroke-miterlimit="10"/>
<path d="M719.318 71.2739L709.776 80.8165C709.316 81.2762 709.079 81.7842 709.246 81.9511L709.246 81.9511C709.412 82.118 709.92 81.8806 710.38 81.4208L719.923 71.8782C720.382 71.4185 720.62 70.9105 720.453 70.7436C720.286 70.5767 719.778 70.8141 719.318 71.2739Z" fill="#AC0800" stroke="#4CAF50" stroke-miterlimit="10"/>
<path d="M722.237 74.6104L718.213 78.6339C717.754 79.0936 717.546 79.6314 717.75 79.8352L717.75 79.8352C717.953 80.0389 718.491 79.8313 718.951 79.3716L722.974 75.3481C723.434 74.8884 723.642 74.3506 723.438 74.1468C723.234 73.9431 722.696 74.1507 722.237 74.6104Z" fill="#AC0800" stroke="#4CAF50" stroke-miterlimit="10"/>
<path d="M715.758 68.7506L716.398 68.1109C716.507 68.0015 716.624 67.9017 716.741 67.8169C716.858 67.7322 716.974 67.6643 717.081 67.617C717.189 67.5698 717.286 67.5441 717.367 67.5416C717.448 67.539 717.511 67.5596 717.554 67.6021C717.64 67.6879 717.634 67.8579 717.539 68.0747C717.444 68.2915 717.266 68.5373 717.045 68.7581L716.405 69.3978C716.185 69.6186 715.939 69.7962 715.722 69.8917C715.505 69.9871 715.335 69.9925 715.249 69.9066C715.164 69.8208 715.169 69.6508 715.264 69.434C715.36 69.2172 715.537 68.9713 715.758 68.7506Z" fill="#AC0800" stroke="#4CAF50" stroke-miterlimit="10"/>
<path d="M712.915 71.2353C713.031 71.1186 713.19 71.053 713.355 71.053C713.52 71.053 713.678 71.1186 713.795 71.2353C713.911 71.352 713.977 71.5102 713.977 71.6753C713.977 71.8403 713.911 71.9986 713.795 72.1153C713.678 72.232 713.52 72.2976 713.355 72.2976C713.19 72.2976 713.031 72.232 712.915 72.1153C712.857 72.0575 712.811 71.9889 712.78 71.9134C712.748 71.8379 712.732 71.757 712.732 71.6753C712.732 71.5936 712.748 71.5127 712.78 71.4372C712.811 71.3616 712.857 71.293 712.915 71.2353L712.915 71.2353Z" fill="#4CAF50" stroke="#4CAF50" stroke-miterlimit="10"/>
<path d="M714.758 82.2672L715.398 81.6275C715.507 81.5181 715.624 81.4183 715.741 81.3335C715.858 81.2488 715.974 81.1809 716.081 81.1336C716.189 81.0864 716.286 81.0607 716.367 81.0582C716.448 81.0556 716.511 81.0762 716.554 81.1187C716.64 81.2045 716.634 81.3745 716.539 81.5913C716.444 81.8081 716.266 82.0539 716.045 82.2747L715.405 82.9144C715.185 83.1352 714.939 83.3128 714.722 83.4083C714.505 83.5037 714.335 83.5091 714.249 83.4232C714.164 83.3374 714.169 83.1674 714.264 82.9506C714.36 82.7338 714.537 82.4879 714.758 82.2672Z" fill="#AC0800" stroke="#4CAF50" stroke-miterlimit="10"/>
<path d="M711.915 84.7514C712.031 84.6347 712.19 84.5691 712.355 84.5691C712.52 84.5691 712.678 84.6347 712.795 84.7514C712.911 84.8681 712.977 85.0264 712.977 85.1914C712.977 85.3565 712.911 85.5147 712.795 85.6314C712.678 85.7481 712.52 85.8137 712.355 85.8137C712.19 85.8137 712.031 85.7481 711.915 85.6314C711.857 85.5737 711.811 85.5051 711.78 85.4296C711.748 85.354 711.732 85.2731 711.732 85.1914C711.732 85.1097 711.748 85.0288 711.78 84.9533C711.811 84.8778 711.857 84.8092 711.915 84.7514L711.915 84.7514Z" fill="#4CAF50" stroke="#4CAF50" stroke-miterlimit="10"/>
<path d="M753.824 24.8237C753.824 24.8237 753.823 38.8654 766.678 35.2366" stroke="white" stroke-width="2" stroke-miterlimit="10"/>
<path d="M744.746 52.2612C748.104 52.2612 750.826 49.5391 750.826 46.1814C750.826 42.8236 748.104 40.1016 744.746 40.1016C741.388 40.1016 738.666 42.8236 738.666 46.1814C738.666 49.5391 741.388 52.2612 744.746 52.2612Z" fill="white" stroke="white" stroke-width="2" stroke-miterlimit="10"/>
<path d="M730.634 43.1372L719.781 44.3693L709.039 54.8173L718.707 56.4762" fill="#4CAF50"/>
<path d="M730.634 43.1372L719.781 44.3693L709.039 54.8173L718.707 56.4762" stroke="#4CAF50" stroke-width="3" stroke-miterlimit="10"/>
</svg>
